<?xml version="1.0" encoding="UTF-8"?>
<!DOCTYPE svg PUBLIC "-//W3C//DTD SVG 1.1//EN" "http://www.w3.org/Graphics/SVG/1.1/DTD/svg11.dtd">
<!-- Creator: CorelDRAW -->
<svg xmlns="http://www.w3.org/2000/svg" xml:space="preserve" width="59.24mm" height="17.4437mm" version="1.1" style="shape-rendering:geometricPrecision; text-rendering:geometricPrecision; image-rendering:optimizeQuality; fill-rule:evenodd; clip-rule:evenodd"
viewBox="0 0 736.34 216.82"
 xmlns:xlink="http://www.w3.org/1999/xlink"
 xmlns:xodm="http://www.corel.com/coreldraw/odm/2003">
 <defs>
  <style type="text/css">
   <![CDATA[
    .fil1 {fill:#28373B;fill-rule:nonzero}
    .fil0 {fill:url(#id0)}
   ]]>
  </style>
  <linearGradient id="id0" gradientUnits="userSpaceOnUse" x1="35.96" y1="203.45" x2="150.92" y2="-31.99">
   <stop offset="0" style="stop-opacity:1; stop-color:#0072A7"/>
   <stop offset="0.54902" style="stop-opacity:1; stop-color:#4EB5CB"/>
   <stop offset="0.760784" style="stop-opacity:1; stop-color:#4EB8CB"/>
   <stop offset="1" style="stop-opacity:1; stop-color:#65BFBA"/>
  </linearGradient>
 </defs>
 <g id="Capa_x0020_1">
  <metadata id="CorelCorpID_0Corel-Layer"/>
  <path class="fil0" d="M102.46 213.98l0 -0.01 -0.02 0 -0.91 -0.58 0 -0.04 -0.07 0 -0.86 -0.56 0 -0.06 -0.1 0 -0.83 -0.55 0 -0.07 -0.11 0 -0.82 -0.54 0 -0.08 -0.11 0 -0.82 -0.55 0 -0.07 -0.1 0 -0.83 -0.57 0 -0.06 -0.08 0 -0.85 -0.59 0 -0.03 -0.05 0 -0.89 -0.62c-1.15,-0.81 -2.29,-1.64 -3.41,-2.47l0 -0.01 -0.01 0 -0.3 -0.22 0 -0.09 -0.12 0 -0.81 -0.61 0 -0.01 -0.01 0 -0.29 -0.22 0 -0.09 -0.12 0 -1.13 -0.86 0 -0.07 -0.09 0c-0.39,-0.3 -0.77,-0.6 -1.15,-0.9l0 -0.03 -0.04 0 -0.27 -0.21 0 -0.1 -0.12 0 -1.12 -0.89 0 -0.04 -0.05 0c-1.35,-1.09 -2.69,-2.19 -4.01,-3.31 -2.99,-2.54 -14.65,4.66 -28.74,11.99l102 -101.81 -8.96 -6.53 -0 0 -23.82 -17.36 2.09 -2.51 0 0 0 -0 54.59 -65.65c10.29,2.5 18.14,4.05 23.96,5.71l0 0.01 0.05 0c1.71,0.49 3.24,0.98 4.61,1.52l0 0.04 0.09 0c0.51,0.2 1,0.4 1.46,0.62l0 0 0.01 0c0.43,0.2 0.84,0.4 1.23,0.6l0 0.02 0.03 0c0.54,0.29 1.05,0.6 1.52,0.92l0 0.01 0.02 0c0.56,0.38 1.07,0.79 1.53,1.22l0 0.02 0.02 0c0.1,0.09 0.19,0.18 0.28,0.27l0 0.04 0.04 0c0.09,0.1 0.18,0.2 0.27,0.3l0 0.01 0.01 0c0.34,0.37 0.64,0.76 0.92,1.18l0 0.07 0.05 0c0.95,1.45 1.54,3.18 1.82,5.3l0 0.29 0.04 0c0.21,1.86 0.19,4 -0.03,6.52l-0 0 0 0.05c-0.08,0.87 -0.18,1.79 -0.31,2.75l-0 0 0 0c-0.17,1.26 -0.37,2.6 -0.62,4.03l-0 0 0 0.03c-0.18,1.08 -0.39,2.21 -0.62,3.39l-0.01 0 0 0.03 -0.3 1.52 -0.01 0 0 0.07 -0.3 1.48 -0.01 0 0 0.07 -0.31 1.49 -0 0 0 0.02c-0.52,2.49 -1.1,5.18 -1.75,8.1 -1.12,5.07 -2.4,10.13 -3.83,15.17l-0.01 0 0 0.03 -0.26 0.9 -0.05 0 0 0.19 -0.3 1.05 -0.01 0 0 0.02 -0.27 0.91 -0.04 0 0 0.14c-0.2,0.68 -0.4,1.36 -0.61,2.04l-0.01 0 0 0.03c-1.59,5.2 -3.34,10.37 -5.24,15.49l-0.03 0 0 0.09c-0.3,0.8 -0.6,1.6 -0.91,2.39l-0.02 0 0 0.07 -0.57 1.49 -0.05 0 0 0.12c-0.8,2.04 -1.62,4.07 -2.47,6.09l-0.02 0 0 0.04c-0.3,0.71 -0.6,1.42 -0.9,2.13l-0.03 0 0 0.06c-0.3,0.7 -0.61,1.41 -0.91,2.11l-0.02 0 0 0.04 -0.26 0.58 -0.05 0 0 0.11c-0.31,0.69 -0.61,1.37 -0.92,2.06l-0.01 0 0 0.02 -0.28 0.6 -0.03 0 0 0.07c-0.61,1.33 -1.22,2.65 -1.85,3.96l-0.01 0 0 0.03 -0.28 0.6 -0.03 0 0 0.06 -0.27 0.56 -0.04 0 0 0.07 -0.27 0.55 -0.04 0 0 0.09 -0.26 0.53 -0.05 0 0 0.11 -0.25 0.51 -0.06 0 0 0.12 -0.25 0.5 -0.06 0 0 0.12 -0.25 0.5 -0.06 0 0 0.12 -0.25 0.5 -0.06 0 0 0.12c-1.19,2.36 -2.41,4.7 -3.67,7.02l-0.05 0 0 0.1 -0.29 0.53 -0.02 0 0 0.04c-0.39,0.71 -0.78,1.42 -1.18,2.13l-0.06 0 0 0.12 -0.28 0.5 -0.03 0 0 0.05c-0.81,1.44 -1.64,2.87 -2.48,4.3l-0.01 0 0 0.01c-0.3,0.51 -0.6,1.03 -0.91,1.54l-0.02 0 0 0.04c-0.3,0.51 -0.61,1.01 -0.92,1.52l-0.01 0 0 0.02 -0.55 0.91 -0.07 0 0 0.11c-0.3,0.48 -0.6,0.96 -0.9,1.44l-0.03 0 0 0.05c-0.51,0.81 -1.02,1.63 -1.54,2.43l-0.01 0 0 0.02c-0.8,1.24 -1.6,2.48 -2.43,3.71l-0.06 0 0 0.09 -0.57 0.84 -0.05 0 0 0.07 -0.58 0.86 -0.04 0 0 0.06 -0.6 0.87 -0.02 0 0 0.03c-0.71,1.03 -1.43,2.05 -2.15,3.07l-0.02 0 0 0.03c-0.51,0.72 -1.03,1.43 -1.55,2.14l-0 0 0 0.01c-0.3,0.41 -0.6,0.82 -0.9,1.23l-0.03 0 0 0.04c-0.3,0.4 -0.6,0.8 -0.9,1.2l-0.03 0 0 0.04c-0.3,0.4 -0.6,0.81 -0.9,1.2l-0.03 0 0 0.04c-0.31,0.4 -0.62,0.8 -0.93,1.21l-0 0 0 0 -0.24 0.31 -0.07 0 0 0.09 -0.89 1.15 -0.04 0 0 0.04c-0.81,1.03 -1.63,2.05 -2.45,3.06l-0.03 0 0 0.04c-0.5,0.61 -1,1.22 -1.5,1.82l-0.05 0 0 0.06c-0.5,0.6 -1.01,1.21 -1.52,1.8l-0.03 0 0 0.04 -0.23 0.27 -0.08 0 0 0.09c-0.51,0.59 -1.02,1.19 -1.53,1.77l-0.02 0 0 0.02 -0.26 0.29 -0.05 0 0 0.06c-0.72,0.81 -1.44,1.62 -2.17,2.42l-0.01 0 0 0.01 -0.27 0.3 -0.04 0 0 0.04c-1.42,1.56 -2.87,3.1 -4.34,4.62l-0.01 0 0 0.01 -0.29 0.3 -0.02 0 0 0.02 -0.28 0.29 -0.03 0 0 0.03 -0.27 0.28 -0.04 0 0 0.04 -0.27 0.27 -0.04 0 0 0.04 -0.27 0.27 -0.04 0 0 0.04c-0.71,0.71 -1.42,1.43 -2.14,2.13l-0.03 0 0 0.03 -0.28 0.28 -0.03 0 0 0.03 -0.29 0.28 -0.02 0 0 0.02 -0.3 0.29 -0.01 0 0 0.01 -0.31 0.29 -0 0 0 0c-1.2,1.15 -2.41,2.29 -3.63,3.41l-0.09 0 0 0.09 -0.24 0.22 -0.07 0 0 0.06 -0.28 0.25 -0.03 0 0 0.03c-0.91,0.83 -1.83,1.64 -2.76,2.45l-0.03 0 0 0.03c-0.59,0.51 -1.17,1.02 -1.77,1.52l-0.1 0 0 0.08 -0.27 0.23 -0.04 0 0 0.03c-0.48,0.4 -0.95,0.81 -1.43,1.21l-0.12 0 0 0.1 -0.26 0.21 -0.05 0 0 0.04c-0.49,0.4 -0.97,0.8 -1.47,1.2l-0.09 0 0 0.07 -0.3 0.24 -0.01 0 0 0.01c-1.31,1.05 -2.63,2.08 -3.96,3.1l-0.07 0 0 0.06c-0.39,0.29 -0.78,0.58 -1.17,0.88l-0.07 0 0 0.06c-0.39,0.29 -0.78,0.59 -1.18,0.88l-0.06 0 0 0.05 -0.79 0.57 -0.14 0 0 0.1 -0.29 0.21 -0.02 0 0 0.01 -0.85 0.61 -0.08 0 0 0.06c-1.92,1.37 -3.88,2.69 -5.85,3.98l-0.05 0 0 0.03 -0.91 0.59 -0.02 0 0 0.01c-1.86,1.19 -3.73,2.35 -5.63,3.47l-3.37 0c-1.57,-0.92 -3.12,-1.87 -4.66,-2.84zm46.39 -203.03c-2.96,-0.48 -5.85,-0.9 -8.69,-1.28l-0.13 0 0 -0.02c-0.76,-0.1 -1.51,-0.2 -2.26,-0.29l-0.22 0 0 -0.03c-0.79,-0.1 -1.57,-0.19 -2.34,-0.28l-0.14 0 0 -0.02c-0.89,-0.1 -1.77,-0.2 -2.65,-0.29l-0.14 0 0 -0.01c-0.99,-0.1 -1.98,-0.2 -2.96,-0.29l-0.77 0 0 -0.07c-0.94,-0.08 -1.87,-0.17 -2.81,-0.24l-0.92 0 0 -0.07c-1.16,-0.09 -2.3,-0.17 -3.45,-0.24l-0.28 0 0 -0.02c-2.09,-0.13 -4.16,-0.22 -6.21,-0.29l-3.72 0 0 -0.09c-2.92,-0.05 -5.81,-0.04 -8.69,0.02l0 0.07 -2.43 0c-1.88,0.06 -3.76,0.15 -5.64,0.27l0 0.04 -0.74 0c-1.2,0.08 -2.41,0.16 -3.61,0.26l0 0.05 -0.65 0c-0.92,0.08 -1.84,0.16 -2.77,0.24l0 0.07 -0.69 0c-0.81,0.08 -1.61,0.16 -2.42,0.25l0 0.06 -0.57 0c-0.84,0.09 -1.69,0.19 -2.53,0.29l0 0.02 -0.15 0c-0.77,0.09 -1.55,0.19 -2.33,0.29l0 0.02 -0.13 0c-0.68,0.09 -1.36,0.18 -2.05,0.28l0 0.03 -0.25 0 -1.61 0.23 0 0.08 -0.54 0 -1.63 0.25 0 0.06 -0.41 0 -1.76 0.28 0 0.03 -0.19 0 -1.68 0.28 0 0.03 -0.2 0c-1.17,0.2 -2.34,0.4 -3.53,0.62l0 0.01 -0.03 0 -1.53 0.28 0 0.03 -0.16 0 -1.39 0.26 0 0.05 -0.26 0 -1.29 0.25 0 0.06 -0.32 0 -1.24 0.24 0 0.07 -0.34 0 -1.22 0.24 0 0.07 -0.33 0 -1.23 0.25 0 0.06 -0.28 0c-2.75,0.57 -5.56,1.18 -8.41,1.84l0 0.03 -0.12 0c-0.89,0.2 -1.78,0.41 -2.68,0.62l0 0.01 -0.02 0c-2.62,0.61 -5.29,1.25 -8.02,1.93 -5.66,1.4 -10.5,2.56 -14.63,3.64l0 0.02 -0.06 0c-2.39,0.63 -4.54,1.24 -6.46,1.85l0 0.01 -0.05 0c-1.58,0.5 -3.02,1.01 -4.3,1.55l0 0.01 -0.02 0c-1.41,0.58 -2.64,1.19 -3.71,1.85l0 0.01 -0.01 0c-0.32,0.2 -0.63,0.4 -0.92,0.6l0 0.02 -0.02 0c-1.13,0.81 -2.05,1.69 -2.77,2.69l0 0.1 -0.07 0c-0.33,0.46 -0.61,0.95 -0.86,1.46l0 0.09 -0.04 0c-0.09,0.2 -0.18,0.41 -0.27,0.62l0 0 0 0c-0.26,0.66 -0.47,1.37 -0.62,2.13l0 0.35 -0.07 0c-0.12,0.69 -0.2,1.43 -0.24,2.21l0 2.49c0.04,1.05 0.14,2.17 0.29,3.37l0.02 0 0 0.18c0.27,2.15 0.69,4.56 1.24,7.27l0 0 0 0.02c1,4.93 2.42,10.85 4.13,18.04 0.46,1.95 0.95,3.9 1.46,5.85l0 0 0 0.02c0.3,1.13 0.6,2.27 0.91,3.4l0.02 0 0 0.08c0.19,0.7 0.39,1.4 0.58,2.1l0.04 0 0 0.13c0.19,0.68 0.39,1.36 0.59,2.04l0.03 0 0 0.11c0.69,2.35 1.41,4.69 2.16,7.03l0.01 0 0 0.03 0.29 0.9 0.02 0 0 0.06 0.29 0.87 0.02 0 0 0.07 0.28 0.86 0.03 0 0 0.07 0.29 0.86 0.02 0 0 0.06 0.29 0.87 0.02 0 0 0.05 0.31 0.89 0 0 0 0.01c0.79,2.28 1.61,4.55 2.46,6.82l0.02 0 0 0.06 0.57 1.5 0.05 0 0 0.14 0.3 0.79 0.01 0 0 0.01 0.23 0.61 0.07 0 0 0.19 0.29 0.74 0.02 0 0 0.05 0.23 0.57 0.08 0 0 0.21 0.29 0.72 0.02 0 0 0.06 0.23 0.56 0.08 0 0 0.2 0.3 0.73 0.01 0 0 0.04 0.24 0.59 0.07 0 0 0.17 0.57 1.38 0.05 0 0 0.11 0.61 1.44 0.01 0 0 0.03c0.71,1.65 1.43,3.3 2.17,4.94l0.01 0 0 0.01 0.27 0.61 0.04 0 0 0.08 0.25 0.54 0.06 0 0 0.14 0.22 0.48 0.09 0 0 0.2 0.19 0.42 0.12 0 0 0.25 0.61 1.3 0.01 0 0 0.02 0.28 0.6 0.03 0 0 0.06 0.27 0.56 0.04 0 0 0.09 0.25 0.53 0.06 0 0 0.12 0.24 0.5 0.07 0 0 0.14 0.23 0.48 0.08 0 0 0.16 0.22 0.46 0.09 0 0 0.18 0.22 0.44 0.09 0 0 0.18c0.89,1.81 1.81,3.61 2.75,5.4l0.04 0 0 0.09 0.28 0.53 0.03 0 0 0.05 0.3 0.57 0.01 0 0 0.02 0.82 1.53 0.11 0 0 0.21 0.22 0.41 0.09 0 0 0.16 0.25 0.46 0.06 0 0 0.11 0.28 0.51 0.03 0 0 0.05 0.48 0.88 0.14 0 0 0.24 0.21 0.38 0.1 0 0 0.18 0.24 0.44 0.07 0 0 0.11 0.29 0.51 0.02 0 0 0.04 0.86 1.51 0.07 0 0 0.12 0.29 0.5 0.02 0 0 0.03c0.9,1.55 1.81,3.09 2.74,4.62l0.05 0 0 0.08 0.52 0.85 0.1 0 0 0.17 0.28 0.46 0.03 0 0 0.05 0.55 0.89 0.07 0 0 0.11 0.51 0.82 0.11 0 0 0.17 0.29 0.45 0.02 0 0 0.04 0.17 0.27 0.14 0 0 0.22 0.26 0.4 0.05 0 0 0.08 0.55 0.85 0.07 0 0 0.11 0.54 0.82 0.08 0 0 0.13 0.53 0.8 0.09 0 0 0.14 0.53 0.79 0.09 0 0 0.14c0.8,1.2 1.62,2.4 2.45,3.58l0.04 0 0 0.05 0.61 0.88 0.01 0 0 0.01 0.87 1.23 0.06 0 0 0.09 0.61 0.84 0.01 0 0 0.02 0.21 0.29 0.1 0 0 0.14 0.57 0.79 0.05 0 0 0.06 0.18 0.24 0.13 0 0 0.18 0.55 0.75 0.07 0 0 0.09 0.17 0.22 0.15 0 0 0.2 0.55 0.74 0.07 0 0 0.1 0.16 0.21 0.15 0 0 0.2 0.56 0.73 0.06 0 0 0.08 0.17 0.23 0.14 0 0 0.18 0.58 0.75 0.04 0 0 0.06 0.92 1.19 0.01 0 0 0.01c0.81,1.04 1.64,2.07 2.47,3.09l0.02 0 0 0.02c0.5,0.62 1.01,1.23 1.51,1.84l0.04 0 0 0.05c0.5,0.61 1.01,1.21 1.53,1.81l0.03 0 0 0.03c1.91,2.25 3.87,4.46 5.86,6.62l40.95 -68.74 -37.02 -23.89 0.45 -0.34 0 0 0 0 110.84 -82.9 8.37 -6.26c-13.1,4.51 -30.91,12.34 -39.28,10.95z"/>
  <path class="fil1" d="M259.8 50.74c0,-0.58 0.25,-1.08 0.74,-1.52 0.49,-0.43 1.05,-0.65 1.69,-0.65l32.08 0c0.56,0 1.09,0.18 1.58,0.54 0.49,0.36 0.77,0.9 0.84,1.62l0 8.67c0,0.72 -0.21,1.33 -0.63,1.84 -0.42,0.51 -1.02,0.76 -1.79,0.76l-9.5 0 0 57.21c0,0.51 -0.23,1.05 -0.69,1.62 -0.45,0.58 -0.96,0.87 -1.53,0.87l-8.55 0c-0.42,0 -0.92,-0.27 -1.47,-0.81 -0.57,-0.54 -0.85,-1.1 -0.85,-1.68l0 -57.21 -9.5 0c-0.63,0 -1.2,-0.23 -1.69,-0.71 -0.5,-0.47 -0.74,-1.1 -0.74,-1.89l0 -8.67z"/>
  <path class="fil1" d="M302.75 50.74c0,-0.58 0.2,-1.08 0.58,-1.52 0.38,-0.43 0.93,-0.65 1.64,-0.65l8.65 0c0.56,0 1.08,0.18 1.54,0.54 0.45,0.36 0.69,0.9 0.69,1.62l0 53.1c0,1.51 0.52,2.82 1.58,3.9 1.06,1.08 2.32,1.62 3.8,1.62 1.48,0 2.74,-0.54 3.79,-1.62 1.06,-1.09 1.59,-2.39 1.59,-3.9l0 -53.1c0,-1.45 0.77,-2.17 2.32,-2.17l8.76 0c0.57,0 1.04,0.2 1.43,0.6 0.38,0.4 0.58,0.92 0.58,1.57l0 53.1c0,2.6 -0.47,5.06 -1.42,7.37 -0.95,2.31 -2.27,4.33 -3.96,6.07 -1.69,1.74 -3.66,3.09 -5.91,4.07 -2.25,0.97 -4.65,1.46 -7.18,1.46 -2.53,0 -4.92,-0.49 -7.18,-1.46 -2.25,-0.98 -4.22,-2.33 -5.91,-4.07 -1.69,-1.73 -3.01,-3.76 -3.96,-6.07 -0.95,-2.31 -1.43,-4.77 -1.43,-7.37l0 -53.1z"/>
  <path class="fil1" d="M375.79 79.88c-1.69,-2.02 -2.94,-4.08 -3.74,-6.18 -0.81,-2.09 -1.22,-4.51 -1.22,-7.26 0,-2.6 0.48,-5.06 1.43,-7.37 0.95,-2.31 2.23,-4.33 3.85,-6.07 1.62,-1.73 3.55,-3.09 5.81,-4.06 2.25,-0.97 4.65,-1.46 7.18,-1.46 2.53,0 4.92,0.49 7.17,1.46 2.25,0.97 4.19,2.33 5.81,4.06 1.61,1.74 2.9,3.76 3.85,6.07 0.95,2.31 1.42,4.77 1.42,7.37l0 3.14c0,0.72 -0.25,1.3 -0.74,1.73 -0.5,0.44 -1.02,0.65 -1.59,0.65l-8.55 0c-0.57,0 -1.08,-0.2 -1.53,-0.6 -0.46,-0.4 -0.69,-0.96 -0.69,-1.68 0,-2.45 -0.28,-4.53 -0.84,-6.23 -0.56,-1.69 -2,-2.55 -4.32,-2.55 -1.48,0 -2.71,0.54 -3.69,1.63 -0.99,1.08 -1.48,2.38 -1.48,3.9 0,0.79 0.14,1.57 0.42,2.33 0.28,0.76 0.7,1.46 1.27,2.11l16.25 19.4c1.13,1.3 2.05,2.49 2.8,3.58 0.74,1.08 1.32,2.13 1.74,3.14 0.42,1.01 0.72,2.06 0.89,3.14 0.18,1.08 0.26,2.31 0.26,3.68 0,2.46 -0.47,4.84 -1.42,7.15 -0.95,2.31 -2.25,4.35 -3.9,6.12 -1.65,1.77 -3.61,3.18 -5.86,4.23 -2.25,1.05 -4.68,1.57 -7.28,1.57 -2.53,0 -4.93,-0.51 -7.18,-1.52 -2.25,-1.01 -4.22,-2.38 -5.91,-4.12 -1.69,-1.73 -3.01,-3.76 -3.96,-6.07 -0.95,-2.31 -1.43,-4.77 -1.43,-7.37l0 -3.46c0,-0.79 0.26,-1.37 0.79,-1.73 0.53,-0.36 1,-0.54 1.42,-0.54l8.65 0c1.06,0 1.67,0.59 1.85,1.78 0.17,1.19 0.35,2.49 0.52,3.9 0.18,1.41 0.58,2.69 1.22,3.85 0.63,1.16 1.97,1.73 4.01,1.73 1.48,0 2.74,-0.52 3.8,-1.57 1.06,-1.04 1.58,-2.36 1.58,-3.96 0,-0.72 -0.25,-1.48 -0.74,-2.27 -0.49,-0.79 -1.06,-1.58 -1.69,-2.38l-16.25 -19.29z"/>
  <path class="fil1" d="M414.72 50.95c0,-1.59 0.7,-2.38 2.11,-2.38l32.71 0c0.7,0 1.23,0.23 1.58,0.7 0.35,0.47 0.52,1.07 0.52,1.79l0 8.67c0,0.58 -0.21,1.1 -0.63,1.57 -0.42,0.48 -0.94,0.71 -1.58,0.71l-21.63 0 0 16.36 18.89 0c1.41,0 2.11,0.76 2.11,2.28l0 8.88c0,0.58 -0.16,1.1 -0.48,1.57 -0.31,0.47 -0.86,0.71 -1.63,0.71l-18.89 0 0 16.47 21.63 0c0.64,0 1.16,0.2 1.58,0.59 0.43,0.4 0.63,1 0.63,1.79l0 8.99c0,1.37 -0.7,2.06 -2.1,2.06l-32.71 0c-0.57,0 -1.06,-0.16 -1.48,-0.49 -0.42,-0.33 -0.63,-0.85 -0.63,-1.57l0 -68.7z"/>
  <path class="fil1" d="M460.21 66.45c0,-2.6 0.47,-5.06 1.42,-7.37 0.95,-2.31 2.27,-4.33 3.96,-6.07 1.69,-1.73 3.65,-3.09 5.91,-4.06 2.25,-0.97 4.64,-1.46 7.18,-1.46 2.53,0 4.92,0.49 7.18,1.46 2.25,0.97 4.22,2.33 5.91,4.06 1.69,1.74 3.01,3.76 3.96,6.07 0.95,2.31 1.42,4.77 1.42,7.37l0 3.25c0,0.58 -0.2,1.11 -0.58,1.57 -0.39,0.47 -0.93,0.7 -1.64,0.7l-8.65 0c-0.56,0 -1.07,-0.2 -1.53,-0.6 -0.46,-0.4 -0.69,-0.96 -0.69,-1.68l0 -3.25c0,-1.52 -0.53,-2.82 -1.58,-3.9 -1.06,-1.09 -2.32,-1.63 -3.8,-1.63 -1.48,0 -2.74,0.54 -3.8,1.63 -1.06,1.08 -1.58,2.38 -1.58,3.9l0 37.38c0,1.52 0.52,2.82 1.58,3.91 1.06,1.08 2.33,1.62 3.8,1.62 1.48,0 2.74,-0.54 3.8,-1.62 1.05,-1.09 1.58,-2.39 1.58,-3.91l0 -9.86 -3.38 0c-1.33,0 -2,-0.76 -2,-2.27l0 -8.89c0,-0.58 0.19,-1.1 0.58,-1.57 0.39,-0.47 0.97,-0.7 1.74,-0.7l13.82 0c0.63,0 1.18,0.18 1.64,0.54 0.46,0.36 0.69,0.94 0.69,1.74l0 21.02c0,2.6 -0.47,5.06 -1.42,7.37 -0.95,2.31 -2.27,4.34 -3.96,6.07 -1.69,1.73 -3.66,3.09 -5.91,4.06 -2.26,0.98 -4.65,1.46 -7.18,1.46 -2.53,0 -4.92,-0.49 -7.18,-1.46 -2.25,-0.97 -4.22,-2.33 -5.91,-4.06 -1.69,-1.73 -3.01,-3.76 -3.96,-6.07 -0.95,-2.31 -1.42,-4.77 -1.42,-7.37l0 -37.38z"/>
  <path class="fil1" d="M505.37 50.74c0,-0.58 0.2,-1.08 0.58,-1.52 0.39,-0.43 0.93,-0.65 1.63,-0.65l8.65 0c0.57,0 1.08,0.18 1.53,0.54 0.46,0.36 0.69,0.9 0.69,1.62l0 53.1c0,1.51 0.53,2.82 1.59,3.9 1.05,1.08 2.32,1.62 3.8,1.62 1.48,0 2.74,-0.54 3.8,-1.62 1.06,-1.09 1.59,-2.39 1.59,-3.9l0 -53.1c0,-1.45 0.77,-2.17 2.32,-2.17l8.76 0c0.56,0 1.04,0.2 1.42,0.6 0.38,0.4 0.58,0.92 0.58,1.57l0 53.1c0,2.6 -0.47,5.06 -1.42,7.37 -0.95,2.31 -2.27,4.33 -3.96,6.07 -1.69,1.74 -3.66,3.09 -5.91,4.07 -2.25,0.97 -4.64,1.46 -7.17,1.46 -2.53,0 -4.93,-0.49 -7.17,-1.46 -2.25,-0.98 -4.22,-2.33 -5.91,-4.07 -1.69,-1.73 -3.01,-3.76 -3.96,-6.07 -0.95,-2.31 -1.42,-4.77 -1.42,-7.37l0 -53.1z"/>
  <path class="fil1" d="M550.01 50.74c0,-1.23 0.67,-1.91 2.01,-2.06l16.46 -0.1c2.53,0 4.92,0.45 7.18,1.35 2.25,0.91 4.22,2.19 5.9,3.85 1.69,1.66 3.01,3.65 3.96,5.96 0.95,2.31 1.43,4.91 1.43,7.8l0 5.31c0,3.9 -0.67,7.01 -2.01,9.32 -1.33,2.32 -2.99,4.05 -4.96,5.2l8.76 31.32c0.07,0.22 0.11,0.54 0.11,0.98 0,0.72 -0.19,1.24 -0.58,1.57 -0.39,0.33 -0.86,0.49 -1.42,0.49l-9.39 0c-0.56,0 -0.95,-0.18 -1.16,-0.54 -0.21,-0.36 -0.39,-0.72 -0.52,-1.08l-8.12 -28.28 -4.54 0 0 27.42c0,0.58 -0.21,1.14 -0.63,1.68 -0.42,0.54 -0.95,0.81 -1.58,0.81l-8.54 0c-0.57,0 -1.09,-0.27 -1.59,-0.81 -0.49,-0.54 -0.74,-1.1 -0.74,-1.68l0 -68.48zm13.08 11.27l0 16.36 5.38 0c1.48,0 2.74,-0.54 3.8,-1.63 1.06,-1.09 1.58,-2.38 1.58,-3.9l0 -5.31c0,-1.52 -0.53,-2.82 -1.58,-3.91 -1.06,-1.08 -2.32,-1.62 -3.8,-1.62l-5.38 0z"/>
  <path class="fil1" d="M594.54 66.45c0,-2.6 0.48,-5.06 1.42,-7.37 0.95,-2.31 2.27,-4.33 3.96,-6.07 1.69,-1.73 3.66,-3.09 5.91,-4.06 2.25,-0.97 4.64,-1.46 7.17,-1.46 2.53,0 4.93,0.49 7.18,1.46 2.24,0.97 4.22,2.33 5.91,4.06 1.69,1.74 3.01,3.76 3.96,6.07 0.95,2.31 1.43,4.77 1.43,7.37l0 37.38c0,2.6 -0.47,5.06 -1.43,7.37 -0.95,2.31 -2.27,4.34 -3.96,6.07 -1.69,1.73 -3.66,3.09 -5.91,4.06 -2.25,0.98 -4.65,1.46 -7.18,1.46 -2.53,0 -4.92,-0.49 -7.17,-1.46 -2.25,-0.97 -4.22,-2.33 -5.91,-4.06 -1.69,-1.73 -3.01,-3.76 -3.96,-6.07 -0.95,-2.31 -1.42,-4.77 -1.42,-7.37l0 -37.38zm23.85 0c0,-1.52 -0.52,-2.82 -1.58,-3.9 -1.06,-1.09 -2.32,-1.63 -3.8,-1.63 -1.48,0 -2.74,0.54 -3.79,1.63 -1.06,1.08 -1.59,2.38 -1.59,3.9l0 37.38c0,1.52 0.53,2.82 1.59,3.91 1.05,1.08 2.32,1.62 3.79,1.62 1.48,0 2.74,-0.54 3.8,-1.62 1.06,-1.09 1.58,-2.39 1.58,-3.91l0 -37.38z"/>
  <path class="fil1" d="M672.81 88.12c-2.25,-6.14 -4.15,-11.34 -5.69,-15.61 -1.55,-4.26 -2.84,-7.76 -3.85,-10.51 -1.02,-2.74 -1.81,-4.87 -2.37,-6.39 -0.57,-1.52 -0.97,-2.65 -1.22,-3.41 -0.25,-0.76 -0.4,-1.21 -0.48,-1.36 -0.07,-0.14 -0.1,-0.25 -0.1,-0.32 -0.14,-0.51 -0.04,-0.96 0.31,-1.36 0.35,-0.4 0.81,-0.59 1.38,-0.59l10.01 0c0.35,0 0.69,0.09 1.01,0.27 0.32,0.18 0.54,0.45 0.69,0.81l6.75 22 7.06 -22c0.07,-0.22 0.21,-0.45 0.42,-0.71 0.21,-0.25 0.49,-0.38 0.85,-0.38l10.12 0c0.56,0 0.98,0.24 1.27,0.7 0.28,0.47 0.39,0.96 0.32,1.47 0,0.07 -0.02,0.18 -0.05,0.32 -0.04,0.15 -0.18,0.56 -0.42,1.25 -0.25,0.69 -0.65,1.79 -1.21,3.3 -0.56,1.52 -1.33,3.67 -2.32,6.44 -0.98,2.79 -2.23,6.29 -3.74,10.51 -1.51,4.23 -3.36,9.41 -5.54,15.55l0 31.1c0,1.66 -0.7,2.49 -2.11,2.49l-9.17 0c-0.56,0 -1.02,-0.23 -1.37,-0.7 -0.35,-0.47 -0.53,-1.06 -0.53,-1.79l0 -31.1z"/>
  <path class="fil1" d="M709.22 50.19c0.35,-1.01 0.91,-1.55 1.69,-1.62l10.24 0c0.77,0.21 1.3,0.76 1.58,1.62l13.62 69.24c0,1.37 -0.78,2.13 -2.32,2.28l-8.87 0c-0.35,0 -0.76,-0.12 -1.21,-0.38 -0.46,-0.25 -0.72,-0.63 -0.79,-1.14l-1.37 -7.37 -11.72 0 -1.26 7.37c-0.21,0.94 -0.81,1.45 -1.79,1.52l-9.29 0c-0.49,0 -0.94,-0.17 -1.36,-0.49 -0.43,-0.32 -0.63,-0.78 -0.63,-1.35 0,-0.07 0.02,-0.12 0.05,-0.16 0.03,-0.04 0.05,-0.13 0.05,-0.27l13.4 -69.24zm6.75 30.23l-3.48 19.18 6.97 0 -3.48 -19.18z"/>
  <path class="fil1" d="M268.48 162.64c-3.72,0 -5.13,1.89 -5.13,3.96 0,6.04 13.38,3.45 13.38,12.21 0,4.54 -3.05,7.05 -8.5,7.05 -4.04,0 -7.04,-2.11 -8.25,-4.47 -0.14,-0.29 -0.18,-0.44 -0.18,-0.66 0,-0.66 0.5,-1.16 1.14,-1.16 0.42,0 0.78,0.22 0.99,0.58 1.13,1.89 3.19,3.45 6.3,3.45 3.89,0 6.09,-1.6 6.09,-4.8 0,-6.8 -13.38,-3.6 -13.38,-12.21 0,-3.34 2.37,-6.21 7.54,-6.21 3.36,0 6.09,1.46 7.57,3.74 0.14,0.22 0.21,0.43 0.21,0.69 0,0.66 -0.49,1.16 -1.13,1.16 -0.32,0 -0.64,-0.11 -0.92,-0.47 -1.06,-1.34 -2.76,-2.87 -5.73,-2.87z"/>
  <path class="fil1" d="M287.06 184.42c0,0.66 -0.53,1.24 -1.2,1.24 -0.67,0 -1.21,-0.58 -1.21,-1.24l0 -22.57c0,-0.66 0.53,-1.24 1.21,-1.24 0.67,0 1.2,0.58 1.2,1.24l0 22.57z"/>
  <path class="fil1" d="M305.64 180.71l-7.4 -14.14 0 17.88c0,0.66 -0.53,1.2 -1.17,1.2 -0.64,0 -1.17,-0.55 -1.17,-1.2l0 -22.65c0,-0.65 0.53,-1.2 1.17,-1.2 0.53,0 0.89,0.32 1.07,0.69l8.57 16.47 8.6 -16.47c0.15,-0.25 0.43,-0.69 1.07,-0.69 0.64,0 1.17,0.54 1.17,1.2l0 22.65c0,0.66 -0.53,1.2 -1.17,1.2 -0.64,0 -1.17,-0.55 -1.17,-1.2l0 -17.88 -7.43 14.14c-0.24,0.47 -0.64,0.69 -1.06,0.69 -0.35,0 -0.81,-0.18 -1.06,-0.69z"/>
  <path class="fil1" d="M329.13 184.42c0,0.69 -0.53,1.24 -1.2,1.24 -0.67,0 -1.2,-0.54 -1.2,-1.24l0 -22.28c0,-0.69 0.53,-1.24 1.2,-1.24l7.04 0c3.79,0 6.76,2.25 6.76,7.09 0,4.76 -2.9,7.13 -6.76,7.13l-5.84 0 0 9.3zm0 -11.56l5.48 0c2.87,0 4.68,-1.71 4.68,-4.87 0,-3.2 -1.84,-4.83 -4.68,-4.83l-5.48 0 0 9.71z"/>
  <path class="fil1" d="M361.62 183.04c0.64,0 1.14,0.51 1.14,1.16 0,0.66 -0.5,1.16 -1.14,1.16l-10.9 0c-0.67,0 -1.2,-0.55 -1.2,-1.24l0 -22.28c0,-0.69 0.53,-1.24 1.2,-1.24 0.67,0 1.2,0.55 1.2,1.24l0 21.19 9.7 0z"/>
  <path class="fil1" d="M371.35 185.36c-0.67,0 -1.2,-0.54 -1.2,-1.24l0 -21.99c0,-0.68 0.53,-1.23 1.2,-1.23l11.36 0c0.6,0 1.1,0.51 1.1,1.12 0,0.62 -0.5,1.13 -1.1,1.13l-10.16 0 0 8.76 7.79 0c0.6,0 1.09,0.51 1.09,1.13 0,0.62 -0.49,1.13 -1.09,1.13l-7.79 0 0 8.94 10.55 0c0.6,0 1.1,0.51 1.1,1.12 0,0.62 -0.5,1.13 -1.1,1.13l-11.75 0z"/>
  <path class="fil1" d="M409.11 184.42l0 -10.43 -7.11 -11.48c-0.11,-0.18 -0.18,-0.4 -0.18,-0.66 0,-0.69 0.53,-1.24 1.2,-1.24 0.43,0 0.81,0.22 1.03,0.58l6.27 10.32 6.27 -10.32c0.21,-0.36 0.6,-0.58 1.02,-0.58 0.67,0 1.2,0.54 1.2,1.24 0,0.25 -0.07,0.47 -0.17,0.66l-7.12 11.48 0 10.43c0,0.69 -0.53,1.24 -1.21,1.24 -0.67,0 -1.2,-0.54 -1.2,-1.24z"/>
  <path class="fil1" d="M440.22 184.42c0,0.69 -0.53,1.24 -1.21,1.24 -0.67,0 -1.2,-0.54 -1.2,-1.24l0 -22.28c0,-0.69 0.53,-1.24 1.2,-1.24l7.04 0c3.93,0 6.76,3.05 6.76,6.94 0,3.75 -2.51,6.77 -6.34,6.94l6.48 8.87c0.18,0.21 0.25,0.51 0.25,0.76 0,0.69 -0.53,1.24 -1.2,1.24 -0.35,0 -0.75,-0.15 -1.02,-0.58l-7.19 -10.29 -3.57 0 0 9.63zm0 -11.88l5.91 0c2.48,0 4.25,-2.07 4.25,-4.69 0,-2.69 -1.81,-4.68 -4.36,-4.68l-5.8 0 0 9.38z"/>
  <path class="fil1" d="M463.75 178.13l-2.58 6.65c-0.18,0.47 -0.57,0.87 -1.17,0.87 -0.67,0 -1.2,-0.58 -1.2,-1.24 0,-0.14 0.04,-0.4 0.11,-0.54l8.64 -22.42c0.18,-0.44 0.5,-0.84 1.13,-0.84 0.61,0 0.99,0.4 1.17,0.84l8.63 22.42c0.07,0.18 0.11,0.44 0.11,0.54 0,0.66 -0.49,1.24 -1.24,1.24 -0.6,0 -0.99,-0.36 -1.17,-0.84l-2.55 -6.69 -9.88 0zm4.92 -13.38l-4.17 11.12 8.38 0 -4.21 -11.12z"/>
  <path class="fil1" d="M488.31 184.42c0,0.69 -0.53,1.24 -1.21,1.24 -0.67,0 -1.2,-0.54 -1.2,-1.24l0 -22.28c0,-0.69 0.53,-1.24 1.2,-1.24l7.05 0c3.78,0 6.76,2.25 6.76,7.09 0,4.76 -2.9,7.13 -6.76,7.13l-5.84 0 0 9.3zm0 -11.56l5.49 0c2.86,0 4.67,-1.71 4.67,-4.87 0,-3.2 -1.84,-4.83 -4.67,-4.83l-5.49 0 0 9.71z"/>
  <path class="fil1" d="M511.1 184.42c0,0.66 -0.53,1.24 -1.21,1.24 -0.67,0 -1.2,-0.58 -1.2,-1.24l0 -22.57c0,-0.66 0.53,-1.24 1.2,-1.24 0.67,0 1.21,0.58 1.21,1.24l0 22.57z"/>
  <path class="fil1" d="M526.5 160.9c6.76,0 10.94,3.27 10.94,12.25 0,8.98 -4.18,12.21 -10.94,12.21l-5 0c-0.67,0 -1.2,-0.54 -1.2,-1.24l0 -21.99c0,-0.68 0.53,-1.23 1.2,-1.23l5 0zm-3.79 22.21l3.79 0c5.27,0 8.49,-2.4 8.49,-9.96 0,-7.49 -3.22,-10 -8.49,-10l-3.79 0 0 19.96z"/>
  <path class="fil1" d="M544.08 173.15c0,-8.62 4.18,-12.76 11.05,-12.76 6.86,0 11.04,4.14 11.04,12.76 0,8.54 -4.18,12.72 -11.04,12.72 -6.87,0 -11.05,-4.18 -11.05,-12.72zm2.48 0c0,7.09 3.15,10.47 8.57,10.47 5.41,0 8.56,-3.38 8.56,-10.47 0,-7.13 -3.15,-10.51 -8.56,-10.51 -5.42,0 -8.57,3.38 -8.57,10.51z"/>
 </g>
</svg>
