<?xml version="1.0" encoding="UTF-8"?>
<!DOCTYPE svg PUBLIC "-//W3C//DTD SVG 1.1//EN" "http://www.w3.org/Graphics/SVG/1.1/DTD/svg11.dtd">
<!-- Creator: CorelDRAW -->
<svg xmlns="http://www.w3.org/2000/svg" xml:space="preserve" width="12.1599mm" height="12.1599mm" version="1.1" style="shape-rendering:geometricPrecision; text-rendering:geometricPrecision; image-rendering:optimizeQuality; fill-rule:evenodd; clip-rule:evenodd"
viewBox="0 0 219.96 219.96"
 xmlns:xlink="http://www.w3.org/1999/xlink"
 xmlns:xodm="http://www.corel.com/coreldraw/odm/2003">
 <defs>
  <style type="text/css">
   <![CDATA[
    .fil0 {fill:#1080AF}
   ]]>
  </style>
 </defs>
 <g id="Capa_x0020_1">
  <metadata id="CorelCorpID_0Corel-Layer"/>
  <g id="_2521112878528">
   <path class="fil0" d="M-0 62.29c0,15.35 2.53,22.41 7.67,35.29 1.3,3.26 4.32,10.6 5.99,13.34l18.31 29.38 10.66 13.4c5.08,5.46 11.04,12.54 16.55,17.39l15.51 13.28c20.57,16.08 55.05,35.59 79.97,35.59 7.3,0 12.07,-0.54 18.14,-4.63 3.62,-2.44 7.3,-5.9 9.97,-9.36l7.01 -7.17c2.35,-2.26 4.23,-3.19 6.76,-7.42 6.77,-11.33 -2.22,-19.83 -10.61,-27.59l-16.33 -15.89c-1.99,-1.99 -3.22,-3.47 -5.64,-5.1 -12.73,-8.54 -21.88,4.49 -31.09,13.69 -7.06,7.06 -5.72,8.11 -14,3.91 -1.28,-0.65 -1.55,-0.92 -2.72,-1.58 -11.71,-6.55 -27,-18.41 -34.87,-28.28l-15.17 -18.34c-1.2,-1.61 -2.43,-3.47 -3.37,-5.22 -8.79,-16.4 -8.75,-9.59 11.29,-30.39 7.07,-7.34 8.05,-16.33 0.64,-23.64 -5.25,-5.18 -21.45,-22.54 -25.8,-26.18 -6.06,-5.07 -12.24,-8.07 -20.05,-3.55 -3.88,2.24 -12.13,11.04 -15.15,14.06 -1.68,1.68 -3.04,3.05 -4.73,4.72 -1.6,1.59 -3.31,3.45 -4.55,5.33 -2.36,3.59 -4.37,9.12 -4.37,14.96z"/>
   <path class="fil0" d="M202.77 106.11c2.47,0 6.18,-0.89 8.59,-1.29 2.65,-0.44 5.8,-1.29 8.59,-1.29l-2.14 -10.74c-1.72,-6.53 -4.16,-13.3 -6.87,-19.33 -1.41,-3.15 -2.62,-6.03 -4.39,-8.93 -0.88,-1.44 -1.39,-2.62 -2.31,-4.14 -0.96,-1.58 -1.5,-2.43 -2.51,-3.94 -1.9,-2.84 -3.41,-5.28 -5.47,-7.85 -12.6,-15.72 -23.31,-25.59 -42.62,-36 -1.63,-0.88 -2.6,-1.3 -4.4,-2.04 -1.74,-0.72 -2.67,-1.31 -4.42,-2.03 -2.99,-1.23 -6.31,-2.5 -9.67,-3.65l-10.41 -2.91c-1.88,-0.43 -3.71,-0.78 -5.39,-1.05 -2.08,-0.35 -3.84,-0.92 -5.96,-0.92l-2.34 16.12c0.08,1.46 -0.69,0.85 4.23,1.74 17.55,3.2 33.5,10.14 47.45,21.29 1.27,1.02 2.42,1.67 3.61,2.83 1.27,1.24 2.01,1.67 3.22,2.79 1.18,1.09 2.07,2.08 3.22,3.23 10.99,10.99 16.04,19.53 22.81,33.47 2.16,4.45 7.05,20.09 7.15,24.64z"/>
   <path class="fil0" d="M108.69 61c5.56,0.46 13.59,3.36 18.62,5.87 3.41,1.7 8.02,4.7 10.9,7.14 9.06,7.68 16.06,18.33 19.04,29.94 0.42,1.64 0.6,3.75 1.28,5.16 2.04,-0.17 15.67,-2.49 16.75,-3.01 0,-7.23 -6.2,-20.55 -9.85,-26.66 -4.41,-7.38 -10.46,-14.12 -17.07,-19.44 -1.83,-1.47 -3.09,-2.6 -5.11,-3.91l-8.36 -4.95c-7.2,-3.74 -13.2,-5.18 -20.72,-6.8 -3.95,-0.85 -2.86,-1.39 -4.25,8.42 -0.34,2.4 -1.01,5.81 -1.22,8.24z"/>
  </g>
 </g>
</svg>
