<?xml version="1.0" encoding="UTF-8"?>
<!DOCTYPE svg PUBLIC "-//W3C//DTD SVG 1.1//EN" "http://www.w3.org/Graphics/SVG/1.1/DTD/svg11.dtd">
<!-- Creator: CorelDRAW -->
<svg xmlns="http://www.w3.org/2000/svg" xml:space="preserve" width="13.5641mm" height="13.5661mm" version="1.1" style="shape-rendering:geometricPrecision; text-rendering:geometricPrecision; image-rendering:optimizeQuality; fill-rule:evenodd; clip-rule:evenodd"
viewBox="0 0 146.94 146.96"
 xmlns:xlink="http://www.w3.org/1999/xlink"
 xmlns:xodm="http://www.corel.com/coreldraw/odm/2003">
 <defs>
  <style type="text/css">
   <![CDATA[
    .fil0 {fill:#1080AF;fill-rule:nonzero}
   ]]>
  </style>
 </defs>
 <g id="Capa_x0020_1">
  <metadata id="CorelCorpID_0Corel-Layer"/>
  <path class="fil0" d="M73.47 146.96c-1.54,0 -3.13,-0.06 -4.75,-0.16 -1.57,-0.1 -3.17,-0.27 -4.8,-0.48 -1.65,-0.22 -3.24,-0.48 -4.74,-0.78 -1.56,-0.31 -3.11,-0.68 -4.66,-1.09 -1.35,-0.36 -2.74,-0.79 -4.17,-1.26 -1.39,-0.47 -2.76,-0.97 -4.11,-1.51 -1.26,-0.51 -2.48,-1.03 -3.63,-1.57 -0.9,-0.42 -1.84,-0.88 -2.81,-1.39l-22.77 7.85c-0.93,0.32 -1.89,0.44 -2.81,0.38 -0.96,-0.06 -1.89,-0.32 -2.75,-0.73 -0.85,-0.42 -1.63,-1 -2.26,-1.72 -0.62,-0.7 -1.12,-1.53 -1.43,-2.45l0 -0.02c-0.11,-0.34 -0.2,-0.68 -0.26,-0.99 -0.06,-0.34 -0.1,-0.69 -0.12,-1.03 -0.01,-0.32 -0.01,-0.65 0.02,-0.97 0.03,-0.31 0.07,-0.61 0.14,-0.9l4.68 -24.13c-0.77,-1.15 -1.51,-2.35 -2.23,-3.57 -0.87,-1.48 -1.67,-2.94 -2.38,-4.38 -0.77,-1.55 -1.51,-3.17 -2.2,-4.85 -0.68,-1.67 -1.3,-3.34 -1.85,-5.01 -0.58,-1.78 -1.1,-3.62 -1.56,-5.53 -0.45,-1.88 -0.83,-3.76 -1.12,-5.65 -0.31,-1.96 -0.54,-3.88 -0.68,-5.75 -0.15,-1.93 -0.23,-3.86 -0.23,-5.77 0,-4.89 0.48,-9.68 1.41,-14.32 0.94,-4.76 2.35,-9.36 4.17,-13.75 1.85,-4.46 4.14,-8.71 6.8,-12.7 2.69,-4.02 5.76,-7.76 9.16,-11.16 3.39,-3.39 7.13,-6.47 11.16,-9.17 3.98,-2.67 8.24,-4.95 12.7,-6.8 4.39,-1.82 8.99,-3.23 13.75,-4.18 4.64,-0.92 9.43,-1.41 14.32,-1.41 4.89,0 9.68,0.48 14.32,1.41 4.76,0.94 9.36,2.35 13.75,4.18 4.46,1.85 8.71,4.14 12.7,6.81 4.02,2.69 7.76,5.76 11.16,9.16 6.77,6.76 12.23,14.86 15.97,23.86 1.82,4.39 3.23,8.99 4.17,13.75 0.92,4.64 1.41,9.43 1.41,14.32 0,4.89 -0.48,9.68 -1.41,14.32 -0.94,4.76 -2.35,9.36 -4.18,13.75 -1.85,4.46 -4.14,8.71 -6.8,12.7 -2.69,4.02 -5.76,7.76 -9.16,11.15 -3.4,3.4 -7.14,6.48 -11.16,9.17 -3.99,2.67 -8.24,4.96 -12.7,6.81 -4.39,1.82 -8.99,3.23 -13.75,4.18 -4.64,0.92 -9.43,1.41 -14.32,1.41zm-37.41 -102.63c0,0 4.43,-7.75 8.05,-8.19 3.62,-0.45 8.27,-0.45 9.53,1.92 1.26,2.36 6.87,16.1 6.87,16.1 0,0 0.96,2.36 -0.52,4.65 -1.47,2.29 -4.79,5.61 -4.79,5.61 0,0 -1.85,2.36 0,4.87 1.84,2.51 4.71,7.13 10.63,13.05 5.91,5.92 17.27,10.14 17.27,10.14 0,0 1.63,0.22 2.66,-0.81 1.03,-1.03 6.65,-8.05 6.65,-8.05 0,0 1.81,-2.32 4.8,-0.96 2.99,1.37 15.94,7.82 15.94,7.82 0,0 1.51,0.55 1.51,2.84 0,2.29 -0.92,7.89 -2.82,9.78 -1.89,1.89 -7.43,7.73 -15.75,7.73 -8.32,0 -28.13,-6.77 -38.69,-17.32 -10.56,-10.56 -19.94,-21.27 -22.15,-31.01 -2.21,-9.75 -1.92,-14.15 0.81,-18.16zm22.23 86.04c1.23,0.33 2.49,0.63 3.75,0.88 1.31,0.26 2.56,0.47 3.76,0.63 1.22,0.16 2.49,0.28 3.8,0.37 1.24,0.08 2.53,0.12 3.87,0.12 3.94,0 7.78,-0.39 11.49,-1.12 3.81,-0.76 7.49,-1.88 11,-3.34 3.59,-1.49 7,-3.32 10.18,-5.45 3.2,-2.14 6.2,-4.62 8.95,-7.36 2.74,-2.73 5.21,-5.73 7.36,-8.95 2.13,-3.18 3.96,-6.59 5.45,-10.19 1.45,-3.5 2.58,-7.18 3.33,-11 0.74,-3.71 1.12,-7.56 1.12,-11.5 0,-3.94 -0.39,-7.79 -1.12,-11.5 -0.76,-3.81 -1.88,-7.5 -3.33,-11 -1.49,-3.59 -3.32,-7 -5.45,-10.18 -2.14,-3.2 -4.61,-6.2 -7.36,-8.95 -2.75,-2.75 -5.75,-5.22 -8.95,-7.36 -3.18,-2.13 -6.59,-3.96 -10.18,-5.45 -3.5,-1.45 -7.18,-2.58 -10.99,-3.33 -3.71,-0.74 -7.56,-1.12 -11.5,-1.12 -3.94,0 -7.79,0.39 -11.5,1.12 -3.81,0.76 -7.49,1.88 -10.99,3.33 -3.59,1.49 -7,3.32 -10.18,5.45 -3.2,2.14 -6.2,4.62 -8.95,7.36 -2.75,2.75 -5.22,5.75 -7.36,8.95 -2.13,3.18 -3.96,6.58 -5.45,10.18 -1.45,3.5 -2.58,7.18 -3.33,11 -0.73,3.71 -1.12,7.56 -1.12,11.5 0,1.6 0.06,3.17 0.18,4.69 0.12,1.59 0.3,3.12 0.53,4.58 0.24,1.52 0.54,3.02 0.89,4.5 0.35,1.45 0.77,2.93 1.26,4.43 0.47,1.43 0.99,2.85 1.58,4.25 0.57,1.38 1.21,2.76 1.92,4.14 0.67,1.33 1.42,2.65 2.22,3.98 0.79,1.29 1.62,2.54 2.49,3.74 0.32,0.4 0.61,0.83 0.83,1.27 0.23,0.45 0.41,0.94 0.55,1.46 0.13,0.51 0.21,1.05 0.23,1.59 0.02,0.54 -0.02,1.08 -0.12,1.61l-2.9 14.95 17.38 -5.99 0.33 0.98c0.25,0.05 0.5,0.12 0.75,0.2 0.49,0.16 0.97,0.37 1.42,0.63 1.11,0.64 2.24,1.25 3.4,1.82 1.14,0.56 2.31,1.1 3.51,1.59 1.19,0.49 2.39,0.95 3.6,1.36 1.2,0.41 2.43,0.78 3.68,1.12z"/>
 </g>
</svg>
