<?xml version="1.0" encoding="UTF-8"?>
<!DOCTYPE svg PUBLIC "-//W3C//DTD SVG 1.1//EN" "http://www.w3.org/Graphics/SVG/1.1/DTD/svg11.dtd">
<!-- Creator: CorelDRAW -->
<svg xmlns="http://www.w3.org/2000/svg" xml:space="preserve" width="101.289mm" height="12.9838mm" version="1.1" style="shape-rendering:geometricPrecision; text-rendering:geometricPrecision; image-rendering:optimizeQuality; fill-rule:evenodd; clip-rule:evenodd"
viewBox="0 0 4617.71 591.93"
 xmlns:xlink="http://www.w3.org/1999/xlink"
 xmlns:xodm="http://www.corel.com/coreldraw/odm/2003">
 <defs>
  <style type="text/css">
   <![CDATA[
    .fil1 {fill:#CCCCCC}
    .fil0 {fill:#FED700}
   ]]>
  </style>
 </defs>
 <g id="Capa_x0020_1">
  <metadata id="CorelCorpID_0Corel-Layer"/>
  <g id="_2521110942688">
   <path class="fil0" d="M340.15 22.28l50.75 157.24c4.37,13.53 16.46,22.31 30.67,22.28l165.21 -0.32c14.2,-0.03 26.27,8.73 30.65,22.22 4.39,13.5 -0.24,27.68 -11.73,36l-133.85 96.85c-11.52,8.33 -16.13,22.54 -11.71,36.06l51.36 157.04c4.41,13.49 -0.18,27.67 -11.67,36.02 -11.48,8.35 -26.4,8.33 -37.86,-0.04l-133.48 -97.37c-11.48,-8.38 -26.43,-8.38 -37.91,0l-133.48 97.37c-11.47,8.37 -26.38,8.38 -37.86,0.04 -11.48,-8.34 -16.08,-22.53 -11.67,-36.02l51.36 -157.04c4.42,-13.51 -0.2,-27.72 -11.71,-36.06l-133.85 -96.85c-11.5,-8.32 -16.12,-22.5 -11.73,-36 4.39,-13.5 16.46,-22.25 30.65,-22.22l165.21 0.32c14.21,0.03 26.31,-8.75 30.67,-22.28l50.75 -157.24c4.36,-13.51 16.42,-22.28 30.61,-22.28 14.19,0 26.25,8.78 30.61,22.28z"/>
   <path class="fil0" d="M1339.81 22.28l50.75 157.24c4.37,13.53 16.46,22.31 30.67,22.28l165.21 -0.32c14.2,-0.03 26.27,8.73 30.65,22.22 4.39,13.5 -0.24,27.68 -11.73,36l-133.85 96.85c-11.52,8.33 -16.13,22.54 -11.71,36.06l51.36 157.04c4.41,13.49 -0.18,27.67 -11.67,36.02 -11.48,8.35 -26.4,8.33 -37.86,-0.04l-133.48 -97.37c-11.48,-8.38 -26.43,-8.38 -37.91,0l-133.48 97.37c-11.47,8.37 -26.38,8.38 -37.86,0.04 -11.48,-8.34 -16.08,-22.53 -11.67,-36.02l51.36 -157.04c4.42,-13.51 -0.2,-27.72 -11.71,-36.06l-133.85 -96.85c-11.5,-8.32 -16.12,-22.5 -11.73,-36 4.39,-13.5 16.46,-22.25 30.65,-22.22l165.21 0.32c14.21,0.03 26.31,-8.75 30.67,-22.28l50.75 -157.24c4.36,-13.51 16.42,-22.28 30.61,-22.28 14.19,0 26.25,8.78 30.61,22.28z"/>
   <path class="fil0" d="M2339.46 22.28l50.75 157.24c4.37,13.53 16.46,22.31 30.67,22.28l165.21 -0.32c14.2,-0.03 26.27,8.73 30.65,22.22 4.39,13.5 -0.24,27.68 -11.73,36l-133.85 96.85c-11.52,8.33 -16.13,22.54 -11.71,36.06l51.36 157.04c4.41,13.49 -0.18,27.67 -11.67,36.02 -11.48,8.35 -26.4,8.33 -37.86,-0.04l-133.48 -97.37c-11.48,-8.38 -26.43,-8.38 -37.91,0l-133.48 97.37c-11.47,8.37 -26.38,8.38 -37.86,0.04 -11.48,-8.34 -16.08,-22.53 -11.67,-36.02l51.36 -157.04c4.42,-13.51 -0.2,-27.72 -11.71,-36.06l-133.85 -96.85c-11.5,-8.32 -16.12,-22.5 -11.73,-36 4.39,-13.5 16.46,-22.25 30.65,-22.22l165.21 0.32c14.21,0.03 26.31,-8.75 30.67,-22.28l50.75 -157.24c4.36,-13.51 16.42,-22.28 30.61,-22.28 14.19,0 26.25,8.78 30.61,22.28z"/>
   <path class="fil0" d="M3339.12 22.28l50.75 157.24c4.37,13.53 16.46,22.31 30.67,22.28l165.21 -0.32c14.2,-0.03 26.27,8.73 30.65,22.22 4.39,13.5 -0.24,27.68 -11.73,36l-133.85 96.85c-11.52,8.33 -16.13,22.54 -11.71,36.06l51.36 157.04c4.41,13.49 -0.18,27.67 -11.67,36.02 -11.48,8.35 -26.4,8.33 -37.86,-0.04l-133.48 -97.37c-11.48,-8.38 -26.43,-8.38 -37.91,0l-133.48 97.37c-11.47,8.37 -26.38,8.38 -37.86,0.04 -11.48,-8.34 -16.08,-22.53 -11.67,-36.02l51.36 -157.04c4.42,-13.51 -0.2,-27.72 -11.71,-36.06l-133.85 -96.85c-11.5,-8.32 -16.12,-22.5 -11.73,-36 4.39,-13.5 16.46,-22.25 30.65,-22.22l165.21 0.32c14.21,0.03 26.31,-8.75 30.67,-22.28l50.75 -157.24c4.36,-13.51 16.42,-22.28 30.61,-22.28 14.19,0 26.25,8.78 30.61,22.28z"/>
   <path class="fil0" d="M4338.78 22.28l50.75 157.24c4.37,13.53 16.46,22.31 30.67,22.28l165.21 -0.32c14.2,-0.03 26.27,8.73 30.65,22.22 4.39,13.5 -0.24,27.68 -11.73,36l-133.85 96.85c-11.52,8.33 -16.13,22.54 -11.71,36.06l51.36 157.04c4.41,13.49 -0.18,27.67 -11.67,36.02 -11.48,8.35 -26.4,8.33 -37.86,-0.04l-133.48 -97.37c-11.48,-8.38 -26.43,-8.38 -37.91,0l-133.48 97.37c-11.47,8.37 -26.38,8.38 -37.86,0.04 -11.48,-8.34 -16.08,-22.53 -11.67,-36.02l51.36 -157.04c4.42,-13.51 -0.2,-27.72 -11.71,-36.06l-133.85 -96.85c-11.5,-8.32 -16.12,-22.5 -11.73,-36 4.39,-13.5 16.46,-22.25 30.65,-22.22l165.21 0.32c14.21,0.03 26.31,-8.75 30.67,-22.28l50.75 -157.24c4.36,-13.51 16.42,-22.28 30.61,-22.28 14.19,0 26.25,8.78 30.61,22.28z"/>
   <path class="fil1" d="M4338.78 22.28l50.75 157.24c4.37,13.53 16.46,22.31 30.67,22.28l165.21 -0.32c14.2,-0.03 26.27,8.73 30.65,22.22 4.39,13.5 -0.24,27.68 -11.73,36l-133.85 96.85c-11.52,8.33 -16.13,22.54 -11.71,36.06l51.36 157.04c4.41,13.49 -0.18,27.67 -11.67,36.02 -11.48,8.35 -26.4,8.33 -37.86,-0.04l-133.48 -97.37c-5.74,-4.19 -12.35,-6.28 -18.96,-6.28l0 -481.98c14.19,0 26.25,8.78 30.61,22.28z"/>
  </g>
 </g>
</svg>
