<?xml version="1.0" encoding="UTF-8"?>
<!DOCTYPE svg PUBLIC "-//W3C//DTD SVG 1.1//EN" "http://www.w3.org/Graphics/SVG/1.1/DTD/svg11.dtd">
<!-- Creator: CorelDRAW -->
<svg xmlns="http://www.w3.org/2000/svg" xml:space="preserve" width="66.8307mm" height="8.6304mm" version="1.1" style="shape-rendering:geometricPrecision; text-rendering:geometricPrecision; image-rendering:optimizeQuality; fill-rule:evenodd; clip-rule:evenodd"
viewBox="0 0 21850.35 2821.72"
 xmlns:xlink="http://www.w3.org/1999/xlink"
 xmlns:xodm="http://www.corel.com/coreldraw/odm/2003">
 <defs>
  <style type="text/css">
   <![CDATA[
    .fil0 {fill:#FED700}
   ]]>
  </style>
 </defs>
 <g id="Capa_x0020_1">
  <metadata id="CorelCorpID_0Corel-Layer"/>
  <path class="fil0" d="M1621.48 106.23l241.98 749.57c20.79,64.51 78.44,106.36 146.21,106.23l787.56 -1.54c67.68,-0.13 125.22,41.62 146.15,105.96 20.89,64.34 -1.14,131.92 -55.94,171.58l-638.08 461.69c-54.9,39.72 -76.9,107.47 -55.84,171.91l244.82 748.59c21.06,64.31 -0.85,131.92 -55.61,171.68 -54.73,39.79 -125.84,39.72 -180.48,-0.16l-636.31 -464.17c-54.73,-39.95 -125.97,-39.95 -180.71,0l-636.31 464.2c-54.63,39.86 -125.75,39.92 -180.48,0.16 -54.73,-39.79 -76.64,-107.4 -55.61,-171.71l244.82 -748.59c21.06,-64.44 -0.95,-132.19 -55.84,-171.91l-638.04 -461.69c-54.83,-39.66 -76.87,-107.24 -55.94,-171.58 20.89,-64.34 78.44,-106.1 146.11,-105.96l787.56 1.54c67.78,0.13 125.42,-41.72 146.25,-106.23l241.94 -749.57c20.76,-64.38 78.24,-106.23 145.92,-106.23 67.65,0 125.12,41.85 145.89,106.23z"/>
  <path class="fil0" d="M6386.89 106.23l241.94 749.57c20.83,64.51 78.47,106.36 146.21,106.23l787.56 -1.54c67.68,-0.13 125.22,41.62 146.15,105.96 20.89,64.34 -1.14,131.92 -55.94,171.58l-638.08 461.69c-54.9,39.72 -76.9,107.47 -55.84,171.91l244.82 748.59c21.06,64.31 -0.85,131.92 -55.61,171.68 -54.73,39.79 -125.81,39.72 -180.48,-0.16l-636.28 -464.17c-54.76,-39.95 -126.01,-39.95 -180.74,0l-636.28 464.2c-54.67,39.86 -125.75,39.92 -180.51,0.16 -54.73,-39.79 -76.64,-107.4 -55.61,-171.71l244.82 -748.59c21.06,-64.44 -0.92,-132.19 -55.81,-171.91l-638.08 -461.69c-54.83,-39.66 -76.87,-107.24 -55.94,-171.58 20.89,-64.34 78.47,-106.1 146.11,-105.96l787.59 1.54c67.74,0.13 125.39,-41.72 146.21,-106.23l241.94 -749.57c20.79,-64.38 78.27,-106.23 145.92,-106.23 67.65,0 125.12,41.85 145.92,106.23z"/>
  <path class="fil0" d="M11152.26 106.23l241.94 749.57c20.83,64.51 78.47,106.36 146.21,106.23l787.59 -1.54c67.68,-0.13 125.22,41.62 146.11,105.96 20.92,64.34 -1.11,131.92 -55.94,171.58l-638.08 461.69c-54.9,39.72 -76.87,107.47 -55.81,171.91l244.82 748.59c21.02,64.31 -0.88,131.92 -55.61,171.68 -54.76,39.79 -125.84,39.72 -180.51,-0.16l-636.28 -464.17c-54.73,-39.95 -125.97,-39.95 -180.74,0l-636.28 464.2c-54.67,39.86 -125.75,39.92 -180.48,0.16 -54.76,-39.79 -76.67,-107.4 -55.61,-171.71l244.82 -748.59c21.06,-64.44 -0.95,-132.19 -55.84,-171.91l-638.08 -461.69c-54.8,-39.66 -76.83,-107.24 -55.94,-171.58 20.92,-64.34 78.47,-106.1 146.15,-105.96l787.56 1.54c67.78,0.13 125.39,-41.72 146.21,-106.23l241.94 -749.57c20.79,-64.38 78.27,-106.23 145.92,-106.23 67.65,0 125.16,41.85 145.92,106.23z"/>
  <path class="fil0" d="M15917.63 106.23l241.94 749.57c20.83,64.51 78.47,106.36 146.25,106.23l787.56 -1.54c67.68,-0.13 125.22,41.62 146.11,105.96 20.92,64.34 -1.11,131.92 -55.94,171.58l-638.04 461.69c-54.9,39.72 -76.9,107.47 -55.84,171.91l244.82 748.59c21.02,64.31 -0.88,131.92 -55.61,171.68 -54.73,39.79 -125.84,39.72 -180.48,-0.16l-636.31 -464.17c-54.73,-39.95 -125.97,-39.95 -180.71,0l-636.31 464.2c-54.63,39.86 -125.75,39.92 -180.48,0.16 -54.73,-39.79 -76.64,-107.4 -55.61,-171.71l244.82 -748.59c21.06,-64.44 -0.95,-132.19 -55.84,-171.91l-638.08 -461.69c-54.8,-39.66 -76.83,-107.24 -55.94,-171.58 20.92,-64.34 78.47,-106.1 146.15,-105.96l787.56 1.54c67.78,0.13 125.42,-41.72 146.21,-106.23l241.98 -749.57c20.76,-64.38 78.24,-106.23 145.89,-106.23 67.68,0 125.16,41.85 145.92,106.23z"/>
  <path class="fil0" d="M20520.67 106.23l241.94 749.57c20.83,64.51 78.47,106.36 146.25,106.23l787.56 -1.54c67.68,-0.13 125.22,41.62 146.11,105.96 20.92,64.34 -1.11,131.92 -55.94,171.58l-638.04 461.69c-54.9,39.72 -76.9,107.47 -55.84,171.91l244.82 748.59c21.02,64.31 -0.88,131.92 -55.61,171.68 -54.73,39.79 -125.84,39.72 -180.48,-0.16l-636.31 -464.17c-54.73,-39.95 -125.97,-39.95 -180.71,0l-636.31 464.2c-54.63,39.86 -125.75,39.92 -180.48,0.16 -54.76,-39.79 -76.67,-107.4 -55.61,-171.71l244.82 -748.59c21.06,-64.44 -0.95,-132.19 -55.84,-171.91l-638.08 -461.69c-54.8,-39.66 -76.83,-107.24 -55.94,-171.58 20.92,-64.34 78.47,-106.1 146.15,-105.96l787.56 1.54c67.78,0.13 125.42,-41.72 146.21,-106.23l241.98 -749.57c20.76,-64.38 78.24,-106.23 145.89,-106.23 67.68,0 125.16,41.85 145.92,106.23z"/>
 </g>
</svg>
