<?xml version="1.0" encoding="UTF-8"?>
<!DOCTYPE svg PUBLIC "-//W3C//DTD SVG 1.1//EN" "http://www.w3.org/Graphics/SVG/1.1/DTD/svg11.dtd">
<!-- Creator: CorelDRAW -->
<svg xmlns="http://www.w3.org/2000/svg" xml:space="preserve" width="22.9306mm" height="22.9306mm" version="1.1" style="shape-rendering:geometricPrecision; text-rendering:geometricPrecision; image-rendering:optimizeQuality; fill-rule:evenodd; clip-rule:evenodd"
viewBox="0 0 2258.31 2258.31"
 xmlns:xlink="http://www.w3.org/1999/xlink"
 xmlns:xodm="http://www.corel.com/coreldraw/odm/2003">
 <defs>
  <style type="text/css">
   <![CDATA[
    .fil1 {fill:none}
    .fil0 {fill:#1080AF}
   ]]>
  </style>
 </defs>
 <g id="Capa_x0020_1">
  <metadata id="CorelCorpID_0Corel-Layer"/>
  <g id="_2520448895824">
   <path class="fil0" d="M743.64 867.24c-48.84,0 -114.94,-12.91 -159.15,-27.54 -17.75,-5.89 -32.01,-13.14 -47.2,-16.67 6.05,22.65 114.8,221.77 142.55,275.07 11.73,22.52 22.98,46.03 34.32,68.86 15.89,31.93 103.68,192.31 108.1,211.26 125.74,0 216.41,-12.29 286.08,97.15 33.58,52.75 35.5,121.21 10.29,179.58 -33.21,76.9 -109.65,116.34 -193.19,116.34l-614.16 0 0 445.25 393.06 0 0 -209.43 78.61 0 0 209.43 393.05 0 0 -445.25 90.47 0c-81.24,-122.74 -133.92,-272.58 -133.92,-418.01l0 -282.98c0,-83.33 47.07,-150.85 118.98,-189.1 19.98,-10.64 38.48,-17.19 58.09,-23.61 -54.23,-40.67 -124.77,-68.95 -187.66,-68.95 -137,0 -79.94,-8.59 -158.82,27.87 -61.08,28.24 -151.38,50.73 -219.49,50.73z"/>
   <path class="fil0" d="M389.89 371.01c0,77.02 0.06,103.17 32.87,178.4 46.1,105.66 179.16,199.92 296.31,199.92 111.27,0 167.73,-13.91 252.12,-81.98 70.44,-56.82 126.19,-154.09 126.19,-247.21 0,-76.6 -0.09,-103.6 -32.88,-178.4 -7.55,-17.25 -21.19,-38.06 -31.59,-51.92 -34.89,-46.5 -78.32,-88.53 -132.04,-113.61 -135.32,-63.2 -303.24,-38.62 -409.23,67.36 -7.85,7.84 -11.05,13.43 -17.58,21.72 -18.62,23.59 -35.85,43.21 -49.78,73.05 -14.61,31.27 -34.38,87.55 -34.38,132.67z"/>
   <path class="fil0" d="M158.97 872.16l317.77 610.8c18.3,36.64 99.65,187.75 104.76,209.69l319.36 0c-3.38,-12.67 -20.22,-40.4 -27.84,-55.68l-86.79 -168.69c-46.11,-93 -345.37,-650.68 -352.11,-679.64 -149.8,0 -168.4,12.03 -275.14,83.52z"/>
   <path class="fil0" d="M36.14 1117.81l0 427.44c0,80.64 73.31,147.8 157.03,147.59 101.6,-0.27 203.2,-0.19 304.8,-0.19 -4.21,-15.73 -37.11,-74.16 -47.49,-94.99 -16.99,-34.09 -31.89,-58.84 -49.13,-93.35l-145.75 -281.7c-16.61,-33.49 -31.96,-58.97 -49.14,-93.34 -21.3,-42.6 -90.62,-167.45 -96.62,-193.25 -40.34,10.77 -73.7,148.75 -73.7,181.78z"/>
   <path class="fil0" d="M979.47 1682.83c76.53,-6.37 120.23,-150.96 22.68,-209.38 -39.7,-23.78 -76.79,-16.62 -135.68,-16.62 19.43,36.72 35.28,73.54 55.65,111.39 15.31,28.43 50.4,84.82 57.35,114.62z"/>
   <path class="fil0" d="M1536.85 1397.48c0,-80.54 82.7,-91.23 118.88,-43.72 11.3,14.84 21.27,28.51 31.45,43.72 16.52,-4.41 39.15,-22.25 53.26,-30.75 31.7,-19.11 147.06,-93.05 167.81,-93.05 65.52,0 96.92,85.76 29.13,126.4l-189.68 115.39c-35.39,20.99 -88.18,63.68 -130.74,5.28l-63.75 -86.58c-8.08,-10.7 -16.36,-19.82 -16.36,-36.7zm-247.6 -327.19l0 282.97c0,139.34 64.23,282.16 144.52,381.64 51.03,63.25 144.98,143.69 221.12,176.81 119.66,52.06 112.61,43.11 241.59,-21.96 17.32,-8.74 25.31,-14.91 40.98,-25.34 160.42,-106.67 284.72,-313.81 284.72,-511.15l0 -282.97c0,-48.51 -61.24,-60.96 -92.29,-71.3l-245.41 -81.78c-26.74,-8.91 -102.67,-38.09 -127.16,-38.75 -24.73,-0.66 -309.23,98.35 -372.46,119.42 -31.79,10.61 -95.6,23.01 -95.6,72.42z"/>
  </g>
  <rect class="fil1" width="2258.31" height="2258.31"/>
  <rect class="fil1" width="2258.31" height="2258.31"/>
 </g>
</svg>
