<?xml version="1.0" encoding="UTF-8"?>
<!DOCTYPE svg PUBLIC "-//W3C//DTD SVG 1.1//EN" "http://www.w3.org/Graphics/SVG/1.1/DTD/svg11.dtd">
<!-- Creator: CorelDRAW -->
<svg xmlns="http://www.w3.org/2000/svg" xml:space="preserve" width="22.9306mm" height="22.9306mm" version="1.1" style="shape-rendering:geometricPrecision; text-rendering:geometricPrecision; image-rendering:optimizeQuality; fill-rule:evenodd; clip-rule:evenodd"
viewBox="0 0 2258.31 2258.31"
 xmlns:xlink="http://www.w3.org/1999/xlink"
 xmlns:xodm="http://www.corel.com/coreldraw/odm/2003">
 <defs>
  <style type="text/css">
   <![CDATA[
    .fil1 {fill:none}
    .fil0 {fill:#1080AF}
   ]]>
  </style>
 </defs>
 <g id="Capa_x0020_1">
  <metadata id="CorelCorpID_0Corel-Layer"/>
  <g id="_2520443488208">
   <path class="fil0" d="M1705.83 1697.1c-41.07,0 -56.93,-30.32 -78.61,-61.19 -26.87,-38.25 -81.27,-90.52 -35.83,-140.64 17.06,-18.82 35.65,-16.61 57.64,-16.61 35.4,0 51.51,50.29 74.27,65.53 56.63,-13.19 150.89,-113.59 222.81,-113.59 41.03,0 65.2,51.53 49.53,88.64 -10.39,24.62 -65.34,53.13 -89.67,67.82l-144.19 87.36c-17.19,10.93 -28.86,22.69 -55.95,22.69zm-380.08 -463.1c0,161.92 -15.12,327.92 43.63,476.25 50.14,126.58 128.24,220.64 235.98,297.01 30.37,21.53 137.46,83.02 183.48,83.02 39.87,0 147.57,-60.93 177.19,-80.57 156.25,-103.52 281.53,-310.68 281.53,-500.48l0 -283.97c0,-47.36 -58.89,-59.67 -87.93,-69.34l-242.45 -80.85c-156.37,-52.14 -107.62,-49.64 -263.22,2.21 -37.94,12.65 -281.47,90.53 -299.69,102.24 -16.32,10.48 -28.52,29.57 -28.52,54.48z"/>
   <path class="fil0" d="M146.18 1068c0,37.26 -5.13,52.42 13.11,52.42l537.36 0 0 -790.75c-58.35,28 -67.22,16.34 -162.52,73.4 -61.86,37.04 -65.65,43.47 -116.48,84.49 -160.94,129.89 -271.47,370.13 -271.47,580.44z"/>
   <path class="fil0" d="M10.74 1451.55c3.74,39.27 18.68,70.8 69.9,70.8l1118.41 0 0 -275.24 -1057.25 0c-70.05,0 -131.06,68.46 -131.06,122.33l0 82.11z"/>
   <path class="fil0" d="M827.72 229.18l0 878.13c0,10.07 3.03,13.11 13.1,13.11l249.03 0c10.07,0 13.1,-3.04 13.1,-13.11l0 -869.38c0,-39.48 -30.41,-69.9 -69.89,-69.9l-144.17 0c-28.89,0 -61.16,32.27 -61.16,61.16z"/>
   <path class="fil0" d="M1229.64 1116.05c22.87,-6.11 30.99,-28.77 49.88,-41.86 42.14,-29.17 331.29,-118.15 407.2,-143.28 25.33,-8.38 45.92,-20.2 75.91,-20.2 -1.84,-82.63 -87.38,-235.95 -141.62,-308.37 -87.01,-116.16 -255.6,-241.05 -391.37,-272.68l0 786.38z"/>
  </g>
  <rect class="fil1" width="2258.31" height="2258.31"/>
 </g>
</svg>
