<?xml version="1.0" encoding="UTF-8"?>
<!DOCTYPE svg PUBLIC "-//W3C//DTD SVG 1.1//EN" "http://www.w3.org/Graphics/SVG/1.1/DTD/svg11.dtd">
<!-- Creator: CorelDRAW -->
<svg xmlns="http://www.w3.org/2000/svg" xml:space="preserve" width="26.8985mm" height="20.6523mm" version="1.1" style="shape-rendering:geometricPrecision; text-rendering:geometricPrecision; image-rendering:optimizeQuality; fill-rule:evenodd; clip-rule:evenodd"
viewBox="0 0 123.22 94.61"
 xmlns:xlink="http://www.w3.org/1999/xlink"
 xmlns:xodm="http://www.corel.com/coreldraw/odm/2003">
 <defs>
  <style type="text/css">
   <![CDATA[
    .fil0 {fill:#1080AF}
    .fil1 {fill:#1080AF}
   ]]>
  </style>
 </defs>
 <g id="Capa_x0020_1">
  <metadata id="CorelCorpID_0Corel-Layer"/>
  <path class="fil0" d="M89.51 67.65c0,-3.96 4.07,-4.49 5.85,-2.15 0.56,0.73 1.05,1.4 1.55,2.15 0.81,-0.22 1.93,-1.09 2.62,-1.51 1.56,-0.94 7.23,-4.58 8.25,-4.58 3.22,0 4.77,4.22 1.43,6.22l-9.33 5.68c-1.74,1.03 -4.34,3.13 -6.43,0.26l-3.14 -4.26c-0.4,-0.53 -0.8,-0.98 -0.8,-1.81zm-12.18 -16.09l0 13.92c0,6.85 3.16,13.88 7.11,18.77 2.51,3.11 7.13,7.07 10.88,8.7 5.89,2.56 5.54,2.12 11.88,-1.08 0.85,-0.43 1.25,-0.73 2.02,-1.25 7.89,-5.25 14,-15.44 14,-25.14l0 -13.92c0,-2.39 -3.01,-3 -4.54,-3.51l-12.07 -4.02c-1.32,-0.44 -5.05,-1.87 -6.26,-1.91 -1.22,-0.03 -15.21,4.84 -18.32,5.87 -1.56,0.52 -4.7,1.13 -4.7,3.56z"/>
  <path class="fil1" d="M14.5 46.98l0 -1.39c0,-6.48 9.81,-10.45 14.29,-2.95 2.6,4.34 -0.79,11.11 -6.33,11.11 -4.9,0 -7.95,-3.7 -7.95,-6.76zm87.31 -23.11l-0.65 3.77c-1.28,6.4 -0.96,6.02 -6.31,6.02 0.17,0.63 1.52,1.92 2.55,4.15l-11.5 3.76c-2.47,-3.07 -6.5,-3.86 -9.82,-2.02 -3.62,2.01 -4.66,6.29 -3.22,9.67 -0.24,0.72 -0.37,1.51 -0.37,2.34l0 12.72 -47.05 0c0,9.18 -1.04,7.76 -13.52,7.76 -1.42,0 -2.3,-0.78 -2.94,-1.63 -0.81,-1.08 -0.64,-1.98 -0.64,-3.74l-0.36 -8.79c-0.46,-0.59 -0.99,-0.89 -1.88,-2.09 -4.54,-6.07 -4.41,-14.82 -0.02,-21.02 0.41,-0.57 0.51,-0.49 0.68,-1.11 -3.63,0 -4.8,0.37 -5.49,-2.87 -2.32,-10.89 -2.83,-9.46 11.25,-9.46 0.44,-1.89 3.34,-7.87 4.53,-9.79 3.58,-5.75 6.53,-6.82 12.5,-8.78 12.52,-4.12 38.59,-4.07 50.23,3.21 3.97,2.48 6.96,8.88 8.57,12.91 0.3,0.77 0.77,1.72 0.94,2.44 1.52,0 10.06,-0.25 11.09,0.25 1.04,0.5 1.4,1.34 1.44,2.3zm-50.91 -16.07c7.25,0.52 19.28,0.75 25.18,5.25 1.78,1.36 5.75,10.18 6.24,12.26l-62.85 0c0.45,-1.93 4.29,-10.64 6.13,-12.17 4.26,-3.53 14.41,-4.55 19.36,-5.1l5.94 -0.23z"/>
 </g>
</svg>
