<?xml version="1.0" encoding="UTF-8"?>
<!DOCTYPE svg PUBLIC "-//W3C//DTD SVG 1.1//EN" "http://www.w3.org/Graphics/SVG/1.1/DTD/svg11.dtd">
<!-- Creator: CorelDRAW -->
<svg xmlns="http://www.w3.org/2000/svg" xml:space="preserve" width="29.9862mm" height="22.9306mm" version="1.1" style="shape-rendering:geometricPrecision; text-rendering:geometricPrecision; image-rendering:optimizeQuality; fill-rule:evenodd; clip-rule:evenodd"
viewBox="0 0 2963.75 2266.39"
 xmlns:xlink="http://www.w3.org/1999/xlink"
 xmlns:xodm="http://www.corel.com/coreldraw/odm/2003">
 <defs>
  <style type="text/css">
   <![CDATA[
    .fil1 {fill:none}
    .fil0 {fill:#1080AF;fill-rule:nonzero}
   ]]>
  </style>
 </defs>
 <g id="Capa_x0020_1">
  <metadata id="CorelCorpID_0Corel-Layer"/>
  <path class="fil0" d="M1972.54 937.37c-68.26,-220.18 -145.7,-430.49 -189.61,-546.23 48.65,-19.63 98.69,-37.01 149.09,-51.21 7.63,-1.96 15.46,-2.97 23.29,-2.97 20.79,0 40.99,7.02 57.3,19.87 25.07,19.06 39.78,48.76 39.78,80.24 0,0.07 0,0.15 0,0.21l198.87 0c0,-0.28 0,-0.64 0,-0.93 0,-93.05 -43.5,-180.81 -117.45,-237.22 -50.82,-39.54 -113.49,-61.05 -177.91,-61.05 -25.3,0 -50.52,3.36 -74.92,9.87 -91.18,26.58 -180.73,59.79 -267.21,98.38l-86.8 39.07 35.29 88.6c1,2.39 50.31,125.98 111.46,297.29l-414.79 322.39 -358.55 -358.53 157.69 0 0 -198.87 -596.58 0 0 198.87 157.7 0 481.53 481.63 -197.66 153.72c-91.37,-85.94 -212.12,-133.87 -337.56,-133.87 -272.01,0 -492.58,220.58 -492.58,492.57 0,272 220.57,492.58 492.58,492.58 271.99,0 492.56,-220.58 492.56,-492.58 0,-67.29 -13.89,-134.04 -40.58,-195.74l724.66 -563.58c29.83,91.28 59.66,187.03 86.11,280.18 -218.92,57.07 -371.76,254.81 -371.76,481.09 0,274.52 222.63,497.15 497.15,497.15 133.4,0 254.55,-52.59 343.84,-138.13 -88.44,-41.02 -186.85,-124.31 -246.88,-198.69 -96.99,-120.18 -163.83,-282.04 -163.83,-437.87l0 -266.95c0,-64.2 33.55,-116.49 85.74,-149.3zm271.81 457.95c0,-75.98 78,-86.06 112.14,-41.22 10.66,14 20.06,26.88 29.66,41.22 15.58,-4.15 36.93,-20.98 50.25,-29 29.91,-18.02 138.73,-87.79 158.31,-87.79 61.8,0 91.42,80.91 27.48,119.25l-178.94 108.85c-33.38,19.8 -83.18,60.08 -123.33,4.98l-60.13 -81.67c-7.62,-10.08 -15.43,-18.7 -15.43,-34.62zm-233.57 -308.65l0 266.95c0,131.43 60.58,266.16 136.33,360.01 48.14,59.66 136.77,135.55 208.6,166.79 112.87,49.1 106.22,40.66 227.9,-20.72 16.35,-8.24 23.88,-14.07 38.67,-23.9 151.33,-100.64 268.58,-296.05 268.58,-482.19l0 -266.95c0,-45.76 -57.76,-57.5 -87.06,-67.27l-231.51 -77.13c-25.23,-8.42 -96.86,-35.95 -119.97,-36.57 -23.33,-0.62 -291.72,92.78 -351.36,112.66 -30,10 -90.18,21.69 -90.18,68.31z"/>
  <rect class="fil1" width="2963.75" height="2266.39"/>
 </g>
</svg>
