<?xml version="1.0" encoding="UTF-8"?>
<!DOCTYPE svg PUBLIC "-//W3C//DTD SVG 1.1//EN" "http://www.w3.org/Graphics/SVG/1.1/DTD/svg11.dtd">
<!-- Creator: CorelDRAW -->
<svg xmlns="http://www.w3.org/2000/svg" xml:space="preserve" width="29.9862mm" height="22.9306mm" version="1.1" style="shape-rendering:geometricPrecision; text-rendering:geometricPrecision; image-rendering:optimizeQuality; fill-rule:evenodd; clip-rule:evenodd"
viewBox="0 0 2963.75 2266.39"
 xmlns:xlink="http://www.w3.org/1999/xlink"
 xmlns:xodm="http://www.corel.com/coreldraw/odm/2003">
 <defs>
  <style type="text/css">
   <![CDATA[
    .fil2 {fill:none}
    .fil1 {fill:#1080AF}
    .fil0 {fill:#1080AF;fill-rule:nonzero}
   ]]>
  </style>
 </defs>
 <g id="Capa_x0020_1">
  <metadata id="CorelCorpID_0Corel-Layer"/>
  <g id="_2518135679072">
   <path class="fil0" d="M1753.94 795.62l-164.54 0 0 -253.18c-0.01,-233 -188.96,-421.96 -421.97,-421.96 -233,0 -421.95,188.96 -421.95,421.96l-0.01 253.18 -168.79 0c-232.92,0.26 -421.71,189.05 -421.96,421.96l0 337.57c0.21,167.6 99.64,319.16 253.2,386.19l-0.03 120.19c0,46.59 37.8,84.39 84.4,84.39 46.61,0 84.39,-37.8 84.39,-84.4l0 -84.38 1181.51 0 0 84.38c0,46.6 37.78,84.4 84.38,84.4 46.61,0 84.4,-37.8 84.4,-84.4l0 -120.18c135.68,-59.22 229.08,-184.46 249.13,-328.44 -90.43,-44.48 -189.05,-128.75 -250,-204.28 -101.91,-126.28 -172.15,-296.38 -172.15,-460.14l0 -152.86zm-839.69 -253.18c0,-139.8 113.4,-253.18 253.18,-253.18 139.8,0 253.18,113.39 253.18,253.18l0 253.18 -506.36 0 0 -253.18zm590.76 675.15l-675.15 0c-46.6,-0.01 -84.38,-37.81 -84.38,-84.39 0,-46.59 37.78,-84.39 84.38,-84.39l675.15 0c46.61,0 84.38,37.8 84.38,84.39 0,46.58 -37.77,84.38 -84.38,84.38l0 0.01z"/>
   <path class="fil1" d="M2129.67 992.31c0,-79.84 81.98,-90.43 117.84,-43.33 11.21,14.71 21.09,28.27 31.18,43.33 16.37,-4.37 38.8,-22.05 52.8,-30.48 31.42,-18.93 145.77,-92.23 166.35,-92.23 64.95,0 96.07,85.01 28.88,125.31l-188.04 114.39c-35.09,20.8 -87.42,63.13 -129.61,5.23l-63.2 -85.83c-8.01,-10.6 -16.22,-19.66 -16.22,-36.38zm-245.45 -324.34l0 280.52c0,138.12 63.67,279.7 143.25,378.33 50.59,62.69 143.73,142.43 219.21,175.27 118.61,51.61 111.63,42.73 239.49,-21.76 17.18,-8.67 25.08,-14.8 40.62,-25.12 159.03,-105.75 282.25,-311.09 282.25,-506.71l0 -280.52c0,-48.09 -60.71,-60.43 -91.48,-70.69l-243.29 -81.07c-26.51,-8.84 -101.77,-37.77 -126.07,-38.42 -24.51,-0.66 -306.54,97.49 -369.22,118.39 -31.52,10.52 -94.77,22.8 -94.77,71.79z"/>
  </g>
  <rect class="fil2" width="2963.75" height="2266.39"/>
 </g>
</svg>
