<?xml version="1.0" encoding="UTF-8"?>
<!DOCTYPE svg PUBLIC "-//W3C//DTD SVG 1.1//EN" "http://www.w3.org/Graphics/SVG/1.1/DTD/svg11.dtd">
<!-- Creator: CorelDRAW -->
<svg xmlns="http://www.w3.org/2000/svg" xml:space="preserve" width="22.9306mm" height="22.9306mm" version="1.1" style="shape-rendering:geometricPrecision; text-rendering:geometricPrecision; image-rendering:optimizeQuality; fill-rule:evenodd; clip-rule:evenodd"
viewBox="0 0 2258.31 2258.31"
 xmlns:xlink="http://www.w3.org/1999/xlink"
 xmlns:xodm="http://www.corel.com/coreldraw/odm/2003">
 <defs>
  <style type="text/css">
   <![CDATA[
    .fil1 {fill:none}
    .fil0 {fill:#1080AF}
   ]]>
  </style>
 </defs>
 <g id="Capa_x0020_1">
  <metadata id="CorelCorpID_0Corel-Layer"/>
  <path class="fil0" d="M539.89 23.22l583.15 0c172.77,0 314.13,141.37 314.13,314.14l0 284.01c-20.81,6.99 -39.42,13.51 -52.99,18.02 -64.11,21.31 -127.9,43.57 -191.97,64.94 -27.15,9.05 -50.57,15.24 -76.36,28.95 -60.87,32.38 -100.96,88.8 -100.96,159.48l0 270.55c0,157.95 67.75,322.02 166.06,443.82 62.19,77.08 165.06,163.58 256.22,204.1l0 109.72c0,172.78 -141.36,314.14 -314.13,314.14l-583.15 0c-172.76,0 -314.13,-141.36 -314.13,-314.14l0 -1583.6c0,-172.78 141.36,-314.14 314.13,-314.14zm837.4 1182.37c0,-77.01 79.07,-87.22 113.66,-41.8 10.81,14.18 20.35,27.27 30.08,41.8 15.79,-4.22 37.43,-21.26 50.93,-29.4 30.31,-18.26 140.61,-88.97 160.45,-88.97 62.64,0 92.65,82 27.85,120.86l-181.36 110.33c-33.84,20.06 -84.32,60.88 -125.01,5.05l-60.95 -82.79c-7.73,-10.22 -15.65,-18.97 -15.65,-35.09zm-236.74 -312.83l0 270.55c0,133.23 61.42,269.79 138.17,364.91 48.8,60.47 138.63,137.39 211.43,169.05 114.41,49.77 107.66,41.22 231,-21 16.57,-8.35 24.2,-14.26 39.18,-24.23 153.38,-101.99 272.23,-300.04 272.23,-488.73l0 -270.55c0,-46.4 -58.55,-58.29 -88.24,-68.18l-234.65 -78.2c-25.57,-8.52 -98.16,-36.43 -121.59,-37.06 -23.65,-0.63 -295.67,94.04 -356.11,114.19 -30.4,10.14 -91.41,21.99 -91.41,69.24zm-568.32 -720.47l0 -0.01c0,-27.73 22.67,-50.39 50.4,-50.39l417.65 0c27.72,0 50.39,22.67 50.39,50.39l0 0.01c0,27.71 -22.68,50.39 -50.39,50.39l-417.65 0c-27.72,0 -50.4,-22.67 -50.4,-50.39zm190.63 1910.97l0 -0.01c0,-27.72 22.67,-50.39 50.4,-50.39l36.41 0c27.72,0 50.39,22.67 50.39,50.39l0 0.01c0,27.73 -22.67,50.4 -50.39,50.4l-36.41 0c-27.73,0 -50.4,-22.67 -50.4,-50.4z"/>
  <rect class="fil1" width="2258.31" height="2258.31"/>
 </g>
</svg>
