<?xml version="1.0" encoding="UTF-8"?>
<!DOCTYPE svg PUBLIC "-//W3C//DTD SVG 1.1//EN" "http://www.w3.org/Graphics/SVG/1.1/DTD/svg11.dtd">
<!-- Creator: CorelDRAW -->
<svg xmlns="http://www.w3.org/2000/svg" xml:space="preserve" width="22.9306mm" height="22.9306mm" version="1.1" style="shape-rendering:geometricPrecision; text-rendering:geometricPrecision; image-rendering:optimizeQuality; fill-rule:evenodd; clip-rule:evenodd"
viewBox="0 0 2258.31 2258.31"
 xmlns:xlink="http://www.w3.org/1999/xlink"
 xmlns:xodm="http://www.corel.com/coreldraw/odm/2003">
 <defs>
  <style type="text/css">
   <![CDATA[
    .fil1 {fill:none}
    .fil0 {fill:#1080AF}
   ]]>
  </style>
 </defs>
 <g id="Capa_x0020_1">
  <metadata id="CorelCorpID_0Corel-Layer"/>
  <g id="_2520793186912">
   <path class="fil0" d="M1853.04 1045.09c25.34,5.91 53.47,17.15 78.81,25.6 18.23,6.08 60.66,22.92 79.87,24.52l0 -171.21c-88.3,0 -143.55,-62.76 -158.68,-66.8l0 187.89zm-329.86 -367.45c0,65.37 60.66,125.27 125.26,125.27 74.48,0 129.44,-58.17 129.44,-133.62l0 -121.09 -254.7 0 0 129.44zm-1131.59 0c0,65.37 60.66,125.27 125.27,125.27 74.47,0 129.45,-58.17 129.45,-133.62l0 -121.09 -254.72 0 0 129.44zm1507.4 -16.69c0,42.26 13.21,76.51 34.33,99.27 83.79,90.27 220.38,23.4 220.38,-78.4l0 -133.61 -254.71 0 0 112.75zm-751.61 20.87c0,100.18 133.96,167.95 218.32,80.54 48.2,-49.93 36.38,-134.25 36.38,-214.16l-254.7 0 0 133.61zm-1131.59 0c0,153.65 254.71,171.85 254.71,-20.87l0 -112.75 -254.71 0 0 133.61zm751.61 -20.87c0,192.56 254.71,174.82 254.71,20.87l0 -133.61 -254.71 0 0 112.75zm521.95 263.05l0 225.48 329.33 -109.09c17.92,-5.97 36.19,-12.74 56.48,-18.69 66.89,-19.61 56.8,29.75 56.8,-97.7 0,-20.88 -14.86,0 -96.04,0 -65.41,0 -145.43,-45.03 -171.2,-83.52 -26.29,17.61 -28.19,28.36 -74.27,55.18 -21.22,12.36 -68.95,28.33 -101.1,28.33zm613.81 -496.89l229.67 0c0,-24.09 -19.3,-81.61 -25.94,-107.69 -8.94,-35.17 -19.03,-71.22 -29.21,-108.59 -6.94,-25.48 -33.11,-133.63 -46.66,-153.75 -8.22,-12.19 -25.98,-26.65 -44.34,-26.65l-167.03 0 63.19 354.38c2.43,15.32 2.87,42.31 20.33,42.31zm-1866.48 0l229.66 0c17.13,0 17.58,-24.99 19.77,-38.69l45.97 -254.68c5.46,-27.97 17.19,-76.98 17.77,-103.31l-167.02 0c-17.56,0 -34.53,13.37 -42.6,24.2 -10.33,13.9 -13.03,28.89 -18.57,48.23l-72.42 265.82c-5.16,19.63 -12.55,33.88 -12.55,58.44zm751.61 0l233.83 0 0 -396.69 -212.95 0c0,39.04 -14.01,153.88 -16.83,204.48l-13.6 149.31c-1.54,10.96 -11.6,42.89 9.55,42.89zm359.1 0l233.82 0c19.57,0 12.63,-24.12 10.2,-39.29l-14.25 -152.92c-1.94,-34.92 -7.04,-66.08 -8.5,-100.06 -1.51,-34.92 -8.33,-66.61 -8.33,-104.42l-212.94 0 0 396.69zm-496.9 0l37.59 -396.69 -212.96 0 -54.27 300.64c-18.49,112.39 -38.34,96.06 50.1,96.04 59.85,-0.03 119.7,0 179.55,0zm868.53 0l217.5 0.34c42.49,0.32 28.19,0.25 12.71,-92.77l-54.84 -304.26 -212.96 0c0.32,14.19 3.03,31.03 4.49,49.79l33.09 346.89zm-1361.25 496.89l0 759.96c0,76.97 101.02,62.64 158.68,62.64l0 -889.4c-27.97,14.79 -75.14,66.8 -158.68,66.8zm847.65 -16.7l0 839.3c199.73,0 188.05,12.63 176.25,-34.13 -3.86,-15.34 -6.47,-31.24 -8.54,-45.89 -14.41,-102.19 -9.04,-218.66 -9.04,-325 0,-147.54 0,-295.08 0,-442.61 -65.16,-34.48 -52.4,-40.44 -79.33,-58.47 -14.72,9.86 -22.68,22.88 -37.51,33.48 -25.54,18.27 -41.83,19.27 -41.83,33.33zm-471.84 16.7c-28.72,0 -43.13,1.76 -70.21,-5.44 -12.47,-3.32 -25.83,-12.65 -25.83,5.44l0 810.07c0,9.62 2.91,12.53 12.53,12.53l430.09 0 0 -822.59c-30.6,0 -77.42,-15.08 -98.49,-26.78l-54.44 -37.41c-11.04,-8.58 -10.57,-6.11 -14.09,-19.32 -16.82,4.5 -21.91,17.22 -35.11,27.54 -38.16,29.81 -90.03,55.98 -144.44,55.98z"/>
   <path class="fil0" d="M1541.82 1667.63c0,-82.35 84.55,-93.27 121.55,-44.69 11.55,15.17 21.75,29.15 32.16,44.69 16.88,-4.51 40.02,-22.75 54.45,-31.44 32.41,-19.53 150.37,-95.15 171.59,-95.15 66.98,0 99.09,87.69 29.78,129.24l-193.95 117.99c-36.18,21.45 -90.16,65.11 -133.67,5.4l-65.19 -88.53c-8.25,-10.93 -16.72,-20.28 -16.72,-37.52zm-253.16 -334.53l0 289.33c0,142.46 65.67,288.49 147.76,390.21 52.19,64.67 148.25,146.92 226.09,180.78 122.35,53.23 115.14,44.07 247.02,-22.45 17.72,-8.93 25.88,-15.25 41.91,-25.9 164.03,-109.07 291.11,-320.86 291.11,-522.63l0 -289.33c0,-49.61 -62.61,-62.33 -94.36,-72.91l-250.93 -83.61c-27.34,-9.12 -104.97,-38.96 -130.03,-39.63 -25.28,-0.68 -316.18,100.55 -380.81,122.11 -32.51,10.84 -97.76,23.52 -97.76,74.04z"/>
  </g>
  <rect class="fil1" width="2258.31" height="2258.31"/>
 </g>
</svg>
