<?xml version="1.0" encoding="UTF-8"?>
<!DOCTYPE svg PUBLIC "-//W3C//DTD SVG 1.1//EN" "http://www.w3.org/Graphics/SVG/1.1/DTD/svg11.dtd">
<!-- Creator: CorelDRAW -->
<svg xmlns="http://www.w3.org/2000/svg" xml:space="preserve" width="22.9306mm" height="22.9306mm" version="1.1" style="shape-rendering:geometricPrecision; text-rendering:geometricPrecision; image-rendering:optimizeQuality; fill-rule:evenodd; clip-rule:evenodd"
viewBox="0 0 2258.31 2258.31"
 xmlns:xlink="http://www.w3.org/1999/xlink"
 xmlns:xodm="http://www.corel.com/coreldraw/odm/2003">
 <defs>
  <style type="text/css">
   <![CDATA[
    .fil2 {fill:none}
    .fil1 {fill:#1080AF}
    .fil0 {fill:#1080AF;fill-rule:nonzero}
   ]]>
  </style>
 </defs>
 <g id="Capa_x0020_1">
  <metadata id="CorelCorpID_0Corel-Layer"/>
  <g id="_2520443507984">
   <path class="fil0" d="M1125.24 2065.84l-285.09 0c-722.26,0 -812.63,-629.36 -813.44,-635.73l-11.89 -91.19 1247.32 0 0 244.51c0,152.31 65.33,310.52 160.13,427.99 2.59,3.21 5.26,6.44 8,9.69 -86.6,27.97 -187.44,44.73 -305,44.73l-0.02 0zm219.44 -888.46l-360.4 0 0.74 -1048.49 825.68 895.73c-49.6,2.55 -148.49,38.94 -192.46,53.57 -61.83,20.55 -123.34,42.01 -185.12,62.62 -26.2,8.74 -48.77,14.7 -73.65,27.94 -5.08,2.7 -10.02,5.58 -14.79,8.64zm-521.91 0l-797.35 0 797.41 -899.39 0 899.34 -0.06 0.05z"/>
   <path class="fil1" d="M1611.6 1624.19c0,-74.26 76.25,-84.11 109.61,-40.3 10.42,13.68 19.61,26.29 28.99,40.3 15.23,-4.06 36.09,-20.5 49.1,-28.34 29.23,-17.62 135.59,-85.8 154.74,-85.8 60.4,0 89.36,79.07 26.86,116.55l-174.9 106.4c-32.63,19.34 -81.31,58.72 -120.55,4.87l-58.79 -79.83c-7.45,-9.86 -15.08,-18.28 -15.08,-33.84zm-228.31 -301.68l0 260.92c0,128.47 59.23,260.16 133.25,351.89 47.07,58.31 133.69,132.49 203.89,163.03 110.32,47.99 103.82,39.74 222.75,-20.26 15.97,-8.06 23.34,-13.75 37.79,-23.36 147.91,-98.36 262.52,-289.35 262.52,-471.3l0 -260.92c0,-44.73 -56.46,-56.21 -85.09,-65.75l-226.28 -75.4c-24.66,-8.22 -94.67,-35.13 -117.27,-35.74 -22.8,-0.61 -285.12,90.68 -343.42,110.13 -29.32,9.77 -88.15,21.2 -88.15,66.76z"/>
  </g>
  <rect class="fil2" width="2258.31" height="2258.31"/>
 </g>
</svg>
