<?xml version="1.0" encoding="UTF-8"?>
<!DOCTYPE svg PUBLIC "-//W3C//DTD SVG 1.1//EN" "http://www.w3.org/Graphics/SVG/1.1/DTD/svg11.dtd">
<!-- Creator: CorelDRAW -->
<svg xmlns="http://www.w3.org/2000/svg" xml:space="preserve" width="29.9862mm" height="22.9306mm" version="1.1" style="shape-rendering:geometricPrecision; text-rendering:geometricPrecision; image-rendering:optimizeQuality; fill-rule:evenodd; clip-rule:evenodd"
viewBox="0 0 2963.75 2266.39"
 xmlns:xlink="http://www.w3.org/1999/xlink"
 xmlns:xodm="http://www.corel.com/coreldraw/odm/2003">
 <defs>
  <style type="text/css">
   <![CDATA[
    .fil1 {fill:none}
    .fil0 {fill:#1080AF}
   ]]>
  </style>
 </defs>
 <g id="Capa_x0020_1">
  <metadata id="CorelCorpID_0Corel-Layer"/>
  <g id="_2519251047952">
   <path class="fil0" d="M999.29 1957.55c3.26,-21.07 -13.58,-70.71 -39.73,-96.84 -132.04,-131.96 -313.13,65.21 -193.69,184.58 89.66,89.6 208.53,23.9 226.92,-57.82l6.5 -29.92zm1648.09 -414.3l0 -18.22c0,-81.1 -38.6,-145.49 -66.77,-201.84 -30.75,-61.51 -58.79,-117.58 -89.54,-179.07l-89.67 -178.93c-31.72,-54.82 -93.5,-104.86 -163.75,-104.86l-218.54 0c-95.19,0 -191.21,96.31 -191.21,191.22l0 355.11 -136.58 0 0 -346.01c0,-52.58 -24.72,-104.62 -60.21,-140.11 -89.3,-89.31 -257.47,-88.67 -337.87,56.16 -11.93,21.48 -20.77,44.43 -20.77,74.85l0 355.11 -764.86 0c-95.19,0 -191.21,96.31 -191.21,191.21l0 163.33c4.87,49.39 20.14,91.62 62.51,133.83 64.7,64.46 127.28,57.96 210.65,57.96 0,153.43 126.09,273.17 259.5,273.17 86.04,0 156.92,-25.03 207.3,-79.52 23.79,-25.73 38.75,-43.65 54.19,-77.84 18.95,-41.99 25.33,-64.15 25.33,-115.8l555.44 0c0,81.77 28.52,138.49 79.52,193.64 50.38,54.5 121.26,79.52 207.3,79.52 133.41,0 259.51,-119.73 259.51,-273.17l218.53 0c94.9,0 191.21,-96.02 191.21,-191.21l0 -81.96 0 -136.57zm-546.32 414.3c1.11,-7.17 -9.08,-48.87 -12.15,-56.15 -54.23,-128.54 -251.65,-103.42 -259.68,47.97 -7.61,143.66 195.41,192.14 256.82,61.46 4.23,-9 6.03,-12.36 8.5,-23.36 1.51,-6.7 1.34,-9.41 2.61,-15.61 2.68,-13.14 2.89,-7.73 3.9,-14.31zm104.71 -960.63l-168.45 0c-47.1,0 -72.84,34.03 -72.84,81.95l0 191.22 432.5 0c-4.55,-19.52 -26.97,-58.5 -36.41,-77.4l-77.52 -154.68c-15.62,-27.66 -34.25,-41.09 -77.28,-41.09z"/>
   <path class="fil0" d="M1431.8 728.31c-13.6,6.52 -13.17,2.86 -29.84,6.58 -50.27,11.21 -107.36,40.03 -144.32,74.21l-36.42 36.42c-21.32,23.06 -28.28,33.14 -44.5,64.77 -28.4,55.36 -31.44,99.27 -36.29,109.39l-549.76 -547.45c-0.79,67.23 4.79,368.38 -8.54,417.11 -30,109.62 -109.65,103.07 -125.16,157.44 -24.97,87.56 111.58,123.52 130.08,29.59 7.9,-40.09 7.37,-79.46 79.89,-79.46 113.47,0 65.35,273.17 -150.24,273.17 -108.99,0 -191.81,-88.51 -200.31,-188.75l0 -34.08c3.79,-43.9 22.37,-88.37 59.63,-127.29l29.51 -25.11c23.03,-15.82 33.49,-16.19 42.15,-44.35 21.6,-70.1 -10.91,-585.95 10.58,-663.24 35.15,-126.46 204.49,-205.4 337.58,-93.2 62.33,52.57 218.72,214.71 275.16,271.17 26.94,26.93 347.03,342.49 360.8,363.08z"/>
  </g>
  <rect class="fil1" width="2963.75" height="2266.39"/>
 </g>
</svg>
