<?xml version="1.0" encoding="UTF-8"?>
<!DOCTYPE svg PUBLIC "-//W3C//DTD SVG 1.1//EN" "http://www.w3.org/Graphics/SVG/1.1/DTD/svg11.dtd">
<!-- Creator: CorelDRAW -->
<svg xmlns="http://www.w3.org/2000/svg" xml:space="preserve" width="22.9306mm" height="22.9306mm" version="1.1" style="shape-rendering:geometricPrecision; text-rendering:geometricPrecision; image-rendering:optimizeQuality; fill-rule:evenodd; clip-rule:evenodd"
viewBox="0 0 2258.31 2258.31"
 xmlns:xlink="http://www.w3.org/1999/xlink"
 xmlns:xodm="http://www.corel.com/coreldraw/odm/2003">
 <defs>
  <style type="text/css">
   <![CDATA[
    .fil1 {fill:none}
    .fil0 {fill:#1080AF}
   ]]>
  </style>
 </defs>
 <g id="Capa_x0020_1">
  <metadata id="CorelCorpID_0Corel-Layer"/>
  <g id="_2521254452512">
   <path class="fil0" d="M377.64 858.2l0 791.46c0,89.33 -21.13,200.88 64.28,200.88l321.41 0 0 -779.42c0,-29.47 30.15,-56.24 64.28,-56.24l474.09 0c134.32,0 -66.92,123.63 248.58,19.58 28.8,-9.59 62.77,-24.01 96.98,-27.76 62.72,-6.87 72.42,11.49 104.41,12.21l0 -160.71c-14.64,-3.91 -156.32,-95.39 -171.98,-105.25l-427.93 -267.11c-30.58,-18.07 -56.41,-37.27 -87.1,-53.52 -29.57,15.65 -56.48,35.22 -84.57,52.05 -82.65,49.48 -582.46,368.49 -602.45,373.83zm-40.17 -546.4c19.01,-4.43 128.01,-75.61 153.45,-91.63 25.01,-15.74 238.71,-153.35 256.35,-157.46 -1.72,-20.75 -24.58,-28.13 -44.19,-28.13l-305.34 0c-68.4,0 -60.26,72.95 -60.26,108.48 0.01,56.24 0,112.49 0,168.73zm542.38 1526.69c0,19.17 32.57,12.06 68.3,12.05l253.12 0c-1.24,-14.78 -18.69,-47.55 -25.29,-63.1 -24.74,-58.31 -47.03,-157.56 -47.03,-222.15l0 -277.21c0,-54.59 42.46,-114.67 89.73,-139.26l22.76 -13.41 -361.59 0 0 703.08zm-843.7 -1161.09c0,32.27 44.61,91.78 63.49,121.32 5.45,8.53 7.72,14.73 13.84,22.32 46.94,58.17 110.19,-5.54 162.44,-36.45l719.65 -449.47c80.44,-51.92 76.82,-39.33 190.4,32.15l494.18 309.35c19.68,12.7 37.11,22.2 57.09,35.33l111.05 69.73c18.63,11.17 35.44,21.48 54.42,33.97 77.44,50.91 97.21,35.01 139.51,-36.51 20.87,-35.33 46.37,-65.72 50.95,-94.47l0 -17.36c-2.92,-16.57 -14.84,-32.82 -40.94,-49.39l-321.42 -200.87c-163,-105.2 -352.44,-215.07 -511.84,-319.81l-64.62 -39.83c-23.74,-13.3 -49.95,-20.92 -76.52,-22.82l-26.53 0c-25.53,1.82 -50.72,8.94 -73.71,21.4 -59.23,32.08 -262.73,162.14 -321.93,200.36 -165.44,106.8 -343.52,213.93 -511.81,319.84 -22.33,14.04 -41.73,26.13 -64.3,40.17 -22.26,13.85 -43.4,26.12 -43.4,61.05z"/>
   <path class="fil0" d="M1497.46 1644.3c0,-85.17 87.44,-96.47 125.71,-46.22 11.96,15.69 22.49,30.15 33.26,46.22 17.46,-4.66 41.39,-23.52 56.32,-32.51 33.52,-20.2 155.51,-98.41 177.46,-98.41 69.28,0 102.48,90.69 30.81,133.67l-200.59 122.02c-37.42,22.19 -93.25,67.34 -138.25,5.58l-67.41 -91.55c-8.54,-11.31 -17.29,-20.97 -17.29,-38.81zm-261.83 -345.99l0 299.24c0,147.34 67.92,298.37 152.82,403.57 53.97,66.88 153.32,151.94 233.83,186.97 126.53,55.04 119.08,45.58 255.47,-23.22 18.33,-9.25 26.77,-15.78 43.34,-26.8 169.64,-112.8 301.08,-331.85 301.08,-540.52l0 -299.24c0,-51.3 -64.75,-64.47 -97.59,-75.41l-259.52 -86.47c-28.28,-9.43 -108.57,-40.29 -134.48,-40.99 -26.15,-0.7 -327.01,104 -393.86,126.3 -33.62,11.21 -101.09,24.32 -101.09,76.57z"/>
  </g>
  <rect class="fil1" width="2258.31" height="2258.31"/>
 </g>
</svg>
