<?xml version="1.0" encoding="UTF-8"?>
<!DOCTYPE svg PUBLIC "-//W3C//DTD SVG 1.1//EN" "http://www.w3.org/Graphics/SVG/1.1/DTD/svg11.dtd">
<!-- Creator: CorelDRAW -->
<svg xmlns="http://www.w3.org/2000/svg" xml:space="preserve" width="29.9862mm" height="22.9306mm" version="1.1" style="shape-rendering:geometricPrecision; text-rendering:geometricPrecision; image-rendering:optimizeQuality; fill-rule:evenodd; clip-rule:evenodd"
viewBox="0 0 2963.75 2266.39"
 xmlns:xlink="http://www.w3.org/1999/xlink"
 xmlns:xodm="http://www.corel.com/coreldraw/odm/2003">
 <defs>
  <style type="text/css">
   <![CDATA[
    .fil1 {fill:none}
    .fil0 {fill:#1080AF}
   ]]>
  </style>
 </defs>
 <g id="Capa_x0020_1">
  <metadata id="CorelCorpID_0Corel-Layer"/>
  <path class="fil0" d="M991.38 531.9l-298.2 446.58 311.61 0 -209.96 403.86 662.06 -573.12 -409.1 -5.16 207.39 -272.16 -263.81 0zm1140.04 895.92c0,-76.11 78.15,-86.21 112.34,-41.31 10.67,14.02 20.1,26.95 29.72,41.31 15.61,-4.16 36.99,-21.02 50.34,-29.06 29.96,-18.05 138.97,-87.93 158.58,-87.93 61.91,0 91.58,81.05 27.53,119.45l-179.26 109.04c-33.44,19.83 -83.33,60.19 -123.55,4.99l-60.24 -81.81c-7.64,-10.11 -15.46,-18.75 -15.46,-34.69zm-234 -309.19l0 267.41c0,131.68 60.71,266.64 136.58,360.66 48.22,59.77 137.01,135.78 208.96,167.07 113.07,49.2 106.41,40.74 228.29,-20.75 16.39,-8.26 23.93,-14.09 38.73,-23.95 151.61,-100.79 269.06,-296.56 269.06,-483.04l0 -267.41c0,-45.85 -57.87,-57.6 -87.21,-67.38l-231.92 -77.29c-25.27,-8.42 -97.02,-36 -120.18,-36.62 -23.37,-0.63 -292.23,92.95 -351.97,112.86 -30.05,10.02 -90.36,21.72 -90.36,68.42zm72.16 -193.31l-138.68 -554.77c-51.81,-207.05 -236.95,-351.65 -450.45,-351.65l-81.45 0c-51.35,0 -92.86,41.6 -92.86,92.87 0,51.28 41.51,92.87 92.86,92.87l81.42 0c128.06,0 239.2,86.82 270.31,210.95l151.79 607.13c17.32,-25.35 41.5,-46.28 70.48,-61.68 25.5,-13.56 48.63,-19.68 75.48,-28.63l21.09 -7.07zm-196.34 265.63l-248.99 304.27c-53.05,64.99 -131.69,102.23 -215.53,102.23l-1031.12 0c-51.36,0 -92.88,41.58 -92.88,92.88 0,51.27 41.52,92.85 92.88,92.85l72.33 0c-44.48,49.41 -72.33,114.03 -72.33,185.72 0,153.86 124.68,278.59 278.57,278.59 153.9,0 278.59,-124.7 278.59,-278.59 0,-71.7 -27.86,-136.32 -72.33,-185.72l546.22 0c139.85,0 270.75,-62.02 359.27,-170.29l112.36 -137.27c-4.62,-29.86 -7.05,-59.83 -7.05,-89.58l0 -195.08zm142.67 605.8c-37.45,47.37 -59.88,107.11 -59.88,172.05 0,153.56 124.98,278.57 278.59,278.57 120.78,0 223.85,-77.27 262.39,-184.97 -57.56,16.65 -106.3,7.58 -203.59,-34.73 -90.79,-39.51 -193.96,-126 -256.07,-202.98 -7.33,-9.07 -14.48,-18.39 -21.45,-27.93z"/>
  <rect class="fil1" width="2963.75" height="2266.39"/>
 </g>
</svg>
