<?xml version="1.0" encoding="UTF-8"?>
<!DOCTYPE svg PUBLIC "-//W3C//DTD SVG 1.1//EN" "http://www.w3.org/Graphics/SVG/1.1/DTD/svg11.dtd">
<!-- Creator: CorelDRAW -->
<svg xmlns="http://www.w3.org/2000/svg" xml:space="preserve" width="22.9306mm" height="22.9306mm" version="1.1" style="shape-rendering:geometricPrecision; text-rendering:geometricPrecision; image-rendering:optimizeQuality; fill-rule:evenodd; clip-rule:evenodd"
viewBox="0 0 2258.31 2258.31"
 xmlns:xlink="http://www.w3.org/1999/xlink"
 xmlns:xodm="http://www.corel.com/coreldraw/odm/2003">
 <defs>
  <style type="text/css">
   <![CDATA[
    .fil0 {fill:none}
    .fil1 {fill:#1080AF}
   ]]>
  </style>
 </defs>
 <g id="Capa_x0020_1">
  <metadata id="CorelCorpID_0Corel-Layer"/>
  <rect class="fil0" width="2258.31" height="2258.31"/>
  <g id="_2521168784608">
   <path class="fil1" d="M456.87 904.43l0 669.19c0,27.01 13.48,69.12 21.93,90.3 19.98,50.05 53.43,97.41 95.63,128.82 15.45,11.5 52.21,38.45 69.49,42.74l124.69 0 0 162.11c0,86.95 87.62,174.57 174.57,174.57l24.94 0c74.66,0 149.8,-64.6 169.56,-137.9 -90.25,-128.7 -150.03,-290.13 -150.03,-446.17l0 -299.24c0,-78.16 44.33,-140.56 111.64,-176.37 28.53,-15.18 54.42,-22.02 84.46,-32.04 70.86,-23.64 141.4,-48.24 212.31,-71.82 14.96,-4.97 35.45,-12.15 58.37,-19.85l0 -84.36c0,-122.66 -114.26,-236.92 -236.92,-236.92l-523.72 0c-122.66,0 -236.92,114.26 -236.92,236.92zm-311.73 -548.66l249.39 0c0,64.67 -10.26,150.9 87.5,182.66 35.05,11.39 147.38,4.38 195.14,4.38 -46.89,-70.01 -84.72,-111.31 -91.59,-215.99 -1.12,-17.05 -5.7,-25.68 -3.55,-45.13 1.91,-17.2 3.69,-27.23 3.69,-50.63l-440.59 0 0 124.7zm1089.01 187.04c117.21,0 193.43,21.56 252.63,-42.49 38.11,-41.23 30.01,-87.56 30.01,-144.56l249.39 0 0 -124.7 -440.59 0c0,106.01 7.35,150.58 -48.55,250.71 -13.5,24.17 -28.91,40.14 -42.89,61.03zm-527.88 -261.86l0 24.94c0,122.66 114.26,236.92 236.92,236.92l24.94 0c122.66,0 236.92,-114.26 236.92,-236.92l0 -24.94c0,-122.66 -114.26,-236.92 -236.92,-236.92l-24.94 0c-122.66,0 -236.92,114.26 -236.92,236.92z"/>
   <path class="fil1" d="M1388.46 1634.86c0,-85.17 87.44,-96.47 125.71,-46.22 11.96,15.69 22.49,30.15 33.26,46.22 17.46,-4.66 41.39,-23.52 56.32,-32.51 33.52,-20.2 155.51,-98.41 177.46,-98.41 69.28,0 102.48,90.69 30.81,133.67l-200.59 122.02c-37.42,22.19 -93.25,67.34 -138.25,5.58l-67.41 -91.55c-8.54,-11.31 -17.29,-20.97 -17.29,-38.81zm-261.83 -345.99l0 299.24c0,147.34 67.92,298.37 152.82,403.57 53.97,66.88 153.32,151.94 233.83,186.97 126.53,55.04 119.08,45.58 255.47,-23.22 18.33,-9.25 26.77,-15.78 43.34,-26.8 169.64,-112.8 301.08,-331.85 301.08,-540.52l0 -299.24c0,-51.3 -64.75,-64.47 -97.59,-75.41l-259.52 -86.47c-28.28,-9.43 -108.57,-40.29 -134.48,-40.99 -26.15,-0.7 -327.01,104 -393.86,126.3 -33.62,11.21 -101.09,24.32 -101.09,76.57z"/>
  </g>
 </g>
</svg>
