<?xml version="1.0" encoding="UTF-8"?>
<!DOCTYPE svg PUBLIC "-//W3C//DTD SVG 1.1//EN" "http://www.w3.org/Graphics/SVG/1.1/DTD/svg11.dtd">
<!-- Creator: CorelDRAW -->
<svg xmlns="http://www.w3.org/2000/svg" xml:space="preserve" width="29.9862mm" height="22.9306mm" version="1.1" style="shape-rendering:geometricPrecision; text-rendering:geometricPrecision; image-rendering:optimizeQuality; fill-rule:evenodd; clip-rule:evenodd"
viewBox="0 0 2963.75 2266.39"
 xmlns:xlink="http://www.w3.org/1999/xlink"
 xmlns:xodm="http://www.corel.com/coreldraw/odm/2003">
 <defs>
  <style type="text/css">
   <![CDATA[
    .fil2 {fill:none}
    .fil1 {fill:#1080AF}
    .fil0 {fill:#1080AF;fill-rule:nonzero}
   ]]>
  </style>
 </defs>
 <g id="Capa_x0020_1">
  <metadata id="CorelCorpID_0Corel-Layer"/>
  <g id="_2520800663760">
   <path class="fil0" d="M903.5 1706.82l-80.88 -95.61 -778.69 0 0 95.61c0,158.37 128.45,286.81 286.82,286.81l1720.85 0c143.43,0 262.32,-105.36 283.47,-242.89 -21.57,-7.36 -45.52,-16.92 -72.92,-28.84 -56.13,-24.42 -116.48,-64.85 -171.03,-110.68l-530.92 0 -80.97 95.61 -575.74 0z"/>
   <path class="fil0" d="M912.21 1420.01l80.97 95.61 397.43 0 80.88 -95.61 449.84 0c-79.57,-123.93 -131.04,-273.63 -131.04,-418.67l0 -300.31c0,-78.44 44.49,-141.06 112.04,-177 28.63,-15.23 54.62,-22.1 84.76,-32.15 53.45,-17.83 106.72,-36.2 160.12,-54.28l0 -164.83 -1912.06 0 0 1147.24 677.06 0z"/>
   <path class="fil1" d="M2192.52 1048.26c0,-85.47 87.76,-96.81 126.16,-46.38 12,15.74 22.57,30.25 33.38,46.38 17.52,-4.67 41.54,-23.6 56.52,-32.63 33.64,-20.27 156.06,-98.76 178.09,-98.76 69.53,0 102.85,91.02 30.92,134.15l-201.31 122.46c-37.56,22.27 -93.58,67.58 -138.75,5.6l-67.65 -91.88c-8.57,-11.35 -17.36,-21.04 -17.36,-38.95zm-262.77 -347.22l0 300.31c0,147.87 68.16,299.44 153.37,405.01 54.16,67.12 153.87,152.49 234.67,187.64 126.99,55.24 119.5,45.74 256.38,-23.31 18.39,-9.28 26.86,-15.83 43.5,-26.89 170.25,-113.21 302.16,-333.04 302.16,-542.46l0 -300.31c0,-51.48 -64.99,-64.7 -97.94,-75.68l-260.45 -86.78c-28.39,-9.47 -108.96,-40.43 -134.96,-41.14 -26.24,-0.7 -328.18,104.37 -395.27,126.75 -33.74,11.25 -101.46,24.4 -101.46,76.85z"/>
   <path class="fil1" d="M2192.52 1048.26c0,-85.47 87.76,-96.81 126.16,-46.38 12,15.74 22.57,30.25 33.38,46.38 17.52,-4.67 41.54,-23.6 56.52,-32.63 33.64,-20.27 156.06,-98.76 178.09,-98.76 69.53,0 102.85,91.02 30.92,134.15l-201.31 122.46c-37.56,22.27 -93.58,67.58 -138.75,5.6l-67.65 -91.88c-8.57,-11.35 -17.36,-21.04 -17.36,-38.95zm-262.77 -347.22l0 300.31c0,147.87 68.16,299.44 153.37,405.01 54.16,67.12 153.87,152.49 234.67,187.64 126.99,55.24 119.5,45.74 256.38,-23.31 18.39,-9.28 26.86,-15.83 43.5,-26.89 170.25,-113.21 302.16,-333.04 302.16,-542.46l0 -300.31c0,-51.48 -64.99,-64.7 -97.94,-75.68l-260.45 -86.78c-28.39,-9.47 -108.96,-40.43 -134.96,-41.14 -26.24,-0.7 -328.18,104.37 -395.27,126.75 -33.74,11.25 -101.46,24.4 -101.46,76.85z"/>
  </g>
  <rect class="fil2" width="2963.75" height="2266.39"/>
 </g>
</svg>
