<?xml version="1.0" encoding="UTF-8"?>
<!DOCTYPE svg PUBLIC "-//W3C//DTD SVG 1.1//EN" "http://www.w3.org/Graphics/SVG/1.1/DTD/svg11.dtd">
<!-- Creator: CorelDRAW -->
<svg xmlns="http://www.w3.org/2000/svg" xml:space="preserve" width="21.775mm" height="21.775mm" version="1.1" style="shape-rendering:geometricPrecision; text-rendering:geometricPrecision; image-rendering:optimizeQuality; fill-rule:evenodd; clip-rule:evenodd"
viewBox="0 0 298.25 298.25"
 xmlns:xlink="http://www.w3.org/1999/xlink"
 xmlns:xodm="http://www.corel.com/coreldraw/odm/2003">
 <defs>
  <style type="text/css">
   <![CDATA[
    .fil1 {fill:#999999}
    .fil0 {fill:#999999;fill-rule:nonzero}
   ]]>
  </style>
 </defs>
 <g id="Capa_x0020_1">
  <metadata id="CorelCorpID_0Corel-Layer"/>
  <path class="fil0" d="M149.12 0c41.18,0 78.46,16.69 105.45,43.68 26.98,26.99 43.68,64.27 43.68,105.45 0,41.18 -16.69,78.46 -43.68,105.45 -26.99,26.99 -64.27,43.68 -105.45,43.68 -41.18,0 -78.46,-16.69 -105.45,-43.68 -26.99,-26.99 -43.68,-64.27 -43.68,-105.45 0,-41.18 16.69,-78.46 43.68,-105.45 26.99,-26.99 64.27,-43.68 105.45,-43.68zm85.52 63.6c-21.89,-21.88 -52.12,-35.42 -85.52,-35.42 -33.4,0 -63.64,13.54 -85.52,35.42 -21.88,21.88 -35.42,52.12 -35.42,85.52 0,33.4 13.54,63.64 35.42,85.52 21.88,21.89 52.12,35.42 85.52,35.42 33.4,0 63.64,-13.54 85.52,-35.42 21.88,-21.88 35.42,-52.12 35.42,-85.52 0,-33.4 -13.54,-63.64 -35.42,-85.52z"/>
  <rect class="fil1" x="125.06" y="79.01" width="48.14" height="140.23" rx="14.5" ry="14.5"/>
  <rect class="fil1" transform="matrix(2.64845E-14 -1 1 2.64845E-14 79.0092 173.195)" width="48.14" height="140.23" rx="14.5" ry="14.5"/>
 </g>
</svg>
