<?xml version="1.0" encoding="UTF-8"?>
<!DOCTYPE svg PUBLIC "-//W3C//DTD SVG 1.1//EN" "http://www.w3.org/Graphics/SVG/1.1/DTD/svg11.dtd">
<!-- Creator: CorelDRAW -->
<svg xmlns="http://www.w3.org/2000/svg" xml:space="preserve" width="22.9306mm" height="22.9306mm" version="1.1" style="shape-rendering:geometricPrecision; text-rendering:geometricPrecision; image-rendering:optimizeQuality; fill-rule:evenodd; clip-rule:evenodd"
viewBox="0 0 2258.31 2258.31"
 xmlns:xlink="http://www.w3.org/1999/xlink"
 xmlns:xodm="http://www.corel.com/coreldraw/odm/2003">
 <defs>
  <style type="text/css">
   <![CDATA[
    .fil1 {fill:none}
    .fil0 {fill:#1080AF}
   ]]>
  </style>
 </defs>
 <g id="Capa_x0020_1">
  <metadata id="CorelCorpID_0Corel-Layer"/>
  <g id="_2520448924480">
   <path class="fil0" d="M740.49 1612.99l0 -777.34c0,-90.26 125.24,-77.64 125.24,-8.64l0 790.3c0,71.59 -125.24,71.88 -125.24,-4.32zm-259.11 4.32l0 -790.3c0,-68.95 125.24,-81.72 125.24,8.64l0 768.7c0,91.38 -125.24,81.77 -125.24,12.96zm-263.43 -919.86l0 1040.77c0,80.52 77.18,169.48 146.83,185.7 0,57.77 -10.53,100.06 27.44,128.03 51.52,37.95 106.43,-6.35 106.43,-58.93l0 -56.15 552.78 0c19.15,0 8.99,-13.45 2.64,-28.25 -38.61,-89.81 -54.46,-209.24 -54.46,-308.6l0 -760.07c0,-65.44 73.73,-89.67 110.55,-50.08 8.89,9.56 16.97,27.4 18.62,41.84l0.38 375.33 203.53 -68.55c16.49,-5.5 59.91,-13.92 59.91,-30.79l0 -367.07c0,-146.11 -91.01,-241.84 -224.56,-241.84l-729.84 0c-87.82,0 -161.99,48.55 -195.88,115.06 -11,21.59 -24.37,53.46 -24.37,83.59z"/>
   <path class="fil0" d="M1371 1699.36c0,-78.67 80.78,-89.1 116.11,-42.7 11.04,14.5 20.78,27.85 30.72,42.7 16.13,-4.3 38.24,-21.73 52.02,-30.04 30.96,-18.65 143.64,-90.88 163.92,-90.88 63.99,0 94.65,83.77 28.45,123.46l-185.28 112.71c-34.56,20.49 -86.12,62.2 -127.7,5.16l-62.26 -84.56c-7.89,-10.45 -15.98,-19.37 -15.98,-35.85zm-241.84 -319.57l0 276.39c0,136.1 62.73,275.59 141.16,372.75 49.84,61.78 141.61,140.35 215.98,172.69 116.87,50.85 109.99,42.1 235.97,-21.45 16.92,-8.54 24.72,-14.57 40.02,-24.75 156.69,-104.19 278.09,-306.51 278.09,-499.25l0 -276.39c0,-47.39 -59.81,-59.54 -90.14,-69.65l-239.7 -79.87c-26.12,-8.72 -100.28,-37.22 -124.21,-37.86 -24.15,-0.65 -302.03,96.06 -363.78,116.65 -31.05,10.36 -93.38,22.46 -93.38,70.73z"/>
   <path class="fil0" d="M541.83 161.96l0 211.6 133.88 0 0 -220.24 254.79 0 0 207.29c0,9.95 3,12.95 12.96,12.95l120.92 0 0 -228.88c0,-29.59 -20.41,-64.71 -35.51,-81.09 -16,-17.35 -49.84,-39.83 -81.09,-39.83l-280.7 0c-73.02,0 -125.24,63.79 -125.24,138.19z"/>
  </g>
  <rect class="fil1" width="2258.31" height="2258.31"/>
 </g>
</svg>
