<?xml version="1.0" encoding="UTF-8"?>
<!DOCTYPE svg PUBLIC "-//W3C//DTD SVG 1.1//EN" "http://www.w3.org/Graphics/SVG/1.1/DTD/svg11.dtd">
<!-- Creator: CorelDRAW -->
<svg xmlns="http://www.w3.org/2000/svg" xml:space="preserve" width="32.0744mm" height="18.297mm" version="1.1" style="shape-rendering:geometricPrecision; text-rendering:geometricPrecision; image-rendering:optimizeQuality; fill-rule:evenodd; clip-rule:evenodd"
viewBox="0 0 237.4 135.42"
 xmlns:xlink="http://www.w3.org/1999/xlink"
 xmlns:xodm="http://www.corel.com/coreldraw/odm/2003">
 <defs>
  <style type="text/css">
   <![CDATA[
    .fil0 {fill:#55BAC6}
    .fil1 {fill:white}
   ]]>
  </style>
 </defs>
 <g id="Capa_x0020_1">
  <metadata id="CorelCorpID_0Corel-Layer"/>
  <path class="fil0" d="M237.4 105.82c-6.61,-59.53 -57.09,-105.82 -118.38,-105.82 -64.13,0 -116.42,50.68 -119.01,114.17l236.73 0 0.67 -8.34z"/>
  <path class="fil1" d="M137.06 102.58c4.89,7.85 4.3,18.28 -2.13,25.57 -7.85,8.9 -21.42,9.75 -30.32,1.9 -8.9,-7.85 -9.75,-21.42 -1.9,-30.32 6.53,-7.4 17.02,-9.23 25.49,-5.12l41.13 -46.63c2.17,-2.46 5.95,-2.7 8.41,-0.53l0 0c2.46,2.17 2.7,5.95 0.53,8.41l-41.2 46.71z"/>
 </g>
</svg>
