<?xml version="1.0" encoding="UTF-8"?>
<!DOCTYPE svg PUBLIC "-//W3C//DTD SVG 1.1//EN" "http://www.w3.org/Graphics/SVG/1.1/DTD/svg11.dtd">
<!-- Creator: CorelDRAW -->
<svg xmlns="http://www.w3.org/2000/svg" xml:space="preserve" width="73.5046mm" height="21.1666mm" version="1.1" style="shape-rendering:geometricPrecision; text-rendering:geometricPrecision; image-rendering:optimizeQuality; fill-rule:evenodd; clip-rule:evenodd"
viewBox="0 0 7350.46 2116.66"
 xmlns:xlink="http://www.w3.org/1999/xlink"
 xmlns:xodm="http://www.corel.com/coreldraw/odm/2003">
 <defs>
  <style type="text/css">
   <![CDATA[
    .fil0 {fill:none}
    .fil1 {fill:#003781;fill-rule:nonzero}
   ]]>
  </style>
 </defs>
 <g id="Capa_x0020_1">
  <metadata id="CorelCorpID_0Corel-Layer"/>
  <rect class="fil0" x="-28.94" width="7350.46" height="2116.66"/>
  <g id="_2521142704448">
   <path class="fil1" d="M1390.22 1098.94l-190.82 0 101.63 -331.6 89.19 331.6zm-289.8 365.44l65.14 -218.37 257.09 0 60.95 217.81 237.66 0 -236.12 -830.41c-13.98,-49.07 -43.33,-71.72 -94.92,-71.72l-337.06 0 0 78.43 27.96 0c35.23,0 54.25,13.98 54.25,40.68 0,17.75 -3.92,32.57 -17.9,72.97l-236.54 710.61 219.49 0z"/>
   <path class="fil1" d="M1996.25 1464.38l0 -833.49c0,-43.48 -25.45,-69.2 -67.53,-69.2l-208.99 0 0 78.43 13.98 0c35.09,0 50.05,14.96 50.05,50.47l0 773.79 212.49 0z"/>
   <path class="fil1" d="M2357.49 1464.38l0 -833.49c0,-43.48 -25.87,-69.2 -67.66,-69.2l-208.3 0 0 78.43 13.98 0c35.22,0 50.18,14.96 50.18,50.47l0 773.79 211.8 0z"/>
   <g>
    <path class="fil1" d="M2728.1 644.04c0,-60.54 -44.88,-97.86 -121.77,-97.86 -76.89,0 -122.04,36.62 -122.04,97.86 0,61.23 46.27,97.85 122.04,97.85 75.77,0 121.77,-36.34 121.77,-97.85l0 0zm-4.06 820.34l0 -607.57c0,-43.34 -25.72,-68.92 -67.8,-68.92l-205.64 0 0 76.88 12.16 0.01c35.09,0 50.05,16.21 50.05,51.45l0 548.15 211.23 0z"/>
   </g>
   <g>
    <path class="fil1" d="M3189.29 1139.48l0 131.55c-35.36,36.49 -78.42,58.86 -114.91,58.86 -36.49,0 -51.45,-18.73 -51.45,-69.9 0,-51.17 10.62,-72.83 48.65,-87.51 37.84,-15.36 77.44,-26.51 117.75,-32.98l-0.04 -0.02zm-285.74 -157.97c64.88,-32.17 136.05,-50.31 208.45,-52.86 57.04,0 77.31,20.27 77.31,79.41l0 15.1c-86.53,13.98 -113.66,19.29 -162.45,30.05 -27.25,6 -54.14,14.41 -79.96,25.01 -85.41,34.25 -125.82,100.24 -125.82,201.59 0,128.62 55.92,190.69 170.42,190.69 0.38,0.02 0.83,0.02 1.24,0.02 38.49,0 76.72,-7.27 112.52,-21.39 32.81,-14.93 63.49,-34.61 90.74,-58.18l0 9.51c0,41.94 21.53,63.33 63.61,63.33l193.62 0.03 0 -72.28 -9.5 0c-36.49,0 -49.91,-16.36 -49.91,-59.55l0 -322.24c0,-171.81 -59.69,-231.65 -231.79,-231.65 -54.48,0.26 -109.05,6.73 -162.02,19.13 -50.12,11.14 -98.64,29.57 -143.59,54.29l47.13 129.99z"/>
   </g>
   <path class="fil1" d="M3761.49 1464.38l0 -457.43c35.37,-39.28 71.72,-57.04 113.66,-57.04 44.87,0 55.92,17.76 55.92,85.84l0 428.63 211.09 0 0 -459.94c0,-107.09 -7.68,-140.92 -41.94,-177.27 -27.96,-31.45 -71.71,-47.39 -127.49,-47.39 -82.63,0 -140.78,25.59 -218.93,98.7l0 -26.98c0,-41.95 -21.95,-63.61 -65.14,-63.61l-200.62 0 0 76.88 12.17 0.01c35.09,0 50.18,16.21 50.18,51.45l0 548.15 211.1 0z"/>
   <path class="fil1" d="M4768.32 1322.34l-294.55 0 281.69 -394.93 0 -139.8 -441.76 0c-50.05,0 -73.12,22.93 -73.12,73.11l0 123.03 78.43 0 0 -12.03c0,-31.17 16.21,-45.99 49.9,-45.99l151.83 0 -284.63 399.4 0 139.8 531.23 0 0.98 -142.59z"/>
   <g>
    <path class="fil1" d="M5876.51 1447.18l0 -764.84c0,-60.95 -21.67,-81.5 -80.8,-81.5l-179.09 0 0 85.97 10.77 0c40.82,0 48.79,9.23 48.79,58.44l0 701.93 200.33 0zm88.35 0l198.8 0 0 -595.68c0,-59.84 -23.07,-81.37 -81.37,-81.37l-117.43 0 0 677.05zm-376.47 0l0 -676.49 -117.86 0c-58.29,0 -81.08,21.53 -81.08,81.36l0 595.13 198.94 0zm763.43 -388.78c0,337.06 -242.41,582.12 -575.27,582.12 -332.86,0 -575.83,-245.06 -575.83,-582.12 0,-337.06 242.83,-582.13 575.83,-582.13 333.01,0 575.28,246.47 575.28,582.13l-0.01 0zm117.72 0c0,-396.33 -296.52,-693.12 -692.99,-693.12 -396.46,0 -693.26,296.79 -693.26,693.12 0,396.33 296.51,692.98 693.26,692.98 396.75,0 692.99,-295.67 692.99,-692.98z"/>
   </g>
  </g>
 </g>
</svg>
