<?xml version="1.0" encoding="UTF-8"?>
<!DOCTYPE svg PUBLIC "-//W3C//DTD SVG 1.1//EN" "http://www.w3.org/Graphics/SVG/1.1/DTD/svg11.dtd">
<!-- Creator: CorelDRAW -->
<svg xmlns="http://www.w3.org/2000/svg" xml:space="preserve" width="44.6304mm" height="21.1666mm" version="1.1" style="shape-rendering:geometricPrecision; text-rendering:geometricPrecision; image-rendering:optimizeQuality; fill-rule:evenodd; clip-rule:evenodd"
viewBox="0 0 4463.04 2116.66"
 xmlns:xlink="http://www.w3.org/1999/xlink"
 xmlns:xodm="http://www.corel.com/coreldraw/odm/2003">
 <defs>
  <style type="text/css">
   <![CDATA[
    .fil0 {fill:none}
    .fil1 {fill:#72243C}
   ]]>
  </style>
 </defs>
 <g id="Capa_x0020_1">
  <metadata id="CorelCorpID_0Corel-Layer"/>
  <rect class="fil0" x="-26.26" width="4463.04" height="2116.66"/>
  <g id="_2521117822880">
   <path class="fil1" d="M2456.77 660.32l-117.24 0c-0.93,41.84 -97.77,444.49 -98.72,487.48l-141.93 0 104.9 -487.48 -111.07 0 24.68 -117.23 364.07 0c-2.93,35.14 -17,84.24 -24.69,117.23zm-795.99 740.47c0,56.93 45.44,86.39 104.9,86.39l691.09 0c115.31,0 100.13,-79.33 138.18,-244.4l68.01 -320.73c21.65,-109.46 44.72,-211.23 68.88,-319.86 12.39,-55.67 20.92,-105.25 33.46,-157.83 6.15,-25.79 11.58,-57.37 17.28,-81.45 13.43,-56.72 36.97,-159.2 -78.98,-159.2l-709.61 0c-79.22,0 -88.6,57.46 -96.32,94.97 -11.37,55.24 -22.5,103.28 -33.71,157.57l-168.74 787.69c-5.84,29.83 -10.96,48.47 -16.51,76.06 -2.42,12.05 -17.93,75.8 -17.93,80.79z"/>
   <path class="fil1" d="M1142.45 1147.8l-135.75 0c5.75,-24.68 21.15,-53.44 29.96,-74.94 63.1,-153.92 156.07,-348.89 215.65,-500.13 17.69,-44.91 19.44,-29.64 180.16,-29.64l0 604.71 -135.75 0c0,-48.81 6.17,-72.44 6.17,-117.24 -142.82,0 -112.4,-11.12 -137.57,53.71 -8.6,22.16 -13.51,44.02 -22.87,63.53zm-425.76 265.33c0,47.6 54.12,74.05 104.89,74.05l697.27 0c113.91,0 112.82,-133.47 136.2,-246.38l133.72 -643.76c12.81,-64.39 63.29,-277.61 63.29,-325.46 0,-46.97 -49.73,-67.87 -98.73,-67.87l-691.1 0c-117.39,0 -120.16,138.86 -142.36,246.37 -14.15,68.49 -203.18,925.56 -203.18,963.05z"/>
   <path class="fil1" d="M3400.87 1147.8l-135.76 0 117.24 -475.13c-22.98,16.84 -96.06,207.59 -108.42,237.12l-89.44 212.92c-14.25,34.14 -11.36,25.09 -110.66,25.09l0 -475.13c-17.93,20.62 -66.07,316.82 -72.36,353.41 -6.59,38.37 -20.2,85.65 -20.2,121.72l-129.58 0c0,-28.47 22.49,-117.54 29.35,-149.6l94.06 -455.11 197.46 0 0 357.89c17.87,-13.1 67.51,-144.38 80.04,-172.95 13.01,-29.66 72.16,-160.24 74.22,-184.94l197.45 0 -62.93 301.12c-10.6,44.84 -60.47,269.62 -60.47,303.59zm-684.93 339.38l691.09 0c67.55,0 95.52,-27.36 105.08,-86.21l220.73 -1038.06c10.3,-43.52 30.12,-102.82 -13.69,-138.11 -13.58,-10.93 -42.53,-21.09 -65.29,-21.09l-709.61 0c-89.39,0 -92.26,77.28 -99.92,109.88 -64.56,274.44 -123.3,609.5 -190.1,889.74 -13.88,58.22 -25.42,118.81 -37.91,178.52 -13.93,66.57 28.1,105.33 99.62,105.33z"/>
   <path class="fil1" d="M2820.84 1857.41c-62.62,0 -61.71,-6.89 -61.71,-67.88 0,-125.72 135.75,-122.79 135.75,-74.04 0,50.53 -4.72,141.92 -74.04,141.92zm-129.59 -55.54c0,70.34 18.27,111.07 111.07,111.07 117.87,0 160.44,-94.52 160.44,-203.63 0,-88.33 -152.88,-109.37 -223.84,-32.54 -23.21,25.13 -47.67,78.51 -47.67,125.1z"/>
   <path class="fil1" d="M1599.07 1912.94c74.6,0 67.34,-8.7 111.07,-12.34 9.4,-40.35 27.35,-105.96 30.85,-148.09 -109.91,0 -114.75,-11.52 -120.44,29.11 -4.17,29.82 -0.71,26.42 46.4,26.42l-7.23 49.19c-33.46,0.11 -91.5,11.17 -91.5,-49.19 0,-67.88 36.24,-123.41 111.07,-123.41 26.54,0 33.45,7.2 55.53,12.34 9.32,-17.61 19.6,-27.53 24.68,-49.36 -97.79,-46.93 -209.74,0.49 -243.3,96.07 -28.98,82.55 -10.06,169.26 82.87,169.26z"/>
   <path class="fil1" d="M2438.26 1752.51l-37.02 0c0.51,-23.04 7.72,-48.04 12.34,-67.88 35,0 40.99,4.64 61.71,18.52 -1.87,22.47 -14.9,49.36 -37.03,49.36zm-117.24 160.43c88.31,0 31.17,-28.39 67.88,-104.9l30.85 0c2.24,26.96 30.65,86.16 43.2,104.9l61.7 0c-2.87,-34.47 -39.59,-81.47 -49.36,-123.41 87.56,-46.33 84.35,-154.26 -12.34,-154.26l-104.91 0c-0.89,40.08 -19.9,102.06 -28.29,144.48 -5.37,27.15 -9.12,47.81 -14.92,71.51 -5.19,21.21 -23.39,61.68 6.19,61.68z"/>
   <path class="fil1" d="M1907.6 1838.9c0,43.7 36.7,69.37 81.15,74.04l30.12 0c49.31,-4.98 100.17,-34.32 118,-91.59 9.16,-29.45 36.06,-151.27 36.06,-186.08l-61.71 0c-0.83,37.54 -17.92,92.18 -25.25,129.01 -17.34,87.14 -25.81,106.69 -110.5,86.96 0,-58.01 3.65,-64.78 12.92,-110.5 5.88,-29.02 17.94,-73.06 17.94,-105.47l-61.71 0c-1.45,64.85 -37.02,136.8 -37.02,203.63z"/>
   <path class="fil1" d="M1154.79 1906.77c47.59,0 81.78,3.93 106.5,6.17l40.59 0c17,-4.25 22.61,-18.51 25.69,-55.53l-98.73 0c4.19,-18.01 10.71,-42.12 12.34,-61.71 14.38,0 70.55,2.09 80.22,0.01 16.01,-3.46 20.32,-3.14 24.68,-55.54l-92.56 0c4.18,-17.92 8.17,-37.62 12.34,-55.54l98.73 0c3.62,-15.53 6.26,-36.69 12.34,-49.36l-166.6 0c-0.74,33.05 -18.01,101.08 -25.91,134.52 -10.07,42.6 -19.46,93.35 -29.63,136.98z"/>
   <path class="fil1" d="M3129.36 1721.66c0,77.79 92.56,65.25 92.56,111.07 0,43.2 -85.83,22.79 -117.24,6.17 -7.61,15.86 -12.34,37.6 -12.34,61.7 37.33,3.11 14.57,12.34 86.39,12.34 58.68,0 111.07,-40.63 111.07,-98.73 0,-66.15 -92.56,-59.89 -92.56,-104.9 0,-47.21 79.33,-13.95 98.72,-12.34 10.76,-16.06 22.75,-26.06 24.69,-49.36 -39.23,-9.14 -94.59,-39.72 -152.73,7.71 -15.97,13.03 -38.56,40.82 -38.56,66.34z"/>
   <path class="fil1" d="M938.82 1851.24l-61.7 6.17c-35.77,0 -65.73,-53.27 -67.88,43.19 37.34,3.11 14.57,12.34 86.39,12.34 58.4,0 111.07,-38.83 111.07,-98.73 0,-66.13 -92.56,-61.13 -92.56,-104.9 0,-46.49 86.16,-15.27 98.73,-12.34 10.76,-16.06 22.74,-26.06 24.68,-49.36 -25.32,-5.9 -40.18,-18.51 -74.04,-18.51 -58.85,0 -118.44,42.08 -115.31,98.08 3.1,55.44 60.02,63.55 78.93,80.21 17.73,15.61 11.69,11.7 11.69,43.85z"/>
   <path class="fil1" d="M1222.67 925.66l86.39 0 12 -136.09c3.89,-48.55 6.51,-93.73 6.51,-141.59 -13.6,15.65 -18.29,38.46 -28.25,64.31l-76.65 213.37z"/>
  </g>
 </g>
</svg>
