<?xml version="1.0" encoding="UTF-8"?>
<!DOCTYPE svg PUBLIC "-//W3C//DTD SVG 1.1//EN" "http://www.w3.org/Graphics/SVG/1.1/DTD/svg11.dtd">
<!-- Creator: CorelDRAW -->
<svg xmlns="http://www.w3.org/2000/svg" xml:space="preserve" width="73.5046mm" height="21.1666mm" version="1.1" style="shape-rendering:geometricPrecision; text-rendering:geometricPrecision; image-rendering:optimizeQuality; fill-rule:evenodd; clip-rule:evenodd"
viewBox="0 0 7350.46 2116.66"
 xmlns:xlink="http://www.w3.org/1999/xlink"
 xmlns:xodm="http://www.corel.com/coreldraw/odm/2003">
 <defs>
  <style type="text/css">
   <![CDATA[
    .fil0 {fill:none}
    .fil1 {fill:#004F87;fill-rule:nonzero}
    .fil2 {fill:#008AD8;fill-rule:nonzero}
    .fil3 {fill:#2799D5;fill-rule:nonzero}
   ]]>
  </style>
 </defs>
 <g id="Capa_x0020_1">
  <metadata id="CorelCorpID_0Corel-Layer"/>
  <rect class="fil0" x="-28.94" width="7350.46" height="2116.66"/>
  <g id="_2521122262496">
   <g>
    <path class="fil1" d="M1954.4 1009.89l-19.76 151.57 -512.2 0 114.54 -815.93 468.76 0 -19.81 151.53 -268.26 0.02 -25.53 175.88 263.34 -0.01 -20.86 151.67 -263.64 0 -26.73 185.27 310.15 0zm1200.69 -664.29c6.62,-0.4 13.36,-0.63 20.02,-0.63 71.2,0 140.29,24.27 195.86,68.71 44.97,43.06 70.41,102.61 70.41,164.85 0,9.36 -0.59,18.81 -1.73,28.09 -1.17,41.89 -12.56,82.99 -33.08,119.56 -19.23,33.03 -45.15,61.87 -75.94,84.5 -31.82,22.9 -67.66,39.98 -105.5,50.23 -40.31,10.85 -81.8,16.26 -123.52,16.2 -11.01,0 -23.92,-0.34 -38.88,-1.01 -14.97,-0.68 -28.18,-1.69 -39.29,-2.48l-40.81 287.93 -200.45 -0.01 112.79 -815.76 260.12 -0.17 0 -0.01zm-111.95 376.37c11.45,1.59 22.97,2.61 34.52,2.98 12.05,0.33 22.14,0.74 30.82,0.74 1.42,0.03 2.88,0.07 4.3,0.07 30.29,0 59.78,-10.04 83.76,-28.51 25.41,-22.06 40.09,-54.05 40.22,-87.69 0.41,-3.96 0.64,-7.94 0.64,-11.9 0,-24.92 -8.47,-49.12 -23.95,-68.62 -19.37,-20.6 -46.43,-32.3 -74.72,-32.3 -2.71,0 -5.45,0.12 -8.15,0.32 -0.95,0.02 -1.99,-0.01 -2.96,-0.01 -9.85,0 -19.75,0.81 -29.47,2.37 -7.81,1.24 -15.73,2.81 -23.46,4.66l-31.53 217.89 -0.02 0zm916.19 287.92l-19.65 151.57 -512.01 0 114.29 -815.93 468.86 0 -19.88 151.55 -268.13 0 -25.64 175.88 263.35 -0.01 -20.83 151.67 -263.55 0 -26.65 185.27 309.84 0zm424.67 -664.32c36.51,-0.37 72.89,4 108.29,12.94 30.41,7.35 58.93,21.08 83.65,40.21 23.2,18.71 41.09,43.26 51.81,71.05 12.2,33.33 17.72,68.72 16.26,104.15 -0.49,27.28 -6.47,54.28 -17.5,79.25 -10.26,23.24 -23.37,45.21 -38.88,65.29 -14.38,18.56 -30.62,35.7 -48.36,51 -14.57,12.2 -29.81,23.64 -45.63,34.21l163.32 357.91 -226.26 -0.02 -114.21 -279.69 -98.05 0 -38.51 279.69 -200.68 0 114.24 -815.89 290.5 -0.1 0.01 0zm-144.63 390.39l130.57 0c15.04,-13.35 27.92,-29.11 37.93,-46.56 14.65,-23.74 24.01,-50.41 27.37,-78.1 1.26,-6.53 1.91,-13.21 1.91,-19.89 0,-23.72 -8.06,-46.76 -22.88,-65.29 -18.58,-18.71 -43.93,-29.27 -70.33,-29.27 -1.86,0 -3.75,0.06 -5.6,0.15 -1.27,0 -2.6,-0.03 -3.89,-0.03 -11.69,0 -23.44,0.84 -35,2.44 -8.98,1.01 -17.78,2.94 -26.32,5.82l-33.81 230.72 0.05 0.01zm1079.2 -238.88l-215.75 0 -93.18 664.39 -200.55 -0.01 93.14 -664.4 -219.17 0.02 21 -151.51 635.41 0 -20.9 151.51zm350.28 454.45l-270.35 0 -107.63 209.87 -194.52 0 432.72 -815.8 204.23 0 194.72 815.8 -212.46 0 -46.74 -209.87 0.03 0zm-201.66 -142.12l167.99 0 -50.54 -236.68 -117.46 236.68 0.01 0z"/>
    <g>
     <path class="fil2" d="M2302.08 345.57l-227.52 0 200.75 369.59 121.25 -192.46 -94.48 -177.13zm215.24 815.89l220.42 0 -208.63 -390.51 -121.63 187.91 109.84 202.6zm29.74 -815.89l-132.61 210.1 -121.15 192.37 -393.64 623.41 0 313.53 490.09 -759.02 121.69 -188.32 253.4 -392.25 -217.78 0.18zm0.88 1022.3c-30.61,-18.7 -65.72,-28.83 -101.6,-29.19 -63.51,0 -104.9,27.1 -108.15,70.45 -4.51,50.4 33.03,73.63 83.49,100.42 64.12,32.42 115.22,68.04 110.62,141.03 -5.76,80.14 -75.06,120.93 -167.56,120.31 -0.9,0.01 -1.92,0.04 -2.85,0.04 -42.01,0 -83.37,-10.72 -120.09,-31.09l21.95 -39.43c30.83,20.66 67.07,31.71 104.15,31.67 74.58,0 112.04,-30.35 115.29,-72.38 3.93,-49.25 -26.52,-75.05 -86.7,-104.77 -57.58,-28.62 -113.47,-68.07 -107.51,-139.81 6.47,-74.35 73.16,-115.76 158.11,-115.76 0.82,-0.04 1.69,-0.04 2.5,-0.04 41.24,0 81.89,10.03 118.4,29.16l-20.05 39.39zm323.63 354.41l-4.57 39.53 -256.33 0 63.46 -452.84 231.11 0 -5.21 39.45 -180.54 0 -23.27 161.67 175.35 0 -5.21 38.88 -175.46 0 -25.2 173.21 205.87 0.1zm455.68 -332.43c-36.27,-31.38 -82.65,-48.62 -130.62,-48.62 -0.43,0 -0.92,0 -1.37,0 -0.65,0 -1.36,0 -2.02,0 -105.55,0 -192.21,83.55 -196.07,189 -9.07,115.16 60.69,200.48 174.81,200.48 1.65,0.04 3.39,0.06 5.06,0.06 30.43,0 60.52,-6.68 88.09,-19.49l25.95 -186.97 48.63 0 -29.84 217.96c-42.44,19.2 -88.6,29.17 -135.23,29.17 -1.49,0 -3.05,-0.04 -4.48,-0.04 -3.65,0.2 -7.38,0.3 -11.05,0.3 -59.62,0 -116.65,-24.62 -157.52,-68.02 -37.69,-40.09 -58.77,-93.11 -58.77,-148.17 0,-8.05 0.45,-16.12 1.34,-24.12 6.72,-130.17 114.28,-232.32 244.65,-232.32 2.6,0 5.3,0.07 7.86,0.12 1.22,0.03 2.47,-0.01 3.69,-0.01 56.46,0 111.51,18.18 156.82,51.83l-29.9 38.81 -0.03 0.03zm128.73 -80.85l50.48 0 -40.75 287.83c-10.33,81.53 32.42,134.47 112.01,134.47 78.35,0 124.24,-52.94 135.25,-134.47l40.85 -287.82 50.38 -0.01 -40.1 283.31c-13.55,103.99 -75.63,179.25 -190.25,179.25 -112.69,0 -171.59,-79.03 -157.91,-179.25l40.03 -283.31 0.01 0zm572.25 -0.13c82.95,0 134.69,40.27 131.48,118.47 -6.06,56.29 -40.85,105.5 -91.89,129.99l97.65 204.47 -56.9 0.01 -87.38 -186.28 -102.3 0 -25.95 186.28 -50.52 0 63.36 -452.94 122.45 0zm-104.09 228.41l111.87 0c39.91,-19.82 67.01,-58.62 71.89,-102.91 2.68,-55.54 -30.41,-86.02 -91.21,-86.02 -22.12,-0.52 -44.23,1.01 -66.04,4.61l-26.49 184.32 -0.02 0zm545.04 -238c132.57,0 218.06,105.34 209.68,236.07 -2.71,131.16 -109.88,236.14 -241.1,236.14 -0.76,0 -1.56,0 -2.33,0 -133.37,0 -219.41,-104.79 -210.93,-236.14 2.61,-131.13 109.68,-236.11 240.84,-236.11 1.27,0 2.56,0.03 3.79,0.03l0.05 0.01zm-33.13 432.08c101,0 181.3,-74.52 189.7,-196 7.8,-119.69 -61.57,-196.04 -159.18,-196.04 -101,0 -181.28,75.09 -188.42,196.04 -8.47,119.69 60.19,196 157.9,196l0 0zm582.5 -363.49c-30.56,-18.72 -65.71,-28.86 -101.57,-29.19 -63.47,0 -104.87,27.1 -108.15,70.45 -4.46,50.4 33.1,73.63 83.56,100.42 64.04,32.42 115.29,68.04 110.69,141.03 -5.82,80.14 -75.03,120.93 -167.72,120.31 -0.92,0 -1.9,0.03 -2.83,0.03 -42.03,0 -83.39,-10.73 -120.13,-31.12l21.98 -39.43c30.83,20.66 67.13,31.67 104.26,31.67 74.54,0 112.01,-30.35 115.26,-72.38 3.86,-49.25 -26.55,-75.05 -86.85,-104.76 -57.54,-28.63 -113.22,-68.08 -107.36,-139.82 6.5,-74.35 73.16,-115.76 157.97,-115.76 0.91,0 1.84,0 2.74,0 41.19,0 81.79,10 118.26,29.13l-20.09 39.39 -0.02 0.03z"/>
    </g>
    <g>
     <path class="fil3" d="M3339.61 1524.38l-122.61 0 -17.14 36.2 102.43 0.01 37.32 -36.21zm0 0l0 0 0 0z"/>
    </g>
   </g>
  </g>
 </g>
</svg>
