<?xml version="1.0" encoding="UTF-8"?>
<!DOCTYPE svg PUBLIC "-//W3C//DTD SVG 1.1//EN" "http://www.w3.org/Graphics/SVG/1.1/DTD/svg11.dtd">
<!-- Creator: CorelDRAW -->
<svg xmlns="http://www.w3.org/2000/svg" xml:space="preserve" width="73.5046mm" height="21.1666mm" version="1.1" style="shape-rendering:geometricPrecision; text-rendering:geometricPrecision; image-rendering:optimizeQuality; fill-rule:evenodd; clip-rule:evenodd"
viewBox="0 0 7350.46 2116.66"
 xmlns:xlink="http://www.w3.org/1999/xlink"
 xmlns:xodm="http://www.corel.com/coreldraw/odm/2003"
 xmlns:x="&ns_extend;"
 xmlns:i="&ns_ai;"
 xmlns:graph="&ns_graphs;"
 enable-background="new 0 0 220 60">
 <defs>
  <style type="text/css">
   <![CDATA[
    .fil0 {fill:none}
    .fil2 {fill:#005597;fill-rule:nonzero}
    .fil1 {fill:#009982;fill-rule:nonzero}
   ]]>
  </style>
 </defs>
 <g id="Capa_x0020_1">
  <metadata id="CorelCorpID_0Corel-Layer"/>
  <rect class="fil0" x="-28.94" width="7350.46" height="2116.66"/>
  <g id="_2520737104944">
   <g>
    <g>
     <g>
      <polygon class="fil1" points="2926.62,1387.33 5528.18,1387.33 5528.18,1387.33 "/>
      <rect class="fil1" x="2926.62" y="1381.47" width="2601.56" height="11.71"/>
     </g>
     <path class="fil2" d="M2804.1 602.56l-3.44 0c-43.72,-51.07 -124.67,-66.2 -189.61,-66.03 -166.29,0 -292.83,113.14 -292.83,291.09 0.1,178.21 136.63,313 305.1,312.81 49.01,0 100.21,-6.7 147.97,-21.22l-0.19 -159.41c0,-50.5 -0.9,-104.57 -48.81,-124.48l0 -3.61 163 -0.26 0 3.56c-5.61,13.3 -5.61,30.78 -5.61,47.44l0.41 254.5c0.15,16.56 -1.06,34.29 5.44,49.94 -85.12,16.72 -168.42,33.05 -254.72,33.05 -272.81,0.36 -433.69,-153.9 -433.92,-376.54 -0.43,-238.11 181.82,-386.26 439.51,-386.71 56.45,0 111.95,6.58 167.47,18.82l0.23 127.05z"/>
     <path class="fil2" d="M3161.72 928.7l-55.36 155.72c-22.14,62.18 -29.67,94.21 21.53,114.18l0 3.55 -196.16 0.15 0 -3.7c61.62,-31.7 80.13,-93.85 103.43,-157l177.32 -461.13c14.86,-40.33 35.15,-86.73 -16.19,-103.18l0 -2.91 168.57 -0.6 222.11 567.19c24.6,63.02 44.06,125.18 104.9,157.23l0 3.41 -218.64 0.05 0 -3.25c52.29,-24.21 43.67,-36.72 14.59,-114.32l-57.47 -155.62 -268.63 0.23zm132.87 -360.82l-105.15 278.63 209.77 0 -104.62 -278.63z"/>
     <path class="fil2" d="M4050.14 1121.23c72.51,4.58 135.73,-20.78 189.1,-67.69l2.76 0 -55.24 147.68 -437.75 0 0 -3.29c54.08,-19.77 47.91,-101.48 47.43,-151.75l-0.22 -416.75c0,-51.05 6.19,-131.86 -48.15,-152.93l0 -2.95 203.65 0 0 2.71c-54.7,21.28 -46.79,103.4 -46.79,152.91l0.45 482.26 144.76 9.8z"/>
     <path class="fil2" d="M4436.19 1107.64l135.24 13.26c70.29,6.41 143.83,-16.91 197.16,-65.38l3.15 0 -48.1 144.86 -444.09 0.56 0 -3.41c54.44,-19.92 48.06,-102.08 48.06,-151.92l-0.41 -416.85c0,-51.12 5.99,-131.83 -48.34,-152.69l-0.01 -3.01 340.9 -0.48c18.44,0 36.51,2.1 50.23,-5.44l3.09 0 0.19 129.01 -3.04 0c-32.96,-39.66 -76.99,-43.91 -125.96,-43.91 -37.06,0 -74.35,0.89 -108.78,7.74l0.3 205.78 126.77 -0.01c17.32,0 34.24,0 46.72,-6.75l3.41 0 0.27 117.27 -3.19 0c-17.06,-31.94 -61.82,-30.73 -94.82,-30.73l-78.87 0 0.12 262.1z"/>
     <path class="fil2" d="M4952.2 1056.13c0,61.86 -1.06,106.55 55.63,140.42l0 3.66 -188.33 0.14 0 -3.56c56.18,-34.13 56.18,-78.51 56.18,-140.32l-0.6 -441.68c-0.15,-61.93 -0.15,-106.28 -55.55,-138.99l-0.01 -3.22 155.62 -0.27 0 1.21c4.47,12.89 8.39,18.29 15.99,27.3l15.03 22.25 390.42 510.73 -0.51 -419.47c0,-62.1 1.06,-106.35 -55.4,-139.28l0 -3.15 187.51 0 0 2.98c-55.26,32.93 -55.26,77.36 -55.26,139.48l0.6 620.59c-75.63,-26.47 -108.68,-62.74 -155.72,-126.01l-366.08 -480.71 0.48 427.9z"/>
     <g>
      <path class="fil2" d="M6315.64 823.06c2.54,225.71 -167,391.74 -368.22,393.82 -200.47,2.08 -371.17,-153.18 -373.51,-379.59 -2.18,-210.24 162.63,-388.1 375.33,-384.93 212.44,-3.76 364.51,171.53 366.4,370.7l0 0zm-626.64 3c1.62,154.92 103.51,312.91 262.54,310.88 153.68,-1.58 250.63,-125.5 248.96,-290.41 -1.67,-161.65 -97.48,-316.34 -257.5,-314.6 -156.84,1.82 -255.84,127 -254,294.13z"/>
     </g>
     <g>
      <path class="fil1" d="M1644.02 435.96c0,0 -156.54,-162.02 -340.61,104.22 -184.1,266.21 -132.95,449.37 -132.95,449.37 0,0 131.01,101.88 134.2,53.64 3.22,-48.29 -2.95,-405.62 280.97,-543.96 0.01,-0.03 100.74,-34.56 58.39,-63.27z"/>
      <path class="fil1" d="M1197.17 1196.82l88.07 41.69c0,0 33.63,12.29 37.84,27.9 4.23,15.58 5.58,54.48 -29.42,36.41 -35.03,-18.15 -112.43,-81.59 -96.49,-106z"/>
      <path class="fil1" d="M1436.87 1374.94c0,0 167.26,150.9 332.67,-127.29 165.44,-278.21 101.89,-457.45 101.89,-457.45 0,0 -137.67,-92.69 -137.57,-44.3 0.1,48.36 30.71,404.45 -243.06,561.93 -0.01,0.01 -98.13,41.35 -53.93,67.11z"/>
      <g>
       <path class="fil1" d="M1738.52 488.04c36.18,15.66 98.09,71.11 83.84,96.51l-71.03 -32.95 -12.81 -63.56zm0 0l0 0 0 0z"/>
      </g>
      <path class="fil2" d="M1425.86 683.22c0,0 102.24,-157.9 164.84,-145.34 62.59,12.58 385.68,53.76 388.93,275.34 0,0 -14.88,9.89 -36.8,-18.44 -21.89,-28.36 -277.25,-168.2 -485.1,-95.93 -0.01,-0.02 -52.75,14.2 -31.87,-15.63z"/>
      <path class="fil2" d="M1152.1 792.8c0,0 42.07,-122.77 71.9,-174.03 31.21,-53.71 -23.47,-30.19 -23.47,-30.19 0,0 -149.1,79.98 -162.92,212.49 -13.82,132.51 26.83,116.86 45,87.29 21.51,-35.07 62.71,-77.49 69.49,-95.56z"/>
      <path class="fil2" d="M1636.59 1119.76c0,0 -94.82,157.15 -157.43,144.59 -62.59,-12.6 -385.68,-53.78 -388.93,-275.33 0,0 14.91,-9.9 36.8,18.43 21.92,28.36 269.82,168.98 477.69,96.7 0.03,0.03 52.78,-14.2 31.87,15.61z"/>
      <path class="fil2" d="M1891.63 1024.99c0,0 -23.57,101.89 -50.76,154.6 -27.2,52.72 18.14,19.55 18.14,19.55 0,0 159.47,-65.47 173.28,-197.98 13.81,-132.51 -32.25,-119.62 -45.03,-87.32 -17.39,44.1 -88.86,93.08 -95.63,111.15z"/>
     </g>
    </g>
    <g>
     <path class="fil1" d="M2962.04 1649.69c1.35,0 2.37,0.36 2.37,2.69 0.68,10.52 5.42,25.03 13.55,38.2 9.8,15.58 26.35,23.01 42.59,23.01 16.24,0 42.26,-10.82 42.26,-37.53 0,-28.05 -5.42,-36.17 -49.36,-52.72 -10.14,-3.7 -31.77,-14.52 -49.01,-29.4 -11.84,-10.49 -16.91,-28.38 -16.91,-48.05 0,-20.61 5.08,-34.43 25.37,-49.67 15.22,-11.47 28.07,-16.21 48.68,-16.21 24.68,0 37.87,4.01 44.95,6.74 3.39,1.34 5.76,0.65 7.79,-1.72l4.41 -4.38c1.36,-1.38 3.03,-2.03 5.06,-2.03 2.4,0 3.04,3.71 3.36,5.74l5.43 57.8c0,1.38 -0.65,1.72 -1.68,2.03l-7.45 2.4c-1.69,0.64 -3.38,0 -4.41,-2.4 -3.7,-9.8 -9.46,-22.96 -20.95,-35.15 -8.46,-9.47 -18.61,-14.23 -33.82,-14.23 -25.33,0 -35.83,21.99 -35.83,30.78 0,12.51 0.37,22.65 8.78,31.14 8.78,9.09 28.06,17.22 44.64,21.94 16.23,4.72 29.4,13.22 43.26,25.7 13.19,11.83 18.59,26.71 18.59,50.37 0,41.26 -29.4,74.71 -74.06,74.71 -30.42,0 -46.31,-5.08 -60.51,-14.52 -4.04,-2.73 -6.07,-3.75 -7.77,-3.75 -2.03,0 -3.38,2.4 -5.42,5.78 -2.03,3.71 -3.7,4.02 -6.07,4.02 -3.72,0 -5.09,-1.68 -4.75,-5.37l5.43 -64.26c0.33,-2.35 1.35,-2.35 2.7,-2.35l8.78 0.69z"/>
     <path class="fil1" d="M3366.16 1594.94c15.53,0 30.41,-1.01 34.47,-2.03 5.74,-1.38 10.45,-4.43 15.54,-10.52 3.7,-5.03 7.76,-14.53 7.76,-20.94 0,-2.39 1.02,-3.04 2.71,-3.04l9.12 1.01c1.69,0.31 3.04,0.65 2.68,2.69 -0.98,5.74 -0.98,23.3 -0.98,35.15 0,15.25 1.35,31.43 2.01,38.55 0.36,2.03 -1.02,2.39 -2.69,2.69l-8.13 1.71c-1.35,0.32 -2.01,-0.36 -2.69,-2.73 -1.35,-5.37 -4.72,-13.16 -6.75,-17.23 -3.72,-6.45 -11.83,-10.82 -18.58,-11.83 -9.14,-1.38 -19.62,-2.03 -34.47,-2.03l0 20.25c0,18.29 1.67,51.06 1.67,57.15 0,17.56 3.72,23.66 8.13,25.69 5.06,2.03 11.47,3.05 28.39,3.05 5.73,0 19.93,-0.37 27.04,-1.02 6.75,-0.65 16.91,-4.07 25.7,-11.17 8.78,-7.07 27.7,-28.05 34.47,-36.18 1.36,-1.33 2.37,-1.67 3.39,-1.01l5.73 3.41c1.35,0.65 1.69,1.67 1.35,2.69l-15.21 51.05c-1.02,3.05 -3.37,5.09 -7.43,5.09 -1.67,0 -9.11,-0.37 -30.75,-0.65 -21.96,0 -57.83,-0.37 -116.31,-0.37 -12.48,0 -21.96,0.37 -28.72,0.37 -7.11,0.31 -11.49,0.65 -14.54,0.65 -2.37,0 -3.03,-1.02 -3.03,-3.71l0.01 -7.08c0,-2.03 0.99,-3.04 3.39,-3.04l10.14 0c15.53,0 16.91,-2.4 16.91,-14.23l0 -113.21c0,-28.09 -0.68,-69.68 -1.02,-73.04 -1.35,-10.82 -4.74,-13.22 -13.86,-13.22l-13.19 0.01c-1.38,0 -1.69,-1.01 -1.69,-3.33l0 -8.13c0,-1.02 0.34,-2.4 2.37,-2.4 7.45,0 19.28,1.02 50.06,1.02l118.64 -0.32c5.43,0 11.84,-0.7 13.56,-0.7 1.67,0 2.36,0.7 2.68,1.72 1.38,4.72 12.51,51.05 13.87,54.39 0.67,1.72 0.67,2.4 -1.02,3.41l-5.42 2.69c-1.35,0.65 -3.05,0.37 -4.07,-1.34 -1.67,-2.73 -32.11,-33.16 -39.87,-37.88 -7.11,-4.41 -16.57,-8.78 -25.7,-9.15l-44.61 -1.33 -1.06 98.42z"/>
     <path class="fil1" d="M3910.94 1691.6c0,4.76 1.36,8.13 1.36,10.81 0,2.74 -2.03,4.07 -5.43,5.43 -27.38,13.86 -56.12,21.62 -99.08,21.62 -35.15,0 -74.7,-11.17 -98.03,-38.54 -20.61,-23.33 -31.12,-52.07 -31.12,-92.95 0,-30.78 14.52,-63.58 39.22,-84.88 24.68,-21.63 55.11,-33.12 95.69,-33.12 34.13,0 59.49,9.44 70.65,16.55 4.07,2.35 6.43,1.67 8.46,-1.02l3.39 -5.44c1.67,-2.35 2.37,-3.33 4.4,-3.33 3.71,0 4.72,2.35 4.72,6.04l5.09 69.68c0.34,4.07 0,5.73 -1.34,6.05l-9.48 2.03c-2.03,0.36 -3.05,-0.32 -4.07,-3.37 -5.42,-16.55 -16.23,-38.18 -30.75,-51.39 -13.19,-12.51 -30.43,-20.98 -53.42,-20.98 -18.22,0 -35.14,5.78 -51.06,25.4 -15.53,18.59 -27.05,46.63 -27.05,77.06 0,39.93 11.18,74.71 29.4,93.01 15.9,15.89 28.74,22.96 51.73,22.96 17.6,0 27.05,-1.33 38.23,-6.75 7.08,-3.36 7.76,-14.17 7.76,-31.74l0 -24.38c0,-12.15 -3.38,-15.56 -11.83,-15.56l-14.18 0c-2.03,0 -2.36,-1.38 -2.36,-3.04l0 -8.44c0,-1.38 0.33,-2.4 2.36,-2.4 3.03,0 19.6,1.02 50.04,1.02 31.12,0 43.6,-1.02 46.34,-1.02 2.68,0 3.04,1.02 3.04,2.69l0 8.49c0,2.03 -0.36,2.69 -2.39,2.69l-9.81 -0.02c-6.07,0 -10.45,2.4 -10.45,12.2l-0.03 44.64 0 0z"/>
     <path class="fil1" d="M4128.14 1515.17c0,-11.83 -2.4,-17.27 -9.46,-17.27l-15.9 -0.01c-2.03,0 -2.37,-0.65 -2.37,-3.04l0 -8.09c0,-2.03 0.34,-2.73 3.05,-2.73 3.38,0 19.93,1.01 55.43,1.01 29.74,0 45.97,-1.01 49.7,-1.01 2.69,0 3.05,0.7 3.05,2.73l0 8.78c0,1.67 -0.37,2.35 -2.71,2.35l-11.48 0c-11.49,0 -17.24,6.46 -17.93,13.22 -0.34,3.7 -0.67,26.71 -0.67,43.93l0 22.36c0,17.88 1.38,60.85 1.69,71.67 0.34,15.53 3.38,30.72 10.82,40.2 11.15,13.5 27.04,18.95 42.26,18.95 12.51,0 30.75,-6.45 39.9,-14.88 13.49,-12.2 21.31,-30.78 21.31,-55.09l0 -52.07c0,-28.46 -3.41,-65.62 -4.74,-73.38 -1.36,-8.78 -6.75,-14.88 -12.51,-14.88l-10.8 0c-2.03,0 -2.4,-1.02 -2.4,-2.69l0 -8.78c0,-1.67 0.37,-2.39 2.4,-2.39 3.38,0 18.92,1.01 41.91,1.01 18.29,0 29.1,-1.01 32.15,-1.01 3,0 3.34,1.38 3.34,3.04l0 7.48c0,2.03 -0.37,3.34 -2.03,3.34l-10.47 0c-12.84,0 -13.86,9.51 -14.53,12.85 -0.65,4.72 -0.65,51.39 -0.65,56.12 0,4.74 -0.68,63.91 -1.7,77.11 -2.03,27.73 -11.15,49.01 -28.74,64.55 -14.86,13.21 -37.86,20.98 -59.83,20.98 -15.89,0 -37.53,-2.4 -51.73,-8.5 -16.23,-7.07 -31.09,-22.96 -39.22,-44.59 -5.73,-14.52 -7.08,-37.19 -7.08,-81.46l0 -79.82 -0.06 0.01z"/>
     <path class="fil1" d="M4540.05 1570.58c0,-24.99 0,-46.63 -0.31,-55.77 -0.37,-11.18 -4.72,-16.91 -9.51,-16.91l-13.5 -0.01c-1.67,0 -2.03,-1.01 -2.03,-2.35l0 -9.14c0,-1.68 0.37,-2.4 2.03,-2.4 3.05,0 13.5,1.02 50.38,1.02 18.94,0 48.65,-1.02 62.52,-1.02 26.34,0 46.01,9.51 59.83,22.36 12.2,11.13 19.3,24.34 19.3,36.82 0,42.97 -32.1,62.23 -61.86,64.92l0 2.4c10.45,3.33 15.89,9.8 22.3,17.93 4.43,5.37 23.01,35.49 25.7,39.51 2.03,3.05 20.27,28.74 27.02,36.51 4.07,4.43 16.91,7.12 24.68,7.12 2.4,0 2.74,1.38 2.74,2.69l0 8.13c0,2.03 -0.37,3.04 -2.74,3.04 -2.69,0 -11.47,-1.01 -37.53,-1.01 -9.8,0 -22.3,0.64 -32.1,1.01 -10.16,-7.76 -31.09,-46.98 -36.83,-58.5 -11.54,-22.97 -25.4,-48 -41.59,-48l-11.46 -0.01 0 17.27c0,19.92 1.01,57.8 1.67,62.16 0.65,7.11 3.37,13.21 8.42,13.21l13.86 0c2.39,0 2.68,1.01 2.68,2.69l0 8.13c0,2.39 -0.31,3.04 -5.36,3.04 -0.37,0 -8.78,-1.01 -44.31,-1.01 -35.85,0 -43.62,1.01 -47.32,1.01 -2.69,0 -2.69,-1.01 -2.69,-3.41l0 -7.76c0,-1.68 0,-2.69 1.68,-2.69l10.15 0c7.43,0 13.5,-2.4 13.5,-10.82 0.65,-33.46 0.65,-65.27 0.65,-97.36l0.03 -32.8 0 0zm47.33 36.5c6.46,0.37 10.5,0.37 13.5,0.37 44.64,0 55.11,-42.6 55.11,-58.51 0,-15.53 -5.37,-30.43 -12.8,-37.83 -12.2,-10.82 -27.42,-14.88 -37.53,-14.88 -5.73,0 -10.16,0.65 -12.85,3.04 -2.03,1.38 -3.04,5.09 -3.7,9.15l-1.73 98.66z"/>
     <path class="fil1" d="M4961.49 1707.49c-24.02,-14.52 -49.71,-51.05 -49.71,-100.41 0,-20.61 5.44,-52.71 31.43,-84.14 29.75,-36.18 67.96,-42.93 98.37,-42.93 28.09,0 54.1,4.38 82.53,26.67 25.65,20.33 46.31,54.44 46.31,101.11 0,24.62 -7.82,50.32 -25.41,74.01 -21.94,27.36 -50.68,47.69 -104.11,47.69 -23.3,-0.01 -52.7,-5.42 -79.41,-22zm155.82 -96.99c0,-74.07 -48.66,-114.64 -77.04,-114.64 -6.75,0 -23.66,-1.67 -44.3,18.29 -19.96,18.95 -30.12,54.39 -30.12,82.12 0,86.54 49.71,117.32 77.76,117.32 62.57,0 73.7,-75.37 73.7,-103.09z"/>
     <path class="fil1" d="M5376.09 1649.69c1.38,0 2.4,0.36 2.4,2.69 0.65,10.52 5.36,25.03 13.49,38.2 9.81,15.58 26.35,23.01 42.56,23.01 16.26,0 42.27,-10.82 42.27,-37.53 0,-28.05 -5.37,-36.17 -49.31,-52.72 -10.16,-3.7 -31.79,-14.52 -49.01,-29.4 -11.84,-10.49 -16.91,-28.38 -16.91,-48.05 0,-20.61 5.08,-34.43 25.33,-49.67 15.2,-11.47 28.04,-16.21 48.66,-16.21 24.68,0 37.88,4.01 45,6.74 3.33,1.34 5.73,0.65 7.76,-1.72l4.38 -4.38c1.38,-1.38 3.04,-2.03 5.08,-2.03 2.4,0 3.05,3.71 3.41,5.74l5.37 57.8c0,1.38 -0.65,1.72 -1.67,2.03l-7.48 2.4c-1.68,0.64 -3.34,0 -4.38,-2.4 -3.71,-9.8 -9.44,-22.96 -20.98,-35.15 -8.42,-9.47 -18.58,-14.23 -33.78,-14.23 -25.4,0 -35.85,21.99 -35.85,30.78 0,12.51 0.36,22.65 8.78,31.14 8.77,9.09 28.09,17.22 44.64,21.94 16.21,4.72 29.4,13.22 43.26,25.7 13.16,11.83 18.58,26.71 18.58,50.37 0,41.26 -29.4,74.71 -74.06,74.71 -30.43,0 -46.31,-5.08 -60.49,-14.52 -4.07,-2.73 -6.1,-3.75 -7.76,-3.75 -2.03,0 -3.41,2.4 -5.44,5.78 -2.03,3.71 -3.71,4.02 -6.1,4.02 -3.71,0 -5.09,-1.68 -4.72,-5.37l5.44 -64.26c0.31,-2.35 1.33,-2.35 2.69,-2.35l8.84 0.69z"/>
    </g>
   </g>
  </g>
 </g>
</svg>
