<?xml version="1.0" encoding="UTF-8"?>
<!DOCTYPE svg PUBLIC "-//W3C//DTD SVG 1.1//EN" "http://www.w3.org/Graphics/SVG/1.1/DTD/svg11.dtd">
<!-- Creator: CorelDRAW -->
<svg xmlns="http://www.w3.org/2000/svg" xml:space="preserve" width="76.643mm" height="21.1666mm" version="1.1" style="shape-rendering:geometricPrecision; text-rendering:geometricPrecision; image-rendering:optimizeQuality; fill-rule:evenodd; clip-rule:evenodd"
viewBox="0 0 7664.3 2116.66"
 xmlns:xlink="http://www.w3.org/1999/xlink"
 xmlns:xodm="http://www.corel.com/coreldraw/odm/2003">
 <defs>
  <style type="text/css">
   <![CDATA[
    .fil0 {fill:none}
    .fil1 {fill:#00205C;fill-rule:nonzero}
   ]]>
  </style>
 </defs>
 <g id="Capa_x0020_1">
  <metadata id="CorelCorpID_0Corel-Layer"/>
  <rect class="fil0" x="-13.13" width="7664.3" height="2116.66"/>
  <g id="_2517886691824">
   <path class="fil1" d="M1645.27 1347.03l0 334.89 118.37 0 0 -306.02 20.2 -2.89 0 308.9 430.16 0.01 -5.77 -369.53c-83.72,0 -306.02,5.77 -562.96,34.64z"/>
   <path class="fil1" d="M239.31 1655.94c2.89,0 2.89,0 2.89,0l-2.89 -5.77 0 5.77z"/>
   <g>
    <path class="fil1" d="M2491.15 1168.04c-153.01,-8.66 -262.71,-86.61 -285.81,-106.82l-5.77 -392.63c37.53,54.85 141.46,187.66 372.41,334.9l11.55 -17.33c-254.05,-161.68 -355.1,-311.8 -378.19,-346.44l0 0 -392.63 -132.79 0 -23.1 404.18 141.47 28.88 -34.65 -77.95 -28.87 -17.33 11.54 -69.29 -25.98 14.44 -11.54 -80.84 -31.75 -20.2 14.42 -153.01 -54.85 17.32 -17.33 -77.95 -28.87 -63.51 46.19 -23.1 -11.54 -57.75 40.41 20.21 14.44 -60.62 46.19 46.19 25.98c-54.86,92.38 -407.06,666.89 -762.17,808.35l0 0c-23.09,5.77 -46.18,11.54 -66.39,17.32 -8.66,0 -17.33,2.89 -25.98,2.89 -83.72,-17.32 -176.11,-57.74 -207.86,-75.05l0 -11.55 -170.33 0 0 -14.43 173.22 0 5.77 -5.78 0 -17.32 -196.32 0 -17.31 14.43 0 17.33 8.65 0 0 11.54c-8.67,37.54 -51.97,190.55 -138.58,294.48l2.9 2.89c-5.78,2.89 -8.67,2.89 -8.67,2.89l0 8.67c31.75,-17.33 216.53,-109.71 562.96,-207.87 349.33,-98.15 944.05,-216.52 1781.27,-233.84l0 -28.87c-31.75,-0.01 -63.52,2.87 -92.39,2.87l0 0zm-2110.37 389.74c-43.31,20.21 -77.95,34.65 -101.05,46.19 49.08,-69.28 83.72,-153.01 101.04,-210.75l0.01 164.56zm199.2 -202.09c23.1,11.55 69.28,31.76 121.25,49.08 -54.85,-5.77 -103.93,-17.32 -121.25,-20.2l0 -28.88zm-101.04 161.68c-14.44,5.77 -28.87,11.54 -43.31,17.33l0 -141.47c0,-20.21 8.66,-37.54 20.21,-37.54 11.54,0 20.21,17.33 20.21,37.54l2.89 124.14 0 0zm66.39 -23.1c-14.43,5.77 -28.87,11.54 -43.3,14.44l0 -115.48c0,-20.21 8.66,-37.54 20.2,-37.54 11.55,0 20.21,17.33 20.21,37.54l2.89 101.04 0 0zm34.65 -14.44l0 -75.06c25.98,5.78 95.26,20.21 161.67,23.1 -60.62,17.32 -112.59,34.65 -161.67,51.96l0 0zm1065.29 -245.38c-144.35,20.21 -277.15,43.3 -398.41,66.39 204.98,-118.36 349.33,-320.45 398.41,-398.41l0 332.02zm0 -366.66c-23.1,37.54 -199.2,323.34 -464.81,447.48l0 0c-75.06,14.43 -141.46,31.75 -207.86,46.19 173.22,-101.04 340.67,-285.82 453.26,-433.06 103.93,-135.68 184.76,-262.71 219.41,-320.45l0 259.84 0 0zm138.57 349.33l-20.2 2.89 0 -730.41 20.2 -11.54 0 739.06zm202.09 -20.21c-5.77,0 -11.54,0 -20.2,2.89l0 -381.08c0,-57.74 -25.98,-112.59 -57.75,-121.26 -2.89,0 -2.89,0 -5.77,0 23.1,23.1 40.42,69.29 40.42,115.48l0 389.74c-31.76,2.9 -63.52,5.78 -95.27,8.67l0 -438.83c0,-37.53 11.54,-66.39 25.98,-83.72l0 0c2.89,-2.89 2.89,-2.89 5.77,-5.77 0,0 0,0 0,0l0 0c11.54,-8.67 20.21,-5.77 31.75,-2.89 40.42,11.54 72.18,72.18 72.18,141.46l2.89 375.31 0 0zm181.89 -14.43c-5.78,0 -11.55,0 -20.21,0l0 -317.57c0,-57.74 -25.98,-112.59 -57.75,-121.26 -2.89,0 -5.77,0 -8.66,0 25.98,23.1 43.31,69.29 43.31,121.26l0 323.34c-31.75,2.89 -63.52,5.77 -95.27,8.66l0 -375.31c0,-40.41 11.54,-75.06 31.75,-89.49l0 0c8.67,-8.67 20.21,-11.55 31.75,-5.77 40.42,11.54 72.18,72.17 72.18,141.46l2.9 314.68 0 0zm37.53 -2.9l-2.89 -95.26c28.87,23.1 95.27,63.51 184.76,86.61 -60.62,2.88 -121.25,5.77 -181.87,8.65z"/>
   </g>
   <path class="fil1" d="M253.75 1650.17c34.64,-14.43 72.18,-25.98 106.82,-40.41 25.98,-11.55 230.96,-75.06 239.61,-77.96l0 0c352.21,-103.93 701.54,-164.55 1007.56,-199.19 274.26,-34.65 511,-40.42 600.49,-40.42l0 0c230.96,-5.77 372.42,2.89 372.42,2.89l2.89 -83.72c-834.34,17.33 -1423.28,135.68 -1772.6,233.84 -332,92.38 -513.89,181.87 -557.19,204.97z"/>
   <path class="fil1" d="M380.78 1681.92l199.2 0 0 -124.14c-66.4,20.21 -161.68,49.08 -199.2,63.52l0 60.62z"/>
   <rect class="fil1" x="323.03" y="1679.03" width="1989.13" height="20.21"/>
   <path class="fil1" d="M3259.09 570.43l248.28 311.8 0 -216.53c0,-28.87 -2.9,-49.08 -14.44,-60.62 -11.54,-14.44 -31.75,-20.21 -60.62,-20.21l0 -14.44 164.56 0 0 14.44c-20.21,2.89 -34.64,5.77 -43.31,11.54 -8.66,5.78 -14.43,11.55 -17.32,20.21 -2.89,8.67 -5.78,25.98 -5.78,49.08l0 418.62 -11.54 0 -340.66 -418.62 0 317.57c0,28.87 5.77,49.08 20.2,57.74 14.44,11.54 28.87,14.44 46.19,14.44l11.56 0 0 14.43 -176.11 0 0 -14.43c28.87,0 46.18,-5.78 57.74,-17.33 11.54,-11.55 17.33,-28.87 17.33,-57.74l-0.01 -349.31 -11.55 -14.44c-11.54,-14.43 -20.21,-23.1 -28.87,-25.98 -8.66,-2.89 -20.21,-5.77 -34.64,-5.77l0 -14.44 178.99 -0.01z"/>
   <path class="fil1" d="M4133.84 570.43l0 135.69 -14.43 0.01c-8.67,-31.75 -17.33,-54.85 -25.98,-66.4 -8.67,-14.43 -23.1,-25.98 -40.42,-31.75 -8.66,-5.77 -25.98,-5.77 -49.08,-5.77l-37.53 -0.01 0 386.85c0,25.98 0,43.31 2.89,49.08 2.89,5.77 8.66,11.54 17.33,17.33 8.66,5.77 20.2,8.66 34.64,8.66l17.32 -0.01 0 14.43 -262.72 0 0 -14.43 17.32 0c14.43,0 25.98,-2.89 34.64,-8.66 5.77,-2.9 11.55,-8.67 14.44,-17.33 2.89,-5.77 2.89,-20.21 2.89,-46.19l0 -392.62 -37.54 0c-34.64,0 -57.74,8.66 -72.17,20.2 -20.21,20.21 -34.65,49.08 -40.42,86.62l-14.43 0 0 -135.69 453.25 -0.01 0 0z"/>
   <path class="fil1" d="M4425.43 599.31l0 204.97 8.66 0.01c31.76,0 54.85,-11.55 69.29,-28.87 14.44,-20.21 23.1,-49.08 28.87,-89.5l14.44 0 0 262.71 -14.44 0c-2.89,-28.87 -8.66,-51.97 -17.33,-69.28 -8.66,-17.32 -20.2,-28.88 -31.75,-37.54 -11.54,-5.77 -31.75,-8.66 -54.85,-8.66l0 141.46c0,28.88 0,43.31 2.89,51.97 2.89,5.78 5.77,11.55 14.44,14.44 5.77,2.89 17.33,5.77 31.75,5.77l28.87 0c46.19,0 83.73,-11.54 112.6,-31.75 28.87,-23.1 49.08,-54.85 60.62,-98.16l14.43 -0.01 -23.1 158.78 -433.05 0 0 -14.43 17.33 0.01c14.44,0 25.98,-2.89 34.65,-8.67 5.77,-2.89 11.54,-8.66 14.43,-17.32 2.89,-5.77 2.89,-20.21 2.89,-46.19l-0.01 -334.89c0,-23.1 0,-37.54 -2.89,-43.31 -2.89,-8.66 -5.77,-14.44 -14.43,-20.21 -8.67,-5.77 -23.1,-11.54 -37.54,-11.54l-17.31 0 0 -14.44 418.61 0 0 147.24 -14.44 0c-8.66,-37.54 -17.32,-63.52 -28.87,-77.95 -11.54,-14.44 -31.75,-28.87 -54.85,-34.64 -14.44,-5.78 -40.42,-5.78 -77.95,-5.78l-51.96 5.78 0 0z"/>
   <path class="fil1" d="M5271.31 558.89l0 176.11 -14.43 0c-17.33,-49.08 -40.42,-83.72 -75.06,-109.7 -31.75,-25.98 -69.29,-37.54 -109.7,-37.54 -37.54,0 -69.29,11.55 -92.39,31.75 -25.98,20.21 -43.31,51.97 -51.97,86.62 -11.55,37.53 -14.44,75.06 -14.44,115.47 0,49.08 5.77,89.5 17.33,127.03 11.54,37.54 28.87,63.52 54.85,80.84 25.98,17.31 54.85,25.98 89.5,25.98 11.54,0 25.98,0 37.53,-2.9 11.55,-2.89 25.98,-5.77 40.42,-11.54l0 -103.93c0,-20.21 0,-31.75 -2.89,-37.54 -2.9,-5.77 -8.67,-11.54 -17.33,-14.43 -8.67,-5.77 -17.33,-5.77 -31.75,-5.77l-14.43 0.01 0 -14.44 242.51 0 0 14.44c-17.33,0 -31.75,2.89 -37.54,8.66 -8.66,2.89 -14.43,11.54 -17.33,20.21 -2.89,5.77 -2.89,17.33 -2.89,34.64l0.01 95.27c-31.75,14.43 -66.39,25.98 -101.04,31.75 -34.64,8.66 -72.17,11.55 -106.82,11.55 -46.19,0 -86.61,-5.78 -118.36,-20.21 -31.76,-14.44 -57.75,-28.87 -83.73,-51.97 -23.1,-20.21 -43.31,-43.31 -57.74,-72.18 -17.33,-34.65 -25.98,-72.18 -25.98,-115.48 0,-75.06 25.98,-138.57 80.83,-190.54 51.97,-51.97 118.37,-77.95 199.2,-77.95 25.98,0 46.19,2.89 66.39,5.77 11.55,2.89 28.88,8.66 51.98,17.32 25.98,8.67 37.53,14.44 43.3,14.44 5.78,0 14.44,-2.89 20.21,-8.66 5.77,-5.78 11.55,-14.44 17.33,-28.87l14.43 5.79 0 0z"/>
   <path class="fil1" d="M5594.65 841.81l0 141.47c0,25.98 2.89,43.3 5.77,51.97 2.9,5.77 8.67,11.54 17.33,17.33 8.67,2.89 23.1,5.77 46.19,5.77l0 14.43 -256.94 -0.01 0 -14.43c23.1,0 40.41,-2.89 46.19,-5.78 8.66,-2.89 14.43,-11.54 17.32,-17.32 2.89,-5.77 5.78,-23.1 5.78,-51.97l0 -326.22c0,-25.98 -2.9,-43.31 -5.78,-51.97 -2.89,-8.67 -8.66,-11.55 -17.32,-17.33 -8.67,-2.89 -23.1,-5.77 -46.19,-5.77l0 -14.44 233.85 0.01c60.62,0 103.93,2.89 132.8,11.55 28.88,8.66 51.97,23.1 69.29,46.19 17.33,23.09 25.98,49.07 25.98,77.95 0,37.53 -14.43,66.39 -40.41,92.38 -17.33,14.44 -40.42,25.98 -72.18,34.65l121.25 170.32c14.44,23.1 25.98,34.65 34.65,40.42 11.54,8.66 23.1,11.54 34.64,11.54l0 14.44 -158.79 0.01 -161.68 -228.07 -31.75 2.88 0 0zm0 -245.39l0 219.41 20.21 0c34.64,0 60.62,-2.89 77.95,-8.66 17.33,-5.77 28.87,-17.33 40.42,-34.65 8.66,-17.32 14.43,-37.53 14.43,-63.51 0,-37.54 -8.66,-66.4 -25.98,-83.72 -17.32,-17.33 -46.19,-28.88 -86.61,-28.88l-40.42 0.01 0 0z"/>
   <path class="fil1" d="M6275.98 1058.34l0 14.43 -262.71 0 0 -14.43 17.31 0c14.44,0 25.98,-2.89 34.65,-8.67 5.77,-2.89 11.54,-8.66 14.43,-17.32 2.9,-5.78 2.9,-20.21 2.9,-46.19l0 -332c0,-25.98 0,-40.42 -2.9,-49.08 -2.89,-5.77 -8.66,-11.55 -17.32,-17.33 -8.67,-5.77 -20.21,-8.66 -34.65,-8.66l-17.31 0.01 0 -14.44 262.71 0 0 14.44 -17.32 0c-14.43,0 -25.98,2.89 -34.64,8.66 -5.77,2.89 -11.54,8.66 -14.44,17.33 -2.89,5.77 -2.89,20.21 -2.89,46.19l0 329.12c0,25.98 0,40.41 2.89,49.08 2.9,5.77 8.67,11.54 17.33,17.32 8.67,5.78 20.21,8.67 31.75,8.67l20.21 2.87 0 0z"/>
   <path class="fil1" d="M2984.83 1058.34l0 14.43 -262.72 0 0 -14.43 17.32 0c14.44,0 25.98,-2.89 34.65,-8.67 5.77,-2.89 11.54,-8.66 14.43,-17.32 2.89,-5.78 2.89,-20.21 2.89,-46.19l0 -332c0,-25.98 0,-40.42 -2.89,-49.08 -2.89,-5.77 -8.66,-11.55 -17.33,-17.33 -8.66,-5.77 -20.2,-8.66 -34.64,-8.66l-17.32 0.01 0 -14.44 262.72 0 0 14.44 -17.32 0c-14.43,0 -25.98,2.89 -34.64,8.66 -5.77,2.89 -11.55,8.66 -14.44,17.33 -2.89,5.77 -2.89,20.21 -2.89,46.19l0 329.12c0,25.98 0,40.41 2.89,49.08 2.89,5.77 8.67,11.54 17.33,17.32 8.66,5.78 20.21,8.67 34.64,8.67l17.32 2.87 0 0z"/>
   <path class="fil1" d="M6818.74 570.43l0 135.69 -14.44 0.01c-8.66,-31.75 -17.33,-54.85 -25.98,-66.4 -8.66,-14.43 -23.1,-25.98 -40.41,-31.75 -8.67,-5.77 -25.98,-5.77 -49.08,-5.77l-37.54 -0.01 0 386.85c0,25.98 0,43.31 2.89,49.08 2.89,5.77 8.67,11.54 17.33,17.33 8.66,5.77 20.21,8.66 34.64,8.66l17.31 -0.01 0 14.43 -262.71 0 0 -14.43 17.32 0c14.44,0 25.98,-2.89 34.65,-8.66 5.77,-2.9 11.54,-8.67 14.43,-17.33 2.89,-5.77 2.89,-20.21 2.89,-46.19l-0.01 -392.62 -37.52 0c-34.65,0 -57.74,8.66 -72.18,20.2 -23.1,20.21 -34.64,49.08 -40.42,86.62l-14.43 0 0 -135.69 453.26 -0.01 0 0z"/>
   <path class="fil1" d="M7425 570.43l0 14.44c-17.33,2.89 -28.87,5.77 -37.54,14.44 -11.54,11.54 -31.75,37.53 -57.74,83.72l-109.7 181.88 0 121.26c0,25.98 0,43.31 2.89,49.08 2.89,5.77 8.66,11.54 17.32,17.33 8.67,5.77 17.33,8.66 31.76,8.66l28.87 -0.01 0 14.43 -282.92 -0.01 0 -14.43 25.98 0.01c14.43,0 25.98,-2.89 34.64,-8.67 5.77,-2.89 11.54,-8.66 14.44,-17.32 2.89,-5.77 2.89,-20.21 2.89,-46.19l0 -101.04 -118.37 -213.63c-23.1,-43.31 -40.42,-66.4 -49.08,-75.06 -8.66,-8.67 -23.1,-11.55 -37.53,-11.55l0 -14.43 239.62 -0.02 0 14.44 -8.66 0c-14.44,0 -25.98,2.89 -28.87,5.77 -5.78,2.89 -8.67,8.67 -8.67,14.44 0,8.66 11.55,31.75 28.87,66.39l89.5 167.45 89.49 -150.12c23.1,-37.53 34.65,-60.62 34.65,-72.18 0,-5.77 -2.89,-11.54 -8.67,-17.32 -8.66,-5.78 -23.1,-8.67 -46.18,-11.55l0 -14.43 153.01 -5.78 0 0z"/>
   <path class="fil1" d="M2904 1387.45l0 98.16 -8.67 0c-2.89,-17.33 -8.66,-34.65 -14.43,-43.31 -5.77,-11.55 -14.44,-20.21 -28.87,-25.98 -11.55,-5.77 -23.1,-8.67 -37.54,-8.67 -14.43,0 -25.98,2.9 -34.64,14.44 -8.67,8.66 -14.44,20.21 -14.44,28.87 0,8.67 2.89,17.33 8.67,23.1 8.66,11.55 28.87,25.98 60.62,40.42 25.98,14.43 43.31,25.98 54.85,31.75 8.66,8.66 17.33,17.33 23.1,25.98 5.77,11.54 8.66,20.21 8.66,31.75 0,20.21 -8.66,40.42 -25.98,54.85 -17.32,14.44 -37.53,23.1 -63.51,23.1 -8.67,0 -14.44,0 -23.1,-2.89 -2.89,0 -14.44,-2.89 -25.98,-8.66 -14.44,-2.89 -23.1,-5.77 -25.98,-5.77 -2.89,0 -5.77,0 -8.67,2.89 -2.89,2.89 -2.89,5.77 -2.89,14.43l-8.65 0.01 0 -95.26 8.66 0c2.9,20.2 8.67,34.64 14.44,46.18 5.77,11.55 14.44,17.33 28.87,25.98 11.55,5.78 25.98,8.67 40.42,8.67 17.32,0 31.75,-2.89 40.41,-14.44 11.55,-8.66 14.44,-20.21 14.44,-31.75 0,-5.77 -2.89,-14.44 -5.77,-20.21 -2.88,-5.77 -8.67,-14.43 -17.33,-20.21 -5.77,-2.89 -20.21,-14.43 -43.31,-25.98 -23.1,-14.43 -40.41,-23.1 -51.97,-31.75 -11.54,-8.66 -17.33,-17.33 -23.1,-25.98 -5.77,-8.66 -8.66,-20.21 -8.66,-31.75 0,-20.21 8.66,-37.54 23.1,-51.97 14.43,-14.44 34.64,-23.1 60.62,-23.1 14.44,0 31.75,2.89 46.19,11.54 8.66,2.9 14.44,5.78 17.33,5.78 2.89,0 5.77,0 8.66,-2.9 2.89,-2.89 2.89,-5.77 5.77,-14.43l8.68 -2.89 0 0z"/>
   <path class="fil1" d="M3051.22 1410.55l0 112.59 60.64 0c17.33,0 25.98,-2.89 31.75,-8.66 8.67,-5.77 11.55,-17.33 11.55,-34.65l8.66 0 0 98.16 -8.66 0c-2.9,-14.43 -2.9,-23.1 -5.78,-25.98 -2.89,-5.77 -5.77,-8.66 -11.54,-11.54 -5.77,-2.89 -14.44,-2.89 -25.98,-2.89l-60.64 0 0 92.38c0,11.55 0,20.21 2.9,23.1 2.89,2.89 2.89,5.78 5.77,5.78 2.89,2.89 8.66,2.89 14.43,2.89l49.08 -0.01c17.33,0 28.88,0 34.65,-2.9 8.66,-2.89 14.43,-5.77 20.21,-14.43 8.66,-8.66 17.32,-23.1 25.98,-40.42l8.66 0 -23.1 72.18 -216.52 0 0 -8.66 8.66 0c5.77,0 14.43,-2.89 20.21,-5.77 2.89,-2.9 8.66,-5.78 8.66,-11.55 0,-2.89 2.89,-14.43 2.89,-28.87l0 -184.76c0,-17.33 -2.89,-28.87 -5.77,-31.75 -5.77,-5.78 -14.44,-8.67 -25.98,-8.67l-8.67 -0.01 0 -8.66 216.52 0 2.89 60.62 -8.66 0.01c-2.89,-14.43 -5.77,-25.98 -8.67,-31.75 -2.89,-5.77 -8.66,-8.66 -14.43,-11.54 -5.77,-2.9 -14.44,-2.9 -28.87,-2.9l-80.84 8.66 0 0z"/>
   <path class="fil1" d="M3501.59 1387.45l8.67 89.49 -8.67 0.01c-8.66,-23.1 -17.32,-40.41 -28.87,-49.08 -17.33,-17.32 -37.53,-23.1 -63.51,-23.1 -37.54,0 -63.52,14.44 -83.73,43.31 -14.43,23.1 -23.1,51.97 -23.1,86.62 0,25.98 5.78,51.97 14.44,75.06 11.54,23.1 23.1,37.53 40.42,49.08 17.32,11.54 34.64,14.43 51.97,14.43 11.54,0 20.2,0 28.87,-2.89 8.66,-2.89 20.21,-5.77 28.87,-11.54l0 -80.84c0,-14.43 0,-23.1 -2.89,-28.87 -2.89,-2.89 -5.77,-8.66 -11.55,-8.66 -2.89,-2.89 -11.54,-2.89 -23.1,-2.89l0 -8.67 109.72 0 0 8.67 -5.77 0c-11.55,0 -17.33,2.89 -23.1,11.54 -2.89,5.77 -2.89,14.44 -2.89,28.87l0 86.62c-14.44,8.66 -31.76,14.43 -46.19,20.21 -14.44,5.77 -31.75,5.77 -51.97,5.77 -54.86,0 -95.27,-17.33 -124.14,-51.97 -20.21,-25.98 -31.76,-57.75 -31.76,-89.5 0,-25.98 5.78,-49.08 17.33,-72.18 14.44,-25.98 34.65,-46.19 57.75,-63.51 20.2,-11.55 46.18,-17.33 72.17,-17.33 11.55,0 20.21,0 28.88,2.89 8.66,2.89 20.2,5.77 34.64,11.55 8.66,2.89 14.44,2.89 14.44,2.89 0,0 5.77,0 5.77,-2.89 2.89,-2.9 2.89,-8.67 2.89,-14.44l14.41 -8.65 0 0z"/>
   <path class="fil1" d="M3770.09 1401.88l0 -8.66 101.04 0.01 0 8.66 -11.54 -0.01c-11.55,0 -20.21,5.77 -25.98,14.44 -2.9,2.89 -2.9,14.43 -2.9,28.87l0 115.48c0,28.87 -2.89,49.08 -8.66,66.39 -5.77,17.32 -17.33,28.87 -31.75,40.42 -17.33,11.54 -40.42,17.32 -66.4,17.32 -31.75,0 -54.85,-5.77 -69.29,-14.43 -14.43,-8.66 -25.98,-25.98 -34.64,-43.31 -2.89,-11.54 -5.77,-34.64 -5.77,-69.29l0 -109.7c0,-17.33 -2.89,-28.87 -8.66,-34.64 -5.78,-5.78 -11.55,-8.67 -23.1,-8.67l-11.56 0.01 0 -8.66 121.26 0 0 8.66 -11.55 0c-11.54,0 -20.2,2.9 -25.98,11.55 -2.89,5.77 -5.77,14.43 -5.77,31.75l0 124.14c0,11.54 0,23.1 2.89,37.54 2.9,14.43 5.78,25.98 11.55,31.75 5.77,8.66 11.54,14.43 23.1,20.21 11.55,5.77 23.1,8.66 37.53,8.66 17.33,0 34.65,-2.89 49.08,-11.55 14.44,-8.66 25.98,-17.32 28.87,-31.75 2.9,-14.42 8.67,-34.64 8.67,-63.51l0 -115.48c0,-17.33 -2.89,-28.87 -5.77,-31.75 -5.78,-5.77 -14.44,-8.66 -23.1,-8.66l-11.57 -5.79 0 0z"/>
   <path class="fil1" d="M4185.81 1679.03l-75.05 0 -95.27 -132.8c-8.67,0 -14.44,0 -17.33,0 -2.89,0 -2.89,0 -5.77,0 -2.89,0 -2.89,0 -5.77,0l0 80.83c0,17.33 2.89,28.87 5.77,31.75 5.77,5.78 14.43,8.67 23.1,8.67l11.54 0.01 0 8.66 -121.26 0 0 -8.66 11.56 0c11.54,0 20.21,-2.89 25.98,-11.55 2.89,-2.89 2.89,-14.43 2.89,-31.75l0 -181.88c0,-17.33 -2.89,-28.87 -5.77,-31.75 -5.77,-5.77 -14.44,-8.67 -23.1,-8.67l-11.56 -0.01 0 -8.66 103.93 0.01c28.88,0 51.98,2.89 66.4,5.77 14.44,2.89 25.98,11.55 37.54,23.1 8.66,11.55 14.43,25.98 14.43,43.31 0,17.33 -5.77,31.75 -17.33,46.19 -11.54,11.54 -28.87,23.1 -51.97,25.98l57.75 80.83c14.43,17.33 25.98,31.75 34.64,37.53 8.66,5.78 23.1,11.55 37.54,11.55l-2.89 11.54 0 0zm-199.19 -147.23c2.89,0 5.77,0 5.77,0 2.89,0 2.89,0 5.77,0 25.98,0 46.19,-5.77 60.62,-17.32 14.44,-11.55 20.21,-25.98 20.21,-43.31 0,-17.33 -5.77,-31.75 -17.33,-43.31 -11.54,-11.54 -25.98,-17.32 -43.3,-17.32 -8.67,0 -17.33,0 -31.75,2.89l0.01 118.37 0 0z"/>
   <g>
    <path class="fil1" d="M4347.48 1387.45c37.53,0 69.29,14.43 95.27,43.3 25.98,28.88 40.41,63.52 40.41,103.94 0,43.3 -14.43,77.95 -40.41,106.82 -25.98,28.87 -60.63,43.31 -98.16,43.31 -40.42,0 -72.18,-14.44 -98.16,-40.42 -25.98,-28.87 -40.42,-63.52 -40.42,-106.82 0,-43.31 14.44,-80.83 46.19,-109.71 25.99,-25.99 57.75,-40.42 95.28,-40.42l0 0zm-2.88 17.32c-25.98,0 -46.19,8.67 -60.63,28.88 -20.2,23.1 -28.87,57.74 -28.87,101.04 0,46.18 8.67,80.83 28.87,106.82 14.44,17.33 34.65,28.87 60.63,28.87 25.98,0 49.08,-11.54 66.39,-31.75 17.33,-20.21 25.98,-54.85 25.98,-98.16 0,-49.08 -8.66,-83.72 -28.87,-109.7 -17.31,-17.33 -37.52,-26 -63.5,-26z"/>
   </g>
   <path class="fil1" d="M4711.24 1387.45l0 98.16 -8.66 0c-2.89,-17.33 -5.77,-34.65 -14.44,-43.31 -5.77,-11.55 -14.43,-20.21 -28.87,-25.98 -11.54,-5.77 -23.1,-8.67 -37.53,-8.67 -14.44,0 -25.98,2.9 -34.65,14.44 -8.66,11.54 -14.43,20.21 -14.43,28.87 0,8.67 2.89,17.33 8.66,23.1 8.66,11.55 28.87,25.98 60.62,40.42 25.98,14.43 43.31,25.98 54.86,31.75 8.66,8.66 17.32,17.33 23.1,25.98 5.77,11.54 8.66,20.21 8.66,31.75 0,20.21 -8.66,40.42 -25.98,54.85 -17.33,14.44 -37.54,23.1 -63.52,23.1 -8.66,0 -14.43,0 -23.1,-2.89 -2.89,0 -14.43,-2.89 -25.98,-8.66 -14.43,-2.89 -23.1,-5.77 -25.98,-5.77 -2.89,0 -5.77,0 -8.66,2.89 -2.89,2.89 -2.89,5.77 -2.89,14.43l-8.65 0.01 0 -95.26 8.66 0c2.89,20.2 8.66,34.64 14.44,46.18 5.77,11.55 14.43,17.33 28.87,25.98 11.54,5.78 25.98,8.67 40.41,8.67 17.33,0 31.76,-2.89 40.42,-14.44 8.66,-11.54 14.43,-20.21 14.43,-31.75 0,-5.77 -2.89,-14.44 -5.77,-20.21 -2.89,-8.66 -8.66,-14.43 -17.32,-20.21 -5.78,-2.89 -20.21,-14.43 -43.31,-25.98 -23.1,-11.54 -40.42,-23.1 -51.97,-31.75 -11.55,-8.66 -17.33,-17.33 -23.1,-25.98 -5.77,-8.66 -8.67,-20.21 -8.67,-31.75 0,-20.21 8.67,-37.54 23.1,-51.97 14.44,-14.44 34.65,-23.1 57.75,-23.1 14.43,0 31.75,2.89 46.18,11.54 8.67,2.9 14.44,5.78 17.33,5.78 2.89,0 5.77,0 8.67,-2.9 2.89,-2.89 2.89,-5.77 5.77,-14.43l11.55 -2.89 0 0z"/>
   <g>
    <polygon class="fil1" points="4295.52,478.06 4295.52,431.86 4636.18,431.86 4636.18,478.06 "/>
   </g>
  </g>
 </g>
</svg>
