<?xml version="1.0" encoding="UTF-8"?>
<!DOCTYPE svg PUBLIC "-//W3C//DTD SVG 1.1//EN" "http://www.w3.org/Graphics/SVG/1.1/DTD/svg11.dtd">
<!-- Creator: CorelDRAW -->
<svg xmlns="http://www.w3.org/2000/svg" xml:space="preserve" width="73.5046mm" height="21.1666mm" version="1.1" style="shape-rendering:geometricPrecision; text-rendering:geometricPrecision; image-rendering:optimizeQuality; fill-rule:evenodd; clip-rule:evenodd"
viewBox="0 0 7350.46 2116.66"
 xmlns:xlink="http://www.w3.org/1999/xlink"
 xmlns:xodm="http://www.corel.com/coreldraw/odm/2003">
 <defs>
  <style type="text/css">
   <![CDATA[
    .fil0 {fill:none}
    .fil1 {fill:#CD3529;fill-rule:nonzero}
   ]]>
  </style>
 </defs>
 <g id="Capa_x0020_1">
  <metadata id="CorelCorpID_0Corel-Layer"/>
  <rect class="fil0" x="-28.94" width="7350.46" height="2116.66"/>
  <g id="_2521135765408">
   <g>
    <path class="fil1" d="M1219.05 942.41c-8.72,-6.7 -19.42,-10.31 -30.42,-10.31 -3.99,0 -7.97,0.47 -11.85,1.42 -5.84,-16.08 -17.99,-29.13 -33.6,-36.14 -26.4,-9.53 -54.35,-14.44 -82.43,-14.44 -28.09,0 -56.03,4.91 -82.44,14.44 -2.31,0.88 -4.6,1.95 -6.75,3.17 -13.38,7.01 -23.37,19.14 -27.68,33.61 -3.09,-0.49 -6.22,-0.75 -9.33,-0.75 -12.35,0 -24.41,3.89 -34.44,11.1 -36.38,30.63 -60.93,73.04 -69.31,119.82 -0.12,1.17 -0.18,2.34 -0.18,3.5 0,1.17 0.06,2.34 0.17,3.49 -0.03,0.71 -0.04,1.45 -0.04,2.18 0,28.48 23.09,51.57 51.57,51.57 0.85,0 1.73,-0.02 2.58,-0.06l113.5 0c8.03,0 29.38,0 45.65,0l0 106.73 34.23 0.01 0 -106.73c16.27,0 37.63,0 45.65,0l113.5 0c0.78,0.01 1.59,0.03 2.37,0.03 28.59,0 51.78,-23.19 51.78,-51.78 0,-0.64 -0.01,-1.31 -0.04,-1.95 0.12,-1.15 0.17,-2.33 0.17,-3.49 0,-1.16 -0.05,-2.33 -0.17,-3.48 -4.09,-23.17 -12.31,-45.54 -24.08,-65.93 -12.65,-21.2 -28.85,-40.15 -47.79,-56.01l-0.62 0zm-210.72 143.72c-1.5,2.62 -4.31,4.25 -7.34,4.25 -0.3,0 -0.6,-0.01 -0.9,-0.04l-115.4 0c-0.48,0.04 -0.96,0.06 -1.44,0.06 -3.06,0 -6.08,-0.82 -8.71,-2.38 -5.39,-3.14 -8.72,-8.92 -8.72,-15.16 0,-0.44 0.02,-0.89 0.05,-1.33 6.58,-39.55 27.05,-75.55 57.71,-101.44l0 0c3.02,-2.33 6.73,-3.59 10.55,-3.59 6.87,0 13.1,4.07 15.87,10.35l57.49 100.19c0.84,1.35 1.28,2.93 1.28,4.53 0,1.61 -0.44,3.18 -1.28,4.55l0.84 0.01zm62.55 -1.27c-1.71,3.75 -5.47,6.17 -9.61,6.17 -4.13,0 -7.9,-2.42 -9.61,-6.18l-71.23 -122.8c-2.55,-3.57 -3.92,-7.86 -3.92,-12.25 0,-8.29 4.84,-15.8 12.37,-19.24 23.13,-8.76 47.76,-13.31 72.51,-13.31 24.13,0 48.15,4.25 70.8,12.47l0 0c7.93,3.25 13.1,10.98 13.1,19.55 0,0.03 0,0.07 0,0.1 0,0.04 0,0.06 0,0.08 0,4.45 -1.4,8.8 -4.01,12.4l-70.4 123.01zm177.97 3.59c-2.63,1.55 -5.64,2.37 -8.71,2.37 -0.48,0 -0.96,-0.02 -1.43,-0.06l-115.4 0c-0.25,0.03 -0.5,0.04 -0.74,0.04 -4.79,0 -8.67,-3.88 -8.67,-8.67 0,-1.66 0.48,-3.28 1.37,-4.68l57.5 -100.18c2.85,-6.22 9.09,-10.23 15.94,-10.23 3.77,0 7.45,1.23 10.47,3.47l0 0c15.03,12.61 27.81,27.82 37.64,44.82 10.39,17.33 17.57,36.5 21.12,56.41 0.05,0.48 0.07,0.97 0.07,1.45 0,6.21 -3.33,11.95 -8.73,15.05l-0.43 0.21zm0 0l0 0 0 0z"/>
   </g>
   <g>
    <path class="fil1" d="M1061.16 708.65c-192.56,-0.01 -348.73,156.16 -348.73,348.73 0,192.56 156.17,348.73 348.74,348.73 192.57,0 348.74,-156.17 348.74,-348.73 0,-192.57 -156.17,-348.74 -348.74,-348.74l-0.01 0.01zm0 664.29c-0.05,-0.02 -0.16,-0.02 -0.2,-0.02 -174.25,0 -315.55,-141.3 -315.55,-315.54 0,-174.25 141.3,-315.56 315.55,-315.56 174.25,0 315.56,141.31 315.56,315.56 0,0.12 0,0.31 0,0.42 0,174.24 -141.31,315.55 -315.56,315.55l0.2 -0.41zm0 0l0 0 0 0z"/>
   </g>
   <polygon class="fil1" points="2190.66,1059.71 2020.94,712.23 1764.35,712.23 1764.35,1407.18 2020.94,1407.18 2020.94,1059.71 2190.66,1407.18 2360.16,1059.71 2360.16,1407.18 2616.76,1407.18 2616.76,712.23 2360.16,712.23 "/>
   <path class="fil1" d="M2898.71 712.23l-199.53 694.95 257.44 0 32.76 -114.14 274.77 0.01 32.76 114.13 256.58 0 -199.52 -694.95 -455.26 0zm122.58 466.68l104.41 -362.68 104.2 362.69 -208.61 -0.01z"/>
   <g>
    <path class="fil1" d="M4113.59 712.45l-480.63 0 0 694.52 256.38 0 0 -289.35 223.61 0c111.87,-0.01 202.59,-90.72 202.59,-202.59 0,-111.87 -90.72,-202.58 -202.59,-202.58l0.64 0zm-163.59 287.44l-55.59 0 0 -207.97 55.59 0c57.91,0 113.92,30.86 113.92,93.84 0,0.27 0,0.57 0,0.84 0,62.44 -50.64,113.08 -113.07,113.08 -0.28,0 -0.57,0 -0.84,0l-0.01 0.21zm0 0l0 0 0 0z"/>
   </g>
   <polygon class="fil1" points="4405.05,1407.18 4661.64,1407.18 4661.64,1116.99 5087.31,1116.99 5087.31,1003.06 4661.64,1003.06 4661.64,826.37 5087.31,826.37 5087.31,712.23 4405.05,712.23 "/>
   <polygon class="fil1" points="5955.99,1407.18 6638.04,1407.18 6638.04,1293.05 6212.58,1293.05 6212.58,1116.99 6638.04,1116.99 6638.04,1003.06 6212.58,1003.06 6212.58,826.37 6638.04,826.37 6638.04,712.23 5955.99,712.23 "/>
   <g>
    <path class="fil1" d="M5859.61 886.19c0,-0.07 0,-0.16 0,-0.22 0,-95.82 -77.71,-173.52 -173.53,-173.52 -0.06,0 -0.15,0 -0.2,0l-508.96 0 0 694.52 260.82 0 0 -287.66 55.17 0c62.93,0.1 113.92,51.18 113.92,114.12 0,0 0,0 0,0 0,1.9 0,3.8 0,5.5l0 169.09 252.36 0 0 -173.73c0,-1.91 0,-3.81 0,-5.71 -3.07,-93.53 -79.84,-167.82 -173.43,-167.82 -0.03,0 -0.07,0 -0.09,0 -0.01,-0.01 -0.01,-0.01 -0.01,-0.01 95.82,0 173.52,-77.7 173.52,-173.52 0,-0.06 0,-0.15 0,-0.2l0.43 -0.84zm-366.7 113.92l-55.59 0 0 -207.98 55.59 0c56.22,0 113.92,31.07 113.92,93.85 -0.01,62.9 -51.02,113.91 -113.93,113.91l0.01 0.22zm0 0l0 0 0 0z"/>
   </g>
  </g>
 </g>
</svg>
