<?xml version="1.0" encoding="UTF-8"?>
<!DOCTYPE svg PUBLIC "-//W3C//DTD SVG 1.1//EN" "http://www.w3.org/Graphics/SVG/1.1/DTD/svg11.dtd">
<!-- Creator: CorelDRAW -->
<svg xmlns="http://www.w3.org/2000/svg" xml:space="preserve" width="88.1944mm" height="21.1666mm" version="1.1" style="shape-rendering:geometricPrecision; text-rendering:geometricPrecision; image-rendering:optimizeQuality; fill-rule:evenodd; clip-rule:evenodd"
viewBox="0 0 8819.44 2116.66"
 xmlns:xlink="http://www.w3.org/1999/xlink"
 xmlns:xodm="http://www.corel.com/coreldraw/odm/2003"
 data-name="Capa 1">
 <defs>
  <style type="text/css">
   <![CDATA[
    .fil0 {fill:none}
    .fil4 {fill:#00A9CE;fill-rule:nonzero}
    .fil1 {fill:#263F7E;fill-rule:nonzero}
    .fil3 {fill:white;fill-rule:nonzero}
    .fil2 {fill:url(#id0);fill-rule:nonzero}
   ]]>
  </style>
  <linearGradient id="id0" gradientUnits="userSpaceOnUse" x1="7913.26" y1="1317.93" x2="7913.26" y2="805.91">
   <stop offset="0" style="stop-opacity:1; stop-color:white"/>
   <stop offset="0.160784" style="stop-opacity:1; stop-color:white"/>
   <stop offset="0.239216" style="stop-opacity:1; stop-color:#F7F8FA"/>
   <stop offset="0.368627" style="stop-opacity:1; stop-color:#E0E4ED"/>
   <stop offset="0.529412" style="stop-opacity:1; stop-color:#BCC4D7"/>
   <stop offset="0.701961" style="stop-opacity:1; stop-color:#8997B9"/>
   <stop offset="0.901961" style="stop-opacity:1; stop-color:#495E93"/>
   <stop offset="1" style="stop-opacity:1; stop-color:#263F7E"/>
  </linearGradient>
 </defs>
 <g id="Capa_x0020_1">
  <metadata id="CorelCorpID_0Corel-Layer"/>
  <rect class="fil0" width="8819.44" height="2116.66"/>
  <g id="_2520451027072">
   <path class="fil1" d="M698.95 1086.79l154.9 -299.8c3.11,-6.29 7.36,-12 12.49,-16.79 5.4,-4.98 12.49,-7.76 19.85,-7.76 0.42,0 0.85,0.01 1.27,0.03l29.06 0c0.1,-0.01 0.19,-0.01 0.27,-0.01 5.47,0 10.7,2.22 14.51,6.14 3.91,3.72 6.14,8.9 6.14,14.31 0,0.08 0,0.15 0,0.22l-0.02 495.34c-0.11,11.44 -9.44,20.66 -20.89,20.66 0,0 0,0 0,0l-31.34 0.01c-0.07,0 -0.14,0 -0.22,0 -5.41,0 -10.58,-2.23 -14.31,-6.14 -3.92,-3.8 -6.14,-9.03 -6.14,-14.5 0,-0.01 0,-0.03 0,-0.03l0 -363.39 -119.69 230.76c-3.37,6.59 -7.75,12.66 -12.94,17.94 -4.71,4.25 -10.85,6.61 -17.2,6.61 -0.39,0 -0.81,-0.01 -1.2,-0.03l-29.07 0.01c-0.39,0.01 -0.8,0.02 -1.2,0.02 -6.35,0 -12.49,-2.36 -17.2,-6.62 -5.32,-5.2 -9.8,-11.28 -13.17,-17.93l-119.47 -230.75 0 363.38c-0.11,11.36 -9.29,20.55 -20.66,20.67l-31.58 0c-11.35,-0.12 -20.53,-9.31 -20.65,-20.67l-0.01 -495.34c0,-0.07 0,-0.14 0,-0.22 0,-5.41 2.22,-10.59 6.14,-14.31 3.81,-3.92 9.04,-6.14 14.5,-6.14 0.01,0 0.03,0 0.04,0l29.29 0.01c0.46,-0.02 0.93,-0.03 1.4,-0.03 7.25,0 14.23,2.78 19.49,7.76 5.27,4.73 9.61,10.44 12.73,16.79l154.88 299.8z"/>
   <path class="fil1" d="M1038.48 1061.35c1.88,-22.71 7.59,-45.04 16.83,-65.87 8.84,-19.78 21.08,-37.93 36.11,-53.58 15.22,-15.65 33.59,-27.97 53.82,-36.13 21.14,-8.54 43.77,-12.94 66.58,-12.94 0.5,0 1.06,0 1.56,0 0.96,0 2.01,-0.02 3.01,-0.02 24.28,0 48.43,4.58 71.02,13.42 21.12,8.53 40.11,21.76 55.43,38.61 15.88,17.76 27.94,38.68 35.42,61.33 8.1,24.94 12.28,51.11 12.28,77.36 0,1.07 -0.03,2.2 -0.03,3.24l0 20.67c0.02,0.08 0.02,0.15 0.02,0.23 0,5.41 -2.23,10.59 -6.14,14.31 -3.8,3.92 -9.03,6.14 -14.5,6.14 -0.01,0 -0.02,0 -0.03,0l-263.01 0.01 0 4.54c-0.03,1.17 -0.05,2.42 -0.05,3.62 0,28.74 11.46,56.3 31.86,76.55 19.62,17.98 45.3,27.96 71.94,27.96 0.93,0 1.86,-0.03 2.77,-0.04 2.73,0.17 5.51,0.26 8.26,0.26 18.95,0 37.71,-4.14 54.89,-12.08 12.75,-6.94 24.37,-15.94 34.3,-26.55 3.14,-3.27 6.74,-6.12 10.66,-8.42 3.96,-1.51 8.19,-2.29 12.44,-2.29 0.47,0 0.95,0.01 1.42,0.03l22.7 0.01c5.66,0.06 11.1,2.25 15.22,6.12 3.63,2.75 5.76,7.04 5.76,11.59 0,0.98 -0.11,1.98 -0.3,2.95 -2.29,10.87 -6.69,21.23 -12.96,30.42 -8.36,12.06 -18.92,22.49 -31.11,30.66 -15.66,9.99 -32.78,17.69 -50.64,22.73 -21.82,6.46 -44.57,9.78 -67.34,9.78 -1.16,0 -2.4,-0.03 -3.52,-0.03 -0.59,0.01 -1.23,0.01 -1.82,0.01 -22.8,0 -45.38,-4.66 -66.31,-13.65 -20,-8.52 -38.1,-21.07 -53.14,-36.77 -15.71,-15.61 -28.48,-34.06 -37.5,-54.29 -9.21,-21.65 -14.9,-44.68 -16.81,-68.13 -0.96,-10.49 -1.49,-21.12 -1.49,-31.68 0,-13.36 0.82,-26.81 2.4,-40.07l0 -0.01zm68.14 2.5l215.3 0 0 -2.5c0.08,-1.47 0.12,-2.98 0.12,-4.47 0,-26.44 -10.7,-51.79 -29.63,-70.24 -20.13,-18.08 -46.26,-28.1 -73.3,-28.1 -1.91,0 -3.85,0.06 -5.74,0.15 -0.23,0 -0.47,0 -0.7,0 -13.86,0 -27.64,2.47 -40.64,7.27 -12.42,4.77 -23.91,11.8 -33.83,20.68 -9.7,9.23 -17.45,20.38 -22.71,32.69 -5.75,13.27 -8.85,27.57 -9.09,42.01l0.22 2.51z"/>
   <path class="fil1" d="M1682.36 900.55c11.37,0.12 20.55,9.31 20.67,20.67l0 24.53c-0.12,11.36 -9.3,20.55 -20.67,20.67l-45.42 0c-58.91,0 -88.35,29.37 -88.35,88.12l0 223.93c0.01,0 0.01,0.02 0.01,0.03 0,5.47 -2.22,10.7 -6.13,14.5 -3.73,3.91 -8.91,6.14 -14.32,6.14 -0.07,0 -0.15,0 -0.22,0l-27.26 0c-11.36,-0.12 -20.54,-9.31 -20.66,-20.67l-0.01 -357.25c0.01,-0.14 0.01,-0.3 0.01,-0.45 0,-5.29 2.12,-10.37 5.91,-14.09 3.8,-3.91 9.03,-6.13 14.5,-6.13 0.01,0 0.02,0 0.03,0l28.6 0c11.38,0.12 20.56,9.31 20.68,20.67l0 22.71c9.07,-14.26 21.78,-25.86 36.78,-33.61 15.97,-7.11 33.28,-10.79 50.75,-10.79 1.78,0 3.6,0.04 5.36,0.12l39.74 0.9z"/>
   <path class="fil1" d="M1808.86 1126.53c1.47,18.01 6.01,35.73 13.4,52.22 6.18,13.23 14.85,25.2 25.45,35.22 9.62,8.97 21.01,15.94 33.39,20.43 11.93,4.2 24.53,6.36 37.19,6.36 0.09,0 0.19,0 0.27,0 1.3,0.02 2.64,0.06 3.94,0.06 20.46,0 40.68,-4.78 58.98,-13.92 18.23,-10.15 32.55,-26.17 40.66,-45.41 2.25,-6.37 6.08,-12.08 11.12,-16.58 3.81,-2.68 8.37,-4.11 13.03,-4.11 0.35,0 0.71,0.01 1.05,0.02l22.7 0.01c0.06,-0.02 0.09,-0.02 0.13,-0.02 5.57,0 10.92,2.21 14.88,6.13 3.66,3.16 5.79,7.76 5.79,12.6 0,0.66 -0.05,1.31 -0.12,1.95 -0.93,14.09 -4.98,27.83 -11.82,40.19 -8.23,15.55 -19.43,29.37 -32.92,40.66 -34.68,29.34 -78.74,45.45 -124.19,45.45 -1.15,0 -2.32,-0.03 -3.45,-0.03 -1,0 -2.12,0.03 -3.15,0.03 -24.51,0 -48.85,-4.72 -71.57,-13.88 -20.77,-8.6 -39.62,-21.45 -55.19,-37.7 -15.38,-16.05 -27.38,-35.09 -35.2,-55.88 -8.5,-21.74 -13.37,-44.79 -14.3,-68.13 0,-8.18 0,-18.18 -1.13,-30.21 -0.05,-2.05 -0.09,-4.17 -0.09,-6.26 0,-8.29 0.44,-16.61 1.22,-24.84 1.9,-23.33 7.22,-46.33 15.66,-68.14 8.04,-20.61 19.94,-39.61 34.97,-55.85 15.26,-16.26 33.9,-29.06 54.52,-37.49 22.25,-9.17 46.14,-13.9 70.23,-13.9 1.33,0 2.72,0.03 4.02,0.05 1.29,-0.02 2.6,-0.05 3.9,-0.05 23.98,0 47.79,4.43 70.16,13 19.37,7.72 37.52,18.49 53.59,31.79 13.49,11.29 24.69,25.11 32.92,40.66 6.84,12.35 10.89,26.09 11.81,40.19 0.09,0.68 0.13,1.37 0.13,2.06 0,4.87 -2.12,9.51 -5.8,12.69 -3.95,3.93 -9.3,6.14 -14.87,6.14 -0.04,0 -0.07,0 -0.12,0l-22.72 0.01c-0.24,-0.01 -0.49,0 -0.74,0 -4.79,0 -9.46,-1.52 -13.34,-4.33 -5.09,-4.44 -8.93,-10.17 -11.12,-16.57 -8.1,-19.24 -22.42,-35.26 -40.65,-45.43 -18.3,-9.12 -38.52,-13.91 -58.98,-13.91 -1.3,0 -2.64,0.04 -3.93,0.07 -12.92,0.05 -25.76,2.3 -37.93,6.59 -12.54,4.35 -24.07,11.23 -33.84,20.2 -10.55,10.12 -19.14,22.13 -25.22,35.43 -7.37,16.39 -11.71,34.03 -12.72,51.99 -0.56,8.35 -0.9,16.85 -0.9,25.22 0,8.37 0.34,16.87 0.9,25.19l0 0.03z"/>
   <path class="fil1" d="M2150.9 1198.76c0,-0.8 -0.02,-1.64 -0.02,-2.45 0,-17.85 4.23,-35.48 12.3,-51.38 8.16,-15.34 19.67,-28.71 33.6,-39.08 15.33,-11.13 32.29,-19.97 50.2,-26.12 19.86,-6.65 40.39,-11.86 61.1,-15.22l108.99 -17.7 0 -9.99c0.13,-1.66 0.2,-3.32 0.2,-4.99 0,-20.92 -9.62,-40.69 -26.08,-53.6 -17.52,-12.75 -38.68,-19.63 -60.38,-19.63 -1.51,0 -3.07,0.03 -4.57,0.1 -1.94,-0.13 -3.91,-0.2 -5.86,-0.2 -15.93,0 -31.57,4.32 -45.24,12.46 -11.25,7.95 -21.16,17.73 -29.31,28.85 -2.49,3.7 -5.94,6.68 -9.98,8.62 -4.3,1.52 -8.85,2.3 -13.41,2.3 -0.37,0 -0.76,-0.01 -1.13,-0.02l-22.72 0c-0.03,0 -0.06,0 -0.1,0 -5.58,0 -10.92,-2.21 -14.88,-6.13 -3.66,-3.28 -5.76,-7.97 -5.76,-12.88 0,-0.55 0.03,-1.11 0.08,-1.66 1.36,-12.47 6,-24.4 13.41,-34.52 8.61,-12.47 19.6,-23.22 32.25,-31.57 14.06,-9.53 29.36,-17.19 45.42,-22.71 17.45,-5.57 35.73,-8.43 54.07,-8.43 1.04,0 2.15,0.02 3.17,0.02 0.5,-0.01 1.02,-0.01 1.53,-0.01 21.16,0 42.19,3.4 62.27,10.01 18.78,5.94 36.13,15.79 50.87,28.84 14.39,13.25 25.65,29.55 32.95,47.69 7.53,19.38 11.42,40.03 11.42,60.83 0,1.66 -0.04,3.4 -0.09,5.03l0 233.93c-0.1,11.36 -9.28,20.54 -20.65,20.66l-27.72 0.01c-11.35,-0.13 -20.54,-9.31 -20.66,-20.68l-0.01 -32.24c-5.07,10.11 -12.58,18.86 -21.78,25.44 -10.2,7.76 -21.47,14.13 -33.39,18.84 -12.57,5.15 -25.72,9.05 -39.07,11.59 -12.46,2.4 -25.21,3.74 -37.94,3.87 -0.52,-0.01 -1.07,-0.01 -1.6,-0.01 -18.06,0 -36.02,-2.93 -53.12,-8.64 -15.34,-4.9 -29.68,-12.61 -42.23,-22.71 -22.98,-18.66 -36.35,-46.71 -36.35,-76.33 0,-0.21 0,-0.44 0,-0.66l0.22 0.47zm141.04 42.01c0.65,-0.01 1.37,0 2.03,0 16.48,0 32.9,-2.85 48.4,-8.41 14.5,-4.92 27.96,-12.66 39.52,-22.71 10.99,-9.86 19.71,-22.05 25.42,-35.66 5.85,-14.06 8.87,-29.16 8.87,-44.39 0,-0.33 0,-0.69 0,-1.03l0 -19.3 -90.84 14.53c-26.77,3.42 -52.78,11.76 -76.54,24.53 -16.96,8.1 -27.94,25.05 -28.4,43.83 0,0.06 0,0.12 0,0.18 0,5.76 1.32,11.46 3.86,16.62 2.86,6.2 7.06,11.72 12.26,16.13 6.58,5.71 14.34,9.92 22.71,12.27 8.66,2.38 17.64,3.59 26.62,3.59 2.03,0 4.08,-0.06 6.1,-0.18l-0.01 0z"/>
   <path class="fil1" d="M2948.07 1278.47c0.01,0 0.01,0.02 0.01,0.03 0,5.47 -2.21,10.7 -6.13,14.5 -3.73,3.91 -8.91,6.14 -14.31,6.14 -0.08,0 -0.16,0 -0.23,0l-28.39 0c-0.06,0 -0.14,0 -0.22,0 -5.41,0 -10.58,-2.23 -14.31,-6.14 -3.92,-3.8 -6.13,-9.03 -6.13,-14.5 0,-0.01 0,-0.03 0,-0.03l-0.01 -202.35c0.25,-3.14 0.37,-6.31 0.37,-9.45 0,-28.85 -10.19,-56.82 -28.74,-78.91 -21.8,-18.73 -49.62,-29.05 -78.37,-29.05 -28.74,0 -56.56,10.32 -78.35,29.07 -19.25,21.74 -29.91,49.8 -29.91,78.86 0,3.15 0.13,6.32 0.38,9.46l0 202.36c-0.12,11.37 -9.3,20.56 -20.67,20.68l-28.39 0c-0.06,0 -0.14,0 -0.22,0 -5.41,0 -10.58,-2.23 -14.31,-6.14 -3.92,-3.8 -6.13,-9.03 -6.13,-14.5 0,-0.01 0,-0.03 0,-0.03l-0.01 -357.25c0.13,-11.36 9.31,-20.55 20.68,-20.67l29.52 0c0.01,0 0.03,0 0.04,0 5.47,0 10.69,2.22 14.5,6.13 3.91,3.73 6.13,8.91 6.13,14.32 0,0.08 0,0.15 0,0.22l0 22.71c11.88,-14.6 26.58,-26.73 43.16,-35.66 21.39,-10.82 45.11,-16.48 69.1,-16.48 2.18,0 4.37,0.06 6.53,0.13 0.72,0.01 1.53,-0.01 2.29,-0.01 22.03,0 43.9,4.01 64.48,11.82 19.61,7.53 37.5,19.07 52.47,33.84 15.06,15.36 26.7,33.83 34.05,54.06 8.13,22.09 12.28,45.51 12.28,69.06 0,0.95 -0.02,2.01 -0.02,2.94l-1.14 214.84z"/>
   <path class="fil1" d="M3153.61 1164.92c0.01,0.61 0,1.25 0,1.89 0,8.5 0.85,17.02 2.5,25.35 1.43,8.23 4.78,16.02 9.77,22.71 5.01,6.54 11.8,11.51 19.54,14.32 9.64,3.32 19.79,5.03 30,5.03 0.81,0 1.67,-0.03 2.48,-0.04l40.64 0.01c11.37,0.11 20.55,9.3 20.67,20.66l0 24.53c0,0 0,0.02 0,0.03 0,5.47 -2.21,10.7 -6.12,14.5 -3.73,3.91 -8.91,6.14 -14.31,6.14 -0.08,0 -0.16,0 -0.23,0l-48.38 0c-3.65,0.32 -7.33,0.48 -10.99,0.48 -32,0 -62.73,-12.58 -85.52,-35.02 -19.69,-25.72 -30.34,-57.24 -30.34,-89.62 0,-3.36 0.13,-6.74 0.34,-10.08l0 -199.39 -56.55 0c-0.08,0 -0.17,0 -0.25,0 -5.47,0 -10.7,-2.21 -14.51,-6.13 -3.91,-3.73 -6.13,-8.91 -6.13,-14.31 0,-0.08 0,-0.16 0,-0.23l-0.01 -24.53c0.01,-0.07 0.01,-0.14 0.01,-0.22 0,-5.41 2.22,-10.59 6.14,-14.31 3.8,-3.92 9.03,-6.14 14.5,-6.14 0.08,0 0.17,0 0.25,0l56.55 0 0 -125.13c0.13,-11.46 9.46,-20.67 20.91,-20.67 0,0 0,0 0,0l28.14 0c0.04,0 0.06,0 0.09,0 5.52,0 10.81,2.21 14.69,6.12 3.84,3.87 6.04,9.09 6.13,14.54l0 125.14 97.2 0c11.37,0.12 20.56,9.31 20.68,20.67l0 24.53c-0.12,11.36 -9.31,20.55 -20.67,20.67l-97.22 0 0 198.5z"/>
   <path class="fil1" d="M3429.56 819.24c0.01,0.08 0.01,0.16 0.01,0.24 0,5.4 -2.22,10.58 -6.14,14.31 -3.8,3.91 -9.03,6.12 -14.5,6.12 0,0 -0.02,0 -0.03,0l-43.85 0c-11.34,-0.12 -20.53,-9.3 -20.65,-20.67l-0.01 -43.82c0,-0.01 0,-0.03 0,-0.04 0,-5.47 2.22,-10.69 6.13,-14.5 3.73,-3.91 8.91,-6.13 14.32,-6.13 0.08,0 0.15,0 0.22,0l43.83 0c11.37,0.12 20.56,9.3 20.68,20.67l-0.01 43.82zm-7.72 459.23c-0.12,11.36 -9.3,20.55 -20.67,20.67l-28.39 0c-0.06,0 -0.14,0 -0.22,0 -5.4,0 -10.58,-2.23 -14.31,-6.14 -3.92,-3.8 -6.13,-9.03 -6.13,-14.5 0,-0.01 0,-0.03 0,-0.03l-0.01 -357.25c0.13,-11.36 9.31,-20.55 20.68,-20.67l28.38 0c0.01,0 0.03,0 0.04,0 5.47,0 10.69,2.22 14.5,6.13 3.91,3.73 6.13,8.91 6.13,14.32 0,0.08 0,0.15 0,0.22l0 357.25z"/>
   <path class="fil1" d="M3602.62 1278.47c0.01,0 0.01,0.02 0.01,0.03 0,5.47 -2.22,10.7 -6.13,14.5 -3.73,3.91 -8.91,6.14 -14.32,6.14 -0.07,0 -0.15,0 -0.22,0l-29.31 0c-11.35,-0.12 -20.54,-9.31 -20.66,-20.67l-0.01 -503.05c0.13,-11.37 9.32,-20.55 20.68,-20.67l28.38 0c0.09,0 0.16,0 0.24,0 5.41,0 10.59,2.22 14.31,6.13 3.91,3.81 6.13,9.03 6.13,14.5 0,0.01 0,0.03 0,0.04l0.9 503.05z"/>
   <path class="fil1" d="M4151.56 762.47c0.57,-0.04 1.13,-0.06 1.7,-0.06 6.21,0 12.19,2.38 16.7,6.64 4.88,5.7 8.53,12.36 10.68,19.53l187.81 483.76c0.19,0.89 0.28,1.8 0.28,2.72 0,0.92 -0.09,1.83 -0.27,2.72 -0.12,11.36 -9.31,20.55 -20.67,20.67l-55.2 0.01c-1.32,0.18 -2.67,0.27 -4.01,0.27 -6.84,0 -13.47,-2.44 -18.69,-6.87 -3.59,-3.65 -6.45,-7.98 -8.4,-12.72l-32.93 -84.93 -240.3 0 -32.93 84.94c-1.95,4.73 -4.8,9.06 -8.39,12.71 -5.25,4.43 -11.89,6.86 -18.76,6.86 -1.32,0 -2.64,-0.09 -3.96,-0.26l-53.6 0c-11.36,-0.13 -20.54,-9.32 -20.66,-20.68 -0.18,-0.89 -0.28,-1.8 -0.28,-2.72 0,-0.92 0.1,-1.83 0.28,-2.72l187.82 -484.44c2.15,-7.18 5.8,-13.84 10.67,-19.53 4.52,-4.27 10.5,-6.65 16.7,-6.65 0.57,0 1.14,0.02 1.7,0.06l84.71 0.69zm42.24 336.58l-84.49 -218.48 -84.26 218.48 168.75 0z"/>
   <path class="fil1" d="M4801.79 1278.47c-0.13,11.36 -9.31,20.55 -20.68,20.67l-58.36 0c-0.08,0 -0.16,0 -0.23,0 -5.41,0 -10.59,-2.23 -14.31,-6.14 -3.92,-3.8 -6.14,-9.03 -6.14,-14.5 0,-0.01 0,-0.03 0,-0.03l0.02 -194.86c0.08,-1.9 0.14,-3.87 0.14,-5.78 0,-24.31 -7.62,-48.01 -21.72,-67.8 -14.81,-17.58 -36.63,-27.73 -59.61,-27.73 -2.08,0 -4.2,0.09 -6.26,0.25 -0.8,-0.03 -1.63,-0.05 -2.43,-0.05 -23.13,0 -45.12,10.04 -60.25,27.51 -14.84,19.35 -22.89,43.06 -22.89,67.45 0,2.04 0.07,4.11 0.17,6.14l0 194.87c0,0 0,0.02 0,0.03 0,5.47 -2.21,10.7 -6.13,14.5 -3.73,3.91 -8.91,6.14 -14.31,6.14 -0.08,0 -0.16,0 -0.23,0l-58.13 0c-0.08,0 -0.16,0 -0.24,0 -5.41,0 -10.58,-2.23 -14.31,-6.14 -3.91,-3.8 -6.13,-9.03 -6.13,-14.5 0,-0.01 0,-0.03 0,-0.03l0.01 -357.25c0.11,-11.36 9.3,-20.55 20.66,-20.67l56.11 0c11.36,0.12 20.54,9.31 20.66,20.67l0 17.49c13.92,-13.46 29.98,-24.61 47.47,-32.93 18.83,-8.55 39.31,-13 60.01,-13 1.18,0 2.41,0.02 3.58,0.04 1.99,-0.05 4.06,-0.09 6.08,-0.09 24.81,0 49.44,4.99 72.28,14.63 19.68,8.79 37,22.22 50.41,39.07 13.17,16.83 22.5,36.4 27.26,57.23 5.37,21.9 8.17,44.53 8.17,67.12 0,0.31 0,0.72 0,1.02l-0.67 206.67z"/>
   <path class="fil1" d="M5053.89 892.83c0.51,0 1.05,0 1.57,0 13.74,0 27.48,1.54 40.88,4.54 11.32,2.74 22.4,6.66 32.93,11.6 8.66,4.03 16.83,9.06 24.31,14.97 5.69,4.45 11.05,9.42 15.91,14.76l0 -163.28c0.11,-11.46 9.43,-20.67 20.88,-20.67 0,0 0,0 0,0l58.15 0c0.07,0 0.15,0 0.22,0 5.41,0 10.59,2.22 14.31,6.13 3.92,3.81 6.13,9.03 6.13,14.5 0,0.01 0,0.03 0,0.04l0.01 503.05c-0.01,0 -0.01,0.02 -0.01,0.03 0,5.47 -2.21,10.7 -6.13,14.5 -3.72,3.91 -8.9,6.14 -14.31,6.14 -0.07,0 -0.15,0 -0.22,0l-58.14 0c-0.01,-0.01 -0.01,-0.01 -0.01,-0.01 -11.45,0 -20.77,-9.22 -20.89,-20.67l0 -17.72c-11.21,12.62 -24.91,22.84 -40.2,29.98 -10.53,4.96 -21.58,8.79 -32.93,11.35 -13.23,3.16 -26.83,4.79 -40.45,4.79 -0.65,0 -1.37,-0.02 -2.01,-0.02 -0.79,0.01 -1.6,0.03 -2.39,0.03 -23.18,0 -46.14,-5.14 -67.11,-15.01 -20.11,-9.65 -38.12,-23.27 -52.91,-39.97 -14.73,-16.95 -26.39,-36.45 -34.3,-57.47 -8.52,-21.73 -13.39,-44.78 -14.31,-68.12 0,-7.5 0,-16.58 0,-26.8 0,-10.22 0,-19.08 0,-26.8 0.94,-23.35 5.78,-46.39 14.28,-68.14 7.99,-20.98 19.63,-40.47 34.32,-57.46 14.68,-15.95 32.36,-28.93 52,-38.14 21.62,-10.62 45.39,-16.13 69.46,-16.13 0.31,0 0.63,0 0.94,0l0.02 0zm-70.41 185.55c-0.8,7.12 -1.21,14.29 -1.21,21.45 0,7.17 0.41,14.34 1.19,21.46 0.19,27.02 11.26,52.8 30.67,71.56 17.29,14.65 39.22,22.72 61.89,22.72 0.56,0 1.16,-0.01 1.71,-0.01 0.67,0.01 1.38,0.02 2.06,0.02 22.49,0 44.26,-8.07 61.31,-22.73 17.9,-16.48 28.47,-39.5 29.28,-63.83 1.08,-8.47 1.63,-17.11 1.63,-25.67 0,-1.12 -0.02,-2.29 -0.02,-3.39 -0.01,-1.07 0.01,-2.23 0.01,-3.31 0,-8.61 -0.55,-17.25 -1.61,-25.78 -1.67,-47.9 -41.02,-85.9 -88.98,-85.9 -1.23,0 -2.46,0.03 -3.68,0.07 -0.55,-0.01 -1.15,-0.01 -1.71,-0.01 -22.67,0 -44.6,8.06 -61.88,22.73 -19.19,18.54 -30.23,43.95 -30.67,70.62l0.01 0z"/>
   <path class="fil1" d="M5454.06 754.75c11.36,0.12 20.54,9.3 20.66,20.67l0 59.95c-0.12,11.36 -9.3,20.54 -20.67,20.67l-66.07 0c-11.38,-0.13 -20.56,-9.31 -20.68,-20.67l0.01 -59.95c0.11,-11.37 9.29,-20.55 20.66,-20.67l66.09 0zm16.81 523.72c-0.13,11.36 -9.31,20.55 -20.68,20.67l-57.91 0c-0.07,0 -0.15,0 -0.23,0 -5.41,0 -10.58,-2.23 -14.31,-6.14 -3.91,-3.8 -6.13,-9.03 -6.13,-14.5 0,-0.01 0,-0.03 0,-0.03l0.01 -357.25c0.11,-11.36 9.3,-20.55 20.66,-20.67l58.37 0c0,0 0.02,0 0.03,0 5.47,0 10.7,2.22 14.5,6.13 3.91,3.73 6.14,8.91 6.14,14.32 0,0.08 0,0.15 0,0.22l-0.45 357.25z"/>
   <path class="fil1" d="M5946.91 1278.47c-0.01,0 -0.01,0.02 -0.01,0.03 0,5.47 -2.22,10.7 -6.13,14.5 -3.74,3.91 -8.91,6.14 -14.32,6.14 -0.08,0 -0.15,0 -0.22,0l-58.36 0c-11.37,-0.12 -20.55,-9.31 -20.67,-20.67l0 -194.86c0.09,-2 0.15,-4.07 0.15,-6.08 0,-24.19 -7.53,-47.77 -21.5,-67.5 -17.08,-17.48 -40.52,-27.34 -64.97,-27.34 -24.44,0 -47.88,9.86 -64.95,27.33 -14.84,19.21 -22.9,42.79 -22.9,67.08 0,2.15 0.07,4.35 0.19,6.49l0 194.87c-0.12,11.45 -9.44,20.67 -20.9,20.67 0,0 0,0 0,0l-58.13 0.01c-0.07,0 -0.15,0 -0.23,0 -5.41,0 -10.58,-2.23 -14.31,-6.14 -3.92,-3.8 -6.13,-9.03 -6.13,-14.5 0,-0.01 0,-0.03 0,-0.03l0 -357.25c0.12,-11.36 9.3,-20.55 20.67,-20.67l58.14 0c0.08,0 0.17,0 0.25,0 5.47,0 10.7,2.22 14.51,6.14 3.91,3.72 6.14,8.9 6.14,14.31 0,0.08 0,0.15 0,0.22l0 17.49c13.67,-13.45 29.51,-24.61 46.79,-32.92 18.77,-8.56 39.21,-13.01 59.86,-13.01 1.24,0 2.51,0.04 3.72,0.05 1.98,-0.06 4.08,-0.1 6.08,-0.1 24.76,0 49.26,4.98 72.05,14.63 19.73,8.81 37.12,22.23 50.64,39.07 12.99,16.93 22.3,36.48 27.26,57.24 5.25,22.09 7.95,44.81 7.95,67.55 0,0.18 0,0.4 0,0.57l-0.67 206.68z"/>
   <path class="fil1" d="M6045.02 999.81c2.64,-12.24 7.43,-23.94 14.08,-34.52 8.35,-13.3 19.06,-25.03 31.56,-34.53 15.02,-11.47 31.85,-20.47 49.74,-26.57 20.9,-6.8 42.75,-10.25 64.74,-10.25 1.12,0 2.3,0.03 3.4,0.03 1.02,0.01 2.13,-0.02 3.19,-0.02 22.85,0 45.64,3.47 67.43,10.23 19.86,6.41 38.3,16.78 54.06,30.44 15.52,13.34 27.77,30.16 35.64,49.06 8.13,21.05 12.31,43.48 12.31,66.07 0,1.05 -0.03,2.15 -0.03,3.18l0 225.53c0,0.01 0,0.03 0,0.04 0,5.47 -2.22,10.7 -6.13,14.5 -3.72,3.91 -8.9,6.14 -14.31,6.14 -0.08,0 -0.15,0 -0.22,0l-58.14 0c-0.08,0 -0.16,0 -0.23,0 -5.41,0 -10.59,-2.23 -14.31,-6.14 -3.92,-3.8 -6.14,-9.03 -6.14,-14.5 0,-0.01 0,-0.03 0,-0.03l0.01 -25.43c-12.34,16.1 -28.3,29.12 -46.57,37.92 -22.26,10.51 -46.66,16 -71.3,16 -1.89,0 -3.81,-0.05 -5.68,-0.11 -0.87,0 -1.82,0.03 -2.71,0.03 -19.13,0 -38.16,-3.02 -56.35,-8.89 -16.07,-5.25 -30.94,-13.77 -43.61,-24.98 -11.67,-10.53 -21,-23.49 -27.25,-37.92 -6.29,-14.75 -9.55,-30.63 -9.55,-46.66 0,-0.42 0,-0.84 0,-1.26 -0.04,-1.52 -0.09,-3.08 -0.09,-4.6 0,-30.44 13.83,-59.27 37.58,-78.31 29.52,-21.64 64.08,-35.58 100.37,-40.41l125.14 -22.71c0.2,-1.73 0.29,-3.47 0.29,-5.2 0,-16.06 -7.92,-31.13 -21.16,-40.23 -14.53,-8.5 -31.08,-13 -47.91,-13 -1.13,0 -2.3,0.02 -3.43,0.06 -1.07,-0.05 -2.17,-0.08 -3.24,-0.08 -9.12,0 -18.16,1.89 -26.52,5.53 -7.63,3.78 -14.67,8.7 -20.88,14.54 -3.67,3.47 -7.9,6.32 -12.49,8.4 -3.87,1.5 -7.98,2.27 -12.13,2.27 -0.2,0 -0.4,0 -0.6,0l-71.3 0c-0.09,0 -0.18,0 -0.26,0 -4.63,0 -9.12,-1.61 -12.69,-4.54 -2.72,-2.23 -4.31,-5.56 -4.32,-9.08l0.01 0zm128.09 215.98c0.58,-0.01 1.24,0 1.84,0 14.83,0 29.57,-2.47 43.57,-7.27 12.51,-4.23 24.1,-10.88 34.07,-19.53 8.83,-7.53 15.89,-16.93 20.67,-27.49 4.55,-9.9 6.95,-20.68 7.04,-31.57l0 -7.49 -104.48 18.39c-16.1,1.74 -31.66,7.11 -45.42,15.68 -8.56,6.18 -13.64,16.12 -13.64,26.69 0,0.41 0,0.83 0.02,1.24 -0.01,0.08 -0.01,0.17 -0.01,0.25 0,10.5 6.52,19.91 16.36,23.6 10.91,4.3 22.57,6.53 34.31,6.53 1.87,0 3.79,-0.06 5.66,-0.18l0.01 1.15z"/>
   <circle class="fil1" transform="matrix(0.137342 -0.849805 0.849805 0.137342 7588.8 1047.37)" r="850.9"/>
   <path class="fil2" d="M8096.78 1198.3l-37.25 -64.28c-16.58,-29.29 -34.07,-59.28 -51.33,-89.03 0,0 -103.57,-169.65 -138.55,-225.3 -14.98,-21.35 -56.55,-26.8 -82.67,15.68l-45.42 79.71c52.01,90.85 139.9,243.92 176.46,307.98l0.02 0 34.07 59.04c14.55,27.08 42.84,44 73.6,44 46.15,0 83.58,-37.43 83.58,-83.58 0,-15.54 -4.34,-30.8 -12.52,-44.01l0.01 -0.21z"/>
   <path class="fil3" d="M7633.69 787.9c0,0 -13.4,19.31 -15.67,22.72 -32.48,52.01 -227.11,378.38 -227.11,378.38 -6.09,11.79 -9.27,24.91 -9.27,38.19 0,46.16 37.43,83.59 83.58,83.59 28.46,0 54.98,-14.49 70.35,-38.44l251.41 -437.43c26.12,-42.47 68.14,-37.02 82.67,-15.67 -76.3,-107.19 -169.19,-109.47 -235.96,-31.34z"/>
   <path class="fil4" d="M7393.4 869.67c-12.58,-7.09 -26.79,-10.84 -41.23,-10.84 -29.76,0 -57.32,15.81 -72.34,41.5l-177.38 297.97c-8.17,13.19 -12.51,28.45 -12.51,43.98 0,46.16 37.42,83.59 83.58,83.59 30.75,0 59.05,-16.92 73.61,-44.01l177.38 -297.97c7.26,-12.64 11.1,-27 11.1,-41.6 0,-30.03 -16.12,-57.77 -42.22,-72.62l0.01 0z"/>
  </g>
 </g>
</svg>
