<?xml version="1.0" encoding="UTF-8"?>
<!DOCTYPE svg PUBLIC "-//W3C//DTD SVG 1.1//EN" "http://www.w3.org/Graphics/SVG/1.1/DTD/svg11.dtd">
<!-- Creator: CorelDRAW -->
<svg xmlns="http://www.w3.org/2000/svg" xml:space="preserve" width="64.481mm" height="21.1666mm" version="1.1" style="shape-rendering:geometricPrecision; text-rendering:geometricPrecision; image-rendering:optimizeQuality; fill-rule:evenodd; clip-rule:evenodd"
viewBox="0 0 6448.1 2116.66"
 xmlns:xlink="http://www.w3.org/1999/xlink"
 xmlns:xodm="http://www.corel.com/coreldraw/odm/2003">
 <defs>
  <style type="text/css">
   <![CDATA[
    .fil0 {fill:none}
    .fil1 {fill:#002F87;fill-rule:nonzero}
    .fil2 {fill:#25B4BD;fill-rule:nonzero}
    .fil3 {fill:#3C3C3B;fill-rule:nonzero}
   ]]>
  </style>
 </defs>
 <g id="Capa_x0020_1">
  <metadata id="CorelCorpID_0Corel-Layer"/>
  <rect class="fil0" x="-21.51" width="6448.1" height="2116.66"/>
  <g id="_2520731942016">
   <g id="Capa_2" data-name="Capa 2">
    <g id="Capa_1-2" data-name="Capa 1">
     <path class="fil1" d="M770.51 1208.55l456.8 -289.15c101.72,-64.04 203.44,-14.13 203.44,98.9l0 337.18c0,38.62 27.32,65.93 67.82,65.93l88.53 0c285.39,0 531.21,-206.26 531.21,-556.63 0.94,-361.68 -284.44,-590.55 -619.74,-590.55l-705.45 0c-51.75,1.84 -93.28,43.38 -95.13,95.13l0 808.11c0,32.97 43.32,48.98 72.52,31.08z"/>
     <path class="fil2" d="M697.99 1432.72l0 79.11c0,178.95 156.35,330.59 337.18,330.59l187.43 0c58.4,0 101.72,-40.5 101.72,-99.83l0 -658.36c0,-45.21 -47.09,-69.7 -85.71,-45.21l-502.01 319.29c-29.19,17.89 -38.61,40.5 -38.61,74.41z"/>
     <path class="fil3" d="M2920.77 1016.41c0,100.78 -56.51,167.66 -188.37,167.66l-87.59 0 0 156.34 -122.45 0 0 -493.53 210.04 0c129.98,0 188.37,64.99 188.37,169.53zm-124.32 0c0,-47.09 -21.67,-68.75 -72.53,-68.75l-80.05 0 0 138.45 80.05 0c51.8,-0.94 72.53,-27.31 72.53,-69.7z"/>
     <path class="fil3" d="M3233.47 928.82l0 120.56c-11.94,-2.58 -24.23,-3.9 -36.46,-3.9 -2.28,0 -4.61,0.04 -6.86,0.12 -58.4,0 -83.83,34.85 -87.59,99.84l0 -0.95 -0.95 194.97 -116.79 0.01 0 -407.82 87.59 0 23.55 81c19.78,-53.69 62.16,-87.59 112.08,-86.65 1.1,-0.05 2.25,-0.07 3.36,-0.07 7.45,0 14.87,0.97 22.07,2.89l0 0z"/>
     <path class="fil3" d="M3276.79 1135.09c0,-130.92 65.93,-209.09 201.56,-209.09 135.63,0 201.56,78.17 201.56,209.09 0,132.8 -65.93,211.92 -201.56,211.92 -135.63,0 -201.56,-79.12 -201.56,-211.92zm281.62 -0.94c0,-78.18 -23.55,-113.97 -79.12,-113.97 -55.57,0 -80.06,36.73 -80.06,113.97 0,75.35 24.49,118.67 80.06,118.67 55.57,0 79.12,-38.61 79.12,-118.67z"/>
     <path class="fil3" d="M4106.57 931.65l-133.74 407.82 -132.81 0 -133.74 -407.82 118.67 0 71.58 246.76c4.71,17.9 7.54,37.68 10.36,54.63 2.83,-17.89 5.65,-36.73 9.42,-54.63l72.52 -246.76 117.74 0z"/>
     <path class="fil3" d="M4148.01 821.45l116.79 0 0 75.35 -116.79 0 0 -75.35zm0 110.2l116.79 0 0 407.82 -116.79 0 0 -407.82z"/>
     <path class="fil3" d="M4731.02 1070.1l0 270.31 -117.73 0 0 -240.17c0,-51.8 -18.84,-74.41 -62.17,-74.41 -47.09,0 -74.41,27.32 -78.17,88.54l0 226.04 -116.79 0 0 -408.76 86.65 0 21.66 71.58c22.61,-53.69 68.76,-77.23 128.09,-77.23 88.54,0 138.46,48.03 138.46,144.1z"/>
     <path class="fil3" d="M4796.95 1136.03c0,-129.98 71.58,-210.03 207.21,-210.03 1.61,-0.03 3.32,-0.06 4.96,-0.06 49.98,0 98.75,15.88 139.14,45.28l-37.67 97.01c-24.55,-27.57 -59.72,-43.34 -96.63,-43.34 -0.12,0 -0.25,0 -0.38,0 -52.74,0 -95.13,34.85 -95.13,111.14 0,76.29 46.16,112.08 95.13,112.08 0.33,0 0.69,0 1.01,0 36.73,0 71.71,-15.8 96,-43.33l37.67 97.01c-41.12,29.4 -90.52,45.23 -141.1,45.23 -0.98,0 -2.04,-0.03 -2.99,-0.03 -132.82,0.02 -207.22,-80.98 -207.22,-210.96z"/>
     <path class="fil3" d="M5203.83 821.45l116.79 0 0 75.35 -116.79 0 0 -75.35zm0 110.2l116.79 0 0 407.82 -116.79 0 0 -407.82z"/>
     <path class="fil3" d="M5750.11 1086.11l0 254.3 -86.65 0 -20.72 -74.4c-19.78,49.92 -64.05,81 -130.92,81 -88.54,0 -122.44,-49.92 -122.44,-114.91 0,-113.97 114.9,-126.21 245.82,-139.39l0 -1.89c0,-50.86 -34.85,-70.64 -88.54,-70.64 -42.86,0.97 -83.75,18.54 -113.96,48.96l-47.09 -86.65c49.21,-35.52 108.41,-54.64 169.12,-54.64 1.38,0 2.86,0.04 4.19,0.04 132.79,-0.95 190.25,55.56 191.19,158.22zm-115.85 99.84l0 -29.2c-75.35,8.48 -128.09,16.01 -128.09,62.17 0,25.43 12.24,41.44 46.15,41.44 37.67,-0.01 79.11,-20.73 81.94,-74.41z"/>
     <path class="fil3" d="M2525.19 1708.02c22.49,12.75 47.87,19.61 73.74,19.87 0.97,0.03 1.97,0.05 2.94,0.05 15.86,0 31.42,-4.51 44.82,-12.96 11.81,-7.83 18.91,-21.07 18.91,-35.23 0,-0.82 -0.02,-1.63 -0.07,-2.44 0.02,-0.54 0.04,-1.1 0.04,-1.64 0,-8.8 -3.04,-17.35 -8.61,-24.17 -5.72,-6.84 -12.91,-12.35 -21.01,-16.11 -11.51,-5.29 -23.43,-10.14 -35.39,-14.3 -15.76,-5.19 -31.33,-11.56 -46.27,-18.85 -12,-6.38 -22.36,-15.57 -30.14,-26.75 -8.2,-12.45 -12.6,-27.08 -12.6,-42.01 0,-1.18 0.04,-2.4 0.09,-3.58 -0.1,-1.53 -0.15,-3.1 -0.15,-4.64 0,-24.31 11.73,-47.15 31.5,-61.29 22.46,-14.64 48.74,-22.46 75.56,-22.46 2.13,0 4.27,0.07 6.38,0.15 -0.01,0 0.06,0 0.06,0 34.8,0 69.37,6.74 101.59,19.79l-21.29 47.1c-23.54,-14.09 -50.47,-21.59 -77.91,-21.68 -0.93,-0.05 -1.88,-0.07 -2.81,-0.07 -12.84,0 -25.4,3.98 -35.89,11.37 -9.44,7.11 -15.01,18.26 -15.01,30.09 0,0.48 0.02,0.97 0.03,1.46 -0.01,0.38 -0.02,0.79 -0.02,1.18 0,8.18 2.96,16.09 8.31,22.27 5.89,6.44 13.05,11.65 21,15.26 11.24,5.01 22.96,9.52 34.68,13.27 16.07,5.31 31.87,11.87 47.06,19.39 12.09,6.44 22.55,15.57 30.53,26.68 8.33,12.49 12.8,27.18 12.8,42.2 0,1.15 -0.04,2.33 -0.09,3.47 0.05,1.31 0.1,2.63 0.1,3.94 0,27.21 -12.9,52.85 -34.75,69.06 -24.52,17 -53.7,26.14 -83.55,26.14 -2.18,0 -4.41,-0.05 -6.58,-0.14 -33.88,-0.51 -67.53,-6.94 -99.27,-18.85l21.27 -45.57z"/>
     <path class="fil3" d="M2831.3 1654.62c0.81,26.75 5.8,46.18 14.97,58.3 9.42,12.05 24.68,18.17 46.53,18.17 0.83,0.01 1.72,0.03 2.56,0.03 11.59,0 23.11,-2.06 33.98,-6.06 10.78,-4.28 21.05,-9.89 30.51,-16.57l24.3 39.18c-27.07,15.78 -57.92,24.12 -89.29,24.12 -0.76,0 -1.61,-0.02 -2.34,-0.02 -42.57,0.01 -73.31,-11.2 -92.21,-33.61 -18.9,-22.42 -28.32,-55.88 -28.26,-100.4 0,-43.58 8.95,-77.52 26.84,-101.82 17.9,-24.3 45.9,-36.41 84.02,-36.35 38.99,0 67.5,12.21 85.52,36.64 18.02,24.42 27.25,58.2 27.69,101.34l0 17.05 -164.82 0zm0 -36.83l106.61 0c0.01,-0.64 0.02,-1.36 0.02,-2.02 0,-19.83 -4.82,-39.4 -14.05,-56.95 -8.08,-11.88 -21.52,-18.99 -35.9,-18.99 -1.21,0 -2.44,0.06 -3.66,0.16 -1.12,-0.1 -2.27,-0.14 -3.4,-0.14 -14.28,0 -27.64,7.12 -35.59,18.97 -9.21,17.6 -14.05,37.23 -14.05,57.11 0,0.62 0.02,1.25 0.02,1.85l0 0.01z"/>
     <path class="fil3" d="M3256.35 1592.83c0.04,0.91 0.06,1.85 0.06,2.78 0,22.28 -10.49,43.28 -28.31,56.64 -18.84,14.39 -44.74,21.61 -77.7,21.68 -0.33,-0.01 -0.65,-0.01 -0.97,-0.01 -12.54,0 -25.1,-1.28 -37.36,-3.77 -6.75,4.96 -11.16,12.5 -12.16,20.82 -0.01,0.24 -0.02,0.49 -0.02,0.74 0,6.3 4.7,11.6 10.95,12.35 10.42,1.75 21.05,2.64 31.64,2.64 2,0 4.06,-0.05 6.04,-0.1 1.88,0.02 3.86,-0.04 5.78,-0.04 19.01,0 38.09,1.19 56.94,3.5 15.68,1.9 30.63,7.93 43.23,17.45 11.7,9.89 18.44,24.44 18.44,39.76 0,1.41 -0.06,2.82 -0.17,4.22 0,0.24 0.01,0.5 0.01,0.74 0,22.94 -14.01,43.56 -35.33,52.01 -26.34,11.51 -54.83,17.47 -83.59,17.47 -2.58,0 -5.23,-0.07 -7.78,-0.15 -40.53,-0.15 -81.05,-6.13 -119.98,-17.5l18.84 -43.79c14.99,6.97 30.86,12.12 47.08,15.25 18.2,3.62 36.83,5.46 55.4,5.46 0.59,0 1.21,0 1.8,0 1.46,0.04 2.98,0.07 4.47,0.07 14.25,0 28.43,-2.46 41.85,-7.24 10,-2.71 17.02,-11.68 17.24,-22.03 0,-0.14 0.01,-0.28 0.01,-0.42 0,-8.88 -6.21,-16.56 -14.89,-18.42 -13.34,-3.28 -27.08,-4.95 -40.84,-4.95 -2.32,0 -4.72,0.07 -7.02,0.15 -1.98,-0.02 -4.15,0.04 -6.21,0.04 -15.97,0 -32.06,-0.83 -47.91,-2.41 -12.07,-1 -23.65,-5.2 -33.55,-12.14 -8.53,-6.82 -13.5,-17.17 -13.5,-28.09 0,-1 0.04,-2 0.12,-2.99 0,-16.01 9.42,-30.7 29.2,-44.27 -11.96,-6.68 -21.78,-16.65 -28.26,-28.72 -6.21,-12.3 -9.45,-25.9 -9.45,-39.68 0,-0.83 0.01,-1.7 0.03,-2.52 -0.04,-1.09 -0.07,-2.22 -0.07,-3.33 0,-23.57 10.67,-45.9 28.99,-60.71 19.34,-15.64 46.43,-23.45 81.28,-23.45 32.46,0 57.04,7.97 73.75,23.92 6.29,-9.04 14.8,-16.33 24.67,-21.2 9.05,-4.23 18.93,-6.44 28.93,-6.44 0.8,0 1.63,0.01 2.43,0.04l0 48.32c-1.2,-0.08 -2.43,-0.13 -3.64,-0.13 -13.04,0 -25.63,4.81 -35.35,13.5 9.22,9.33 14.55,21.83 14.88,34.94l0 0.01zm-57.82 -5.09c0.27,-1.93 0.4,-3.89 0.4,-5.84 0,-23.67 -19.19,-42.86 -42.86,-42.86 -1.89,0 -3.8,0.13 -5.67,0.38 -1.51,-0.11 -3.04,-0.18 -4.56,-0.18 -12.69,0 -25.03,4.28 -35,12.14 -8.2,10.43 -12.68,23.32 -12.68,36.59 0,13.28 4.48,26.17 12.68,36.59 9.98,7.65 22.22,11.81 34.8,11.81 1.68,0 3.37,-0.08 5.05,-0.22 1.33,0.1 2.7,0.16 4.05,0.16 11.78,0 23.2,-4.16 32.21,-11.74 7.63,-8.95 11.84,-20.35 11.84,-32.12 0,-1.7 -0.09,-3.4 -0.26,-5.09l0 0.38z"/>
     <path class="fil3" d="M3551.16 1768.39l-42.11 0 -11.49 -43.7c-5.91,15.23 -16.76,28.07 -30.8,36.45 -13.97,7.25 -29.52,11.06 -45.28,11.06 -1.04,0 -2.09,-0.02 -3.12,-0.04 -30.08,0 -52.06,-6.59 -65.94,-19.78 -13.94,-13.19 -21,-33.53 -21,-60.84l0 -188.38 57.92 0.01 0 180.08c-0.11,1.43 -0.17,2.9 -0.17,4.35 0,11.11 3.34,21.97 9.59,31.15 6.03,7.35 17.05,11.02 32.87,11.02 1.11,0.06 2.23,0.09 3.34,0.09 14.63,0 28.77,-5.44 39.62,-15.25 10.35,-10.17 16.48,-26.47 18.83,-48.88l0.57 -162.57 57.92 0.01 -0.75 265.22z"/>
     <path class="fil3" d="M3770.99 1549.13l-7.35 0c-1.5,-0.09 -3.01,-0.15 -4.5,-0.15 -19.15,0 -37.58,7.3 -51.55,20.39 -14.31,15.7 -22.7,35.95 -23.72,57.17l-0.19 141.85 -56.52 0 0 -265.32 41.44 0 14.6 54.34c6.5,-16.65 17.34,-31.31 31.37,-42.39 12.54,-10.01 28.12,-15.53 44.17,-15.63 0.47,-0.01 0.97,-0.01 1.45,-0.01 3.8,0 7.62,0.33 11.36,0.96l-0.56 48.79z"/>
     <path class="fil3" d="M3823.64 1533.49c18.83,-22.73 47.75,-34.09 86.74,-34.09 38.99,0 68.03,11.36 87.12,34.09 18.84,22.73 28.26,56.51 28.26,101.35 0,44.83 -9.42,78.89 -28.26,102.19 -18.84,23.04 -47.88,34.56 -87.12,34.56 -76.73,0 -115.09,-45.58 -115.09,-136.75 0,-44.84 9.44,-78.61 28.35,-101.35zm142.59 100.88c0,-33.82 -3.86,-57.93 -11.58,-72.53 -7.72,-14.6 -22.32,-21.94 -43.89,-21.94 -21.57,0 -35.6,7.44 -43.52,22.13 -7.91,14.7 -11.87,38.9 -11.87,72.34 0,33.43 4.06,57.17 12.15,72.99 7.61,14.68 22.78,23.9 39.31,23.9 1.31,0 2.62,-0.06 3.93,-0.18 21.6,0.01 36.23,-7.52 43.89,-22.59 7.66,-15.07 11.52,-39.78 11.58,-74.12z"/>
     <path class="fil3" d="M4064.47 1748.61l23.73 -38.24c9.21,6.77 19.51,12.01 30.43,15.44 11.59,3.77 23.77,5.72 35.98,5.75 34.47,0 51.7,-11.83 51.7,-35.5 0.02,-0.44 0.03,-0.89 0.03,-1.32 0,-7 -2.6,-13.75 -7.28,-18.94 -5.18,-5.38 -11.41,-9.68 -18.27,-12.62 -9.71,-4.13 -19.74,-7.8 -29.87,-10.84 -14.11,-4.08 -28.08,-9.35 -41.45,-15.45 -10.72,-5.26 -20.06,-13.09 -27.1,-22.78 -7.36,-10.9 -11.29,-23.75 -11.29,-36.89 0,-1.07 0.03,-2.18 0.08,-3.24 -0.04,-0.83 -0.06,-1.7 -0.06,-2.54 0,-21.67 11.35,-41.76 29.91,-52.93 20.52,-12.36 44.07,-18.91 68.04,-18.91 1.45,0 2.96,0.05 4.4,0.08 16.18,0.07 32.37,2.02 48.11,5.74 14.83,3.27 29.06,8.96 42.02,16.86l-23.73 38.23c-9.05,-6.74 -19.29,-11.83 -30.14,-14.97 -11.16,-3.5 -22.8,-5.32 -34.49,-5.37 -30.45,0.01 -45.67,11.37 -45.67,34.11 -0.01,0.38 -0.03,0.78 -0.03,1.17 0,6.58 2.54,12.91 7.09,17.66 5.01,5.12 11.01,9.2 17.61,11.96 7.16,3.1 16.96,6.78 29.58,11.02 14.29,4.16 28.26,9.55 41.72,15.93 10.86,5.47 20.34,13.37 27.69,23.06 7.57,10.5 11.65,23.13 11.65,36.08 0,0.93 -0.03,1.9 -0.07,2.82 0.06,1.16 0.1,2.35 0.1,3.53 0,22.41 -11.39,43.3 -30.23,55.43 -21.86,13.03 -46.88,19.93 -72.34,19.93 -2.16,0 -4.35,-0.07 -6.49,-0.16 -16.56,-0.02 -33.03,-2.12 -49.07,-6.2 -14.94,-3.71 -29.22,-9.78 -42.29,-17.91l0 0.01z"/>
    </g>
   </g>
  </g>
 </g>
</svg>
