<?xml version="1.0" encoding="UTF-8"?>
<!DOCTYPE svg PUBLIC "-//W3C//DTD SVG 1.1//EN" "http://www.w3.org/Graphics/SVG/1.1/DTD/svg11.dtd">
<!-- Creator: CorelDRAW -->
<svg xmlns="http://www.w3.org/2000/svg" xml:space="preserve" width="73.5046mm" height="21.1666mm" version="1.1" style="shape-rendering:geometricPrecision; text-rendering:geometricPrecision; image-rendering:optimizeQuality; fill-rule:evenodd; clip-rule:evenodd"
viewBox="0 0 7350.46 2116.66"
 xmlns:xlink="http://www.w3.org/1999/xlink"
 xmlns:xodm="http://www.corel.com/coreldraw/odm/2003">
 <defs>
  <style type="text/css">
   <![CDATA[
    .fil2 {fill:none}
    .fil1 {fill:#171669;fill-rule:nonzero}
    .fil0 {fill:#19D596;fill-rule:nonzero}
   ]]>
  </style>
 </defs>
 <g id="Capa_x0020_1">
  <metadata id="CorelCorpID_0Corel-Layer"/>
  <g id="_2521122297872">
   <g id="XMLID_00000141445194512402837920000000505848453568853144_">
    <g id="XMLID_00000182523979886500096800000011448634928137014916_">
     <path id="XMLID_00000017505879542745638140000004409382308299068341_" class="fil0" d="M1743.92 1661.97c-16.49,0 -32.98,-3.3 -46.17,-6.59 -13.19,-3.3 -26.4,-13.19 -39.59,-23.09 -3.3,-3.3 -3.3,-3.3 -6.59,-6.59 0,-3.31 -3.3,-6.6 -3.3,-9.9 0,-3.31 3.3,-9.9 6.59,-13.19 3.3,-3.31 6.6,-6.6 13.19,-6.6 3.3,0 6.6,0 9.9,3.31 9.9,9.89 19.8,16.49 29.68,19.79 9.9,3.31 23.09,6.6 36.28,6.6 9.9,0 19.8,-3.31 26.39,-3.31 9.9,-3.3 16.5,-6.59 19.8,-13.19 3.31,-6.59 6.6,-13.19 6.6,-19.79 0,-9.9 -3.31,-16.5 -6.6,-23.09 -6.59,-6.6 -13.19,-9.9 -23.09,-13.19 -9.9,-3.31 -19.79,-6.6 -32.98,-9.9 -13.19,-3.31 -23.09,-6.6 -32.99,-9.9 -9.9,-3.3 -16.5,-9.9 -26.39,-16.49 -6.6,-6.6 -13.19,-13.19 -16.5,-19.8 -3.3,-9.9 -6.59,-16.5 -6.59,-29.69 0,-16.49 3.3,-26.39 13.19,-39.58 6.59,-9.9 19.79,-19.8 32.98,-26.39 13.19,-6.6 29.69,-9.9 46.18,-9.9 16.5,0 29.69,3.3 42.89,6.6 13.19,3.3 23.09,9.89 32.99,19.79 6.59,6.6 9.9,9.9 9.9,16.5 0,3.3 -3.31,9.9 -6.6,13.19 -3.3,3.3 -6.59,6.59 -13.19,6.59 -3.3,0 -6.59,0 -9.9,-3.3 -3.3,-3.31 -9.9,-6.6 -16.49,-9.9 -6.6,-3.3 -13.19,-6.6 -19.8,-9.9 -6.6,-3.3 -16.49,-3.3 -19.8,-3.3 -9.9,0 -19.8,3.3 -29.68,3.3 -6.6,3.3 -13.19,6.6 -16.5,13.19 -3.3,6.6 -6.59,9.9 -6.59,19.8 0,9.9 3.3,16.49 6.59,19.8 3.31,6.59 9.9,9.89 19.8,13.19 9.9,3.3 19.8,6.59 29.69,9.89 13.19,3.31 26.39,6.6 36.27,9.9 9.9,3.31 19.8,9.9 26.4,13.19 6.59,6.6 13.19,13.19 16.49,19.8 3.31,9.9 6.6,19.8 6.6,32.99 0,16.49 -3.31,26.39 -13.19,39.58 -9.89,13.19 -19.8,19.8 -32.99,26.39 -9.89,9.89 -26.38,13.19 -42.88,13.19z"/>
     <path id="XMLID_00000018919971001745815170000010722111070082953879_" class="fil0" d="M1964.93 1661.97c-19.8,0 -39.59,-3.3 -52.78,-13.19 -16.49,-9.89 -26.39,-19.79 -36.27,-36.27 -9.89,-16.49 -13.19,-32.99 -13.19,-52.78 0,-19.8 3.3,-39.58 13.19,-56.07 9.89,-16.5 19.79,-26.4 32.98,-36.28 13.19,-9.9 29.69,-13.19 46.18,-13.19 13.19,0 23.09,3.3 32.99,6.59 9.9,3.31 19.8,9.9 29.68,19.8 9.9,9.9 16.5,19.8 19.8,29.68 3.3,9.9 6.6,23.09 6.6,36.28 0,3.31 -3.31,9.9 -6.6,13.19 -3.3,3.31 -6.6,3.31 -13.19,3.31l-141.85 -0.03 -9.9 -32.99 138.55 0 -6.6 6.6 0 -9.9c0,-9.9 -3.3,-16.49 -9.9,-23.09 -6.59,-6.59 -9.9,-9.9 -19.79,-16.49 -6.6,-3.31 -16.5,-6.6 -23.09,-6.6 -6.6,0 -13.19,0 -19.8,3.31 -6.6,3.3 -13.19,6.59 -16.49,9.89 -6.6,6.6 -9.9,13.19 -13.19,19.8 -3.31,9.9 -3.31,19.8 -3.31,32.99 0,13.19 3.31,26.39 9.9,36.28 6.6,9.9 13.19,16.49 23.09,23.09 9.9,6.59 19.8,9.9 32.99,9.9 9.9,0 16.49,0 23.09,-3.31 6.59,-3.3 9.89,-3.3 16.49,-6.59 3.3,-3.31 6.59,-6.6 9.9,-6.6 3.3,-3.3 6.59,-3.3 9.9,-3.3 3.3,0 6.59,3.3 9.9,3.3 3.3,3.31 3.3,6.6 3.3,9.9 0,6.6 -3.3,9.9 -9.9,16.5 -6.59,6.59 -16.49,13.19 -26.39,16.49 -9.9,16.48 -23.09,19.78 -36.29,19.78z"/>
     <path id="XMLID_00000102516908384615232940000011474476500669692545_" class="fil0" d="M2169.45 1460.76c9.9,0 19.8,3.3 29.68,6.59 9.9,3.31 16.5,6.6 23.09,13.19 6.6,6.6 13.19,9.9 16.49,16.5 3.31,6.59 6.6,9.89 6.6,16.49l-9.9 0 0 -29.68c0,-6.6 3.3,-9.9 6.6,-13.19 3.3,-3.31 6.59,-6.6 13.19,-6.6 6.59,0 9.9,3.3 13.19,6.6 3.29,3.29 6.59,6.59 6.59,13.19l0 161.63c0,19.8 -3.3,39.58 -13.19,52.77 -9.9,13.19 -19.8,23.09 -36.28,29.69 -13.19,6.59 -29.68,9.9 -49.48,9.9 -6.59,0 -13.19,0 -23.09,-3.31 -9.9,-3.3 -16.49,-3.3 -23.09,-6.59 -6.59,-3.29 -13.19,-3.31 -13.19,-6.6 -6.59,-3.3 -9.9,-6.59 -9.9,-9.9 -3.3,-3.3 -3.3,-6.59 0,-13.19 3.31,-6.59 6.6,-9.9 9.9,-9.9 3.31,0 9.9,0 13.19,0 3.31,0 6.6,3.31 9.9,3.31 6.6,3.3 9.9,3.3 16.5,6.59 6.59,3.31 13.19,3.31 16.49,3.31 19.8,0 32.99,-3.31 46.18,-13.19 9.9,-9.9 16.49,-19.8 16.49,-36.28l0 -32.99 3.3 3.3c0,6.6 -3.3,9.9 -6.59,16.5 -3.3,6.59 -9.9,9.9 -16.49,13.19 -6.6,3.3 -13.19,6.59 -19.8,9.9 -6.6,3.3 -16.5,3.3 -23.09,3.3 -16.49,0 -32.99,-3.3 -46.18,-13.19 -13.19,-9.9 -23.09,-19.8 -32.99,-36.28 -9.89,-16.49 -13.19,-32.99 -13.19,-52.77 0,-19.79 3.31,-36.28 13.19,-52.77 9.9,-16.5 19.8,-26.4 32.99,-36.28 13.19,-9.94 26.39,-13.24 42.89,-13.24zm6.59 32.98c-13.19,0 -23.09,3.31 -32.98,9.9 -9.9,6.6 -16.5,13.19 -19.8,23.09 -6.6,9.9 -6.6,19.8 -6.6,32.99 0,13.19 3.31,23.09 6.6,32.99 6.59,9.9 13.19,16.49 19.8,23.09 9.89,6.59 19.79,9.9 32.98,9.9 13.19,0 23.09,-3.31 32.99,-9.9 9.9,-6.6 16.49,-13.19 19.8,-23.09 6.59,-9.9 6.59,-19.8 6.59,-32.99 0,-13.19 -3.3,-23.09 -6.59,-32.99 -6.6,-9.9 -13.19,-19.8 -19.8,-23.09 -9.9,-6.6 -19.8,-9.9 -32.99,-9.9z"/>
     <path id="XMLID_00000037659174470223780420000007171676736809940405_" class="fil0" d="M2466.31 1464.06c6.6,0 9.9,3.3 13.19,6.6 3.31,3.3 6.6,6.59 6.6,13.19l0 95.65c0,26.4 -6.6,46.18 -19.8,59.39 -13.19,13.19 -32.99,19.79 -59.38,19.79 -26.39,0 -46.18,-6.59 -59.38,-19.79 -13.19,-13.19 -19.8,-32.99 -19.8,-59.39l0 -95.65c0,-6.6 3.31,-9.9 6.6,-13.19 3.3,-3.31 6.59,-6.6 13.19,-6.6 6.59,0 9.9,3.3 13.19,6.6 3.3,3.3 6.59,6.59 6.59,13.19l0 95.65c0,16.5 3.31,26.4 9.9,36.28 6.6,6.6 19.8,13.19 32.99,13.19 16.49,0 26.39,-3.3 32.99,-13.19 6.59,-6.59 9.89,-19.79 9.89,-36.28l0 -95.65c0,-6.6 3.31,-9.9 6.6,-13.19 -3.27,-3.31 3.33,-6.6 6.63,-6.6z"/>
     <path id="XMLID_00000017514620045390299520000003217882285535532952_" class="fil0" d="M2555.38 1658.67c-6.6,0 -9.9,-3.3 -13.19,-6.59 -3.31,-3.31 -6.6,-6.6 -6.6,-13.19l0 -155.03c0,-6.6 3.31,-9.9 6.6,-13.19 3.3,-3.31 6.59,-6.6 13.19,-6.6 6.59,0 9.9,3.31 13.19,6.6 3.3,3.3 6.59,6.59 6.59,13.19l0 42.87 -3.3 -16.49c3.3,-6.6 3.3,-13.19 9.9,-19.8 3.3,-6.59 9.9,-9.9 13.19,-16.49 3.29,-6.6 13.19,-6.6 19.79,-9.9 6.6,-3.31 13.19,-3.31 23.09,-3.31 6.6,0 13.19,3.31 16.5,6.6 3.3,3.3 6.59,6.59 6.59,13.19 0,6.59 -3.3,9.9 -6.59,13.19 -3.31,3.3 -6.6,3.3 -9.9,3.3 -3.31,0 -6.6,0 -9.9,-3.3 -6.58,0.02 -9.89,0.02 -16.48,0.02 -6.6,0 -9.9,0 -16.5,3.31 -6.59,3.3 -9.89,6.59 -16.49,13.19 -3.3,6.59 -6.59,9.9 -9.9,19.8 -3.3,6.59 -3.3,16.49 -3.3,23.08l0 89.07c0,6.59 -3.31,9.9 -6.6,13.19 0.02,3.29 -3.29,3.29 -9.88,3.29z"/>
     <path id="XMLID_00000041268158758536087460000011244219033715839123_" class="fil0" d="M2875.33 1563.01c0,19.8 -3.3,36.28 -13.19,52.77 -9.9,16.5 -19.8,26.4 -36.28,36.28 -16.49,9.9 -32.99,13.19 -49.48,13.19 -19.8,0 -36.28,-3.3 -49.48,-13.19 -16.5,-9.9 -26.4,-19.79 -36.28,-36.28 -9.9,-16.49 -13.19,-32.98 -13.19,-52.77 0,-19.78 3.3,-36.28 13.19,-52.77 9.9,-16.5 19.8,-26.39 36.28,-36.28 16.49,-9.9 32.99,-13.19 49.48,-13.19 19.8,0 36.28,3.3 49.48,13.19 16.49,9.9 26.39,19.8 36.28,36.28 9.9,13.19 13.19,32.99 13.19,52.77zm-36.28 0c0,-13.19 -3.3,-26.39 -9.9,-36.28 -6.59,-9.9 -13.19,-16.49 -23.09,-23.09 -9.9,-6.59 -19.79,-9.9 -29.68,-9.9 -9.9,0 -19.8,3.31 -29.68,9.9 -9.9,6.6 -16.5,13.19 -23.09,23.09 -6.6,9.9 -9.9,23.09 -9.9,36.28 0,13.19 3.3,23.09 9.9,32.99 6.59,9.9 13.19,16.49 23.09,23.09 9.89,6.59 19.79,9.9 29.68,9.9 9.9,0 19.8,-3.31 29.68,-9.9 9.9,-6.6 16.5,-13.19 23.09,-23.09 6.6,-9.9 9.9,-19.8 9.9,-32.99z"/>
     <path id="XMLID_00000178199414686602982170000013870151814171294135_" class="fil0" d="M2905.03 1628.99c-3.31,-3.31 -3.31,-6.6 -3.31,-13.19 0,-3.31 3.31,-9.9 6.6,-13.19 3.3,-3.31 6.59,-3.31 9.9,-3.31 3.3,0 6.59,3.31 9.89,6.6 6.6,6.59 13.19,13.19 23.09,16.49 9.9,3.31 19.8,6.6 29.69,6.6 3.3,0 9.9,0 16.49,-3.31 6.6,0 9.9,-3.3 13.19,-6.59 3.31,-3.31 6.6,-9.9 6.6,-16.5 0,-6.59 -3.31,-9.89 -6.6,-16.49 -3.3,-3.3 -9.9,-6.6 -16.49,-9.9 -6.6,-3.3 -13.19,-3.3 -19.8,-6.59 -6.59,-3.31 -16.49,-3.31 -23.09,-6.6 -6.59,-3.3 -16.49,-6.59 -19.8,-9.9 -6.59,-3.3 -13.19,-9.9 -16.49,-16.49 -3.3,-6.6 -6.6,-16.5 -6.6,-26.39 0,-9.9 3.31,-19.8 9.9,-29.69 6.6,-9.9 16.5,-16.49 26.4,-19.8 9.9,-3.3 23.09,-6.59 32.98,-6.59 6.6,0 13.19,0 23.09,3.3 6.6,3.31 16.5,3.31 23.09,9.9 6.6,6.6 13.19,9.9 19.8,16.5 3.3,3.3 3.3,6.59 3.3,9.89 0,3.31 -3.3,9.9 -6.59,13.19 -3.31,3.31 -6.6,3.31 -9.9,3.31 -3.3,0 -6.6,-3.31 -9.9,-3.31 -3.3,-6.59 -9.9,-9.89 -16.49,-13.19 -6.6,-3.3 -16.5,-3.3 -26.4,-3.3 -3.3,0 -9.89,0 -13.19,3.3 -6.59,0 -9.89,3.31 -13.19,6.6 -3.3,3.3 -6.59,9.9 -6.59,16.49 0,6.6 3.3,9.9 6.59,16.5 3.31,3.3 9.9,6.59 16.5,9.9 6.59,3.3 13.19,3.3 23.09,6.59 6.59,3.3 16.49,3.3 23.09,6.6 6.59,3.3 13.19,6.59 19.79,9.89 6.6,3.31 9.9,9.9 16.5,16.5 3.3,6.59 6.59,16.49 6.59,26.39 0,13.19 -3.3,23.09 -9.9,29.69 -6.59,9.89 -16.49,16.49 -26.39,19.79 -9.9,3.31 -23.09,6.6 -32.99,6.6 -13.19,0 -26.39,-3.31 -42.88,-6.6 -16.49,-9.91 -29.69,-16.5 -39.57,-29.69z"/>
    </g>
    <g>
     <path id="XMLID_00000144308623609836161940000000509845888119242164_" class="fil1" d="M5725.28 586.63l-125.34 0 -72.57 125.35 98.96 0 98.95 -125.35zm-2074.79 550.87c-62.67,0 -211.1,-49.48 -211.1,-214.41 0,-29.68 13.19,-85.76 36.28,-122.05l-108.85 0c-13.19,26.39 -23.09,79.17 -23.09,122.05 0,105.56 75.86,306.77 306.76,306.77 171.52,0 270.48,-128.65 286.98,-221.01l-95.66 0c-6.6,46.18 -69.27,128.65 -191.32,128.65l0 0zm-738.87 -372.74c-65.97,0 -115.44,29.69 -141.84,52.77l-95.66 -42.88 0 445.31 95.66 0 0 -214.41c0,-69.27 29.69,-151.74 128.65,-151.74 85.76,0 98.96,79.17 98.96,115.45l0 250.68 95.65 0.02 0 -263.89c0,-69.27 -32.99,-191.31 -181.42,-191.31l0 0zm-537.66 0c-105.56,0 -178.13,62.67 -191.32,155.03l92.35 0c0,-39.58 49.49,-69.27 102.26,-69.27 62.67,0 92.35,42.89 92.35,92.36l-125.34 0c-125.34,0 -181.42,69.26 -181.42,145.14 0,65.97 49.48,141.84 164.93,141.84 72.57,0 122.05,-32.99 141.83,-49.49l92.36 39.59 0 -283.68c0.01,-69.26 -36.27,-171.52 -188,-171.52l0 0zm-39.59 382.64c-56.07,0 -79.16,-36.28 -79.16,-59.38 0,-49.48 49.48,-62.67 89.06,-62.67l125.35 0c0,52.77 -36.3,122.05 -135.25,122.05l0 0zm-478.29 -280.38c-46.18,-9.9 -105.56,-16.5 -115.45,-69.27l-98.96 0c13.19,95.66 49.48,131.94 214.41,164.93 79.16,16.49 138.54,19.79 138.54,85.76 0,69.26 -65.97,89.06 -122.05,89.06 -69.26,0 -151.73,-42.89 -151.73,-108.85l-98.95 -0.01c0,95.66 89.06,197.91 247.39,197.91 178.13,0 224.31,-115.44 224.31,-181.42 -0.02,-122.04 -92.37,-148.43 -237.51,-178.11l0 0zm2539.89 -158.33l95.66 0 0 -82.47 -95.66 0 0 82.47zm1190.78 56.07c-128.65,0 -234.19,105.56 -234.19,230.9 0,128.65 105.56,230.9 234.19,230.9 128.65,0 234.19,-105.55 234.19,-230.9 3.31,-125.35 -102.25,-230.9 -234.19,-230.9l0 0zm0 379.34c-79.16,0 -145.14,-65.98 -145.14,-145.15 0,-79.16 65.98,-145.14 145.14,-145.14 79.17,0 145.14,65.98 145.14,145.14 0,79.17 -62.68,145.15 -145.14,145.15l0 0zm1065.43 -379.34c-105.56,0 -178.13,62.67 -191.32,155.03l92.37 0c0,-39.58 49.48,-69.27 102.25,-69.27 62.68,0 92.36,42.89 92.36,92.36l-125.34 0c-125.35,0 -181.42,69.26 -181.42,145.14 0,65.97 49.48,141.84 164.92,141.84 72.57,0 122.06,-32.99 141.84,-49.49l92.36 39.59 0 -283.68c-3.3,-69.26 -39.57,-171.52 -188.02,-171.52l0 0zm-39.58 382.64c-56.08,0 -79.17,-36.28 -79.17,-59.38 0,-49.48 49.48,-62.67 89.07,-62.67l125.34 0c-3.29,52.77 -39.58,122.05 -135.24,122.05l0 0zm-461.79 -382.64c-75.86,0 -135.24,39.58 -148.43,52.77l-0.02 -234.19 -95.66 0 0 636.63 92.36 -42.89c13.19,13.19 62.67,52.78 148.43,52.78 112.16,0 221,-85.76 221,-234.2 6.61,-89.06 -59.35,-230.9 -217.68,-230.9l0 0zm-9.9 379.34c-52.77,0 -138.55,-39.59 -138.55,-145.15 0,-69.26 56.08,-145.14 138.55,-145.14 75.86,0 138.55,56.08 138.55,145.14 -0.02,75.88 -49.49,145.15 -138.55,145.15l0 0zm785.06 75.86l95.66 0 0 -636.62 -95.66 0 0 636.62zm-2800.47 -402.43l-95.66 -42.88 0 445.31 95.66 0 0 -214.41c0,-92.36 46.17,-151.74 128.64,-151.74 23.09,0 62.67,6.6 62.67,6.6l6.6 -89.07c-19.8,-6.59 -39.58,-9.89 -56.08,-9.89 -69.28,3.31 -115.45,33 -141.83,56.08l0 0zm270.47 402.43l95.66 0 0 -445.3 -95.66 0 0 445.3zm376.04 -270.49c-32.99,-6.59 -79.17,-13.19 -79.17,-49.48 0,-32.99 32.99,-52.77 75.86,-52.77 56.08,0 92.36,36.28 98.97,62.67l92.35 0c-6.59,-52.77 -49.48,-145.14 -188.01,-145.14 -112.15,0 -171.52,62.67 -171.52,141.84 0,79.16 56.07,112.15 174.82,131.93 52.78,9.9 95.66,19.8 95.66,52.78 0,26.39 -23.09,56.07 -82.47,56.07 -62.67,0 -105.56,-32.98 -108.85,-69.26l-92.36 0.01c0,62.67 52.77,151.74 197.91,151.74 82.47,0 181.42,-36.28 181.42,-141.84 -6.6,-89.07 -75.86,-115.45 -194.61,-138.55l0 0zm494.78 -82.45l46.17 -92.36 -161.62 0 0 -131.94 -95.66 -0.01 0 432.11c0,79.16 46.18,155.02 151.74,155.02 36.28,0 72.57,-19.79 89.06,-32.98l0 -98.97c-26.39,19.8 -59.38,39.59 -85.76,39.59 -46.18,0 -62.67,-29.69 -62.67,-69.27l-0.01 -201.19 118.75 0 0 0z"/>
    </g>
    <path id="XMLID_00000102533864111309794670000006345688679849565630_" class="fil0" d="M1694.46 738.37c0,0 0,3.3 0,0 0,3.3 0,3.3 3.3,6.59 9.9,26.4 29.68,42.89 39.58,52.78 3.31,0 3.31,3.3 6.6,3.3 -6.6,-62.67 42.88,-98.96 112.15,-98.96 92.36,0 135.24,72.57 135.24,102.25 23.09,0 72.57,0 98.97,0 -9.9,-72.57 -59.39,-191.32 -230.91,-191.32 -75.86,0 -125.34,23.09 -148.43,56.08l0 0c-9.9,16.49 -16.49,32.99 -16.49,46.18 0,0 0,3.3 0,3.3 0,0 0,3.31 0,3.31 -3.32,6.59 -0.01,13.2 -0.01,16.49z"/>
    <path id="XMLID_00000112592632577766473850000010063115204875780229_" class="fil0" d="M3650.49 613.03c-145.14,0 -253.99,95.66 -174.82,184.72 32.98,-46.18 89.06,-92.36 174.82,-92.36 105.56,0 178.13,65.98 194.61,125.35l95.67 -0.02c-13.2,-65.96 -92.35,-217.69 -290.28,-217.69z"/>
    <path id="XMLID_00000170985207042800892930000014673837031967969193_" class="fil1" d="M1331.6 682.29c-85.76,-178.11 -267.18,-303.46 -478.28,-303.46 -207.81,0 -385.93,122.04 -471.7,296.87 -3.31,3.3 0,9.9 6.59,13.19l49.49 16.49c3.3,3.31 9.89,0 9.89,-3.3 75.87,-148.43 230.91,-250.69 409.02,-250.69 197.91,0 366.14,125.34 432.11,303.47 3.3,6.6 13.19,9.9 16.49,0l29.69 -65.97c-3.3,-3.29 -3.3,-6.6 -3.3,-6.6zm-346.34 263.89c-23.09,-6.59 -29.69,16.5 -6.6,32.99 26.4,19.8 23.09,3.3 23.09,3.3 0,0 19.8,19.8 26.39,6.6 6.6,-13.2 -19.79,-36.29 -42.88,-42.89zm323.25 -135.24c-6.59,-3.3 -13.19,-3.3 -16.49,-3.3 -6.59,0 -9.9,3.3 -13.19,9.89l-148.43 356.25c-3.3,0 -9.9,-3.3 -13.19,-3.3 -19.8,3.3 -32.99,16.49 -46.18,36.27 0,3.31 0,3.31 0,3.31 -6.59,3.3 -9.9,3.3 -16.49,0 -19.8,-19.8 -29.69,-42.89 -32.99,-62.67 13.19,13.19 32.99,16.49 42.89,19.79 3.3,0 6.59,-3.3 3.3,-6.59 -3.3,-3.3 -3.3,-9.9 -6.6,-13.19 13.19,9.9 39.59,6.59 52.78,6.59 3.3,0 6.59,-3.3 3.3,-6.59 -3.31,-3.3 -3.31,-6.61 -3.31,-13.2 0,-13.19 19.79,-29.69 19.79,-29.69l0 0c3.31,-3.3 3.31,-3.3 6.6,-6.59 9.9,-9.9 29.68,-32.99 32.99,-69.27 6.59,-46.18 -6.6,-65.97 -6.6,-65.97 0,0 13.19,3.3 19.8,-9.9 6.59,-13.19 3.3,-36.28 0,-46.18 -26.39,-69.27 -92.36,-118.75 -168.23,-118.75 -29.69,0 -56.08,6.6 -79.17,19.8 -16.49,-16.5 -26.39,-36.28 -29.68,-59.38 0,0 0,0 0,0 6.59,3.3 16.49,3.3 29.68,-3.31 3.31,0 3.31,-3.3 0,-3.3 -3.3,0 -6.59,-3.3 -9.9,-6.59 29.69,-3.31 52.78,-26.4 52.78,-56.08 0,-9.9 -3.31,-19.8 -6.6,-26.39 6.6,-52.76 -9.9,-125.33 -92.37,-151.73 -56.07,-16.49 -108.85,3.31 -131.93,26.4 -16.5,16.49 -19.8,46.17 -9.9,62.67 -3.31,13.19 -6.6,26.39 -3.31,39.58 0,13.19 -9.9,16.49 -19.79,23.09 -9.9,9.9 -3.31,19.8 3.3,26.39 -9.9,32.99 3.3,69.27 39.58,79.17 0,3.3 0,3.3 0,3.3 -49.48,6.6 -98.96,19.8 -141.84,39.58 -23.08,9.9 -49.48,16.5 -75.86,16.5 -23.09,0 -46.17,-6.6 -65.97,-16.5 -3.31,-3.3 -9.9,-3.3 -13.19,-9.9 -6.6,-6.59 -16.5,-13.19 -32.99,-19.79 -19.8,-3.31 -49.48,0 -62.67,0 -6.6,0 -13.19,16.49 6.59,23.09 3.31,0 3.31,0 6.6,3.3 -3.31,3.3 -6.6,6.59 -6.6,9.9 -3.3,6.59 3.31,13.19 13.19,9.9 6.6,-3.31 13.19,-6.6 16.5,-9.9 3.3,0 6.59,3.3 6.59,3.3 9.9,9.89 9.9,19.77 -6.59,19.77 -16.5,0 -23.09,9.9 -23.09,16.5 3.3,9.9 13.19,6.59 23.09,6.59 13.19,3.31 13.19,6.6 32.99,6.6 6.59,0 16.49,9.9 16.49,9.9l0 0c9.9,6.59 23.09,16.49 32.99,23.09 42.88,26.39 95.66,32.98 145.14,26.39 0,0 0,3.3 0,3.3l-3.31 19.8c0,0 0,0 0,0 -16.49,32.99 -23.09,75.86 -16.49,112.15 -9.9,3.31 -19.8,13.19 -29.68,26.4 -29.69,46.17 -3.31,89.06 0,131.93 0,6.6 -3.31,46.18 -6.6,62.68 -102.25,-79.18 -174.82,-211.12 -178.13,-356.26 0,-3.3 -3.3,-6.6 -6.59,-9.9l-49.48 -19.8 -9.9 -3.3c0,0 -3.31,0 -3.31,3.3 0,6.6 0,16.5 0,16.5l0 0c0,300.16 253.99,544.26 560.76,524.47 32.98,-3.3 69.26,-9.9 102.25,-16.49 9.9,-3.31 19.8,-6.6 29.68,-9.9 26.4,-9.9 49.49,-19.8 75.87,-32.99l0 0c0,0 3.3,0 3.3,0 0,0 0,0 3.3,0l0 0c0,0 0,0 0,0 3.31,0 3.31,-3.3 6.6,-3.3 0,0 3.3,-3.31 3.3,-3.31 3.31,-3.3 9.9,-9.9 13.19,-13.19 3.31,-3.3 -13.19,-19.8 -19.79,-26.39 0,0 3.3,0 3.3,0 0,0 -23.09,-9.9 -23.09,-9.9 -9.9,-6.59 -13.19,-6.59 -13.19,-16.49 0,-3.31 3.3,-6.6 3.3,-6.6 16.5,0 32.99,6.6 42.89,3.31 0,0 0,0 0,-3.31 -13.19,-9.9 -26.39,-16.49 -39.58,-16.49 0,-3.31 -3.31,-9.9 0,-13.19 0,-3.31 3.3,-3.31 3.3,-3.31 6.6,-3.3 16.49,-6.59 23.09,-6.59 3.3,0 6.6,3.3 9.9,3.3 6.59,3.31 13.19,6.6 23.09,9.9 -3.31,-9.9 -16.5,-16.49 -29.69,-23.09 -6.59,-3.3 -13.19,-3.3 -19.79,0 -3.31,0 -3.31,0 -6.6,3.31 0,-3.31 0,-3.31 0,-6.6 0,0 0,0 0,0 0,-3.3 3.3,-6.59 6.6,-6.59 9.89,-3.31 19.79,-9.9 26.39,-9.9 9.9,3.3 23.09,13.19 32.99,19.8 0,0 3.3,0 3.3,0 -16.49,-26.4 -32.99,-36.28 -56.08,-26.4 -3.3,0 -3.3,0 -6.59,3.31 0,0 0,0 0,-3.31 3.3,-3.3 6.59,-9.9 9.9,-13.19 6.59,-9.9 16.49,-16.49 26.39,-13.19 0,0 0,0 0,0 9.9,3.31 16.49,9.9 23.09,16.5 6.59,6.59 13.19,13.19 16.49,19.79l3.31 -6.59 3.3 -6.6 0 -3.3 158.33 -372.74c3.3,-6.59 0,-13.19 -3.3,-16.49 -9.93,-3.31 -13.23,-6.6 -19.83,-9.9zm-570.65 -105.56c6.6,0 9.9,-3.3 13.19,-6.59 3.31,-3.31 3.31,-6.6 0,-6.6l-9.9 -3.3c0,-3.31 0,-3.31 0,-6.6 0,-3.3 -3.3,-6.59 -6.59,-9.9 0,0 -3.3,-3.3 -3.3,-3.3 0,0 0,0 0,-3.3 6.59,-3.31 16.49,-9.9 16.49,-16.5 3.32,0.01 3.32,-3.28 3.32,-6.58 3.3,0 3.3,3.3 6.59,3.3 13.19,0 13.19,-9.9 13.19,-9.9l13.2 3.31c0,-13.19 -16.49,-19.8 -26.39,-19.8 -3.3,0 -6.59,3.3 -6.59,3.3 0,-6.59 0,-16.49 3.3,-23.08 3.3,-9.9 6.59,-16.5 13.19,-26.4 0,0 0,0 3.3,-3.3 6.6,13.19 19.8,16.49 32.99,16.49 -13.19,23.09 -19.8,56.08 9.9,69.27 3.3,0 9.9,-3.3 13.19,-3.3 39.58,-56.08 59.38,32.98 3.3,23.09 -3.3,0 -3.3,3.3 -3.3,3.3l0 0c0,0 0,0 0,3.3l0 0c13.19,29.69 36.28,46.18 56.08,52.78l0 0c-3.31,32.98 -23.09,65.97 -49.49,82.46 -9.89,6.6 -16.49,9.9 -26.39,16.5 3.31,-16.5 3.31,-29.69 0,-46.18l0 0c0,-3.3 -3.3,-6.59 0,-6.59l0 0c0,-3.31 -3.3,-3.31 -3.3,-6.6 0,-6.59 -3.31,-13.19 -9.9,-16.49 6.59,-3.31 9.9,-6.6 16.49,-13.19 3.31,-3.31 0,-6.6 -3.3,-6.6 -19.8,6.6 -32.99,3.31 -36.28,3.31 -23.09,-3.32 -32.99,-19.81 -32.99,-36.31zm-234.19 164.93c-6.59,-3.31 -26.39,-9.9 -42.89,-23.09 -6.59,-3.31 -16.49,-9.9 -26.39,-6.6 -6.59,0 -6.59,-3.3 -3.3,-9.9 6.59,-3.3 6.59,-13.19 0,-19.79 -3.28,-6.59 -19.77,-9.89 -23.08,-9.89 -3.3,-3.3 -3.3,-3.3 9.9,-3.3 6.6,0 13.19,0 23.09,6.59 9.9,3.31 16.49,13.19 19.8,16.5l0 0c0,0 0,0 0,0 0,0 0,0 0,0 0,0 0,0 0,0 36.28,23.08 82.47,32.98 125.34,26.39 62.67,-16.5 122.05,-49.48 191.32,-56.08 6.59,16.5 3.3,36.28 0,52.77 -19.8,3.31 -49.48,13.19 -82.47,26.4 -19.8,9.9 -39.58,13.19 -46.18,16.49 -49.48,9.9 -98.96,3.31 -145.14,-16.49zm102.25 418.93c3.31,-26.4 6.6,-75.87 3.31,-92.36 -6.6,-19.8 -19.8,-69.27 0,-98.96 19.8,-32.99 39.58,-29.69 39.58,-29.69 -13.2,16.48 -23.09,39.59 -29.7,62.68 -3.29,0 0,3.29 3.31,0 16.49,-29.69 59.38,-98.97 82.47,-122.06 3.3,-3.3 3.3,0 3.3,3.31 -6.59,26.39 -26.39,75.86 -36.28,102.25 0,3.3 3.31,3.3 3.31,3.3 13.19,-19.79 32.98,-56.07 42.88,-82.46 13.19,16.49 -3.3,65.97 -23.09,105.55 0,3.31 3.31,3.31 3.31,3.31 19.8,-19.8 36.28,-59.38 36.28,-59.38 3.3,9.9 3.3,16.49 3.3,26.39 0,3.3 0,19.8 -16.49,46.18 0,3.3 0,3.3 3.3,3.3 3.3,-3.3 9.9,-9.9 13.19,-13.19 -6.59,46.18 -42.89,125.34 -72.57,178.13 -23.13,-13.22 -42.91,-23.11 -59.41,-36.3zm217.72 -260.6l0 0c0,0 0,3.3 -3.31,13.19 0,0 0,0 0,3.3 -3.3,19.8 -6.59,65.98 -3.3,145.14 3.3,36.28 -6.6,122.05 -26.39,171.52 -36.28,-3.3 -72.57,-13.19 -105.56,-26.39 19.8,-46.18 59.38,-135.24 62.67,-197.91 3.3,-52.78 -9.9,-75.86 -9.9,-75.86 -3.3,-39.59 -19.8,-49.49 -19.8,-49.49 3.31,-16.49 -9.9,-29.68 -26.39,-16.49 -23.09,16.49 -42.89,56.08 -42.89,56.08 0,0 -9.89,-3.31 -19.79,0 -3.31,-69.27 32.98,-138.55 102.25,-158.33 36.28,-13.19 79.17,-19.8 112.15,-42.89 19.8,-13.19 32.99,-32.99 42.89,-52.77 3.3,9.9 9.9,19.79 19.8,29.68 -46.18,32.99 -75.86,85.76 -75.86,148.43 0,9.9 0,19.8 3.3,29.69 0.01,3.31 -6.58,13.21 -9.87,23.1zm59.36 23.1c-19.79,-6.6 -23.09,3.3 -23.09,6.59 0,3.31 3.31,6.6 0,6.6 -3.3,3.3 -6.59,-6.6 -3.3,-16.49 6.6,-9.9 19.8,-16.5 36.28,-13.19 16.48,3.3 39.58,16.49 49.48,39.58 6.6,23.09 -3.3,26.39 -26.39,19.8 -16.49,-6.6 -16.49,-9.9 -16.49,-13.19 0,-3.31 6.59,0 6.59,-6.6 9.91,-6.61 0.01,-16.51 -23.08,-23.1zm-16.49 -39.58c3.3,-19.8 3.3,-42.89 3.3,-56.08 0,-9.9 6.6,-19.8 16.5,-19.8 3.3,0 9.9,0 13.19,3.31 16.49,9.88 0,46.17 -32.99,72.57zm105.56 290.27c-23.09,-26.4 -69.27,-56.08 -95.66,-69.27 0,0 0,0 0,0 -6.6,-3.3 -9.9,-3.3 -13.19,-3.3 -9.9,-32.99 -9.9,-72.57 -9.9,-95.66 0,0 3.3,3.3 3.3,3.3 3.31,3.3 3.31,3.3 6.6,6.6 16.49,13.19 39.58,23.08 62.67,19.79 16.49,0 32.99,-3.3 46.18,-9.9 -3.31,16.5 -13.19,59.38 3.3,92.36 9.9,0 13.19,-3.3 13.19,-3.3 0,0 -3.3,39.58 -16.49,59.38zm36.28 -253.99c-3.31,0 -6.6,3.3 -9.9,3.3 -16.5,6.59 -36.28,0 -49.48,-16.49 -19.8,-23.09 -52.78,-32.99 -52.78,-32.99 16.5,-19.8 26.4,-36.28 36.28,-52.77 6.6,-13.19 3.31,-26.4 -6.59,-36.28l-19.79 -13.21c9.9,-9.89 26.4,-29.68 49.48,-39.58 0,3.3 -3.3,9.9 0,13.19 0,3.3 6.6,6.6 9.9,3.3 26.4,-26.39 59.38,-19.79 59.38,-19.79 -6.59,46.18 29.69,79.16 29.69,79.16 0,0 23.09,19.8 19.79,49.48 -6.6,36.28 -26.4,56.08 -65.98,62.68z"/>
   </g>
  </g>
  <rect class="fil2" x="-14.08" width="7335.6" height="2116.66"/>
 </g>
</svg>
