<?xml version="1.0" encoding="UTF-8"?>
<!DOCTYPE svg PUBLIC "-//W3C//DTD SVG 1.1//EN" "http://www.w3.org/Graphics/SVG/1.1/DTD/svg11.dtd">
<!-- Creator: CorelDRAW -->
<svg xmlns="http://www.w3.org/2000/svg" xml:space="preserve" width="64.481mm" height="21.1666mm" version="1.1" style="shape-rendering:geometricPrecision; text-rendering:geometricPrecision; image-rendering:optimizeQuality; fill-rule:evenodd; clip-rule:evenodd"
viewBox="0 0 6448.1 2116.66"
 xmlns:xlink="http://www.w3.org/1999/xlink"
 xmlns:xodm="http://www.corel.com/coreldraw/odm/2003">
 <defs>
  <style type="text/css">
   <![CDATA[
    .fil0 {fill:none}
    .fil1 {fill:#A60066}
   ]]>
  </style>
 </defs>
 <g id="Capa_x0020_1">
  <metadata id="CorelCorpID_0Corel-Layer"/>
  <rect class="fil0" width="6448.1" height="2116.66"/>
  <g id="_2521134011152">
   <path class="fil1" d="M1266.66 448.82c298.82,0 548.4,218.33 598.44,504.09l-421.92 0.12 -75.67 -167.79 -98.15 -228.91 -98.14 228.91 -98.2 228.94 799.59 0c1,14.57 1.6,29.29 1.6,44.13 0,335.71 -272.93,609.52 -607.55,609.52 -297.37,0 -545.95,-216.21 -597.66,-499.81l416.11 1.3 84.81 165.07 98.17 210.79 98.26 -210.79 98.18 -210.69 -801.94 0c-2.35,-21.56 -3.53,-43.35 -3.53,-65.39 0,-335.74 272.93,-609.49 607.6,-609.49z"/>
   <path class="fil1" d="M2412.02 972.95c-39.47,0 -74.11,-3.78 -103.98,-11.44 -29.95,-7.59 -57.68,-17.02 -83.31,-28.32l0 -122.6 11.85 0c25.71,21.87 54.34,38.76 85.43,50.61 31.14,11.66 61.4,17.6 90.71,17.6 7.46,0 17.12,-0.88 29.33,-2.36 12.04,-1.64 21.82,-4.28 29.14,-7.7 9.14,-3.88 16.68,-9.32 22.94,-16.38 6.24,-7.13 9.31,-16.33 9.31,-27.92 0,-12.91 -5.07,-23.4 -15.22,-31.42 -10.18,-8.17 -22.35,-13.95 -36.37,-17.71 -17.51,-4.6 -36.29,-8.96 -56.28,-13.15 -19.96,-4.12 -38.65,-9.18 -55.9,-15.2 -39.91,-14.06 -68.64,-33.04 -85.89,-56.72 -17.32,-23.81 -25.99,-53.56 -25.99,-89.3 0,-48.2 20.46,-87.31 61.33,-117.23 40.77,-29.93 91.8,-44.79 152.98,-44.79 30.73,0 61.23,3.08 91.6,9.32 30.35,6.24 57.53,14.65 81.53,25.26l0 117.69 -11.47 0c-19.13,-16.41 -42.54,-30.19 -70.06,-41.39 -27.63,-11.43 -56.02,-17.09 -85.07,-17.09 -11.23,0 -21.39,0.82 -30.49,2.36 -8.98,1.64 -18.4,4.83 -28.37,9.42 -8.02,3.7 -14.99,9.12 -20.88,16.51 -5.91,7.18 -8.85,15.32 -8.85,24.26 0,13.13 4.73,23.68 14.07,31.35 9.3,7.78 27.34,14.77 54.07,20.89 17.39,4.09 34.04,7.85 50.1,11.51 16.09,3.64 33.19,8.72 51.42,15.2 35.76,12.88 62.35,30.27 79.82,52.19 17.39,21.68 26.17,50.55 26.17,86.29 0,51.21 -20.08,92.44 -60.4,123.59 -40.29,31.06 -94.77,46.67 -163.27,46.67zm374.64 -9.32l174.16 -515.39 141.21 0 174.18 515.39 -133.33 0 -32.33 -105.27 -161.75 0 -32.27 105.27 -129.87 0zm295.64 -198.77l-52.55 -169.7 -52.68 169.7 105.23 0zm820.01 198.77l-124.65 0 -198.59 -359.29 0 359.29 -118.42 0 0 -515.39 158.94 0 164.25 295.25 0 -295.25 118.47 0 0 515.39zm417.56 10.09c-77.36,0 -138.73,-23.45 -184.22,-70.11 -45.49,-46.77 -68.14,-112.52 -68.14,-197.23 0,-81.65 22.77,-146.68 68.38,-195.3 45.66,-48.54 107.1,-72.86 184.34,-72.86 20.53,0 39,1.18 55.42,3.42 16.38,2.36 32.11,5.54 47.12,9.66 11.67,3.54 24.58,8.24 38.41,14.18 13.8,6.02 25.05,11.2 33.53,15.63l0 122.88 -13.15 0c-6.24,-5.6 -14.12,-12.25 -23.56,-19.86 -9.47,-7.81 -20.26,-15.35 -32.17,-22.67 -12,-7.49 -25.32,-13.73 -39.7,-18.97 -14.37,-5.13 -29.45,-7.78 -45.13,-7.78 -18.6,0 -35.74,3 -51.37,8.84 -15.59,5.89 -30.5,16.15 -44.52,30.63 -12.9,13.13 -23.57,31 -31.71,53.32 -8.12,22.45 -12.24,48.77 -12.24,79.27 0,32.13 4.19,59.05 12.72,80.92 8.6,21.78 19.68,39.4 33.69,52.7 13.32,13.03 28.16,22.33 44.78,28.11 16.49,5.83 32.99,8.66 49.37,8.66 17.03,0 33.34,-2.83 48.77,-8.54 15.51,-5.66 28.52,-11.9 39.12,-18.74 11.55,-7.3 21.79,-14.55 30.51,-21.85 8.72,-7.48 16.38,-13.96 22.81,-19.8l11.78 0 0 121.18c-9.49,4.36 -20.45,9.42 -32.81,15.08 -12.5,5.54 -25.34,10.42 -38.53,14.32 -16.02,4.82 -31.22,8.48 -45.36,11.08 -14.08,2.46 -33.47,3.83 -58.14,3.83zm832.33 -267.7c0,83.43 -22.14,148.94 -66.69,196.77 -44.53,47.72 -105.68,71.56 -183.09,71.56 -77.87,0 -138.9,-24.2 -183.2,-72.5 -44.31,-48.31 -66.45,-113.53 -66.45,-195.83 0,-82.81 22.14,-148.2 66.45,-196.36 44.3,-48.12 105.33,-72.14 183.2,-72.14 77.41,0 138.56,23.96 183.09,71.8 44.55,47.9 66.69,113.46 66.69,196.7zm-133.6 -0.19c0,-30.74 -3.18,-56.94 -9.54,-78.47 -6.24,-21.6 -14.74,-39.35 -25.46,-53.18 -11.07,-14 -23.55,-24.21 -37.47,-30.23 -14,-6.12 -28.5,-9.24 -43.59,-9.24 -15.78,0 -30.16,2.84 -43.24,8.54 -12.84,5.66 -25.33,15.68 -37.23,30.23 -10.72,13.32 -19.32,31.22 -25.8,53.3 -6.6,22.23 -9.9,48.67 -9.9,79.24 0,31.7 3.06,57.9 9.32,78.83 6.24,20.9 14.72,38.41 25.68,52.48 11.06,14.33 23.56,24.57 37.59,30.63 14.14,6.08 28.74,9.2 43.58,9.2 15.32,0 30.05,-3.3 44.53,-9.96 14.26,-6.48 26.52,-16.79 37.01,-30.57 11.08,-15.01 19.56,-32.53 25.56,-52.48 6,-19.99 8.96,-46.07 8.96,-78.32zm770.43 257.8l-157.88 0 -143.38 -189.02 -46.55 0 0 189.02 -128.9 0 0 -515.39 207.37 0c28.63,0 53.61,1.76 74.7,5.35 21.32,3.64 40.88,11.07 58.78,22.33 18.63,11.79 33.25,26.68 44.07,44.89 10.84,18.02 16.26,41.13 16.26,68.98 0,39.47 -8.84,71.46 -26.62,96.09 -17.79,24.5 -41.59,44.06 -71.27,58.56l173.42 219.19zm-208.43 -357.51c0,-12.92 -2.48,-24.11 -7.42,-33.46 -4.94,-9.32 -13.32,-16.57 -24.74,-21.63 -8.12,-3.42 -17.08,-5.59 -27.1,-6.54 -9.89,-0.94 -22.15,-1.41 -36.87,-1.41l-43.25 0 0 138.73 36.89 0c18.14,0 33.34,-1 45.94,-3.3 12.61,-2.12 23.21,-6.84 31.93,-13.96 8.36,-6.48 14.62,-14.14 18.62,-23.27 4,-8.96 6,-20.67 6,-35.16z"/>
   <path class="fil1" d="M2412.02 1677.6c-39.47,0 -74.11,-3.76 -103.98,-11.42 -29.95,-7.54 -57.68,-16.97 -83.31,-28.39l0 -122.42 11.85 0c25.71,21.79 54.32,38.65 85.43,50.55 31.14,11.66 61.4,17.54 90.71,17.54 7.46,0 17.12,-0.82 29.28,-2.36 12.09,-1.64 21.87,-4.24 29.19,-7.64 9.14,-3.9 16.68,-9.32 22.94,-16.38 6.24,-7.2 9.31,-16.38 9.31,-27.92 0,-12.97 -5.07,-23.45 -15.22,-31.47 -10.18,-8.12 -22.35,-13.9 -36.37,-17.66 -17.51,-4.6 -36.29,-8.96 -56.28,-13.2 -19.96,-4.12 -38.65,-9.2 -55.9,-15.21 -39.91,-14.02 -68.64,-32.98 -85.89,-56.66 -17.32,-23.81 -26.01,-53.49 -26.01,-89.44 0,-48.06 20.48,-87.19 61.35,-117.11 40.77,-29.93 91.8,-44.77 152.98,-44.77 30.73,0 61.23,3.06 91.6,9.3 30.35,6.26 57.53,14.62 81.53,25.34l0 117.58 -11.47 0c-19.13,-16.38 -42.54,-30.16 -70.06,-41.47 -27.63,-11.32 -56.02,-16.96 -85.07,-16.96 -11.23,0 -21.39,0.82 -30.49,2.34 -8.96,1.66 -18.4,4.84 -28.37,9.44 -8.02,3.65 -14.99,9.07 -20.88,16.49 -5.91,7.2 -8.85,15.32 -8.85,24.28 0,13.06 4.7,23.68 14.07,31.33 9.3,7.78 27.34,14.74 54.07,20.86 17.39,4.12 34.04,7.9 50.1,11.54 16.09,3.66 33.19,8.72 51.42,15.2 35.76,12.84 62.35,30.29 79.82,52.09 17.39,21.78 26.17,50.65 26.17,86.35 0,51.13 -20.08,92.5 -60.38,123.72 -40.31,30.99 -94.79,46.53 -163.29,46.53zm314.74 -9.3l0 -515.36 348.6 0 0 98.27 -219.82 0 0 90.38 202.55 0 0 98.37 -202.55 0 0 130.08 219.82 0 0 98.26 -348.6 0zm891.84 -29.35c-22.57,9.2 -52.03,18.16 -88.2,26.99 -35.94,8.72 -71.65,13.2 -106.75,13.2 -80.94,0 -145.61,-23.45 -193.68,-70.11 -48.06,-46.77 -72.17,-113.1 -72.17,-198.87 0,-80.83 24.11,-145.52 72.17,-194.29 48.07,-48.67 113.92,-72.97 197.46,-72.97 43.22,0 78.23,4.16 105.28,12.28 27.03,8.14 54.96,19.32 83.82,33.47l0 120.77 -11.83 0c-6.19,-4.84 -15.15,-11.78 -26.86,-20.62 -11.63,-8.96 -22.94,-16.5 -34.02,-22.62 -12.99,-7.54 -27.92,-13.91 -44.88,-19.21 -16.9,-5.3 -34.87,-7.9 -53.85,-7.9 -22.14,0 -42.41,3.42 -60.55,10.37 -18.14,6.84 -34.53,17.56 -48.79,31.82 -13.54,13.9 -24.5,31.46 -32.37,52.67 -7.91,21.2 -11.95,45.82 -11.95,74.11 0,60.21 15.13,104.73 45.38,133.24 30.29,28.64 71.48,42.9 123.96,42.9 4.58,0 10.02,-0.12 16.14,-0.36 6.31,-0.24 11.73,-0.6 16.37,-1.06l0 -100.97 -100.14 0 0 -96.5 225.46 0 0 253.66zm331.12 40.19c-69.27,0 -122.47,-16.85 -159.76,-50.31 -37.23,-33.34 -55.97,-82.35 -55.97,-146.68l0 -329.21 129.57 0 0 321.67c0,35.68 6.75,62.33 20.19,79.87 13.43,17.56 35.47,26.28 65.97,26.28 29.69,0 51.61,-8.38 65.51,-25.22 13.97,-16.84 20.93,-43.95 20.93,-80.93l0 -321.67 129.53 0 0 328.85c0,63.39 -18.19,112.28 -54.42,146.22 -36.46,34.05 -90.26,51.13 -161.55,51.13zm816.98 -10.84l-157.88 0 -143.4 -188.99 -46.53 0 0 188.99 -128.78 0 0 -515.36 207.37 0c28.51,0 53.49,1.78 74.57,5.3 21.33,3.66 40.96,11.08 58.91,22.4 18.51,11.79 33.23,26.63 43.95,44.89 10.84,18.02 16.26,41.11 16.26,68.93 0,39.47 -8.84,71.51 -26.5,96.14 -17.92,24.5 -41.61,44.06 -71.41,58.54l173.44 219.16zm-208.43 -357.48c0,-12.96 -2.48,-24.14 -7.42,-33.46 -4.96,-9.3 -13.2,-16.48 -24.67,-21.67 -8.21,-3.42 -17.16,-5.54 -27.06,-6.48 -9.95,-0.94 -22.26,-1.42 -36.98,-1.42l-43.25 0 0 138.8 36.95 0c18.08,0 33.33,-1.18 45.88,-3.42 12.61,-2.12 23.28,-6.84 32,-13.9 8.24,-6.48 14.53,-14.14 18.53,-23.22 4.02,-9.06 6.02,-20.72 6.02,-35.23zm740.97 99.92c0,83.41 -22.26,148.8 -66.69,196.77 -44.64,47.71 -105.67,71.63 -183.2,71.63 -77.88,0 -138.79,-24.27 -183.09,-72.57 -44.31,-48.31 -66.57,-113.6 -66.57,-195.83 0,-82.83 22.26,-148.22 66.57,-196.41 44.3,-48.07 105.21,-72.13 183.09,-72.13 77.53,0 138.56,23.94 183.2,71.79 44.43,47.95 66.69,113.46 66.69,196.75zm-133.6 -0.24c0,-30.75 -3.18,-56.91 -9.54,-78.47 -6.24,-21.55 -14.84,-39.35 -25.46,-53.13 -11.07,-14.02 -23.69,-24.27 -37.59,-30.28 -13.9,-6.13 -28.5,-9.19 -43.47,-9.19 -15.78,0 -30.28,2.82 -43.24,8.48 -12.84,5.66 -25.45,15.67 -37.35,30.29 -10.6,13.3 -19.2,31.22 -25.8,53.25 -6.6,22.26 -9.9,48.66 -9.9,79.29 0,31.7 3.08,57.85 9.44,78.83 6.12,20.84 14.72,38.41 25.56,52.43 11.07,14.26 23.69,24.62 37.71,30.62 14,6.14 28.74,9.2 43.58,9.2 15.33,0 30.05,-3.3 44.43,-9.9 14.36,-6.48 26.62,-16.84 36.99,-30.64 11.08,-14.96 19.56,-32.51 25.68,-52.43 6,-20.02 8.96,-46.07 8.96,-78.35zm394.46 267.1c-39.47,0 -74.11,-3.76 -104.03,-11.42 -29.93,-7.54 -57.61,-16.97 -83.3,-28.39l0 -122.42 11.78 0c25.81,21.79 54.31,38.65 85.42,50.55 31.22,11.66 61.51,17.54 90.73,17.54 7.42,0 17.2,-0.82 29.33,-2.36 12.14,-1.64 21.92,-4.24 29.22,-7.64 9.08,-3.9 16.62,-9.32 22.86,-16.38 6.36,-7.2 9.3,-16.38 9.3,-27.92 0,-12.97 -4.94,-23.45 -15.2,-31.47 -10.12,-8.12 -22.26,-13.9 -36.4,-17.66 -17.45,-4.6 -36.29,-8.96 -56.19,-13.2 -20.04,-4.12 -38.65,-9.2 -55.85,-15.21 -39.95,-14.02 -68.71,-32.98 -86.01,-56.66 -17.33,-23.81 -25.93,-53.49 -25.93,-89.44 0,-48.06 20.51,-87.19 61.39,-117.11 40.65,-29.93 91.78,-44.77 152.92,-44.77 30.75,0 61.27,3.06 91.56,9.3 30.4,6.26 57.61,14.62 81.53,25.34l0 117.58 -11.42 0c-19.1,-16.38 -42.55,-30.16 -70.11,-41.47 -27.69,-11.32 -55.97,-16.96 -85.07,-16.96 -11.19,0 -21.33,0.82 -30.53,2.34 -8.94,1.66 -18.36,4.84 -28.26,9.44 -8.02,3.65 -15.09,9.07 -20.99,16.49 -5.88,7.2 -8.82,15.32 -8.82,24.28 0,13.06 4.7,23.68 14.13,31.33 9.32,7.78 27.34,14.74 54.08,20.86 17.32,4.12 34.07,7.9 50.07,11.54 16.16,3.66 33.24,8.72 51.39,15.2 35.8,12.84 62.43,30.29 79.87,52.09 17.44,21.78 26.16,50.65 26.16,86.35 0,51.13 -20.14,92.5 -60.45,123.72 -40.3,30.99 -94.73,46.53 -163.18,46.53z"/>
  </g>
 </g>
</svg>
