<?xml version="1.0" encoding="UTF-8"?>
<!DOCTYPE svg PUBLIC "-//W3C//DTD SVG 1.1//EN" "http://www.w3.org/Graphics/SVG/1.1/DTD/svg11.dtd">
<!-- Creator: CorelDRAW -->
<svg xmlns="http://www.w3.org/2000/svg" xml:space="preserve" width="28.2222mm" height="28.2222mm" version="1.1" style="shape-rendering:geometricPrecision; text-rendering:geometricPrecision; image-rendering:optimizeQuality; fill-rule:evenodd; clip-rule:evenodd"
viewBox="0 0 2822.22 2822.22"
 xmlns:xlink="http://www.w3.org/1999/xlink"
 xmlns:xodm="http://www.corel.com/coreldraw/odm/2003">
 <defs>
  <style type="text/css">
   <![CDATA[
    .fil0 {fill:#55BAC6}
   ]]>
  </style>
 </defs>
 <g id="Capa_x0020_1">
  <metadata id="CorelCorpID_0Corel-Layer"/>
  <path class="fil0" d="M1465.2 2179.14c36.38,24.36 100.35,117.27 142.09,121.9 45,5.01 98.91,-87.32 133.69,-132.78 11.3,-14.77 227.29,-288.24 232.63,-308.23 171.56,0 297.21,45.63 409.72,158.2 47.75,47.8 89.87,100.43 115.77,165.47 67.14,168.75 47.84,322.06 47.84,503.86l-1081.74 0 0 -508.42zm-697.72 562.5c0,30.68 22.09,50.02 46.32,54.09l18.99 0c22.82,-3.93 42.87,-22.62 42.87,-59.49 0,-64.31 -108.18,-68.29 -108.18,5.4zm1135.82 -237.98l275.84 0c55.02,0 55.02,-108.17 0,-108.17l-275.84 0c-67.7,0 -67.7,108.17 0,108.17zm-539.93 -2477.17l112.24 0c110.6,8.25 221.19,41.39 323.94,103.73 134.72,81.74 208.65,164.89 285.36,293.38 39.54,66.23 76.69,176.78 87.35,253.41 13.48,96.87 -7.29,128.69 21.39,157.09 130.11,128.93 112.35,332.95 -19,437.3 -87.67,69.65 -152.25,63.98 -255.12,63.98 -34.32,71.5 -27.7,91.11 -96.1,174.34 -147.3,179.24 -136.47,31.04 -136.47,236.73 183.07,0 394.23,-15.92 557.15,48.61 114.63,45.39 208.69,122.27 282,215.61 20.36,25.91 46.75,68.51 62.42,99.84 31.83,63.63 66.58,170.73 66.58,263.35l0 373.19c0,26.73 -21.95,48.68 -48.69,48.68l-1546.87 0c-64.13,0 -64.13,-108.17 0,-108.17l297.47 0 0 -508.42c-38.17,25.57 -101.37,121.16 -146.07,122.18 -37.48,0.85 -73.26,-57.41 -104.28,-98.98l-203.98 -266.58c-14.64,-19.62 -49.7,-59.31 -54.08,-75.73 -109.11,0 -164.78,12.19 -242.7,43.95 -34.93,14.25 -59.07,29.22 -90.51,50.14 -112.46,74.77 -203.03,205.57 -227.89,340.01 -19.22,103.93 -12.23,280.86 -12.23,393.43l308.3 0c65.35,0 65.35,108.17 0,108.17l-367.78 0c-26.74,0 -48.69,-21.95 -48.69,-48.68l0 -373.19c0,-95.06 35.23,-202.11 68.39,-266.95 41.92,-81.98 82.08,-123.67 143.9,-186.04 51.5,-51.97 127.66,-98.09 202.55,-127.38 160.3,-62.65 373.81,-47.04 553.31,-47.04 0,-135.33 10.62,-110.14 -36.88,-141.6 -56.6,-37.5 -125.52,-117.97 -156.1,-179.25l-39.59 -90.22c-104.3,0 -168.35,4.96 -255.12,-63.98 -73.66,-58.53 -107.25,-136.98 -107.25,-244.3 0,-60.93 34.33,-136.51 63.54,-169.04 27.03,-30.12 40.06,-20.66 39.49,-74.08 -4.51,-420.76 342.08,-729.17 720.02,-757.49zm242.46 2131.02l-114.91 -112.27c22.02,-32.22 98.18,-100.87 129.77,-132.48 70.48,-70.47 25.26,-52.73 212.3,-52.73 -5.97,22.35 -215.97,289.97 -227.16,297.48zm-616.6 -297.48c43.39,0 86.84,-0.38 130.19,-0.38 41.53,-0.01 32,3.01 79.4,50.41 32.12,32.13 110.15,102.49 131.16,133.87l-112.26 114.9c-12.85,-8.99 -208.52,-260.8 -228.49,-298.8zm254.21 -178.48c46.78,3.89 144.17,52.32 296.43,9.77 13.33,-3.73 21.28,-8.31 38.91,-9.77 0,24.36 3.18,87.92 -0.39,107.79 -4.01,22.44 -151.99,163.22 -167.28,173.45 -27.63,-18.5 -84.36,-81.65 -112.23,-109.52 -69.13,-69.13 -55.44,-30.37 -55.44,-171.72zm200.12 -313.71c-53.86,0 -86.54,3.5 -86.54,-64.9 0,-54.85 146.04,-53.89 146.04,5.41 0,40.54 -18.95,59.49 -59.5,59.49zm-200.12 -54.08c0,57.55 22.58,92.7 55.33,123.15 58.67,54.51 173.29,59.55 240.16,15.48 23.33,-15.38 58.84,-47.46 61.49,-79.14l178.48 0c-6.77,29.08 -40.82,64.89 -58.69,87.35 -61.27,77 -194.38,134.41 -314.51,134.41 -69.43,0 -122.97,-17.45 -172.46,-38.49 -92.39,-39.27 -170.26,-124.62 -209.31,-217.97 -50.07,-119.65 -34.7,-295.41 -34.7,-441.27 172.79,0 315.6,16.26 466.79,-95.71 11.9,-8.81 19.76,-15.87 30.82,-23.28 29.58,19.82 31.68,39.9 91.55,76.11 89.75,54.26 147.71,42.88 254.6,42.88 0,86.86 6.73,287.06 -10.82,362.39l-216.34 0c-52.43,-99.06 -97.12,-108.17 -200.13,-108.17 -87.94,0 -162.26,74.32 -162.26,162.26zm735.57 -86.55l-37.85 0 0 -367.78c92.56,0 166.22,9.7 212.88,106.23 37.08,76.74 15.99,154.83 -35.53,206.33 -30.98,31 -78.88,55.22 -139.5,55.22zm-1330.52 -183.89c0,-97.59 84.75,-183.89 183.9,-183.89l48.67 0 0 367.78c-96.5,0 -167.56,-14.84 -212.93,-106.17 -8.51,-17.1 -19.64,-55.6 -19.64,-77.72zm492.18 -254.21l-151.44 0c3.03,-135.98 72.34,-260.06 180.72,-338.51 19.58,-14.18 47.67,-30.93 68.73,-39.45 194.66,-78.68 391.16,-27.36 514.05,139.11 12.82,17.37 31.22,46.39 40.22,67.95 21.16,50.68 38.77,114.4 40.04,170.9 -64.87,0 -134.87,6.49 -190.49,-25.86 -24.28,-14.11 -61.73,-38.39 -69.12,-66.08 13.34,-19.93 69.69,-56.26 28.16,-103.9 -89.15,-102.26 -138.62,195.84 -460.87,195.84zm-259.61 -43.27c-45.92,0 -87.43,10 -124.4,10.82 0,-100.56 31.49,-187.12 68.48,-261.45 22.96,-46.1 59.92,-101.1 95.19,-137.38 21.96,-22.58 46.73,-52.35 79.62,-77.24 202.65,-153.35 432.64,-187.97 670.09,-91.15 133.71,54.52 261.64,174.31 325.25,302.15 37.44,75.26 70.27,161.06 70.27,265.07 -33.13,-0.74 -80.25,-10.82 -124.4,-10.82 -8.29,-99.6 -47.29,-191.44 -101.91,-265.87 -29.3,-39.91 -85.31,-94.62 -126.25,-122.55 -22.99,-15.68 -51.68,-34.4 -78.54,-45.88 -271.78,-116.19 -560.47,-13.79 -697.6,241.3 -20.44,38.01 -54.61,139.39 -55.8,193z"/>
 </g>
</svg>
