<?xml version="1.0" encoding="UTF-8"?>
<!DOCTYPE svg PUBLIC "-//W3C//DTD SVG 1.1//EN" "http://www.w3.org/Graphics/SVG/1.1/DTD/svg11.dtd">
<!-- Creator: CorelDRAW -->
<svg xmlns="http://www.w3.org/2000/svg" xml:space="preserve" width="28.2222mm" height="28.2222mm" version="1.1" style="shape-rendering:geometricPrecision; text-rendering:geometricPrecision; image-rendering:optimizeQuality; fill-rule:evenodd; clip-rule:evenodd"
viewBox="0 0 2822.22 2822.22"
 xmlns:xlink="http://www.w3.org/1999/xlink"
 xmlns:xodm="http://www.corel.com/coreldraw/odm/2003">
 <defs>
  <style type="text/css">
   <![CDATA[
    .fil1 {fill:none}
    .fil0 {fill:#55BAC6;fill-rule:nonzero}
   ]]>
  </style>
 </defs>
 <g id="Capa_x0020_1">
  <metadata id="CorelCorpID_0Corel-Layer"/>
  <g id="_2517883624512">
   <path class="fil0" d="M1716.69 1250.32l361.27 257.17c16.05,11.43 37.59,11.43 53.64,0l361.26 -257.17c75.26,-53.3 120.17,-139.65 120.61,-231.87l0 -547.16c0.02,-18.42 -10.88,-35.09 -27.75,-42.45l-462.45 -199.78c-11.69,-5.04 -24.93,-5.04 -36.62,0l-462.45 199.78c-16.87,7.36 -27.77,24.03 -27.74,42.45l0 547.16c0.36,92.16 45.12,178.48 120.23,231.87zm-28.11 -748.65l416.2 -179.75 416.2 179.75 0 516.78c-0.34,62.42 -30.81,120.83 -81.81,156.82l-334.39 237.79 -334.39 -238.07c-50.95,-35.92 -81.41,-94.21 -81.81,-156.54l0 -516.78z"/>
   <path class="fil0" d="M1984.54 1124.4c19.98,14.99 48.26,11.4 63.87,-8.1l369.95 -462.44c15.96,-19.95 12.74,-49.06 -7.21,-65.02 -19.95,-15.96 -49.06,-12.74 -65.02,7.22l-342.21 427.48 -148.86 -111.87c-13.22,-9.92 -30.72,-12.02 -45.91,-5.53 -15.2,6.49 -25.78,20.59 -27.75,36.99 -1.97,16.41 4.95,32.62 18.16,42.53l184.98 138.74z"/>
   <path class="fil0" d="M116.27 2474.73l46.24 0 0 184.98c0,76.63 62.12,138.73 138.73,138.73l277.47 0c76.63,0 138.73,-62.1 138.73,-138.73l0 -184.98 1109.87 0 0 184.98c0,76.63 62.12,138.73 138.73,138.73l277.47 0c76.63,0 138.73,-62.1 138.73,-138.73l0 -184.98 46.25 0c51.08,0 92.49,-41.41 92.49,-92.49l0 -693.66c0.17,-67.02 -29.05,-130.75 -79.96,-174.34l159.08 -113.2c123.98,-88.05 197.84,-230.52 198.34,-382.59l0 -668.74c0.04,-18.41 -10.87,-35.08 -27.74,-42.45l-647.43 -279.68c-11.69,-5.05 -24.93,-5.05 -36.62,0l-647.79 279.68c-16.88,7.37 -27.77,24.04 -27.75,42.45l0 182.76 -699.68 0c-98.04,0.03 -185.4,61.9 -217.99,154.36l-272.38 773.95c-113.08,16.64 -196.96,113.51 -197.28,227.8l0 693.66c0,51.08 41.41,92.49 92.49,92.49zm508.69 184.98c0,25.54 -20.71,46.25 -46.25,46.25l-277.47 0c-25.53,0 -46.24,-20.71 -46.24,-46.25l0 -184.98 369.96 0 0 184.98zm-184.98 -277.47l-92.49 0 0 -92.48 92.49 0 0 92.48zm1849.77 277.47c0,25.54 -20.7,46.25 -46.24,46.25l-277.47 0c-25.54,0 -46.24,-20.71 -46.24,-46.25l0 -184.98 369.95 0 0 184.98zm-92.48 -277.47l-92.49 0 0 -92.48 92.49 0 0 92.48zm-693.67 -2002.14l601.18 -259.72 601.17 259.72 0 638.17c-0.46,122.15 -59.85,236.57 -159.49,307.24l-441.68 314.61 -441.68 -314.46c-99.63,-70.67 -159.02,-185.07 -159.5,-307.21l0 -638.35zm693.67 1354.72c25.53,0 46.24,20.71 46.24,46.25l0 92.49c0,25.54 -20.71,46.24 -46.24,46.24l-277.47 0c-25.54,0 -46.25,-20.7 -46.25,-46.24 0,-76.62 62.12,-138.74 138.74,-138.74l184.98 0zm-786.16 -924.89l0 92.49 -323.71 0 0 -92.49 323.71 0zm0 -92.48l-92.49 0 0 -92.49 92.49 0 0 92.49zm-830.41 0c19.59,-55.41 71.97,-92.47 130.73,-92.49l514.7 0 0 92.49 -138.73 0c-51.08,0 -92.49,41.41 -92.49,92.48l0 92.49c0,51.08 41.41,92.49 92.49,92.49l323.71 0 0 23.54c0.5,152.07 74.37,294.54 198.34,382.59l79.13 56.32 -1368.28 0 260.4 -739.91zm-464.43 971.13c0,-76.62 62.11,-138.73 138.73,-138.73l1563.52 0 139.75 99.52c-103.7,24.91 -176.91,117.53 -177.2,224.19 0,76.61 62.11,138.73 138.73,138.73l277.47 0c76.62,0 138.73,-62.12 138.73,-138.73l0 -92.49c-0.15,-57.13 -35.3,-108.32 -88.56,-128.98l114.51 -81.52c41.47,24.82 66.76,69.67 66.54,118.01l0 693.66 -138.74 0 0 -92.48c0,-51.08 -41.41,-92.49 -92.48,-92.49l-92.49 0c-51.08,0 -92.49,41.41 -92.49,92.49l0 92.48 -1479.82 0 0 -92.48c0,-51.08 -41.41,-92.49 -92.49,-92.49l-92.49 0c-51.08,0 -92.49,41.41 -92.49,92.49l0 92.48 -138.73 0 0 -693.66z"/>
   <path class="fil0" d="M856.18 717.45l-79.13 0c-58.79,0.06 -111.18,37.09 -130.87,92.48l-173.6 493.34c-8.48,24.1 4.18,50.51 28.28,58.99 24.1,8.47 50.51,-4.18 58.99,-28.28l173.6 -493.15c6.51,-18.51 23.99,-30.89 43.6,-30.9l79.13 0c25.54,0 46.24,-20.7 46.24,-46.24 0,-25.54 -20.7,-46.24 -46.24,-46.24z"/>
   <path class="fil0" d="M347.49 2012.29l277.47 0c76.62,0 138.73,-62.11 138.73,-138.73 -0.15,-127.64 -103.59,-231.07 -231.22,-231.23l-184.98 0c-76.62,0 -138.73,62.12 -138.73,138.74l0 92.49c0,76.62 62.11,138.73 138.73,138.73zm-46.25 -231.22c0,-25.54 20.71,-46.25 46.25,-46.25l184.98 0c76.62,0 138.73,62.12 138.73,138.74 0,25.54 -20.71,46.24 -46.24,46.24l-277.47 0c-25.54,0 -46.25,-20.7 -46.25,-46.24l0 -92.49z"/>
   <path class="fil0" d="M948.67 2289.76l647.42 0c51.08,0 92.49,-41.42 92.49,-92.49l0 -184.98c0,-51.08 -41.41,-92.49 -92.49,-92.49l-647.42 0c-51.08,0 -92.49,41.41 -92.49,92.49l0 184.98c0,51.07 41.41,92.49 92.49,92.49zm0 -277.47l647.42 0 0 184.98 -647.42 0 0 -184.98z"/>
  </g>
  <rect class="fil1" width="2822.22" height="2822.22"/>
 </g>
</svg>
