<?xml version="1.0" encoding="UTF-8"?>
<!DOCTYPE svg PUBLIC "-//W3C//DTD SVG 1.1//EN" "http://www.w3.org/Graphics/SVG/1.1/DTD/svg11.dtd">
<!-- Creator: CorelDRAW -->
<svg xmlns="http://www.w3.org/2000/svg" xml:space="preserve" width="28.2222mm" height="28.2222mm" version="1.1" style="shape-rendering:geometricPrecision; text-rendering:geometricPrecision; image-rendering:optimizeQuality; fill-rule:evenodd; clip-rule:evenodd"
viewBox="0 0 2822.22 2822.22"
 xmlns:xlink="http://www.w3.org/1999/xlink"
 xmlns:xodm="http://www.corel.com/coreldraw/odm/2003">
 <defs>
  <style type="text/css">
   <![CDATA[
    .fil1 {fill:none}
    .fil0 {fill:#55BAC6}
   ]]>
  </style>
 </defs>
 <g id="Capa_x0020_1">
  <metadata id="CorelCorpID_0Corel-Layer"/>
  <g id="_2521062273584">
   <path class="fil0" d="M131.6 1134.14c0,-452.08 375.8,-840.35 824.09,-840.35 263.27,0 462.68,96.24 605.87,239.91 142.98,143.45 250.75,348.45 250.75,562.49 0,230.49 -41.04,358.11 -158.26,530.28l-95.18 110.86c-102.78,103.96 -253.86,181.24 -397.03,215.61 -282.65,67.86 -579.4,-23.66 -779.49,-223.77 -63.54,-63.55 -90.74,-100.19 -137.21,-177.25 -69.71,-115.6 -113.54,-279.6 -113.54,-417.78zm-108.43 -43.37l0 6.64 0 6.47 0 6.33c0.03,127.14 1.29,162.91 39.08,299.31 49.5,178.64 187.74,371.53 333.44,479.8 152.39,113.23 286.38,166.23 485.55,192.16 71.04,9.26 234.67,-2.62 303.3,-19.09 70.38,-16.91 53.45,-29.95 130.58,62.32l214.02 225.13c14.65,14.81 18.14,23.44 32.31,38.17l108.54 113.74c147.85,147.31 125.92,196.43 254.89,57l211.37 -227.78c10.74,-10.72 19.98,-18.73 29.78,-29.86l303.73 -325.18c14.53,-14.45 17.22,-21 29.78,-35.28 20.69,-23.47 44.78,-41.4 64.78,-65.34 11.84,-14.17 13.44,-18.59 27.27,-32.37l122.15 -127.25c14.53,-14.46 17.21,-21 29.78,-35.27 28.58,-32.45 55.53,-36.83 55.53,-85.44 0,-40.3 -40.14,-54.22 -81.32,-54.22l-444.57 0 0 -477.1c0,-67.63 -108.44,-72.15 -108.44,-5.42l0 547.59c0,67.2 110.11,48.8 200.6,48.8 83.13,0 166.27,0 249.39,0l-689.83 741.47c-17.21,18.6 -33.71,33.16 -51.68,51.33 -20.35,20.56 -25.58,36.59 -50.05,52.97l-466.26 -498.8c25.51,-5.93 40.32,-13.64 60.7,-26.05 173.86,-105.91 218.21,-141.24 334.32,-294.58 23.83,-31.47 48.99,-73.59 67.65,-111.27 10.45,-21.09 19.26,-36.28 28.46,-58.29 109.6,-262.4 105.61,-545 -21.25,-798.35 -39.01,-77.89 -73.19,-129.67 -126.63,-193.24 -32.2,-38.3 -80.29,-81.07 -93.85,-101.33l558.43 0 0 173.49c0,50.24 108.44,63.12 108.44,-10.85l0 -222.28c0,-25.33 -19.25,-44.94 -40.92,-51.25 -28.87,-8.42 -657.65,-3.28 -734.4,-2.95 -94.62,0.41 -75.66,-19.53 -207.53,-68.97 -223.19,-83.66 -487.15,-68.83 -697.81,25.64l-113.92 59.57c-12.36,8.21 -23.65,13.92 -36.46,23.18 -72.18,52.11 -124.01,97.11 -184.53,162.46 -10.38,11.2 -16.54,20.42 -26.71,32.92 -114.63,140.84 -207.71,357.21 -207.71,551.32z"/>
   <path class="fil0" d="M955.69 510.66c71.23,0 95.81,0.97 166.75,17.59 42.61,9.99 72.49,23.15 112.15,39.65 93.12,38.75 184.04,121.44 243.94,200.62 18.05,23.86 45.55,68.08 57.25,94.57 112.5,254.74 68.52,518.6 -128.73,716.99 -220.14,221.42 -582.46,235.2 -826.3,37.44 -8.56,-6.94 -11.34,-10.7 -19.43,-18.53 -25.78,-24.95 -7.86,-0.27 -41,-40.31 -56.9,-68.74 -55.41,-50.64 -110.47,-160.62 -35.93,-71.75 -53.37,-155.92 -61.28,-253.54 -4.89,-60.23 24.93,-200.05 52.21,-256.25 49.21,-101.35 44.08,-88.22 102.6,-163.06 94.16,-120.42 286.49,-214.55 452.31,-214.55zm-715.65 596.38c0,128.57 14.25,230.09 68.63,337.98 21.94,43.53 37.71,70.68 63.61,109.88 114.63,173.45 354.76,311.16 561.73,311.16 147.84,0 231.9,-7.36 365.06,-74.09 239.84,-120.2 410.23,-365.63 410.23,-663.25 0,-278 -182.67,-560.35 -431.33,-663.83 -244.54,-101.76 -489.81,-90.22 -711.57,57.67l-76.21 59.34c-11.79,9.51 -14.88,10.57 -26.62,22.18 -31.76,31.4 -56.23,61.28 -82.58,96.33 -76.73,102.06 -140.95,262.67 -140.95,406.63z"/>
   <path class="fil0" d="M630.39 1416.07c0,42.24 17.4,59.64 59.64,59.64 30.75,0 66.41,-47.44 85.39,-66.42 80.18,-80.17 423.16,-429.09 473.85,-469.52 84.48,-67.4 102.01,-147.19 -0.81,-147.19 -13,0 -13.84,6.11 -23.54,14.41 -5.39,4.62 -3,2.86 -8.56,7.7 -98.36,85.61 -335.93,332.37 -438.23,434.66 -27.79,27.8 -147.74,134.12 -147.74,166.72z"/>
   <path class="fil0" d="M1221.35 1329.33c67.28,0 83.23,103.01 -10.84,103.01 -48.37,0 -60.7,-103.01 10.84,-103.01zm-162.65 37.94c0,37.15 -0.19,51.97 16.13,86.89 5.43,11.62 24.47,38.47 34.11,47.21 65.64,59.47 164.91,60.37 227.74,-2.5 158.77,-158.87 -76.79,-387.21 -231.49,-231.49 -1.81,1.82 -8.69,9.59 -10.22,11.47 -19.02,23.46 -36.27,56.11 -36.27,88.42z"/>
   <path class="fil0" d="M673.77 890.17c0,-80.85 103.01,-72.47 103.01,0 0,62.8 -103.01,65.51 -103.01,0zm-113.85 -16.26c0,240.56 330.71,220.67 330.71,10.84 0,-45.4 -22.46,-86.24 -45.82,-111.41 -104.41,-112.55 -284.89,-25.21 -284.89,100.57z"/>
   <path class="fil0" d="M2164.72 814.27c0,94.69 108.44,72.75 108.44,10.84 0,-78.41 -108.44,-74.94 -108.44,-10.84z"/>
  </g>
  <rect class="fil1" width="2822.22" height="2822.22"/>
 </g>
</svg>
