<?xml version="1.0" encoding="UTF-8"?>
<!DOCTYPE svg PUBLIC "-//W3C//DTD SVG 1.1//EN" "http://www.w3.org/Graphics/SVG/1.1/DTD/svg11.dtd">
<!-- Creator: CorelDRAW -->
<svg xmlns="http://www.w3.org/2000/svg" xml:space="preserve" width="28.2222mm" height="28.2222mm" version="1.1" style="shape-rendering:geometricPrecision; text-rendering:geometricPrecision; image-rendering:optimizeQuality; fill-rule:evenodd; clip-rule:evenodd"
viewBox="0 0 2822.22 2822.22"
 xmlns:xlink="http://www.w3.org/1999/xlink"
 xmlns:xodm="http://www.corel.com/coreldraw/odm/2003">
 <defs>
  <style type="text/css">
   <![CDATA[
    .fil1 {fill:none}
    .fil0 {fill:#1080AF}
   ]]>
  </style>
 </defs>
 <g id="Capa_x0020_1">
  <metadata id="CorelCorpID_0Corel-Layer"/>
  <g id="_2521131888016">
   <path class="fil0" d="M1957.04 2601.23l0 -333.01 201.99 0 0 343.93c0,22.12 -19.99,50.08 -32.57,60.23 -79.97,64.47 -169.42,-2.39 -169.42,-71.15zm0 -584.14l201.99 0 0 141.94 -201.99 0 0 -141.94zm0 -507.72l201.99 0 0 398.53 -201.99 0 0 -398.53zm600.52 -43.67l0 -611.43c0,-69.63 125.56,-69.63 125.56,0l0 600.51c0,88.94 -125.56,75.44 -125.56,10.92zm-1124.61 -16.38l0 -578.68c0,-97.88 125.56,-82.11 125.56,-16.37l0 611.43c0,37.54 -36.75,54.63 -68.74,51.06 -37.59,-4.2 -56.82,-27.58 -56.82,-67.44zm240.2 -524.09l769.77 0 0 469.5 -769.77 0 0 -469.5zm-349.39 -87.34l0 633.27c0,166.57 240.99,214.02 322.01,81.8 33.97,-55.44 -18.71,-43.59 196.62,-43.59l0 797.06 -1441.24 0 0 -2183.71 240.2 0 0 414.91c0,27.94 28.71,54.59 54.59,54.59 42.8,0 142.34,-130.38 185.62,-141.94 64.6,43.26 141.04,159.24 195.8,136.26 28.07,-11.78 38.95,-36.13 38.95,-76.21l0 -387.61 545.93 0 0 382.15c0,42.21 23.3,65.51 65.51,65.51l382.15 0 0 240.21 -431.29 0c-32.51,0 -26.28,-120.1 -191.07,-120.1 -83.87,0 -163.78,75.22 -163.78,147.4zm453.13 -627.82l247.01 244.31 -247.01 1.36 0 -245.67zm-1026.35 196.53l0 -283.88 251.13 0 0 283.88c-13.48,-9.01 -16.56,-14.69 -28.62,-25.97 -83.21,-77.86 -98.35,-91.1 -163.79,-24.48 -12.41,12.64 -14.77,14.29 -29.1,25.48 -13.39,10.47 -16.82,16.4 -29.62,24.97zm-464.04 -338.48l0 202 -201.99 0c-17.84,0 -39.35,11.88 -47.23,23.75 -8.26,12.44 -12.83,38.53 -12.83,58.14l0 2243.76c0,41.11 13.64,81.89 60.06,81.89l660.57 0c71.6,0 86.85,-114.64 -10.92,-114.64l-595.06 0 0 -2178.26 147.4 0 0 1976.26c0,27.6 19.7,54.6 49.14,54.6l1506.75 0 0 147.4 -600.52 0c-29.14,0 -60.05,25.67 -60.05,54.59 0,66.01 59.6,60.07 125.56,60.05l556.85 0c4.23,50.94 96.82,131.02 180.16,131.02 127.23,0 229.29,-78.75 229.29,-212.91l0 -1086.4 180.15 0c8.68,104.29 203.65,175.44 298.79,64.05 30.9,-36.18 45.15,-75.76 45.15,-140.47l0 -540.47c0,-288.18 -332.14,-223.72 -343.94,-81.89l-234.75 0 0 -300.26c0,-40.91 -77.3,-98.85 -108.63,-131.58l-130.21 -126.37c-42.28,-42.28 -80.56,-80.56 -122.83,-122.84 -25.27,-25.26 -102.94,-116 -135.12,-116l-1392.11 0c-9.1,0 -25.35,12.1 -30.6,18.54 -6.66,8.2 -13.08,23 -13.08,36.04z"/>
   <path class="fil0" d="M630.44 1951.58l851.64 0 0 120.1 -851.64 0 0 -120.1zm-114.65 -54.59l0 229.29c0,29.4 24.92,54.59 54.59,54.59l971.75 0c26.99,0 49.13,-22.15 49.13,-49.14l0 -240.2c0,-26.99 -22.14,-49.14 -49.13,-49.14l-971.75 0c-27.45,0 -54.59,27.15 -54.59,54.6z"/>
   <path class="fil0" d="M515.79 1673.15c0,39.25 42.53,54.6 81.89,54.6l595.05 0c119,0 89.44,-114.65 27.3,-114.65l-649.65 0c-31.11,0 -54.59,28.73 -54.59,60.05z"/>
   <path class="fil0" d="M515.79 1443.86c0,29.15 30.72,54.6 70.97,54.6l507.71 0c16.93,0 36.33,-5.3 47.19,-12.86 39.84,-27.7 30.28,-101.79 -41.73,-101.79l-518.63 0c-38.64,0 -65.51,22.57 -65.51,60.05z"/>
   <path class="fil0" d="M515.79 979.83c0,37.48 26.87,60.05 65.51,60.05l518.63 0c87.91,0 87.76,-114.65 -5.46,-114.65l-507.71 0c-39.6,0 -70.97,24.87 -70.97,54.6z"/>
   <path class="fil0" d="M799.67 1209.12c0,39.22 26.77,60.05 65.51,60.05l240.21 0c79.01,0 78.16,-114.65 0,-114.65l-240.21 0c-35.24,0 -65.51,20.45 -65.51,54.6z"/>
   <path class="fil0" d="M914.32 755.99c0,23.17 26.47,54.6 54.59,54.6l196.54 0c53.6,0 73.03,-73.81 30.84,-101.82 -29.81,-19.79 -228.53,-19.74 -258.26,-0.03 -11.23,7.43 -23.71,32.8 -23.71,47.25z"/>
   <path class="fil0" d="M515.79 750.54c0,31.32 23.48,60.05 54.59,60.05 68.21,0 194.03,11.96 220.06,-14.69 40.06,-41.02 20.46,-99.96 -61.74,-99.96 -70.96,0 -212.91,-19.81 -212.91,54.6z"/>
   <path class="fil0" d="M515.79 1209.12c0,85.31 174.7,79.43 174.7,5.45 0,-87.67 -174.7,-77.05 -174.7,-5.45z"/>
   <path class="fil0" d="M936.16 2617.61c0,81.89 116.39,75.07 113.01,0.65 -0.44,-9.63 -8.18,-29.65 -16.08,-37.53 -36.09,-35.9 -96.93,-8.12 -96.93,36.88z"/>
  </g>
  <rect class="fil1" width="2822.22" height="2822.22"/>
 </g>
</svg>
