<?xml version="1.0" encoding="UTF-8"?>
<!DOCTYPE svg PUBLIC "-//W3C//DTD SVG 1.1//EN" "http://www.w3.org/Graphics/SVG/1.1/DTD/svg11.dtd">
<!-- Creator: CorelDRAW -->
<svg xmlns="http://www.w3.org/2000/svg" xml:space="preserve" width="28.2222mm" height="28.2222mm" version="1.1" style="shape-rendering:geometricPrecision; text-rendering:geometricPrecision; image-rendering:optimizeQuality; fill-rule:evenodd; clip-rule:evenodd"
viewBox="0 0 2822.22 2822.22"
 xmlns:xlink="http://www.w3.org/1999/xlink"
 xmlns:xodm="http://www.corel.com/coreldraw/odm/2003">
 <defs>
  <style type="text/css">
   <![CDATA[
    .fil0 {fill:none}
    .fil1 {fill:#1080AF;fill-rule:nonzero}
   ]]>
  </style>
 </defs>
 <g id="Capa_x0020_1">
  <metadata id="CorelCorpID_0Corel-Layer"/>
  <rect class="fil0" width="2822.22" height="2822.22"/>
  <g id="_2521133970016">
   <path class="fil1" d="M1423.08 2272.69c-23.03,0 -43.87,-14.89 -51.68,-36.46 -7.7,-21.2 -1.13,-45.86 16.14,-60.38 18.07,-15.2 44.45,-17.26 64.54,-4.77 19.18,11.91 29.31,35.24 24.84,57.38 -5.1,25.35 -27.91,44.23 -53.84,44.23z"/>
   <path class="fil1" d="M225.55 1286.26c13.78,2.66 27.42,3.87 40.86,3.87 71.09,0 136.2,-33.52 179.4,-62.69 17.31,42.82 38.04,84.79 62.04,125.31 8.68,14.61 17.67,28.86 27,42.75 -10.86,-0.43 -21.87,-0.11 -32.98,1.07 -152.56,16.12 -251.5,186.53 -255.64,193.79 -11.71,20.51 -8.98,46.22 6.74,63.82 5.28,5.9 124.46,137.36 266.75,137.36 7.84,0 15.76,-0.41 23.72,-1.24 111.95,-11.83 195.04,-106.78 232.97,-159.33 54.54,33.12 112.17,57.48 171.2,71.77 4.34,1.05 8.7,1.55 12.96,1.55 24.79,0 47.28,-16.89 53.36,-42.05 7.12,-29.48 -10.99,-59.16 -40.48,-66.3 -143.69,-34.75 -278.95,-143.81 -371.08,-299.21 -87.75,-148 -125.52,-316.96 -104.79,-466.47 53.37,-34.4 170.16,-123.11 187.11,-249.39 21.61,-161.01 -129.43,-305.91 -135.87,-311.98 -17.17,-16.23 -42.79,-19.66 -63.63,-8.54 -7.81,4.16 -191.72,104.1 -213.33,265.09 -17.21,128.16 75,246.15 116.57,291.99 -6.61,49.03 -7.89,99.74 -4.1,151.01 -26.05,-18.26 -56.03,-32.72 -89.87,-39.27 -134.38,-25.96 -258.77,86.95 -272.51,99.92 -17.18,16.2 -22.07,41.59 -12.16,63.02 7.92,17.16 81.33,168.21 215.76,194.15zm306.34 394.78c-60.35,6.36 -126.07,-36.44 -166.57,-70.99 32.4,-42.27 87.75,-97.83 148.1,-104.2 60.3,-6.36 125.92,36.32 166.42,70.83 -29.68,38.96 -84.32,97.65 -147.95,104.36zm-151.12 -1140.98c9.01,-67.21 73.65,-126.88 120.8,-160.38 36.67,44.82 83.24,119.37 74.23,186.56 -9.02,67.13 -73.48,126.7 -120.6,160.26 -33.53,-40.79 -83.95,-115.5 -74.43,-186.44zm-107.13 496.99c48.72,9.4 90.56,57.47 115.76,95.6 -37.35,25.78 -94.45,55.07 -143.03,45.74 -48.74,-9.43 -90.58,-57.49 -115.78,-95.63 37.61,-26.05 94.31,-55.13 143.05,-45.71z"/>
   <path class="fil1" d="M1861.64 1704.29c4.27,0 8.63,-0.5 12.96,-1.55 59.04,-14.29 116.65,-38.65 171.21,-71.77 37.92,52.55 121.01,147.5 232.97,159.33 7.96,0.83 15.88,1.24 23.71,1.24 142.3,0 261.48,-131.46 266.75,-137.36 15.73,-17.6 18.46,-43.31 6.74,-63.82 -4.14,-7.26 -103.1,-177.67 -255.63,-193.79 -11.12,-1.16 -22.13,-1.48 -33.01,-1.05 9.34,-13.89 18.35,-28.16 27.02,-42.77 24.01,-40.52 44.74,-82.49 62.04,-125.31 43.21,29.17 108.31,62.69 179.4,62.69 13.44,0 27.11,-1.21 40.87,-3.87 134.42,-25.94 207.83,-176.99 215.75,-194.15 9.95,-21.43 5.03,-46.8 -12.14,-63.02 -13.75,-12.94 -138.11,-125.91 -272.52,-99.92 -33.86,6.55 -63.84,21.01 -89.87,39.27 3.79,-51.29 2.49,-101.98 -4.13,-151.01 41.57,-45.87 133.79,-163.83 116.6,-291.99 -21.62,-161.01 -205.55,-260.93 -213.36,-265.09 -20.84,-11.12 -46.46,-7.69 -63.63,8.54 -6.44,6.07 -157.47,150.97 -135.86,311.98 16.96,126.28 133.76,214.97 187.11,249.37 20.73,149.53 -17.04,318.46 -104.79,466.48 -92.12,155.41 -227.37,264.44 -371.06,299.22 -29.49,7.14 -47.63,36.82 -40.5,66.3 6.09,25.16 28.58,42.05 53.37,42.05zm686.94 -667.24c48.73,-9.4 105.45,19.63 143.02,45.69 -25.08,37.79 -67.16,86.27 -115.75,95.65 -48.71,9.4 -105.45,-19.64 -143.03,-45.67 25.09,-37.81 67.17,-86.29 115.76,-95.67zm-239.76 468.8c60.37,6.37 115.69,61.95 148.08,104.18 -40.51,34.6 -106.27,77.37 -166.58,71.01 -60.36,-6.37 -115.71,-61.97 -148.09,-104.2 40.52,-34.6 106.25,-77.37 166.59,-70.99zm-62.4 -939.61c-9.02,-67.22 37.57,-141.79 74.22,-186.56 47.2,33.55 111.79,93.18 120.82,160.38 9.02,67.12 -37.44,141.59 -74.07,186.38 -43.07,-30.5 -111.45,-89.25 -120.97,-160.2z"/>
   <path class="fil1" d="M2810.07 1894.47c-9.83,-16.94 -27.93,-27.34 -47.5,-27.34l-1125.25 0 0 -1293.23c0,-108.76 -117.06,-176.08 -225.53,-176.08 -39.48,0 -73.28,8.56 -100.45,25.43l-325.83 197.48c-62.51,37.51 -98.37,102.42 -98.37,178.14 0,100.13 67.32,208.21 176.08,208.21 19.4,0 47.77,-3.83 78.57,-20.69l0 880.74 -1082.15 0c-19.57,0 -37.66,10.4 -47.49,27.34 -9.83,16.91 -9.94,37.79 -0.26,54.79l152.9 268.48 -152.88 268.49c-9.7,16.99 -9.59,37.87 0.24,54.78 9.83,16.93 27.94,27.35 47.49,27.35l2702.93 0c19.57,0 37.67,-10.42 47.5,-27.35 9.82,-16.91 9.93,-37.79 0.25,-54.78l-152.9 -268.49 152.9 -268.48c9.68,-17 9.57,-37.88 -0.25,-54.79zm-1586.65 -1054.62c-17.43,-9.69 -38.73,-9.18 -55.69,1.34l-71.68 44.5c-0.52,0.32 -1.01,0.62 -1.5,0.97 -13.77,9.19 -25.53,10.56 -31.33,10.56 -37.9,0 -66.2,-51.93 -66.2,-98.35 0,-25.95 7.81,-61.59 45.23,-84.04l326.33 -197.78c0.21,-0.12 0.42,-0.26 0.64,-0.41 9.35,-5.83 24.08,-8.95 42.55,-8.95 58.38,0 115.65,32.8 115.65,66.21l0 1293.23 -275.78 0 0 -979.27c0,-19.94 -10.8,-38.31 -28.22,-48.01zm-947.66 1405.08c9.59,-16.84 9.59,-37.51 0,-54.38l-121.61 -213.55 423.86 0 0 481.48 -423.86 0 121.61 -213.55zm412.12 27.75l487.77 0c30.32,0 54.94,-24.6 54.94,-54.94 0,-30.34 -24.62,-54.94 -54.94,-54.94l-487.77 0 0 -185.8 1446.46 0 0 185.8 -461.8 0c-30.35,0 -54.95,24.6 -54.95,54.94 0,30.34 24.6,54.94 54.95,54.94l461.8 0 0 185.8 -1446.46 0 0 -185.8zm1858.58 -82.13c-9.6,16.87 -9.6,37.54 0,54.38l121.6 213.55 -423.85 0 0 -481.48 423.85 0 -121.6 213.55z"/>
  </g>
 </g>
</svg>
