<?xml version="1.0" encoding="UTF-8"?>
<!DOCTYPE svg PUBLIC "-//W3C//DTD SVG 1.1//EN" "http://www.w3.org/Graphics/SVG/1.1/DTD/svg11.dtd">
<!-- Creator: CorelDRAW -->
<svg xmlns="http://www.w3.org/2000/svg" xml:space="preserve" width="28.2222mm" height="28.2222mm" version="1.1" style="shape-rendering:geometricPrecision; text-rendering:geometricPrecision; image-rendering:optimizeQuality; fill-rule:evenodd; clip-rule:evenodd"
viewBox="0 0 2822.22 2822.22"
 xmlns:xlink="http://www.w3.org/1999/xlink"
 xmlns:xodm="http://www.corel.com/coreldraw/odm/2003">
 <defs>
  <style type="text/css">
   <![CDATA[
    .fil1 {fill:none}
    .fil0 {fill:#55BAC6;fill-rule:nonzero}
   ]]>
  </style>
 </defs>
 <g id="Capa_x0020_1">
  <metadata id="CorelCorpID_0Corel-Layer"/>
  <g id="_2521131894064">
   <path class="fil0" d="M2341.01 508.83l0 -260.1c-0.16,-128.32 -104.14,-232.31 -232.47,-232.46l-1859.8 0c-128.33,0.15 -232.32,104.14 -232.48,232.46l0 1022.9c0.36,118.73 90.37,218.03 208.49,230.08l174.77 453.68c46.17,119.8 180.7,179.47 300.51,133.36l1091.41 -420.43c-75.41,196.99 -53.95,417.96 57.91,596.78l26.71 42.71 0 451.65c0,25.69 20.81,46.5 46.5,46.5l836.9 0c25.69,0 46.5,-20.81 46.5,-46.5l0 -1534.74c-0.44,-160.79 -64.45,-314.85 -178.13,-428.56l-286.82 -287.33zm0 278.06l141.11 366.31c27.66,71.91 -8.18,152.59 -80.07,180.26l-80.66 31.16c12.88,-29.32 19.56,-61 19.62,-92.99l0 -484.74zm-2231.75 484.74l0 -1022.9c0,-77.01 62.46,-139.47 139.48,-139.47l1859.8 0c77.01,0 139.48,62.46 139.48,139.47l0 295.53 -0.41 0 0.41 1.06 0 726.31c-0.36,8.11 -1.42,16.16 -3.16,24.08l-425.89 -425.94c-95.73,-93.52 -248.36,-94.24 -344.95,-1.7 -96.61,92.61 -102.42,245.12 -13.06,344.73l181.56 198.31 -1393.78 0c-77.02,0 -139.48,-62.46 -139.48,-139.48zm595.64 232.47l-330.62 127.29 -48.92 -127.29 379.54 0zm-38.31 497.86c-71.89,27.71 -152.61,-8.13 -180.31,-80.01l-78.43 -203.97 555 -213.88 0 -0.28 764.89 0 60.44 65.89 -1121.59 432.25zm2046.39 711.01l-743.93 0 0 -371.96 743.93 0 0 371.96zm0 -464.95l-764.62 0 -20.17 -32.22c-113.36,-181.17 -117.88,-409.99 -11.77,-595.46 10.04,-17.56 7.58,-39.59 -6.09,-54.49l-381.02 -415.67c-56.81,-62.18 -53.62,-158.32 7.21,-216.57 60.85,-58.26 157.04,-57.31 216.69,2.12l740.91 740.73 65.75 -65.75 -172.04 -172.02 47.7 -18.6c119.7,-46.19 179.36,-180.61 133.31,-300.37l-157.37 -408.65 150.61 150.93c96.25,96.23 150.52,226.63 150.9,362.72l0 1023.3z"/>
   <path class="fil0" d="M546.3 667.19c66.77,0 120.89,-54.12 120.89,-120.89l0 -223.17c0,-66.77 -54.12,-120.89 -120.89,-120.89l-223.17 0c-66.77,0 -120.88,54.12 -120.88,120.89l0 223.17c0,66.77 54.11,120.89 120.88,120.89l223.17 0zm-251.06 -120.89l0 -65.09 92.98 0 0 -92.99 -92.98 0 0 -65.09c0,-15.4 12.49,-27.9 27.89,-27.9l223.17 0c15.41,0 27.9,12.5 27.9,27.9l0 65.09 -92.99 0 0 92.99 92.99 0 0 65.09c0,15.41 -12.49,27.9 -27.9,27.9l-223.17 0c-15.4,0 -27.89,-12.49 -27.89,-27.9z"/>
   <polygon class="fil0" points="248.74,806.68 434.72,806.68 434.72,899.67 248.74,899.67 "/>
   <polygon class="fil0" points="248.74,1085.65 434.72,1085.65 434.72,1178.64 248.74,1178.64 "/>
   <polygon class="fil0" points="1085.65,1085.65 1271.63,1085.65 1271.63,1178.64 1085.65,1178.64 "/>
   <polygon class="fil0" points="527.7,806.68 713.69,806.68 713.69,899.67 527.7,899.67 "/>
   <polygon class="fil0" points="806.68,806.68 992.66,806.68 992.66,899.67 806.68,899.67 "/>
   <polygon class="fil0" points="1085.65,806.68 1271.63,806.68 1271.63,899.67 1085.65,899.67 "/>
   <polygon class="fil0" points="1969.05,248.74 2062.04,248.74 2062.04,388.23 1969.05,388.23 "/>
   <polygon class="fil0" points="1783.07,248.74 1876.06,248.74 1876.06,388.23 1783.07,388.23 "/>
   <polygon class="fil0" points="1597.1,248.74 1690.08,248.74 1690.08,388.23 1597.1,388.23 "/>
   <polygon class="fil0" points="1411.11,248.74 1504.1,248.74 1504.1,388.23 1411.11,388.23 "/>
   <polygon class="fil0" points="2062.04,2434 2155.03,2434 2155.03,2526.99 2062.04,2526.99 "/>
  </g>
  <rect class="fil1" width="2822.22" height="2822.22"/>
 </g>
</svg>
