<?xml version="1.0" encoding="UTF-8"?>
<!DOCTYPE svg PUBLIC "-//W3C//DTD SVG 1.1//EN" "http://www.w3.org/Graphics/SVG/1.1/DTD/svg11.dtd">
<!-- Creator: CorelDRAW -->
<svg xmlns="http://www.w3.org/2000/svg" xml:space="preserve" width="28.2222mm" height="28.2222mm" version="1.1" style="shape-rendering:geometricPrecision; text-rendering:geometricPrecision; image-rendering:optimizeQuality; fill-rule:evenodd; clip-rule:evenodd"
viewBox="0 0 2822.22 2822.22"
 xmlns:xlink="http://www.w3.org/1999/xlink"
 xmlns:xodm="http://www.corel.com/coreldraw/odm/2003">
 <defs>
  <style type="text/css">
   <![CDATA[
    .fil1 {fill:none}
    .fil0 {fill:#1080AF;fill-rule:nonzero}
   ]]>
  </style>
 </defs>
 <g id="Capa_x0020_1">
  <metadata id="CorelCorpID_0Corel-Layer"/>
  <g id="_2521257466960">
   <path class="fil0" d="M2816.77 1540.38c-25.34,-252.75 -139.21,-491.03 -320.63,-670.96 -155.05,-153.74 -344.82,-252.55 -544.51,-296.48l0 -138.89c81.56,-20.12 142.18,-93.33 142.18,-180.34 0,-102.49 -84.07,-185.86 -187.41,-185.86l-396.88 0c-103.34,0 -187.42,83.37 -187.42,185.86 0,87 60.63,160.22 142.18,180.34l0 139.28c-199.07,44.12 -388.22,142.79 -542.83,296.1 -33.83,33.55 -65.03,68.75 -93.59,105.33 -1.38,-0.1 -2.77,-0.21 -4.18,-0.21l-392.8 0c-30.44,0 -55.12,24.48 -55.12,54.66 0,30.2 24.68,54.67 55.12,54.67l321.98 0c-40.42,67.1 -73.01,137.57 -97.81,210.1l-599.92 0c-30.44,0 -55.12,24.48 -55.12,54.66 0,30.2 24.68,54.67 55.12,54.67l568.77 0c-15.88,69.15 -25,139.54 -27.36,210.11l-243.75 0c-30.44,0 -55.13,24.47 -55.13,54.66 0,30.19 24.69,54.66 55.13,54.66l245.51 0c4.66,70.76 16.13,141.15 34.42,210.12l-357.1 0c-30.44,0 -55.13,24.46 -55.13,54.66 0,30.18 24.69,54.66 55.13,54.66l392.28 0c54.07,141.86 138.58,274.81 253.55,388.83 181.61,180.09 422.14,293.04 677.28,318.03 36.41,3.57 72.86,5.33 109.24,5.33 215.1,0 427.47,-61.73 607.66,-178.1 25.51,-16.47 32.72,-50.34 16.11,-75.63 -16.61,-25.3 -50.76,-32.45 -76.27,-15.98 -394.43,254.71 -922.69,199.64 -1256.06,-130.95 -391.16,-387.91 -391.16,-1019.07 0,-1406.97 391.15,-387.9 1027.6,-387.9 1418.77,0 332.93,330.16 388.77,853.57 132.77,1244.53 -16.59,25.32 -9.32,59.18 16.2,75.62 25.54,16.44 59.68,9.24 76.25,-16.08 136.78,-208.89 198.35,-461.19 173.37,-710.43zm-1384.42 -1286.67c0,-42.21 34.61,-76.53 77.17,-76.53l396.88 0c42.55,0 77.17,34.32 77.17,76.53 0,42.2 -34.62,76.53 -77.17,76.53l-9.89 0 -377.1 0 -9.89 0c-42.56,0 -77.17,-34.34 -77.17,-76.53zm142.17 300.83l0 -114.98 266.87 0 0 114.78c-88.62,-10.45 -178.26,-10.39 -266.87,0.2z"/>
   <path class="fil0" d="M2460.22 2337.67c-14.43,0 -28.48,5.84 -38.64,16.01 -10.22,10.17 -16.02,24.28 -16.02,38.65 0,14.38 5.8,28.48 16.02,38.64 10.16,10.23 24.22,16.02 38.64,16.02 14.38,0 28.43,-5.79 38.65,-16.02 10.17,-10.16 16.02,-24.26 16.02,-38.64 0,-14.37 -5.85,-28.48 -16.02,-38.65 -10.22,-10.17 -24.28,-16.01 -38.65,-16.01z"/>
   <path class="fil0" d="M1718.07 802.23c-467.58,0 -847.98,380.4 -847.98,847.98 0,467.59 380.4,847.98 847.98,847.98 467.58,0 847.98,-380.39 847.98,-847.98 0,-467.58 -380.4,-847.98 -847.98,-847.98zm0 1586.64c-407.3,0 -738.66,-331.36 -738.66,-738.66 0,-407.3 331.36,-738.65 738.66,-738.65 407.3,0 738.65,331.35 738.65,738.65 0,407.3 -331.35,738.66 -738.65,738.66z"/>
   <path class="fil0" d="M2056.29 1227.13l-270.74 270.74c-22.64,-11.19 -48.11,-17.52 -75.03,-17.52 -26.93,0 -52.39,6.33 -75.03,17.52l-121.18 -121.17c-21.34,-21.34 -55.95,-21.34 -77.31,0 -21.34,21.34 -21.34,55.96 0,77.3l121.18 121.18c-11.2,22.64 -17.52,48.1 -17.52,75.02 0,93.67 76.19,169.87 169.86,169.87 93.67,0 169.86,-76.2 169.86,-169.87 0,-26.92 -6.32,-52.38 -17.52,-75.02l262.8 -262.8 7.94 -7.95c21.34,-21.34 21.34,-55.95 0,-77.3 -21.35,-21.35 -55.95,-21.35 -77.31,0zm-345.77 483.61c-33.38,0 -60.54,-27.15 -60.54,-60.53 0,-33.37 27.16,-60.53 60.54,-60.53 33.38,0 60.54,27.16 60.54,60.53 0,33.38 -27.16,60.53 -60.54,60.53z"/>
   <path class="fil0" d="M2298.37 1596.22l-50.64 0c-30.18,0 -54.67,24.47 -54.67,54.66 0,30.19 24.49,54.66 54.67,54.66l50.64 0c30.19,0 54.67,-24.47 54.67,-54.66 0,-30.19 -24.48,-54.66 -54.67,-54.66z"/>
   <path class="fil0" d="M1170.16 1594.88l-50.64 0c-30.19,0 -54.67,24.47 -54.67,54.67 0,30.18 24.48,54.66 54.67,54.66l50.64 0c30.18,0 54.66,-24.48 54.66,-54.66 0,-30.2 -24.48,-54.67 -54.66,-54.67z"/>
   <path class="fil0" d="M1709.57 1171.06c30.18,0 54.66,-24.47 54.66,-54.67l0 -50.63c0,-30.19 -24.48,-54.67 -54.66,-54.67 -30.19,0 -54.66,24.48 -54.66,54.67l0 50.63c0,30.2 24.47,54.67 54.66,54.67z"/>
   <path class="fil0" d="M1708.22 2129.36c-30.18,0 -54.66,24.47 -54.66,54.66l0 50.64c0,30.19 24.48,54.67 54.66,54.67 30.19,0 54.67,-24.48 54.67,-54.67l0 -50.64c0,-30.19 -24.48,-54.66 -54.67,-54.66z"/>
   <path class="fil0" d="M54.67 1932.83c-14.37,0 -28.48,5.85 -38.65,16.02 -10.17,10.16 -16.01,24.26 -16.01,38.64 0,14.43 5.84,28.48 16.01,38.65 10.17,10.17 24.28,16.01 38.65,16.01 14.38,0 28.48,-5.84 38.64,-16.01 10.17,-10.17 16.02,-24.28 16.02,-38.65 0,-14.38 -5.85,-28.48 -16.02,-38.64 -10.16,-10.17 -24.26,-16.02 -38.64,-16.02z"/>
  </g>
  <rect class="fil1" width="2822.22" height="2822.22"/>
 </g>
</svg>
