<?xml version="1.0" encoding="UTF-8"?>
<!DOCTYPE svg PUBLIC "-//W3C//DTD SVG 1.1//EN" "http://www.w3.org/Graphics/SVG/1.1/DTD/svg11.dtd">
<!-- Creator: CorelDRAW -->
<svg xmlns="http://www.w3.org/2000/svg" xml:space="preserve" width="28.2222mm" height="28.2222mm" version="1.1" style="shape-rendering:geometricPrecision; text-rendering:geometricPrecision; image-rendering:optimizeQuality; fill-rule:evenodd; clip-rule:evenodd"
viewBox="0 0 2822.22 2822.22"
 xmlns:xlink="http://www.w3.org/1999/xlink"
 xmlns:xodm="http://www.corel.com/coreldraw/odm/2003">
 <defs>
  <style type="text/css">
   <![CDATA[
    .fil0 {fill:#1080AF}
   ]]>
  </style>
 </defs>
 <g id="Capa_x0020_1">
  <metadata id="CorelCorpID_0Corel-Layer"/>
  <path class="fil0" d="M278.5 446.49c0,-56.95 45.03,-97.54 108.38,-97.54l168 0c0,65.45 -2.1,110.58 47.3,164.04 81.68,88.44 304.95,87.57 304.95,-164.04l330.57 0c0,66.64 -4.34,110.68 47.21,164.13 114.4,118.6 299.61,20.92 299.61,-104.52l0 -59.61 330.57 0c0,61.62 10.15,116.05 39.4,150.27 117.07,136.9 312.85,45.98 312.85,-101.5l0 -48.77c323.93,0 276.38,-40.52 276.38,471.47l-2265.22 0 0 -373.93zm420.86 1564.89c-25.36,0 -42.06,13.61 -42.06,29.07l0 393.99c0,15.47 16.7,29.07 42.06,29.07l109.48 0c85.35,0 152.15,-39.58 152.15,-145.96l0 -160.2c0,-106.38 -66.8,-145.97 -152.15,-145.97l-109.48 0zm109.48 84.12c34.63,0 55.66,19.79 55.66,61.85l0 160.2c0,42.05 -21.03,61.84 -55.66,61.84l-55.05 0 0 -283.89 55.05 0zm354.21 338.32c0,19.79 24.12,29.69 48.24,29.69 24.12,0 48.25,-9.9 48.25,-29.69l0 -393.37c0,-20.41 -24.13,-29.07 -48.25,-29.07 -24.12,0 -48.24,8.66 -48.24,29.07l0 393.37zm335.03 29.69c15.47,0 27.83,-4.95 31.54,-17.93l21.03 -77.32 130.51 0 21.03 77.32c3.71,12.98 16.08,17.93 31.54,17.93 26.6,0 61.85,-16.69 61.85,-39.58 0,-1.85 -0.62,-4.33 -1.24,-6.8l-115.66 -377.3c-6.8,-21.64 -34.64,-32.16 -63.08,-32.16 -28.45,0 -56.29,10.52 -63.09,32.16l-115.04 377.3c-0.62,2.47 -1.24,4.95 -1.24,6.8 0,22.89 35.25,39.58 61.85,39.58zm72.36 -169.47l45.16 -165.75 45.15 165.75 -90.31 0zm527.4 89.06c-57.52,0 -76.07,-45.76 -105.15,-45.76 -23.5,0 -42.05,30.92 -42.05,51.95 0,40.82 68.03,80.41 149.05,80.41 89.69,0 154.63,-48.24 154.63,-137.31 0,-155.86 -196.07,-144.11 -196.07,-205.96 0,-19.18 17.94,-37.12 61.86,-37.12 50.72,0 62.46,23.51 84.73,23.51 27.21,0 38.35,-34.02 38.35,-50.72 0,-48.24 -90.31,-54.43 -123.08,-54.43 -77.32,0 -158.34,35.26 -158.34,128.03 0,144.73 196.06,131.75 196.06,206.59 0,29.69 -31.54,40.81 -59.99,40.81zm-334.48 361.14c0,32.06 22.21,54.19 59.61,54.19 59.46,0 83.14,-108.39 -16.26,-108.39 -16.53,0 -43.35,24.92 -43.35,54.2zm-908.65 -1002.01c-44.83,0 -88.67,-10.96 -88.67,-57.79 0,-37.85 -15.94,-51.81 -79.7,-51.81 -54.8,0 -73.73,11.96 -73.73,56.79 0,83.7 65.76,188.31 237.12,188.31 139.49,0 252.07,-61.77 252.07,-225.17l0 -18.93c0,-80.7 -42.83,-124.54 -101.62,-146.46 49.82,-22.91 76.72,-90.66 76.72,-163.4 0,-134.5 -95.65,-180.33 -222.19,-180.33 -171.36,0 -227.15,100.63 -227.15,178.34 0,47.83 8.96,62.77 80.69,62.77 57.79,0 72.74,-22.91 72.74,-56.79 0,-38.86 24.91,-50.81 73.72,-50.81 40.85,0 73.73,13.94 73.73,71.73 0,80.71 -39.85,85.69 -77.71,85.69 -33.87,0 -44.83,29.89 -44.83,59.78 0,29.89 10.96,59.78 44.83,59.78 54.8,0 95.64,12.95 95.64,79.7l0 18.93c0,64.76 -23.91,89.67 -91.66,89.67zm625.08 -317.83c-47.82,0 -92.66,8.97 -124.54,43.84l0 -89.67c0,-68.74 34.87,-99.63 93.65,-99.63 46.83,0 86.68,19.93 86.68,57.79 0,45.82 37.86,56.79 80.71,56.79 49.81,0 72.72,-14.95 72.72,-62.77 0,-82.69 -66.75,-187.31 -235.12,-187.31 -143.47,0 -254.07,63.76 -254.07,235.13l0 264.03c0,171.36 107.61,235.13 245.1,235.13 137.49,0 244.09,-63.77 244.09,-235.13l0 -8.97c0,-159.41 -95.64,-209.23 -209.22,-209.23zm-124.54 211.22c0,-65.75 34.87,-91.66 88.67,-91.66 56.79,0 89.67,27.9 89.67,100.63l0 8.96c0,68.75 -32.88,98.64 -88.67,98.64 -55.8,0 -89.67,-29.89 -89.67,-98.64l0 -17.93zm590.2 -223.18l9.97 -133.5 218.2 0c29.89,0 44.83,-33.87 44.83,-67.75 0,-33.88 -14.94,-67.75 -44.83,-67.75l-317.84 0c-16.93,0 -24.9,17.93 -27.89,47.82l-26.9 251.07c-1,10.97 -1.99,18.94 -1.99,28.9 0,37.86 13.94,60.77 59.77,60.77l151.45 0c54.79,0 88.67,31.89 88.67,97.64l0 18.94c0,64.75 -33.88,93.65 -90.67,93.65 -48.81,0 -86.68,-20.92 -86.68,-60.78 0,-31.87 -9.96,-57.79 -77.71,-57.79 -48.82,0 -77.71,14.95 -77.71,68.75 0,93.66 85.68,185.32 246.09,185.32 133.51,0 242.1,-62.77 242.1,-229.15l0 -18.94c0,-159.41 -106.61,-217.2 -244.09,-217.2l-64.77 0zm-1230.43 -1388.65l36.02 0c80.89,8.15 156.09,73.07 156.09,216.77l330.57 0 0 -54.19c0,-92.91 79.47,-157.46 164.53,-162.58l22.04 0c39.34,2.47 78.53,18.09 110.35,49.91 54.74,54.74 49.9,102.45 49.9,166.86l330.57 0c0,-149.29 78.65,-210.32 159.67,-216.77l29.07 0c45.48,3.48 88.81,23.06 116.21,52.72 49.4,53.47 47.3,98.59 47.3,164.05l195.1 0c94.52,0 189.67,91.23 189.67,189.67l0 2178.53c0,27.89 -9.26,58.32 -19.8,77.74 -22.24,40.98 -53.29,74.23 -96.17,93.5 -22.35,10.04 -44.23,18.43 -73.7,18.43l-411.86 0c-42.99,0 -67.5,-91.96 -4.09,-107.06 30.03,-7.15 382.28,6.62 427.19,-6.34 43.01,-12.42 70.04,-48.27 70.04,-103.37l0 -1652.86 -2265.22 0 0 1663.7c0,57.88 44.72,96.3 108.16,97.76 153.4,3.51 1179.49,-5.92 1206.61,1.88 55.63,15.98 45.2,106.29 -14.17,106.29l-1219.32 0c-29.5,0 -55.92,-9.73 -77.45,-20.1 -61.26,-29.53 -112.22,-98.94 -112.22,-169.57l0 -2178.53c0,-51.87 31.15,-104.79 58.01,-131.66 78.76,-78.75 197.32,-58.01 326.76,-58.01l0 -48.77c0,-96.02 77.71,-159.7 160.14,-168zm1313.88 368.51c0,-70.38 -12.57,-207.18 17.14,-237.56 24.18,-24.71 57.07,-29.54 87.09,-7.57 11.76,8.6 20.41,20.36 20.41,39.2l0 216.77c0,71.95 -124.64,69.52 -124.64,-10.84zm-1300.61 65.03c-15.83,0 -59.61,-16.02 -59.61,-54.19l0 -216.77c0,-17.7 7.05,-28.1 17.36,-36.83 44.17,-37.41 107.28,-6.26 107.28,53.09 0,69.59 12.41,201.93 -17.14,232.14 -8.81,8.99 -32.77,22.56 -47.89,22.56zm617.79 -75.87c0,-63.51 -11.24,-193.38 17.4,-226.47 25.09,-29 70.17,-29 95.26,0 28.64,33.09 17.4,162.96 17.4,226.47 0,99.46 -130.06,99.46 -130.06,0z"/>
 </g>
</svg>
