<?xml version="1.0" encoding="UTF-8"?>
<!DOCTYPE svg PUBLIC "-//W3C//DTD SVG 1.1//EN" "http://www.w3.org/Graphics/SVG/1.1/DTD/svg11.dtd">
<!-- Creator: CorelDRAW -->
<svg xmlns="http://www.w3.org/2000/svg" xml:space="preserve" width="15.349mm" height="18.0175mm" version="1.1" style="shape-rendering:geometricPrecision; text-rendering:geometricPrecision; image-rendering:optimizeQuality; fill-rule:evenodd; clip-rule:evenodd"
viewBox="0 0 1525.54 1790.76"
 xmlns:xlink="http://www.w3.org/1999/xlink"
 xmlns:xodm="http://www.corel.com/coreldraw/odm/2003">
 <defs>
  <style type="text/css">
   <![CDATA[
    .fil0 {fill:white}
   ]]>
  </style>
 </defs>
 <g id="Capa_x0020_1">
  <metadata id="CorelCorpID_0Corel-Layer"/>
  <g id="_2521791994240">
   <path class="fil0" d="M318.61 919.86c0,-80.18 5.75,-141.6 43.13,-215.7 59.36,-117.67 155.97,-206.05 286.33,-238.3 125.34,-31.02 268.04,-11.97 372.59,66.71 82.85,62.36 146.18,145.14 171.65,248.07 25.6,103.44 19.81,210.26 -28.45,305.93 -30.77,61.02 -42.12,77.67 -87.16,122.71 -9.18,9.17 -16.75,17.76 -26.25,26.21 -9.18,8.16 -19.63,15.03 -29.8,22.67 -35.19,26.5 -99.37,55.89 -143.13,66.72 -125.34,31.02 -268.05,11.97 -372.59,-66.72l-104.94 -104.93c-15.8,-20.99 -25.86,-42.07 -38.27,-66.66 -21.73,-43.09 -43.13,-116.74 -43.13,-166.72zm-318.29 -412.72c0,227.5 -4.8,374.79 50.35,596.71 35.74,143.83 90.54,237.53 172.49,348.64 61.12,82.88 189.98,188.22 284.3,236.86 25.4,13.1 48.57,25.93 75.77,39.64 52.44,26.43 132.95,61.77 193.56,61.77 24.49,0 145.05,-51.63 167.94,-62.9 52.63,-25.92 99.85,-52.69 146.84,-83.99 222.21,-148.06 359.69,-373.42 404.77,-634.02 32.69,-188.98 28.93,-311.13 28.93,-502.69 0,-12.6 0.5,-26.11 0.12,-38.58 -0.93,-31.25 -5.83,-76.94 -15.32,-103.6 -19.97,-56.21 -66.12,-95.26 -120.69,-113.65 -43.03,-14.5 -155.99,-12.1 -265.9,-48.88l-111.25 -46.14c-51.3,-27.56 -95.67,-60.8 -139.98,-97.87 -45.21,-37.81 -51.63,-58.42 -119.94,-58.42 -55.32,0 -110.5,79.49 -188.63,126.15 -15.67,9.36 -31.1,19.38 -48.06,28.89l-110.88 46.51c-145.85,48.65 -238.35,21.46 -320.36,74.86 -69.04,44.94 -79.96,112.61 -84.06,188.74 -0.72,13.13 0.01,28.6 0.01,41.99z"/>
   <path class="fil0" d="M538.96 944.34c0,-37.96 28.56,-48.97 59.46,-48.97 23.63,0 76.51,58.86 83.94,69.96 14.29,-9.58 120.98,-119.24 142.53,-140.79 31.83,-31.83 97.24,-124.17 143.74,-61.54 36.8,49.6 -28.99,93.69 -89.53,154.23 -37.58,37.58 -72.59,72.59 -110.17,110.17 -89.5,89.5 -85.33,84.3 -185.37,-15.74 -17.1,-17.1 -44.59,-35.79 -44.59,-67.33zm-118.92 -48.97c0,229.38 236.59,418.24 482.78,311.4 21.7,-9.42 34.66,-16.9 53.78,-30.15 38.26,-26.54 40.74,-31.77 67.62,-61.79 81.54,-91.05 106.19,-242.34 49.87,-359.36 -17.54,-36.48 -40.18,-73.68 -68.95,-102.43l-46.49 -37.45c-23.92,-16.94 -30.6,-19.31 -55.94,-31.51 -124.79,-60.04 -285.7,-27.61 -382.26,68.96 -8.16,8.16 -11,13.89 -19.07,22.9 -48.47,54.13 -81.34,141.88 -81.34,219.44z"/>
  </g>
 </g>
</svg>
