<?xml version="1.0" encoding="UTF-8"?>
<!DOCTYPE svg PUBLIC "-//W3C//DTD SVG 1.1//EN" "http://www.w3.org/Graphics/SVG/1.1/DTD/svg11.dtd">
<!-- Creator: CorelDRAW -->
<svg xmlns="http://www.w3.org/2000/svg" xml:space="preserve" width="16.684mm" height="16.7094mm" version="1.1" style="shape-rendering:geometricPrecision; text-rendering:geometricPrecision; image-rendering:optimizeQuality; fill-rule:evenodd; clip-rule:evenodd"
viewBox="0 0 159.18 159.42"
 xmlns:xlink="http://www.w3.org/1999/xlink"
 xmlns:xodm="http://www.corel.com/coreldraw/odm/2003"
 data-name="Layer 1">
 <defs>
  <style type="text/css">
   <![CDATA[
    .fil0 {fill:white;fill-rule:nonzero}
   ]]>
  </style>
 </defs>
 <g id="Capa_x0020_1">
  <metadata id="CorelCorpID_0Corel-Layer"/>
  <g id="_2517882131152">
   <path class="fil0" d="M36.57 11.59l-7.09 -11.22c-11.45,6.71 -21.5,15.67 -29.49,26.27l11.05 7.37c6.95,-9.06 15.65,-16.7 25.53,-22.43l-0 0.01z"/>
   <path class="fil0" d="M148.13 34l11.05 -7.37c-7.98,-10.6 -18.03,-19.55 -29.48,-26.27l-7.09 11.22c9.87,5.72 18.57,13.36 25.52,22.42l0 -0z"/>
   <path class="fil0" d="M86.23 13.62l0 -13.62 -13.28 0 0 13.62c-37.59,3.36 -66.42,34.87 -66.42,72.61 0,18.42 6.98,36.15 19.51,49.64l-12.81 14.07 9.83 8.94 12.84 -14.1c12.58,9.49 27.92,14.64 43.68,14.64 15.75,0 31.1,-5.14 43.67,-14.63l12.84 14.12 9.83 -8.94 -12.8 -14.07c12.56,-13.48 19.53,-31.24 19.53,-49.66 0,-37.75 -28.84,-69.27 -66.43,-72.62l0 0zm8.59 90.7l-21.87 -21.87 0 -35.96 13.28 0 0 30.46 17.98 17.98 -9.39 9.39z"/>
  </g>
 </g>
</svg>
