<?xml version="1.0" encoding="UTF-8"?>
<!DOCTYPE svg PUBLIC "-//W3C//DTD SVG 1.1//EN" "http://www.w3.org/Graphics/SVG/1.1/DTD/svg11.dtd">
<!-- Creator: CorelDRAW -->
<svg xmlns="http://www.w3.org/2000/svg" xml:space="preserve" width="16.7449mm" height="16.7449mm" version="1.1" style="shape-rendering:geometricPrecision; text-rendering:geometricPrecision; image-rendering:optimizeQuality; fill-rule:evenodd; clip-rule:evenodd"
viewBox="0 0 131.85 131.85"
 xmlns:xlink="http://www.w3.org/1999/xlink"
 xmlns:xodm="http://www.corel.com/coreldraw/odm/2003">
 <defs>
  <style type="text/css">
   <![CDATA[
    .fil0 {fill:white}
   ]]>
  </style>
 </defs>
 <g id="Capa_x0020_1">
  <metadata id="CorelCorpID_0Corel-Layer"/>
  <path class="fil0" d="M55.62 50.73c0,4.75 1.66,8 5.66,10.05 3.27,1.68 6.78,0.41 11.68,2.49 14.37,6.09 15.87,26.32 0.7,33.82 -0.76,0.37 -2.46,0.8 -2.99,1.13 -1.48,0.89 0.13,4.06 -1.13,6.59 -1.4,2.81 -7.84,4.25 -7.73,-3.6 0.06,-4.14 -0.13,-2.38 -3.78,-4.2 -9.96,-4.97 -12.52,-16.7 -9.25,-19.64 1.52,-1.37 4.18,-1.38 5.63,0.08 1.55,1.55 0.96,4.13 1.69,6.29 1.11,3.27 4.76,6.92 9.05,6.92l1.55 0c4.75,0 9.53,-4.78 9.53,-9.53 0,-4.75 -1.66,-8 -5.66,-10.05 -3.27,-1.68 -6.78,-0.41 -11.68,-2.49 -11.46,-4.86 -15.11,-19.17 -7.33,-28.6 1.39,-1.69 2.29,-2.57 4.16,-3.82 0.92,-0.61 1.52,-0.92 2.47,-1.39 3.52,-1.74 3.65,0.08 3.6,-4.38 -0.05,-4.46 2.53,-6.49 5.75,-5.23 4.38,1.72 1.06,7.51 3.28,8.57 0.94,0.45 1.88,0.58 2.99,1.13 5.21,2.6 9.37,7.43 10.28,13.41 0.28,1.83 0.58,3.56 -0.16,5.05 -0.14,0.29 -0.17,0.33 -0.41,0.62 -1.51,1.86 -4.37,2.22 -6.11,0.48 -1.55,-1.55 -0.96,-4.13 -1.69,-6.29 -1.11,-3.27 -4.76,-6.91 -9.05,-6.91l-1.55 0c-4.75,0 -9.53,4.78 -9.53,9.53zm-55.62 12.62c0,11.56 1.35,21.01 6.01,30.3 0.92,1.84 1.74,3.61 2.74,5.25 4.57,7.57 4.17,5.95 8.4,11.42 4.66,6.02 13.93,11.92 20.71,15.34 6.01,3.03 16.73,6.18 25.75,6.18l4.64 0c8.89,0 19.59,-3.07 25.58,-6.09 3.75,-1.89 6.82,-3.49 10.1,-5.86 10.14,-7.34 16.13,-14.79 21.74,-25.9 3.03,-6.01 6.18,-16.73 6.18,-25.75l0 -4.64c0,-16.45 -8.14,-33.25 -19.25,-44.36 -2.78,-2.78 -5.44,-4.94 -8.67,-7.3 -9.25,-6.73 -23.2,-11.95 -35.94,-11.95 -11.33,0 -20.86,1.54 -29.79,6.01 -1.84,0.92 -3.61,1.74 -5.25,2.74 -7.35,4.43 -11.59,7.97 -17.3,14.37 -8.71,9.78 -15.65,26.43 -15.65,40.23z"/>
 </g>
</svg>
